%TF.GenerationSoftware,KiCad,Pcbnew,5.1.7-a382d34a8~88~ubuntu18.04.1*%
%TF.CreationDate,2021-03-14T12:27:23+01:00*%
%TF.ProjectId,bleskomat-v2.1.0,626c6573-6b6f-46d6-9174-2d76322e312e,test*%
%TF.SameCoordinates,Original*%
%TF.FileFunction,Legend,Bot*%
%TF.FilePolarity,Positive*%
%FSLAX46Y46*%
G04 Gerber Fmt 4.6, Leading zero omitted, Abs format (unit mm)*
G04 Created by KiCad (PCBNEW 5.1.7-a382d34a8~88~ubuntu18.04.1) date 2021-03-14 12:27:23*
%MOMM*%
%LPD*%
G01*
G04 APERTURE LIST*
%ADD10C,0.300000*%
%ADD11C,0.152400*%
G04 APERTURE END LIST*
D10*
X138468571Y-75584857D02*
X138254285Y-75656285D01*
X138182857Y-75727714D01*
X138111428Y-75870571D01*
X138111428Y-76084857D01*
X138182857Y-76227714D01*
X138254285Y-76299142D01*
X138397142Y-76370571D01*
X138968571Y-76370571D01*
X138968571Y-74870571D01*
X138468571Y-74870571D01*
X138325714Y-74942000D01*
X138254285Y-75013428D01*
X138182857Y-75156285D01*
X138182857Y-75299142D01*
X138254285Y-75442000D01*
X138325714Y-75513428D01*
X138468571Y-75584857D01*
X138968571Y-75584857D01*
X137254285Y-76370571D02*
X137397142Y-76299142D01*
X137468571Y-76156285D01*
X137468571Y-74870571D01*
X136111428Y-76299142D02*
X136254285Y-76370571D01*
X136540000Y-76370571D01*
X136682857Y-76299142D01*
X136754285Y-76156285D01*
X136754285Y-75584857D01*
X136682857Y-75442000D01*
X136540000Y-75370571D01*
X136254285Y-75370571D01*
X136111428Y-75442000D01*
X136040000Y-75584857D01*
X136040000Y-75727714D01*
X136754285Y-75870571D01*
X135468571Y-76299142D02*
X135325714Y-76370571D01*
X135040000Y-76370571D01*
X134897142Y-76299142D01*
X134825714Y-76156285D01*
X134825714Y-76084857D01*
X134897142Y-75942000D01*
X135040000Y-75870571D01*
X135254285Y-75870571D01*
X135397142Y-75799142D01*
X135468571Y-75656285D01*
X135468571Y-75584857D01*
X135397142Y-75442000D01*
X135254285Y-75370571D01*
X135040000Y-75370571D01*
X134897142Y-75442000D01*
X134182857Y-76370571D02*
X134182857Y-74870571D01*
X134040000Y-75799142D02*
X133611428Y-76370571D01*
X133611428Y-75370571D02*
X134182857Y-75942000D01*
X132754285Y-76370571D02*
X132897142Y-76299142D01*
X132968571Y-76227714D01*
X133040000Y-76084857D01*
X133040000Y-75656285D01*
X132968571Y-75513428D01*
X132897142Y-75442000D01*
X132754285Y-75370571D01*
X132540000Y-75370571D01*
X132397142Y-75442000D01*
X132325714Y-75513428D01*
X132254285Y-75656285D01*
X132254285Y-76084857D01*
X132325714Y-76227714D01*
X132397142Y-76299142D01*
X132540000Y-76370571D01*
X132754285Y-76370571D01*
X131611428Y-76370571D02*
X131611428Y-75370571D01*
X131611428Y-75513428D02*
X131540000Y-75442000D01*
X131397142Y-75370571D01*
X131182857Y-75370571D01*
X131040000Y-75442000D01*
X130968571Y-75584857D01*
X130968571Y-76370571D01*
X130968571Y-75584857D02*
X130897142Y-75442000D01*
X130754285Y-75370571D01*
X130540000Y-75370571D01*
X130397142Y-75442000D01*
X130325714Y-75584857D01*
X130325714Y-76370571D01*
X128968571Y-76370571D02*
X128968571Y-75584857D01*
X129040000Y-75442000D01*
X129182857Y-75370571D01*
X129468571Y-75370571D01*
X129611428Y-75442000D01*
X128968571Y-76299142D02*
X129111428Y-76370571D01*
X129468571Y-76370571D01*
X129611428Y-76299142D01*
X129682857Y-76156285D01*
X129682857Y-76013428D01*
X129611428Y-75870571D01*
X129468571Y-75799142D01*
X129111428Y-75799142D01*
X128968571Y-75727714D01*
X128468571Y-75370571D02*
X127897142Y-75370571D01*
X128254285Y-74870571D02*
X128254285Y-76156285D01*
X128182857Y-76299142D01*
X128040000Y-76370571D01*
X127897142Y-76370571D01*
X126397142Y-75370571D02*
X126040000Y-76370571D01*
X125682857Y-75370571D01*
X125182857Y-75013428D02*
X125111428Y-74942000D01*
X124968571Y-74870571D01*
X124611428Y-74870571D01*
X124468571Y-74942000D01*
X124397142Y-75013428D01*
X124325714Y-75156285D01*
X124325714Y-75299142D01*
X124397142Y-75513428D01*
X125254285Y-76370571D01*
X124325714Y-76370571D01*
X123682857Y-76227714D02*
X123611428Y-76299142D01*
X123682857Y-76370571D01*
X123754285Y-76299142D01*
X123682857Y-76227714D01*
X123682857Y-76370571D01*
X122182857Y-76370571D02*
X123040000Y-76370571D01*
X122611428Y-76370571D02*
X122611428Y-74870571D01*
X122754285Y-75084857D01*
X122897142Y-75227714D01*
X123040000Y-75299142D01*
X121540000Y-76227714D02*
X121468571Y-76299142D01*
X121540000Y-76370571D01*
X121611428Y-76299142D01*
X121540000Y-76227714D01*
X121540000Y-76370571D01*
X120540000Y-74870571D02*
X120397142Y-74870571D01*
X120254285Y-74942000D01*
X120182857Y-75013428D01*
X120111428Y-75156285D01*
X120040000Y-75442000D01*
X120040000Y-75799142D01*
X120111428Y-76084857D01*
X120182857Y-76227714D01*
X120254285Y-76299142D01*
X120397142Y-76370571D01*
X120540000Y-76370571D01*
X120682857Y-76299142D01*
X120754285Y-76227714D01*
X120825714Y-76084857D01*
X120897142Y-75799142D01*
X120897142Y-75442000D01*
X120825714Y-75156285D01*
X120754285Y-75013428D01*
X120682857Y-74942000D01*
X120540000Y-74870571D01*
D11*
%TO.C,U1*%
X101546201Y-95041304D02*
G75*
G03*
X101546201Y-95041304I-381000J0D01*
G01*
%TO.C,J6*%
X126365000Y-117306344D02*
G75*
G03*
X126365000Y-117306344I-381000J0D01*
G01*
%TO.C,J5*%
X100355400Y-85280701D02*
G75*
G03*
X100355400Y-85280701I-381000J0D01*
G01*
%TO.C,J4*%
X132108306Y-96520000D02*
G75*
G03*
X132108306Y-96520000I-381000J0D01*
G01*
%TO.C,J3*%
X134493000Y-104902000D02*
G75*
G03*
X134493000Y-104902000I-381000J0D01*
G01*
%TO.C,J1*%
X127381000Y-120178901D02*
G75*
G03*
X127381000Y-120178901I-381000J0D01*
G01*
%TD*%
M02*
