M48
; DRILL file {KiCad 5.1.7-a382d34a8~88~ubuntu18.04.1} date Sun Mar 14 12:27:36 2021
; FORMAT={-:-/ absolute / inch / decimal}
; #@! TF.CreationDate,2021-03-14T12:27:36+01:00
; #@! TF.GenerationSoftware,Kicad,Pcbnew,5.1.7-a382d34a8~88~ubuntu18.04.1
; #@! TF.FileFunction,Plated,1,2,PTH
FMAT,2
INCH
T1C0.0157
T2C0.0340
T3C0.0350
T4C0.0390
T5C0.0394
T6C0.0410
T7C0.0430
%
G90
G05
T1
X3.96Y-3.85
X4.0866Y-3.4866
X4.1Y-3.59
X4.1Y-4.12
X4.12Y-3.67
X4.2556Y-3.8844
X4.2599Y-3.4899
X4.3465Y-3.4865
X4.47Y-4.06
X4.54Y-4.26
X4.57Y-3.29
X4.59Y-4.14
X4.59Y-4.19
X4.6Y-4.06
X4.6Y-4.34
X4.79Y-4.24
X4.8Y-3.79
X4.88Y-3.4
X4.91Y-4.27
X4.91Y-4.27
X5.26Y-3.89
T2
X4.96Y-3.47
X5.42Y-3.47
T3
X4.0731Y-4.63
X4.0731Y-4.7599
X4.1716Y-4.63
X4.1716Y-4.7599
X4.27Y-4.63
X4.27Y-4.7599
T4
X5.0Y-4.0679
X5.0Y-4.1663
X5.0Y-4.2647
X5.0Y-4.3631
X5.0Y-4.4616
X5.0Y-4.56
X4.96Y-4.79
X4.96Y-4.8884
X4.96Y-4.9869
X4.96Y-5.0853
X4.96Y-5.1837
X4.69Y-3.08
X4.7884Y-3.08
X4.8869Y-3.08
X4.9853Y-3.08
X5.0837Y-3.08
X5.1821Y-3.08
X5.2806Y-3.08
X5.379Y-3.08
T5
X4.2486Y-4.95
X4.2486Y-5.05
X4.2486Y-5.15
T6
X4.9616Y-3.8
X5.06Y-3.8
T7
X5.28Y-4.37
X5.28Y-4.47
X5.28Y-4.57
X5.28Y-4.67
X5.28Y-4.77
X5.28Y-4.87
X5.28Y-4.97
X5.28Y-5.07
X5.38Y-4.37
X5.38Y-4.47
X5.38Y-4.57
X5.38Y-4.67
X5.38Y-4.77
X5.38Y-4.87
X5.38Y-4.97
X5.38Y-5.07
T5
G00X4.415Y-5.0708
M15
G01X4.415Y-5.1692
M16
G05
G00X4.5508Y-5.0019
M15
G01X4.6492Y-5.0019
M16
G05
G00X4.5508Y-5.2381
M15
G01X4.6492Y-5.2381
M16
G05
T0
M30
