%TF.GenerationSoftware,KiCad,Pcbnew,5.1.7-a382d34a8~88~ubuntu18.04.1*%
%TF.CreationDate,2021-03-14T12:27:23+01:00*%
%TF.ProjectId,bleskomat-v2.1.0,626c6573-6b6f-46d6-9174-2d76322e312e,test*%
%TF.SameCoordinates,Original*%
%TF.FileFunction,Soldermask,Bot*%
%TF.FilePolarity,Negative*%
%FSLAX46Y46*%
G04 Gerber Fmt 4.6, Leading zero omitted, Abs format (unit mm)*
G04 Created by KiCad (PCBNEW 5.1.7-a382d34a8~88~ubuntu18.04.1) date 2021-03-14 12:27:23*
%MOMM*%
%LPD*%
G01*
G04 APERTURE LIST*
%ADD10C,1.397102*%
%ADD11C,1.371702*%
%ADD12C,1.508102*%
%ADD13C,1.498702*%
%ADD14C,1.549502*%
%ADD15C,1.600302*%
G04 APERTURE END LIST*
%TO.C,12V DC*%
G36*
G01*
X114589949Y-128048000D02*
X114589949Y-126048000D01*
G75*
G02*
X114590000Y-126047949I51J0D01*
G01*
X119090000Y-126047949D01*
G75*
G02*
X119090051Y-126048000I0J-51D01*
G01*
X119090051Y-128048000D01*
G75*
G02*
X119090000Y-128048051I-51J0D01*
G01*
X114590000Y-128048051D01*
G75*
G02*
X114589949Y-128048000I0J51D01*
G01*
G37*
G36*
G01*
X114589949Y-134048000D02*
X114589949Y-132048000D01*
G75*
G02*
X114590000Y-132047949I51J0D01*
G01*
X119090000Y-132047949D01*
G75*
G02*
X119090051Y-132048000I0J-51D01*
G01*
X119090051Y-134048000D01*
G75*
G02*
X119090000Y-134048051I-51J0D01*
G01*
X114590000Y-134048051D01*
G75*
G02*
X114589949Y-134048000I0J51D01*
G01*
G37*
G36*
G01*
X111139949Y-132298000D02*
X111139949Y-127798000D01*
G75*
G02*
X111140000Y-127797949I51J0D01*
G01*
X113140000Y-127797949D01*
G75*
G02*
X113140051Y-127798000I0J-51D01*
G01*
X113140051Y-132298000D01*
G75*
G02*
X113140000Y-132298051I-51J0D01*
G01*
X111140000Y-132298051D01*
G75*
G02*
X111139949Y-132298000I0J51D01*
G01*
G37*
%TD*%
D10*
%TO.C,U2*%
X108458000Y-120902000D03*
X105958000Y-120902000D03*
X103458000Y-120902000D03*
X103458000Y-117602001D03*
X105958000Y-117602001D03*
X108458000Y-117602001D03*
%TD*%
D11*
%TO.C,R1*%
X137668000Y-88138000D03*
G36*
G01*
X125298149Y-88823801D02*
X125298149Y-87452199D01*
G75*
G02*
X125298199Y-87452149I50J0D01*
G01*
X126669801Y-87452149D01*
G75*
G02*
X126669851Y-87452199I0J-50D01*
G01*
X126669851Y-88823801D01*
G75*
G02*
X126669801Y-88823851I-50J0D01*
G01*
X125298199Y-88823851D01*
G75*
G02*
X125298149Y-88823801I0J50D01*
G01*
G37*
%TD*%
D12*
%TO.C,PS1*%
X107914000Y-125730000D03*
X107914000Y-128270000D03*
G36*
G01*
X108668000Y-131564051D02*
X107160000Y-131564051D01*
G75*
G02*
X107159949Y-131564000I0J51D01*
G01*
X107159949Y-130056000D01*
G75*
G02*
X107160000Y-130055949I51J0D01*
G01*
X108668000Y-130055949D01*
G75*
G02*
X108668051Y-130056000I0J-51D01*
G01*
X108668051Y-131564000D01*
G75*
G02*
X108668000Y-131564051I-51J0D01*
G01*
G37*
%TD*%
D13*
%TO.C,J6*%
X125984000Y-131666488D03*
X125984000Y-129166366D03*
X125984000Y-126666244D03*
X125984000Y-124166122D03*
X125984000Y-121666000D03*
%TD*%
D14*
%TO.C,J4*%
X126024000Y-96520000D03*
X128524000Y-96520000D03*
%TD*%
D15*
%TO.C,J3*%
X136652000Y-128778000D03*
X134112000Y-128778000D03*
X136652000Y-126238000D03*
X134112000Y-126238000D03*
X136652000Y-123698000D03*
X134112000Y-123698000D03*
X136652000Y-121158000D03*
X134112000Y-121158000D03*
X136652000Y-118618000D03*
X134112000Y-118618000D03*
X136652000Y-116078000D03*
X134112000Y-116078000D03*
X136652000Y-113538000D03*
X134112000Y-113538000D03*
X136652000Y-110998000D03*
X134112000Y-110998000D03*
%TD*%
D13*
%TO.C,J2*%
X136626000Y-78232000D03*
X134126000Y-78232000D03*
X131626000Y-78232000D03*
X129126000Y-78232000D03*
X126626000Y-78232000D03*
X124126000Y-78232000D03*
X121626000Y-78232000D03*
X119126000Y-78232000D03*
%TD*%
%TO.C,J1*%
X127000000Y-103324002D03*
X127000000Y-105824000D03*
X127000000Y-108324000D03*
X127000000Y-110824000D03*
X127000000Y-113324000D03*
X127000000Y-115824000D03*
%TD*%
M02*
