%TF.GenerationSoftware,KiCad,Pcbnew,5.1.7-a382d34a8~88~ubuntu18.04.1*%
%TF.CreationDate,2021-03-14T12:27:23+01:00*%
%TF.ProjectId,bleskomat-v2.1.0,626c6573-6b6f-46d6-9174-2d76322e312e,test*%
%TF.SameCoordinates,Original*%
%TF.FileFunction,Copper,L2,Bot*%
%TF.FilePolarity,Positive*%
%FSLAX46Y46*%
G04 Gerber Fmt 4.6, Leading zero omitted, Abs format (unit mm)*
G04 Created by KiCad (PCBNEW 5.1.7-a382d34a8~88~ubuntu18.04.1) date 2021-03-14 12:27:23*
%MOMM*%
%LPD*%
G01*
G04 APERTURE LIST*
%TA.AperFunction,ComponentPad*%
%ADD10R,4.500000X2.000000*%
%TD*%
%TA.AperFunction,ComponentPad*%
%ADD11R,2.000000X4.500000*%
%TD*%
%TA.AperFunction,ComponentPad*%
%ADD12C,1.397000*%
%TD*%
%TA.AperFunction,ComponentPad*%
%ADD13C,1.371600*%
%TD*%
%TA.AperFunction,ComponentPad*%
%ADD14R,1.371600X1.371600*%
%TD*%
%TA.AperFunction,ComponentPad*%
%ADD15C,1.508000*%
%TD*%
%TA.AperFunction,ComponentPad*%
%ADD16R,1.508000X1.508000*%
%TD*%
%TA.AperFunction,ComponentPad*%
%ADD17C,1.498600*%
%TD*%
%TA.AperFunction,ComponentPad*%
%ADD18C,1.549400*%
%TD*%
%TA.AperFunction,ComponentPad*%
%ADD19C,1.600200*%
%TD*%
%TA.AperFunction,ViaPad*%
%ADD20C,0.762000*%
%TD*%
%TA.AperFunction,Conductor*%
%ADD21C,0.254000*%
%TD*%
%TA.AperFunction,Conductor*%
%ADD22C,0.762000*%
%TD*%
G04 APERTURE END LIST*
D10*
%TO.P,12V DC,2*%
%TO.N,GND*%
X116840000Y-127048000D03*
%TO.P,12V DC,1*%
%TO.N,Net-(J3-Pad15)*%
X116840000Y-133048000D03*
D11*
%TO.P,12V DC,3*%
%TO.N,N/C*%
X112140000Y-130048000D03*
%TD*%
D12*
%TO.P,U2,6*%
%TO.N,N/C*%
X108458000Y-120902000D03*
%TO.P,U2,5*%
X105958000Y-120902000D03*
%TO.P,U2,4*%
X103458000Y-120902000D03*
%TO.P,U2,3*%
%TO.N,Net-(PS1-Pad3)*%
X103458000Y-117602001D03*
%TO.P,U2,2*%
%TO.N,Net-(D1-Pad2)*%
X105958000Y-117602001D03*
%TO.P,U2,1*%
%TO.N,Net-(J1-Pad2)*%
X108458000Y-117602001D03*
%TD*%
D13*
%TO.P,R1,2*%
%TO.N,GND*%
X137668000Y-88138000D03*
D14*
%TO.P,R1,1*%
%TO.N,Net-(J4-Pad2)*%
X125984000Y-88138000D03*
%TD*%
D15*
%TO.P,PS1,3*%
%TO.N,Net-(PS1-Pad3)*%
X107914000Y-125730000D03*
%TO.P,PS1,2*%
%TO.N,GND*%
X107914000Y-128270000D03*
D16*
%TO.P,PS1,1*%
%TO.N,Net-(J3-Pad15)*%
X107914000Y-130810000D03*
%TD*%
D17*
%TO.P,J6,5*%
%TO.N,Net-(J3-Pad15)*%
X125984000Y-131666488D03*
%TO.P,J6,4*%
%TO.N,Net-(J6-Pad4)*%
X125984000Y-129166366D03*
%TO.P,J6,3*%
%TO.N,GND*%
X125984000Y-126666244D03*
%TO.P,J6,2*%
%TO.N,N/C*%
X125984000Y-124166122D03*
%TO.P,J6,1*%
%TO.N,Net-(J6-Pad1)*%
X125984000Y-121666000D03*
%TD*%
D18*
%TO.P,J4,2*%
%TO.N,Net-(J4-Pad2)*%
X126024000Y-96520000D03*
%TO.P,J4,1*%
%TO.N,Net-(D1-Pad2)*%
X128524000Y-96520000D03*
%TD*%
D19*
%TO.P,J3,16*%
%TO.N,GND*%
X136652000Y-128778000D03*
%TO.P,J3,15*%
%TO.N,Net-(J3-Pad15)*%
X134112000Y-128778000D03*
%TO.P,J3,14*%
%TO.N,N/C*%
X136652000Y-126238000D03*
%TO.P,J3,13*%
X134112000Y-126238000D03*
%TO.P,J3,12*%
X136652000Y-123698000D03*
%TO.P,J3,11*%
X134112000Y-123698000D03*
%TO.P,J3,10*%
X136652000Y-121158000D03*
%TO.P,J3,9*%
X134112000Y-121158000D03*
%TO.P,J3,8*%
X136652000Y-118618000D03*
%TO.P,J3,7*%
X134112000Y-118618000D03*
%TO.P,J3,6*%
X136652000Y-116078000D03*
%TO.P,J3,5*%
X134112000Y-116078000D03*
%TO.P,J3,4*%
X136652000Y-113538000D03*
%TO.P,J3,3*%
X134112000Y-113538000D03*
%TO.P,J3,2*%
%TO.N,Net-(J3-Pad2)*%
X136652000Y-110998000D03*
%TO.P,J3,1*%
%TO.N,Net-(J1-Pad4)*%
X134112000Y-110998000D03*
%TD*%
D17*
%TO.P,J2,8*%
%TO.N,Net-(D1-Pad2)*%
X136626000Y-78232000D03*
%TO.P,J2,7*%
%TO.N,GND*%
X134126000Y-78232000D03*
%TO.P,J2,6*%
%TO.N,Net-(J2-Pad6)*%
X131626000Y-78232000D03*
%TO.P,J2,5*%
%TO.N,Net-(J2-Pad5)*%
X129126000Y-78232000D03*
%TO.P,J2,4*%
%TO.N,Net-(J2-Pad4)*%
X126626000Y-78232000D03*
%TO.P,J2,3*%
%TO.N,Net-(J2-Pad3)*%
X124126000Y-78232000D03*
%TO.P,J2,2*%
%TO.N,Net-(J2-Pad2)*%
X121626000Y-78232000D03*
%TO.P,J2,1*%
%TO.N,Net-(J2-Pad1)*%
X119126000Y-78232000D03*
%TD*%
%TO.P,J1,6*%
%TO.N,Net-(J1-Pad6)*%
X127000000Y-103324002D03*
%TO.P,J1,5*%
%TO.N,Net-(J1-Pad5)*%
X127000000Y-105824000D03*
%TO.P,J1,4*%
%TO.N,Net-(J1-Pad4)*%
X127000000Y-108324000D03*
%TO.P,J1,3*%
%TO.N,GND*%
X127000000Y-110824000D03*
%TO.P,J1,2*%
%TO.N,Net-(J1-Pad2)*%
X127000000Y-113324000D03*
%TO.P,J1,1*%
%TO.N,Net-(J1-Pad1)*%
X127000000Y-115824000D03*
%TD*%
D20*
%TO.N,Net-(J1-Pad1)*%
X100584000Y-97790000D03*
%TO.N,Net-(J1-Pad5)*%
X116840000Y-110236000D03*
%TO.N,Net-(J1-Pad6)*%
X133604000Y-98806000D03*
%TO.N,Net-(J2-Pad5)*%
X123952000Y-86360000D03*
%TO.N,Net-(J2-Pad4)*%
X113538000Y-103124000D03*
X115316000Y-108204000D03*
%TO.N,Net-(J3-Pad2)*%
X124714000Y-108458000D03*
X124714000Y-108458000D03*
X121666000Y-107696000D03*
%TO.N,Net-(J4-Pad2)*%
X104140000Y-104648000D03*
%TO.N,Net-(J5-Pad1)*%
X103800712Y-88560712D03*
X116586000Y-106426000D03*
%TO.N,Net-(J5-Pad2)*%
X116078000Y-83566000D03*
X121920000Y-96266000D03*
%TO.N,Net-(J5-Pad5)*%
X108200711Y-88642711D03*
X116586000Y-105156000D03*
%TO.N,GND*%
X108092210Y-98663790D03*
X104140000Y-91186000D03*
%TO.N,Net-(D1-Pad2)*%
X104648000Y-93218000D03*
%TO.N,Net-(J5-Pad7)*%
X110400711Y-88556711D03*
X116840000Y-103124000D03*
%TD*%
D21*
%TO.N,Net-(J1-Pad1)*%
X127000000Y-115824000D02*
X123698000Y-119126000D01*
X123698000Y-119126000D02*
X102108000Y-119126000D01*
X101854000Y-119126000D02*
X100584000Y-117856000D01*
X102108000Y-119126000D02*
X101854000Y-119126000D01*
X100584000Y-117856000D02*
X100584000Y-97790000D01*
X100584000Y-97790000D02*
X100584000Y-97790000D01*
%TO.N,Net-(J1-Pad2)*%
X127000000Y-113324000D02*
X124420000Y-113324000D01*
X120141999Y-117602001D02*
X108458000Y-117602001D01*
X124420000Y-113324000D02*
X120141999Y-117602001D01*
%TO.N,Net-(J1-Pad5)*%
X127000000Y-105824000D02*
X122014000Y-105824000D01*
X122014000Y-105824000D02*
X121252000Y-105824000D01*
X121252000Y-105824000D02*
X116840000Y-110236000D01*
X116840000Y-110236000D02*
X116840000Y-110236000D01*
%TO.N,Net-(J1-Pad6)*%
X127000000Y-103324002D02*
X129085998Y-103324002D01*
X129085998Y-103324002D02*
X133604000Y-98806000D01*
X133604000Y-98806000D02*
X133604000Y-98806000D01*
%TO.N,Net-(J2-Pad5)*%
X129126000Y-78232000D02*
X129126000Y-81186000D01*
X129126000Y-81186000D02*
X123952000Y-86360000D01*
X123952000Y-86360000D02*
X123952000Y-86360000D01*
%TO.N,Net-(J2-Pad4)*%
X113538000Y-103124000D02*
X113538000Y-106426000D01*
X113538000Y-106426000D02*
X115316000Y-108204000D01*
X115316000Y-108204000D02*
X115316000Y-108204000D01*
%TO.N,Net-(J3-Pad2)*%
X124714000Y-108458000D02*
X122428000Y-108458000D01*
X122428000Y-108458000D02*
X121666000Y-107696000D01*
X121666000Y-107696000D02*
X121666000Y-107696000D01*
%TO.N,Net-(J4-Pad2)*%
X126024000Y-96520000D02*
X126024000Y-100036000D01*
X126024000Y-100036000D02*
X116840000Y-109220000D01*
X116840000Y-109220000D02*
X108712000Y-109220000D01*
X108712000Y-109220000D02*
X104140000Y-104648000D01*
X104140000Y-104648000D02*
X104140000Y-104648000D01*
%TO.N,Net-(J5-Pad1)*%
X103800712Y-88560712D02*
X103800712Y-89576712D01*
X114607990Y-100383990D02*
X114607990Y-104955990D01*
X103800712Y-89576712D02*
X114607990Y-100383990D01*
X114607990Y-104955990D02*
X116078000Y-106426000D01*
X116078000Y-106426000D02*
X116586000Y-106426000D01*
X116586000Y-106426000D02*
X116586000Y-106426000D01*
%TO.N,Net-(J5-Pad2)*%
X116078000Y-83566000D02*
X116840000Y-83566000D01*
X116840000Y-83566000D02*
X121920000Y-88646000D01*
X121920000Y-88646000D02*
X121920000Y-96266000D01*
X121920000Y-96266000D02*
X121920000Y-96266000D01*
%TO.N,Net-(J5-Pad5)*%
X108200711Y-88642711D02*
X108200711Y-92706711D01*
X108200711Y-92706711D02*
X115062000Y-99568000D01*
X115062000Y-99568000D02*
X115062000Y-103632000D01*
X115062000Y-103632000D02*
X116586000Y-105156000D01*
X116586000Y-105156000D02*
X116586000Y-105156000D01*
%TO.N,GND*%
X108092210Y-98663790D02*
X108092210Y-95138210D01*
X108092210Y-95138210D02*
X104140000Y-91186000D01*
X104140000Y-91186000D02*
X104140000Y-91186000D01*
%TO.N,Net-(D1-Pad2)*%
X104648000Y-93218000D02*
X104648000Y-93218000D01*
X104648000Y-93218000D02*
X102362000Y-90932000D01*
X102362000Y-90932000D02*
X102362000Y-80772000D01*
X102362000Y-80772000D02*
X107696000Y-75438000D01*
X133832000Y-75438000D02*
X136626000Y-78232000D01*
X107696000Y-75438000D02*
X133832000Y-75438000D01*
X105958000Y-117602001D02*
X101346000Y-112990001D01*
X101346000Y-96520000D02*
X104648000Y-93218000D01*
X101346000Y-112990001D02*
X101346000Y-96520000D01*
D22*
%TO.N,Net-(J3-Pad15)*%
X110152000Y-133048000D02*
X107914000Y-130810000D01*
X116840000Y-133048000D02*
X110152000Y-133048000D01*
X124602488Y-133048000D02*
X125984000Y-131666488D01*
X116840000Y-133048000D02*
X124602488Y-133048000D01*
X129842000Y-133048000D02*
X134112000Y-128778000D01*
X124602488Y-133048000D02*
X129842000Y-133048000D01*
D21*
%TO.N,Net-(J5-Pad7)*%
X110400711Y-88556711D02*
X116840000Y-94996000D01*
X116840000Y-94996000D02*
X116840000Y-101346000D01*
X116840000Y-101346000D02*
X116840000Y-103124000D01*
X116840000Y-103124000D02*
X116840000Y-103124000D01*
%TD*%
M02*
