%TF.GenerationSoftware,KiCad,Pcbnew,5.1.7-a382d34a8~88~ubuntu18.04.1*%
%TF.CreationDate,2021-03-14T12:27:23+01:00*%
%TF.ProjectId,bleskomat-v2.1.0,626c6573-6b6f-46d6-9174-2d76322e312e,test*%
%TF.SameCoordinates,Original*%
%TF.FileFunction,Soldermask,Top*%
%TF.FilePolarity,Negative*%
%FSLAX46Y46*%
G04 Gerber Fmt 4.6, Leading zero omitted, Abs format (unit mm)*
G04 Created by KiCad (PCBNEW 5.1.7-a382d34a8~88~ubuntu18.04.1) date 2021-03-14 12:27:23*
%MOMM*%
%LPD*%
G01*
G04 APERTURE LIST*
%ADD10C,1.397102*%
%ADD11C,1.371702*%
%ADD12C,1.508102*%
%ADD13C,1.498702*%
%ADD14C,1.549502*%
%ADD15C,1.600302*%
G04 APERTURE END LIST*
%TO.C,12V DC*%
G36*
G01*
X114589949Y-128048000D02*
X114589949Y-126048000D01*
G75*
G02*
X114590000Y-126047949I51J0D01*
G01*
X119090000Y-126047949D01*
G75*
G02*
X119090051Y-126048000I0J-51D01*
G01*
X119090051Y-128048000D01*
G75*
G02*
X119090000Y-128048051I-51J0D01*
G01*
X114590000Y-128048051D01*
G75*
G02*
X114589949Y-128048000I0J51D01*
G01*
G37*
G36*
G01*
X114589949Y-134048000D02*
X114589949Y-132048000D01*
G75*
G02*
X114590000Y-132047949I51J0D01*
G01*
X119090000Y-132047949D01*
G75*
G02*
X119090051Y-132048000I0J-51D01*
G01*
X119090051Y-134048000D01*
G75*
G02*
X119090000Y-134048051I-51J0D01*
G01*
X114590000Y-134048051D01*
G75*
G02*
X114589949Y-134048000I0J51D01*
G01*
G37*
G36*
G01*
X111139949Y-132298000D02*
X111139949Y-127798000D01*
G75*
G02*
X111140000Y-127797949I51J0D01*
G01*
X113140000Y-127797949D01*
G75*
G02*
X113140051Y-127798000I0J-51D01*
G01*
X113140051Y-132298000D01*
G75*
G02*
X113140000Y-132298051I-51J0D01*
G01*
X111140000Y-132298051D01*
G75*
G02*
X111139949Y-132298000I0J51D01*
G01*
G37*
%TD*%
D10*
%TO.C,U2*%
X108458000Y-120902000D03*
X105958000Y-120902000D03*
X103458000Y-120902000D03*
X103458000Y-117602001D03*
X105958000Y-117602001D03*
X108458000Y-117602001D03*
%TD*%
%TO.C,U1*%
G36*
G01*
X111101760Y-105480681D02*
X111101760Y-104159881D01*
G75*
G02*
X111101811Y-104159830I51J0D01*
G01*
X112422611Y-104159830D01*
G75*
G02*
X112422662Y-104159881I0J-51D01*
G01*
X112422662Y-105480681D01*
G75*
G02*
X112422611Y-105480732I-51J0D01*
G01*
X111101811Y-105480732D01*
G75*
G02*
X111101760Y-105480681I0J51D01*
G01*
G37*
G36*
G01*
X109266759Y-105480681D02*
X109266759Y-104159881D01*
G75*
G02*
X109266810Y-104159830I51J0D01*
G01*
X110587610Y-104159830D01*
G75*
G02*
X110587661Y-104159881I0J-51D01*
G01*
X110587661Y-105480681D01*
G75*
G02*
X110587610Y-105480732I-51J0D01*
G01*
X109266810Y-105480732D01*
G75*
G02*
X109266759Y-105480681I0J51D01*
G01*
G37*
G36*
G01*
X107431759Y-105480681D02*
X107431759Y-104159881D01*
G75*
G02*
X107431810Y-104159830I51J0D01*
G01*
X108752610Y-104159830D01*
G75*
G02*
X108752661Y-104159881I0J-51D01*
G01*
X108752661Y-105480681D01*
G75*
G02*
X108752610Y-105480732I-51J0D01*
G01*
X107431810Y-105480732D01*
G75*
G02*
X107431759Y-105480681I0J51D01*
G01*
G37*
G36*
G01*
X111101760Y-101810681D02*
X111101760Y-100489881D01*
G75*
G02*
X111101811Y-100489830I51J0D01*
G01*
X112422611Y-100489830D01*
G75*
G02*
X112422662Y-100489881I0J-51D01*
G01*
X112422662Y-101810681D01*
G75*
G02*
X112422611Y-101810732I-51J0D01*
G01*
X111101811Y-101810732D01*
G75*
G02*
X111101760Y-101810681I0J51D01*
G01*
G37*
G36*
G01*
X109266759Y-101810681D02*
X109266759Y-100489881D01*
G75*
G02*
X109266810Y-100489830I51J0D01*
G01*
X110587610Y-100489830D01*
G75*
G02*
X110587661Y-100489881I0J-51D01*
G01*
X110587661Y-101810681D01*
G75*
G02*
X110587610Y-101810732I-51J0D01*
G01*
X109266810Y-101810732D01*
G75*
G02*
X109266759Y-101810681I0J51D01*
G01*
G37*
G36*
G01*
X107431759Y-101810681D02*
X107431759Y-100489881D01*
G75*
G02*
X107431810Y-100489830I51J0D01*
G01*
X108752610Y-100489830D01*
G75*
G02*
X108752661Y-100489881I0J-51D01*
G01*
X108752661Y-101810681D01*
G75*
G02*
X108752610Y-101810732I-51J0D01*
G01*
X107431810Y-101810732D01*
G75*
G02*
X107431759Y-101810681I0J51D01*
G01*
G37*
G36*
G01*
X111101760Y-103645681D02*
X111101760Y-102324881D01*
G75*
G02*
X111101811Y-102324830I51J0D01*
G01*
X112422611Y-102324830D01*
G75*
G02*
X112422662Y-102324881I0J-51D01*
G01*
X112422662Y-103645681D01*
G75*
G02*
X112422611Y-103645732I-51J0D01*
G01*
X111101811Y-103645732D01*
G75*
G02*
X111101760Y-103645681I0J51D01*
G01*
G37*
G36*
G01*
X109266759Y-103645681D02*
X109266759Y-102324881D01*
G75*
G02*
X109266810Y-102324830I51J0D01*
G01*
X110587610Y-102324830D01*
G75*
G02*
X110587661Y-102324881I0J-51D01*
G01*
X110587661Y-103645681D01*
G75*
G02*
X110587610Y-103645732I-51J0D01*
G01*
X109266810Y-103645732D01*
G75*
G02*
X109266759Y-103645681I0J51D01*
G01*
G37*
G36*
G01*
X107431759Y-103645681D02*
X107431759Y-102324881D01*
G75*
G02*
X107431810Y-102324830I51J0D01*
G01*
X108752610Y-102324830D01*
G75*
G02*
X108752661Y-102324881I0J-51D01*
G01*
X108752661Y-103645681D01*
G75*
G02*
X108752610Y-103645732I-51J0D01*
G01*
X107431810Y-103645732D01*
G75*
G02*
X107431759Y-103645681I0J51D01*
G01*
G37*
G36*
G01*
X116201950Y-113995800D02*
X116201950Y-111989200D01*
G75*
G02*
X116202001Y-111989149I51J0D01*
G01*
X117091001Y-111989149D01*
G75*
G02*
X117091052Y-111989200I0J-51D01*
G01*
X117091052Y-113995800D01*
G75*
G02*
X117091001Y-113995851I-51J0D01*
G01*
X116202001Y-113995851D01*
G75*
G02*
X116201950Y-113995800I0J51D01*
G01*
G37*
G36*
G01*
X114931950Y-113995800D02*
X114931950Y-111989200D01*
G75*
G02*
X114932001Y-111989149I51J0D01*
G01*
X115821001Y-111989149D01*
G75*
G02*
X115821052Y-111989200I0J-51D01*
G01*
X115821052Y-113995800D01*
G75*
G02*
X115821001Y-113995851I-51J0D01*
G01*
X114932001Y-113995851D01*
G75*
G02*
X114931950Y-113995800I0J51D01*
G01*
G37*
G36*
G01*
X113661950Y-113995800D02*
X113661950Y-111989200D01*
G75*
G02*
X113662001Y-111989149I51J0D01*
G01*
X114551001Y-111989149D01*
G75*
G02*
X114551052Y-111989200I0J-51D01*
G01*
X114551052Y-113995800D01*
G75*
G02*
X114551001Y-113995851I-51J0D01*
G01*
X113662001Y-113995851D01*
G75*
G02*
X113661950Y-113995800I0J51D01*
G01*
G37*
G36*
G01*
X112391950Y-113995800D02*
X112391950Y-111989200D01*
G75*
G02*
X112392001Y-111989149I51J0D01*
G01*
X113281001Y-111989149D01*
G75*
G02*
X113281052Y-111989200I0J-51D01*
G01*
X113281052Y-113995800D01*
G75*
G02*
X113281001Y-113995851I-51J0D01*
G01*
X112392001Y-113995851D01*
G75*
G02*
X112391950Y-113995800I0J51D01*
G01*
G37*
G36*
G01*
X111121950Y-113995800D02*
X111121950Y-111989200D01*
G75*
G02*
X111122001Y-111989149I51J0D01*
G01*
X112011001Y-111989149D01*
G75*
G02*
X112011052Y-111989200I0J-51D01*
G01*
X112011052Y-113995800D01*
G75*
G02*
X112011001Y-113995851I-51J0D01*
G01*
X111122001Y-113995851D01*
G75*
G02*
X111121950Y-113995800I0J51D01*
G01*
G37*
G36*
G01*
X109851950Y-113995800D02*
X109851950Y-111989200D01*
G75*
G02*
X109852001Y-111989149I51J0D01*
G01*
X110741001Y-111989149D01*
G75*
G02*
X110741052Y-111989200I0J-51D01*
G01*
X110741052Y-113995800D01*
G75*
G02*
X110741001Y-113995851I-51J0D01*
G01*
X109852001Y-113995851D01*
G75*
G02*
X109851950Y-113995800I0J51D01*
G01*
G37*
G36*
G01*
X108581950Y-113995800D02*
X108581950Y-111989200D01*
G75*
G02*
X108582001Y-111989149I51J0D01*
G01*
X109471001Y-111989149D01*
G75*
G02*
X109471052Y-111989200I0J-51D01*
G01*
X109471052Y-113995800D01*
G75*
G02*
X109471001Y-113995851I-51J0D01*
G01*
X108582001Y-113995851D01*
G75*
G02*
X108581950Y-113995800I0J51D01*
G01*
G37*
G36*
G01*
X107311950Y-113995800D02*
X107311950Y-111989200D01*
G75*
G02*
X107312001Y-111989149I51J0D01*
G01*
X108201001Y-111989149D01*
G75*
G02*
X108201052Y-111989200I0J-51D01*
G01*
X108201052Y-113995800D01*
G75*
G02*
X108201001Y-113995851I-51J0D01*
G01*
X107312001Y-113995851D01*
G75*
G02*
X107311950Y-113995800I0J51D01*
G01*
G37*
G36*
G01*
X106041950Y-113995800D02*
X106041950Y-111989200D01*
G75*
G02*
X106042001Y-111989149I51J0D01*
G01*
X106931001Y-111989149D01*
G75*
G02*
X106931052Y-111989200I0J-51D01*
G01*
X106931052Y-113995800D01*
G75*
G02*
X106931001Y-113995851I-51J0D01*
G01*
X106042001Y-113995851D01*
G75*
G02*
X106041950Y-113995800I0J51D01*
G01*
G37*
G36*
G01*
X104771950Y-113995800D02*
X104771950Y-111989200D01*
G75*
G02*
X104772001Y-111989149I51J0D01*
G01*
X105661001Y-111989149D01*
G75*
G02*
X105661052Y-111989200I0J-51D01*
G01*
X105661052Y-113995800D01*
G75*
G02*
X105661001Y-113995851I-51J0D01*
G01*
X104772001Y-113995851D01*
G75*
G02*
X104771950Y-113995800I0J51D01*
G01*
G37*
G36*
G01*
X118428151Y-111995804D02*
X118428151Y-111106804D01*
G75*
G02*
X118428202Y-111106753I51J0D01*
G01*
X120434802Y-111106753D01*
G75*
G02*
X120434853Y-111106804I0J-51D01*
G01*
X120434853Y-111995804D01*
G75*
G02*
X120434802Y-111995855I-51J0D01*
G01*
X118428202Y-111995855D01*
G75*
G02*
X118428151Y-111995804I0J51D01*
G01*
G37*
G36*
G01*
X118428151Y-110725804D02*
X118428151Y-109836804D01*
G75*
G02*
X118428202Y-109836753I51J0D01*
G01*
X120434802Y-109836753D01*
G75*
G02*
X120434853Y-109836804I0J-51D01*
G01*
X120434853Y-110725804D01*
G75*
G02*
X120434802Y-110725855I-51J0D01*
G01*
X118428202Y-110725855D01*
G75*
G02*
X118428151Y-110725804I0J51D01*
G01*
G37*
G36*
G01*
X118428151Y-109455804D02*
X118428151Y-108566804D01*
G75*
G02*
X118428202Y-108566753I51J0D01*
G01*
X120434802Y-108566753D01*
G75*
G02*
X120434853Y-108566804I0J-51D01*
G01*
X120434853Y-109455804D01*
G75*
G02*
X120434802Y-109455855I-51J0D01*
G01*
X118428202Y-109455855D01*
G75*
G02*
X118428151Y-109455804I0J51D01*
G01*
G37*
G36*
G01*
X118428151Y-108185804D02*
X118428151Y-107296804D01*
G75*
G02*
X118428202Y-107296753I51J0D01*
G01*
X120434802Y-107296753D01*
G75*
G02*
X120434853Y-107296804I0J-51D01*
G01*
X120434853Y-108185804D01*
G75*
G02*
X120434802Y-108185855I-51J0D01*
G01*
X118428202Y-108185855D01*
G75*
G02*
X118428151Y-108185804I0J51D01*
G01*
G37*
G36*
G01*
X118428151Y-106915804D02*
X118428151Y-106026804D01*
G75*
G02*
X118428202Y-106026753I51J0D01*
G01*
X120434802Y-106026753D01*
G75*
G02*
X120434853Y-106026804I0J-51D01*
G01*
X120434853Y-106915804D01*
G75*
G02*
X120434802Y-106915855I-51J0D01*
G01*
X118428202Y-106915855D01*
G75*
G02*
X118428151Y-106915804I0J51D01*
G01*
G37*
G36*
G01*
X118428151Y-105645804D02*
X118428151Y-104756804D01*
G75*
G02*
X118428202Y-104756753I51J0D01*
G01*
X120434802Y-104756753D01*
G75*
G02*
X120434853Y-104756804I0J-51D01*
G01*
X120434853Y-105645804D01*
G75*
G02*
X120434802Y-105645855I-51J0D01*
G01*
X118428202Y-105645855D01*
G75*
G02*
X118428151Y-105645804I0J51D01*
G01*
G37*
G36*
G01*
X118428151Y-104375804D02*
X118428151Y-103486804D01*
G75*
G02*
X118428202Y-103486753I51J0D01*
G01*
X120434802Y-103486753D01*
G75*
G02*
X120434853Y-103486804I0J-51D01*
G01*
X120434853Y-104375804D01*
G75*
G02*
X120434802Y-104375855I-51J0D01*
G01*
X118428202Y-104375855D01*
G75*
G02*
X118428151Y-104375804I0J51D01*
G01*
G37*
G36*
G01*
X118428151Y-103105804D02*
X118428151Y-102216804D01*
G75*
G02*
X118428202Y-102216753I51J0D01*
G01*
X120434802Y-102216753D01*
G75*
G02*
X120434853Y-102216804I0J-51D01*
G01*
X120434853Y-103105804D01*
G75*
G02*
X120434802Y-103105855I-51J0D01*
G01*
X118428202Y-103105855D01*
G75*
G02*
X118428151Y-103105804I0J51D01*
G01*
G37*
G36*
G01*
X118428151Y-101835804D02*
X118428151Y-100946804D01*
G75*
G02*
X118428202Y-100946753I51J0D01*
G01*
X120434802Y-100946753D01*
G75*
G02*
X120434853Y-100946804I0J-51D01*
G01*
X120434853Y-101835804D01*
G75*
G02*
X120434802Y-101835855I-51J0D01*
G01*
X118428202Y-101835855D01*
G75*
G02*
X118428151Y-101835804I0J51D01*
G01*
G37*
G36*
G01*
X118428151Y-100565804D02*
X118428151Y-99676804D01*
G75*
G02*
X118428202Y-99676753I51J0D01*
G01*
X120434802Y-99676753D01*
G75*
G02*
X120434853Y-99676804I0J-51D01*
G01*
X120434853Y-100565804D01*
G75*
G02*
X120434802Y-100565855I-51J0D01*
G01*
X118428202Y-100565855D01*
G75*
G02*
X118428151Y-100565804I0J51D01*
G01*
G37*
G36*
G01*
X118428151Y-99295804D02*
X118428151Y-98406804D01*
G75*
G02*
X118428202Y-98406753I51J0D01*
G01*
X120434802Y-98406753D01*
G75*
G02*
X120434853Y-98406804I0J-51D01*
G01*
X120434853Y-99295804D01*
G75*
G02*
X120434802Y-99295855I-51J0D01*
G01*
X118428202Y-99295855D01*
G75*
G02*
X118428151Y-99295804I0J51D01*
G01*
G37*
G36*
G01*
X118428151Y-98025804D02*
X118428151Y-97136804D01*
G75*
G02*
X118428202Y-97136753I51J0D01*
G01*
X120434802Y-97136753D01*
G75*
G02*
X120434853Y-97136804I0J-51D01*
G01*
X120434853Y-98025804D01*
G75*
G02*
X120434802Y-98025855I-51J0D01*
G01*
X118428202Y-98025855D01*
G75*
G02*
X118428151Y-98025804I0J51D01*
G01*
G37*
G36*
G01*
X118428151Y-96755804D02*
X118428151Y-95866804D01*
G75*
G02*
X118428202Y-95866753I51J0D01*
G01*
X120434802Y-95866753D01*
G75*
G02*
X120434853Y-95866804I0J-51D01*
G01*
X120434853Y-96755804D01*
G75*
G02*
X120434802Y-96755855I-51J0D01*
G01*
X118428202Y-96755855D01*
G75*
G02*
X118428151Y-96755804I0J51D01*
G01*
G37*
G36*
G01*
X118428151Y-95485804D02*
X118428151Y-94596804D01*
G75*
G02*
X118428202Y-94596753I51J0D01*
G01*
X120434802Y-94596753D01*
G75*
G02*
X120434853Y-94596804I0J-51D01*
G01*
X120434853Y-95485804D01*
G75*
G02*
X120434802Y-95485855I-51J0D01*
G01*
X118428202Y-95485855D01*
G75*
G02*
X118428151Y-95485804I0J51D01*
G01*
G37*
G36*
G01*
X101428149Y-111995804D02*
X101428149Y-111106804D01*
G75*
G02*
X101428200Y-111106753I51J0D01*
G01*
X103434800Y-111106753D01*
G75*
G02*
X103434851Y-111106804I0J-51D01*
G01*
X103434851Y-111995804D01*
G75*
G02*
X103434800Y-111995855I-51J0D01*
G01*
X101428200Y-111995855D01*
G75*
G02*
X101428149Y-111995804I0J51D01*
G01*
G37*
G36*
G01*
X101428149Y-110725804D02*
X101428149Y-109836804D01*
G75*
G02*
X101428200Y-109836753I51J0D01*
G01*
X103434800Y-109836753D01*
G75*
G02*
X103434851Y-109836804I0J-51D01*
G01*
X103434851Y-110725804D01*
G75*
G02*
X103434800Y-110725855I-51J0D01*
G01*
X101428200Y-110725855D01*
G75*
G02*
X101428149Y-110725804I0J51D01*
G01*
G37*
G36*
G01*
X101428149Y-109455804D02*
X101428149Y-108566804D01*
G75*
G02*
X101428200Y-108566753I51J0D01*
G01*
X103434800Y-108566753D01*
G75*
G02*
X103434851Y-108566804I0J-51D01*
G01*
X103434851Y-109455804D01*
G75*
G02*
X103434800Y-109455855I-51J0D01*
G01*
X101428200Y-109455855D01*
G75*
G02*
X101428149Y-109455804I0J51D01*
G01*
G37*
G36*
G01*
X101428149Y-108185804D02*
X101428149Y-107296804D01*
G75*
G02*
X101428200Y-107296753I51J0D01*
G01*
X103434800Y-107296753D01*
G75*
G02*
X103434851Y-107296804I0J-51D01*
G01*
X103434851Y-108185804D01*
G75*
G02*
X103434800Y-108185855I-51J0D01*
G01*
X101428200Y-108185855D01*
G75*
G02*
X101428149Y-108185804I0J51D01*
G01*
G37*
G36*
G01*
X101428149Y-106915804D02*
X101428149Y-106026804D01*
G75*
G02*
X101428200Y-106026753I51J0D01*
G01*
X103434800Y-106026753D01*
G75*
G02*
X103434851Y-106026804I0J-51D01*
G01*
X103434851Y-106915804D01*
G75*
G02*
X103434800Y-106915855I-51J0D01*
G01*
X101428200Y-106915855D01*
G75*
G02*
X101428149Y-106915804I0J51D01*
G01*
G37*
G36*
G01*
X101428149Y-105645804D02*
X101428149Y-104756804D01*
G75*
G02*
X101428200Y-104756753I51J0D01*
G01*
X103434800Y-104756753D01*
G75*
G02*
X103434851Y-104756804I0J-51D01*
G01*
X103434851Y-105645804D01*
G75*
G02*
X103434800Y-105645855I-51J0D01*
G01*
X101428200Y-105645855D01*
G75*
G02*
X101428149Y-105645804I0J51D01*
G01*
G37*
G36*
G01*
X101428149Y-104375804D02*
X101428149Y-103486804D01*
G75*
G02*
X101428200Y-103486753I51J0D01*
G01*
X103434800Y-103486753D01*
G75*
G02*
X103434851Y-103486804I0J-51D01*
G01*
X103434851Y-104375804D01*
G75*
G02*
X103434800Y-104375855I-51J0D01*
G01*
X101428200Y-104375855D01*
G75*
G02*
X101428149Y-104375804I0J51D01*
G01*
G37*
G36*
G01*
X101428149Y-103105804D02*
X101428149Y-102216804D01*
G75*
G02*
X101428200Y-102216753I51J0D01*
G01*
X103434800Y-102216753D01*
G75*
G02*
X103434851Y-102216804I0J-51D01*
G01*
X103434851Y-103105804D01*
G75*
G02*
X103434800Y-103105855I-51J0D01*
G01*
X101428200Y-103105855D01*
G75*
G02*
X101428149Y-103105804I0J51D01*
G01*
G37*
G36*
G01*
X101428149Y-101835804D02*
X101428149Y-100946804D01*
G75*
G02*
X101428200Y-100946753I51J0D01*
G01*
X103434800Y-100946753D01*
G75*
G02*
X103434851Y-100946804I0J-51D01*
G01*
X103434851Y-101835804D01*
G75*
G02*
X103434800Y-101835855I-51J0D01*
G01*
X101428200Y-101835855D01*
G75*
G02*
X101428149Y-101835804I0J51D01*
G01*
G37*
G36*
G01*
X101428149Y-100565804D02*
X101428149Y-99676804D01*
G75*
G02*
X101428200Y-99676753I51J0D01*
G01*
X103434800Y-99676753D01*
G75*
G02*
X103434851Y-99676804I0J-51D01*
G01*
X103434851Y-100565804D01*
G75*
G02*
X103434800Y-100565855I-51J0D01*
G01*
X101428200Y-100565855D01*
G75*
G02*
X101428149Y-100565804I0J51D01*
G01*
G37*
G36*
G01*
X101428149Y-99295804D02*
X101428149Y-98406804D01*
G75*
G02*
X101428200Y-98406753I51J0D01*
G01*
X103434800Y-98406753D01*
G75*
G02*
X103434851Y-98406804I0J-51D01*
G01*
X103434851Y-99295804D01*
G75*
G02*
X103434800Y-99295855I-51J0D01*
G01*
X101428200Y-99295855D01*
G75*
G02*
X101428149Y-99295804I0J51D01*
G01*
G37*
G36*
G01*
X101428149Y-98025804D02*
X101428149Y-97136804D01*
G75*
G02*
X101428200Y-97136753I51J0D01*
G01*
X103434800Y-97136753D01*
G75*
G02*
X103434851Y-97136804I0J-51D01*
G01*
X103434851Y-98025804D01*
G75*
G02*
X103434800Y-98025855I-51J0D01*
G01*
X101428200Y-98025855D01*
G75*
G02*
X101428149Y-98025804I0J51D01*
G01*
G37*
G36*
G01*
X101428149Y-96755804D02*
X101428149Y-95866804D01*
G75*
G02*
X101428200Y-95866753I51J0D01*
G01*
X103434800Y-95866753D01*
G75*
G02*
X103434851Y-95866804I0J-51D01*
G01*
X103434851Y-96755804D01*
G75*
G02*
X103434800Y-96755855I-51J0D01*
G01*
X101428200Y-96755855D01*
G75*
G02*
X101428149Y-96755804I0J51D01*
G01*
G37*
G36*
G01*
X101428149Y-95485804D02*
X101428149Y-94596804D01*
G75*
G02*
X101428200Y-94596753I51J0D01*
G01*
X103434800Y-94596753D01*
G75*
G02*
X103434851Y-94596804I0J-51D01*
G01*
X103434851Y-95485804D01*
G75*
G02*
X103434800Y-95485855I-51J0D01*
G01*
X101428200Y-95485855D01*
G75*
G02*
X101428149Y-95485804I0J51D01*
G01*
G37*
%TD*%
D11*
%TO.C,R1*%
X137668000Y-88138000D03*
G36*
G01*
X125298149Y-88823801D02*
X125298149Y-87452199D01*
G75*
G02*
X125298199Y-87452149I50J0D01*
G01*
X126669801Y-87452149D01*
G75*
G02*
X126669851Y-87452199I0J-50D01*
G01*
X126669851Y-88823801D01*
G75*
G02*
X126669801Y-88823851I-50J0D01*
G01*
X125298199Y-88823851D01*
G75*
G02*
X125298149Y-88823801I0J50D01*
G01*
G37*
%TD*%
D12*
%TO.C,PS1*%
X107914000Y-125730000D03*
X107914000Y-128270000D03*
G36*
G01*
X108668000Y-131564051D02*
X107160000Y-131564051D01*
G75*
G02*
X107159949Y-131564000I0J51D01*
G01*
X107159949Y-130056000D01*
G75*
G02*
X107160000Y-130055949I51J0D01*
G01*
X108668000Y-130055949D01*
G75*
G02*
X108668051Y-130056000I0J-51D01*
G01*
X108668051Y-131564000D01*
G75*
G02*
X108668000Y-131564051I-51J0D01*
G01*
G37*
%TD*%
D13*
%TO.C,J6*%
X125984000Y-131666488D03*
X125984000Y-129166366D03*
X125984000Y-126666244D03*
X125984000Y-124166122D03*
X125984000Y-121666000D03*
%TD*%
%TO.C,J5*%
G36*
G01*
X112983543Y-76003402D02*
X112983543Y-74454002D01*
G75*
G02*
X112983594Y-74453951I51J0D01*
G01*
X114024994Y-74453951D01*
G75*
G02*
X114025045Y-74454002I0J-51D01*
G01*
X114025045Y-76003402D01*
G75*
G02*
X114024994Y-76003453I-51J0D01*
G01*
X112983594Y-76003453D01*
G75*
G02*
X112983543Y-76003402I0J51D01*
G01*
G37*
G36*
G01*
X101575565Y-77070400D02*
X101575565Y-76029000D01*
G75*
G02*
X101575616Y-76028949I51J0D01*
G01*
X103125016Y-76028949D01*
G75*
G02*
X103125067Y-76029000I0J-51D01*
G01*
X103125067Y-77070400D01*
G75*
G02*
X103125016Y-77070451I-51J0D01*
G01*
X101575616Y-77070451D01*
G75*
G02*
X101575565Y-77070400I0J51D01*
G01*
G37*
G36*
G01*
X114324308Y-78428452D02*
X113486108Y-78428452D01*
G75*
G02*
X113486057Y-78428401I0J51D01*
G01*
X113486057Y-76879001D01*
G75*
G02*
X113486108Y-76878950I51J0D01*
G01*
X114324308Y-76878950D01*
G75*
G02*
X114324359Y-76879001I0J-51D01*
G01*
X114324359Y-78428401D01*
G75*
G02*
X114324308Y-78428452I-51J0D01*
G01*
G37*
G36*
G01*
X102413892Y-79078453D02*
X101575692Y-79078453D01*
G75*
G02*
X101575641Y-79078402I0J51D01*
G01*
X101575641Y-77529002D01*
G75*
G02*
X101575692Y-77528951I51J0D01*
G01*
X102413892Y-77528951D01*
G75*
G02*
X102413943Y-77529002I0J-51D01*
G01*
X102413943Y-79078402D01*
G75*
G02*
X102413892Y-79078453I-51J0D01*
G01*
G37*
G36*
G01*
X114324301Y-85877652D02*
X112825699Y-85877652D01*
G75*
G02*
X112825649Y-85877602I0J50D01*
G01*
X112825649Y-84379000D01*
G75*
G02*
X112825699Y-84378950I50J0D01*
G01*
X114324301Y-84378950D01*
G75*
G02*
X114324351Y-84379000I0J-50D01*
G01*
X114324351Y-85877602D01*
G75*
G02*
X114324301Y-85877652I-50J0D01*
G01*
G37*
G36*
G01*
X103074301Y-85877652D02*
X101575699Y-85877652D01*
G75*
G02*
X101575649Y-85877602I0J50D01*
G01*
X101575649Y-84379000D01*
G75*
G02*
X101575699Y-84378950I50J0D01*
G01*
X103074301Y-84378950D01*
G75*
G02*
X103074351Y-84379000I0J-50D01*
G01*
X103074351Y-85877602D01*
G75*
G02*
X103074301Y-85877652I-50J0D01*
G01*
G37*
G36*
G01*
X111119661Y-86182401D02*
X111119661Y-84379001D01*
G75*
G02*
X111119712Y-84378950I51J0D01*
G01*
X111881712Y-84378950D01*
G75*
G02*
X111881763Y-84379001I0J-51D01*
G01*
X111881763Y-86182401D01*
G75*
G02*
X111881712Y-86182452I-51J0D01*
G01*
X111119712Y-86182452D01*
G75*
G02*
X111119661Y-86182401I0J51D01*
G01*
G37*
G36*
G01*
X110019660Y-86182401D02*
X110019660Y-84379001D01*
G75*
G02*
X110019711Y-84378950I51J0D01*
G01*
X110781711Y-84378950D01*
G75*
G02*
X110781762Y-84379001I0J-51D01*
G01*
X110781762Y-86182401D01*
G75*
G02*
X110781711Y-86182452I-51J0D01*
G01*
X110019711Y-86182452D01*
G75*
G02*
X110019660Y-86182401I0J51D01*
G01*
G37*
G36*
G01*
X108919660Y-86182401D02*
X108919660Y-84379001D01*
G75*
G02*
X108919711Y-84378950I51J0D01*
G01*
X109681711Y-84378950D01*
G75*
G02*
X109681762Y-84379001I0J-51D01*
G01*
X109681762Y-86182401D01*
G75*
G02*
X109681711Y-86182452I-51J0D01*
G01*
X108919711Y-86182452D01*
G75*
G02*
X108919660Y-86182401I0J51D01*
G01*
G37*
G36*
G01*
X107819660Y-86182401D02*
X107819660Y-84379001D01*
G75*
G02*
X107819711Y-84378950I51J0D01*
G01*
X108581711Y-84378950D01*
G75*
G02*
X108581762Y-84379001I0J-51D01*
G01*
X108581762Y-86182401D01*
G75*
G02*
X108581711Y-86182452I-51J0D01*
G01*
X107819711Y-86182452D01*
G75*
G02*
X107819660Y-86182401I0J51D01*
G01*
G37*
G36*
G01*
X106719662Y-86182401D02*
X106719662Y-84379001D01*
G75*
G02*
X106719713Y-84378950I51J0D01*
G01*
X107481713Y-84378950D01*
G75*
G02*
X107481764Y-84379001I0J-51D01*
G01*
X107481764Y-86182401D01*
G75*
G02*
X107481713Y-86182452I-51J0D01*
G01*
X106719713Y-86182452D01*
G75*
G02*
X106719662Y-86182401I0J51D01*
G01*
G37*
G36*
G01*
X105619662Y-86182401D02*
X105619662Y-84379001D01*
G75*
G02*
X105619713Y-84378950I51J0D01*
G01*
X106381713Y-84378950D01*
G75*
G02*
X106381764Y-84379001I0J-51D01*
G01*
X106381764Y-86182401D01*
G75*
G02*
X106381713Y-86182452I-51J0D01*
G01*
X105619713Y-86182452D01*
G75*
G02*
X105619662Y-86182401I0J51D01*
G01*
G37*
G36*
G01*
X104519661Y-86182401D02*
X104519661Y-84379001D01*
G75*
G02*
X104519712Y-84378950I51J0D01*
G01*
X105281712Y-84378950D01*
G75*
G02*
X105281763Y-84379001I0J-51D01*
G01*
X105281763Y-86182401D01*
G75*
G02*
X105281712Y-86182452I-51J0D01*
G01*
X104519712Y-86182452D01*
G75*
G02*
X104519661Y-86182401I0J51D01*
G01*
G37*
G36*
G01*
X103419661Y-86182401D02*
X103419661Y-84379001D01*
G75*
G02*
X103419712Y-84378950I51J0D01*
G01*
X104181712Y-84378950D01*
G75*
G02*
X104181763Y-84379001I0J-51D01*
G01*
X104181763Y-86182401D01*
G75*
G02*
X104181712Y-86182452I-51J0D01*
G01*
X103419712Y-86182452D01*
G75*
G02*
X103419661Y-86182401I0J51D01*
G01*
G37*
%TD*%
D14*
%TO.C,J4*%
X126024000Y-96520000D03*
X128524000Y-96520000D03*
%TD*%
D15*
%TO.C,J3*%
X136652000Y-128778000D03*
X134112000Y-128778000D03*
X136652000Y-126238000D03*
X134112000Y-126238000D03*
X136652000Y-123698000D03*
X134112000Y-123698000D03*
X136652000Y-121158000D03*
X134112000Y-121158000D03*
X136652000Y-118618000D03*
X134112000Y-118618000D03*
X136652000Y-116078000D03*
X134112000Y-116078000D03*
X136652000Y-113538000D03*
X134112000Y-113538000D03*
X136652000Y-110998000D03*
X134112000Y-110998000D03*
%TD*%
D13*
%TO.C,J2*%
X136626000Y-78232000D03*
X134126000Y-78232000D03*
X131626000Y-78232000D03*
X129126000Y-78232000D03*
X126626000Y-78232000D03*
X124126000Y-78232000D03*
X121626000Y-78232000D03*
X119126000Y-78232000D03*
%TD*%
%TO.C,J1*%
X127000000Y-103324002D03*
X127000000Y-105824000D03*
X127000000Y-108324000D03*
X127000000Y-110824000D03*
X127000000Y-113324000D03*
X127000000Y-115824000D03*
%TD*%
%TO.C,D1*%
G36*
G01*
X116885949Y-116324000D02*
X116885949Y-115324000D01*
G75*
G02*
X116886000Y-115323949I51J0D01*
G01*
X117986000Y-115323949D01*
G75*
G02*
X117986051Y-115324000I0J-51D01*
G01*
X117986051Y-116324000D01*
G75*
G02*
X117986000Y-116324051I-51J0D01*
G01*
X116886000Y-116324051D01*
G75*
G02*
X116885949Y-116324000I0J51D01*
G01*
G37*
G36*
G01*
X115185949Y-116324000D02*
X115185949Y-115324000D01*
G75*
G02*
X115186000Y-115323949I51J0D01*
G01*
X116286000Y-115323949D01*
G75*
G02*
X116286051Y-115324000I0J-51D01*
G01*
X116286051Y-116324000D01*
G75*
G02*
X116286000Y-116324051I-51J0D01*
G01*
X115186000Y-116324051D01*
G75*
G02*
X115185949Y-116324000I0J51D01*
G01*
G37*
%TD*%
M02*
