<?xml version="1.0" encoding="UTF-8" standalone="no"?>
<svg
   xmlns:dc="http://purl.org/dc/elements/1.1/"
   xmlns:cc="http://creativecommons.org/ns#"
   xmlns:rdf="http://www.w3.org/1999/02/22-rdf-syntax-ns#"
   xmlns:svg="http://www.w3.org/2000/svg"
   xmlns="http://www.w3.org/2000/svg"
   xmlns:sodipodi="http://sodipodi.sourceforge.net/DTD/sodipodi-0.dtd"
   xmlns:inkscape="http://www.inkscape.org/namespaces/inkscape"
   id="svg8"
   version="1.1"
   viewBox="0 0 144 31.517149"
   height="31.517151mm"
   width="144mm"
   sodipodi:docname="stencil-144mm.svg"
   inkscape:version="0.92.3 (2405546, 2018-03-11)"
   inkscape:export-filename="/home/chill/bleskomat-logo.png"
   inkscape:export-xdpi="300.03387"
   inkscape:export-ydpi="300.03387">
  <sodipodi:namedview
     pagecolor="#ffffff"
     bordercolor="#666666"
     borderopacity="1"
     objecttolerance="10"
     gridtolerance="10"
     guidetolerance="10"
     inkscape:pageopacity="1"
     inkscape:pageshadow="2"
     inkscape:window-width="1920"
     inkscape:window-height="1000"
     id="namedview8"
     showgrid="false"
     inkscape:zoom="7.9999999"
     inkscape:cx="18.154228"
     inkscape:cy="97.610809"
     inkscape:window-x="0"
     inkscape:window-y="41"
     inkscape:window-maximized="1"
     inkscape:current-layer="svg8"
     showguides="true"
     inkscape:guide-bbox="true">
    <sodipodi:guide
       position="81.968222,10.734212"
       orientation="1,0"
       id="guide951"
       inkscape:locked="false" />
    <sodipodi:guide
       position="118.45051,28.0633"
       orientation="1,0"
       id="guide998"
       inkscape:locked="false" />
    <sodipodi:guide
       position="12.581713,27.034312"
       orientation="1,0"
       id="guide851"
       inkscape:locked="false" />
  </sodipodi:namedview>
  <defs
     id="defs2">
    <style
       id="style2">.cls-1{fill:#ff9000;}.cls-2{fill:#fff;}.cls-3{fill:#ffba00;}.cls-4{font-size:260px;letter-spacing:-0.03em;}.cls-4,.cls-7{fill:#4e4e4e;font-family:Ubuntu-BoldItalic, Ubuntu;font-style:italic;}.cls-4,.cls-8,.cls-9{font-weight:700;}.cls-5{letter-spacing:-0.04em;}.cls-6{letter-spacing:-0.05em;}.cls-7{font-size:57px;}.cls-12,.cls-9{letter-spacing:0.01em;}.cls-10,.cls-11,.cls-12,.cls-13,.cls-14{font-family:Ubuntu-LightItalic, Ubuntu;}.cls-10{letter-spacing:-0.02em;}.cls-11{letter-spacing:-0.02em;}.cls-13{letter-spacing:-0.01em;}.cls-14{letter-spacing:0.01em;}</style>
    <style
       id="style2-4">.cls-1{fill:#ff9000;}.cls-2{fill:#fff;}.cls-3{fill:#ffba00;}.cls-4{font-size:260px;letter-spacing:-0.03em;}.cls-4,.cls-7{fill:#4e4e4e;font-family:Ubuntu-BoldItalic, Ubuntu;font-style:italic;}.cls-4,.cls-8,.cls-9{font-weight:700;}.cls-5{letter-spacing:-0.04em;}.cls-6{letter-spacing:-0.05em;}.cls-7{font-size:57px;}.cls-12,.cls-9{letter-spacing:0.01em;}.cls-10,.cls-11,.cls-12,.cls-13,.cls-14{font-family:Ubuntu-LightItalic, Ubuntu;}.cls-10{letter-spacing:-0.02em;}.cls-11{letter-spacing:-0.02em;}.cls-13{letter-spacing:-0.01em;}.cls-14{letter-spacing:0.01em;}</style>
  </defs>
  <metadata
     id="metadata5">
    <rdf:RDF>
      <cc:Work
         rdf:about="">
        <dc:format>image/svg+xml</dc:format>
        <dc:type
           rdf:resource="http://purl.org/dc/dcmitype/StillImage" />
        <dc:title />
      </cc:Work>
    </rdf:RDF>
  </metadata>
  <path
     inkscape:connector-curvature="0"
     style="opacity:1;fill:#000000;fill-opacity:1;stroke:none;stroke-width:0.50237769;stroke-miterlimit:4;stroke-dasharray:none;stroke-opacity:1"
     mask="none"
     d="M 4.0227978,0 C 1.7941465,0 0,1.7941465 0,4.0227978 V 27.494246 c 0,2.228651 1.7941465,4.022902 4.0227978,4.022902 H 139.97719 c 2.22865,0 4.0228,-1.794251 4.0228,-4.022902 V 4.0227978 C 143.99999,1.7941465 142.20584,0 139.97719,0 Z M 77.896672,5.0285491 h 10.065833 c 0.253619,0 0.473977,0.016631 0.661073,0.049893 0.187096,0.033262 0.340935,0.1018641 0.461508,0.205807 0.274412,0.2203587 0.411615,0.5612914 0.411615,1.0227981 V 24.879562 c 0,0.457348 -0.120573,0.814912 -0.361723,1.072691 -0.153834,0.153836 -0.332617,0.247385 -0.536344,0.280646 -0.203732,0.04989 -0.459427,0.07484 -0.7671,0.07484 l -10.165614,0.02495 h -0.461507 c -0.286881,0 -0.498926,-0.02495 -0.63613,-0.07484 -0.153834,-0.03326 -0.299355,-0.12681 -0.436558,-0.280646 -0.153835,-0.153836 -0.247388,-0.332618 -0.28065,-0.536345 -0.04989,-0.203728 -0.07484,-0.459428 -0.07484,-0.767098 V 6.3569394 c 0,-0.3409327 0.12681,-0.6652345 0.380429,-0.9729055 0.153834,-0.149678 0.36796,-0.2515419 0.642367,-0.3055922 0.270255,-0.033262 0.636134,-0.049893 1.097637,-0.049893 z M 6.4629613,5.0534954 h 8.9370097 c 0.340933,0 0.588316,0.00832 0.742152,0.024946 0.137205,0.033262 0.307671,0.1434409 0.511399,0.3305385 0.187097,0.2078858 0.280646,0.4989259 0.280646,0.8731203 V 13.17975 c 0,0.374195 0.14552,0.679787 0.43656,0.916777 0.09979,0.08731 0.372115,0.205807 0.816991,0.355484 0.424087,0.153836 0.661077,0.257779 0.710969,0.311829 0.224517,0.203729 0.336776,0.542582 0.336776,1.016562 v 8.787332 c 0,0.378352 -0.01871,0.652761 -0.05613,0.823228 -0.04989,0.187096 -0.176702,0.374193 -0.380431,0.561291 -0.137204,0.133047 -0.282724,0.21828 -0.43656,0.255699 -0.170466,0.04989 -0.382509,0.07484 -0.63613,0.07484 H 17.289653 6.8932844 6.5876927 c -0.2203592,0 -0.4240875,-0.02495 -0.6111844,-0.07484 C 5.7727805,26.170533 5.585683,26.076986 5.4152169,25.927307 5.1574367,25.686159 5.0285491,25.30157 5.0285491,24.773541 V 6.3818857 c 0,-0.253621 0.035341,-0.4573488 0.1060218,-0.6111845 C 5.1844635,5.6334969 5.269695,5.5046074 5.3902706,5.3840339 5.6272601,5.1636745 5.9848237,5.0534954 6.4629613,5.0534954 Z m 17.7617607,0.024946 c 0.286884,0 0.523873,0.1205723 0.71097,0.3617215 0.187098,0.2369895 0.280645,0.50932 0.280645,0.816991 v 16.2961671 0.355484 c 0,0.340933 0.0083,0.555056 0.02495,0.642367 0.02079,0.08315 0.07276,0.185019 0.155914,0.305592 0.153834,0.203729 0.332617,0.338855 0.536345,0.405378 0.187097,0.07068 0.434481,0.106021 0.742152,0.106021 h 3.729472 c 0.440717,0 0.806596,0.06652 1.097636,0.199571 0.27441,0.137204 0.411614,0.392903 0.411614,0.767098 0,0.374195 -0.137204,0.629895 -0.411614,0.767099 -0.29104,0.137204 -0.656919,0.205807 -1.097636,0.205807 h -8.04518 c -0.340933,0 -0.640289,-0.04158 -0.898067,-0.124732 -0.270251,-0.07068 -0.449033,-0.191255 -0.536345,-0.361721 -0.08315,-0.153836 -0.133046,-0.305592 -0.149678,-0.45527 -0.01663,-0.153836 -0.02495,-0.343012 -0.02495,-0.567528 v -6.947543 c 0,-0.357563 0.01663,-0.604948 0.04989,-0.742152 0.01663,-0.116416 0.07484,-0.243226 0.174625,-0.380431 0.103943,-0.137204 0.394983,-0.264015 0.87312,-0.380431 0.457349,-0.120574 0.771256,-0.274409 0.941722,-0.461506 0.307671,-0.357564 0.461507,-0.792046 0.461507,-1.303444 V 6.2571542 c 0,-0.3243018 0.09355,-0.6070265 0.280645,-0.848174 0.170468,-0.2203593 0.401221,-0.3305385 0.69226,-0.3305385 z m 10.776799,0 h 8.325826 c 0.357564,0 0.665235,0.085233 0.923013,0.2556996 0.236989,0.187097 0.355484,0.4427966 0.355484,0.7670984 0,0.3575636 -0.118495,0.6132632 -0.355484,0.7670984 -0.23699,0.1704666 -0.54466,0.2556997 -0.923013,0.2556997 h -5.899799 c -0.357563,0 -0.663155,0.049893 -0.916776,0.1496777 -0.103943,0.03742 -0.241148,0.1143373 -0.411614,0.2307534 -0.187097,0.1372049 -0.322222,0.3076709 -0.405377,0.5113987 -0.103944,0.2037284 -0.155915,0.4095354 -0.155915,0.6174212 v 4.0600095 c 0,0.270251 0.01663,0.50932 0.04989,0.717206 0.03742,0.220359 0.130968,0.424087 0.280646,0.611184 0.137205,0.187097 0.351327,0.313907 0.642367,0.380431 0.286882,0.08731 0.636131,0.130968 1.047744,0.130968 h 5.594207 c 0.407455,0 0.756704,0.07692 1.047744,0.230753 0.286883,0.149678 0.430324,0.422009 0.430324,0.816991 0,0.390826 -0.162151,0.671472 -0.486453,0.841938 -0.220359,0.120574 -0.559212,0.18086 -1.016562,0.18086 h -3.679578 c -0.220359,0 -0.424086,0.02495 -0.611184,0.07484 -0.207885,0.04989 -0.386668,0.151757 -0.536346,0.305593 -0.29104,0.29104 -0.43656,0.681865 -0.43656,1.172475 v 4.602591 c 0,0.440718 0.101864,0.798282 0.305593,1.072691 0.153834,0.187097 0.349247,0.313908 0.586237,0.380431 0.220359,0.08731 0.492689,0.130968 0.816991,0.130968 h 3.754418 c 0.357564,0 0.663156,0.07692 0.916776,0.230754 0.257779,0.149678 0.386668,0.411614 0.386668,0.785808 0,0.357564 -0.128889,0.604948 -0.386668,0.742152 -0.25362,0.137204 -0.559212,0.205807 -0.916776,0.205807 h -7.683459 c -0.548818,0 -0.941723,-0.01663 -1.178712,-0.04989 -0.236991,-0.01663 -0.449034,-0.110179 -0.636131,-0.280646 -0.187098,-0.153836 -0.299356,-0.324302 -0.336775,-0.511399 -0.04989,-0.170466 -0.07484,-0.401219 -0.07484,-0.692259 V 6.5627464 c 0,-0.2910401 0.02495,-0.5217934 0.07484,-0.69226 0.03742,-0.1704661 0.133047,-0.3243013 0.286883,-0.4615062 0.149677,-0.1330472 0.318064,-0.2265956 0.505162,-0.2806459 0.170467,-0.033262 0.409536,-0.049893 0.717206,-0.049893 z m 12.747556,0 h 8.862171 c 0.307674,0 0.530107,0.00832 0.667316,0.024946 0.137203,0.03742 0.280644,0.114337 0.430321,0.2307533 0.291038,0.2203587 0.436559,0.5363451 0.436559,0.9479592 V 10.34211 c 0,0.340932 -0.08523,0.631972 -0.2557,0.87312 -0.170465,0.23699 -0.409534,0.355485 -0.717203,0.355485 -0.336773,0 -0.600792,-0.120574 -0.792044,-0.361722 -0.203732,-0.220358 -0.305593,-0.50932 -0.305593,-0.866883 V 8.5272669 c 0,-0.2702518 -0.0083,-0.4739796 -0.02495,-0.6111844 C 56.016694,7.795509 55.939777,7.6499887 55.819204,7.4795226 55.702788,7.3256868 55.559348,7.2238229 55.388877,7.1739304 55.218412,7.1240378 55.004292,7.0990915 54.746511,7.0990915 h -4.752267 -0.505163 c -0.170466,0.016631 -0.349248,0.085233 -0.536345,0.205807 -0.461506,0.3201439 -0.69226,0.7442309 -0.69226,1.272261 v 4.1410845 c 0,0.440718 0.118495,0.831543 0.355485,1.172476 0.187096,0.241148 0.349247,0.413693 0.486452,0.517636 0.137205,0.09979 0.324302,0.149677 0.561292,0.149677 h 6.716792 c 0.428241,0 0.744227,0.0083 0.947959,0.02495 0.187096,0.03326 0.374192,0.135125 0.561288,0.305592 0.17047,0.187097 0.2557,0.434481 0.2557,0.742152 v 9.167763 0.305592 c 0,0.191255 -0.0083,0.347169 -0.02494,0.467743 -0.01663,0.116416 -0.08523,0.251541 -0.205807,0.405377 -0.116416,0.153836 -0.268175,0.247384 -0.455271,0.280646 -0.207883,0.04989 -0.482295,0.07484 -0.82323,0.07484 h -9.167761 c -0.187096,0 -0.357563,-0.01663 -0.511399,-0.04989 -0.170466,-0.03326 -0.332618,-0.135125 -0.486452,-0.305592 -0.06652,-0.08731 -0.108101,-0.216201 -0.124732,-0.386667 -0.01663,-0.153836 -0.02495,-0.340933 -0.02495,-0.561292 v -4.265816 c 0,-0.357564 0.101863,-0.646525 0.305592,-0.866884 0.187098,-0.203728 0.536345,-0.305592 1.047745,-0.305592 h 1.758713 c 0.30767,0 0.58,0.11018 0.816991,0.330538 0.241147,0.220359 0.361721,0.54466 0.361721,0.972906 v 1.839789 c 0,0.457348 0.09355,0.831543 0.280646,1.122583 0.253621,0.390825 0.644447,0.586238 1.172476,0.586238 l 2.450974,-0.02495 c 0.494769,0 0.895985,-0.128889 1.203659,-0.386668 0.307668,-0.23699 0.461508,-0.567527 0.461508,-0.991615 v -4.777215 c 0,-0.340933 -0.01663,-0.613263 -0.04989,-0.816991 -0.05405,-0.187097 -0.157996,-0.357564 -0.31183,-0.511399 -0.153839,-0.153836 -0.340935,-0.2557 -0.561293,-0.305592 -0.220357,-0.05405 -0.467739,-0.08108 -0.742151,-0.08108 h -6.53593 c -0.428244,0 -0.725522,-0.01663 -0.89183,-0.04989 -0.170466,-0.01663 -0.340932,-0.09355 -0.511398,-0.230753 -0.170468,-0.116416 -0.27441,-0.286883 -0.311829,-0.5114 -0.04989,-0.203727 -0.07484,-0.467742 -0.07484,-0.792044 V 6.4879075 c 0,-0.1538357 0.01663,-0.3159863 0.04989,-0.4864529 0.01663,-0.1704661 0.101864,-0.3492482 0.2557,-0.5363451 0.120574,-0.1372049 0.29104,-0.2390688 0.511399,-0.3055923 0.220359,-0.05405 0.467743,-0.081075 0.742152,-0.081076 z m 13.315086,0 c 0.324299,0 0.604943,0.1288884 0.841937,0.3866678 0.220358,0.2702513 0.330536,0.5841589 0.330536,0.9417225 v 6.5172193 0.405377 c 0,0.187098 0.01871,0.324302 0.05613,0.411614 0.04989,0.137205 0.143441,0.214123 0.280644,0.230754 h 0.07484 c 0.08315,0 0.16839,-0.01871 0.255701,-0.05613 0.103941,-0.04989 0.205807,-0.116416 0.305592,-0.19957 l 7.97034,-7.6148566 c 0.257776,-0.2369895 0.480214,-0.424087 0.667315,-0.5612913 0.27025,-0.2037283 0.515557,-0.3222232 0.735915,-0.3554849 0.207883,-0.016631 0.394979,-0.024946 0.561293,-0.024946 0.528025,0 0.868961,0.058208 1.022795,0.1746241 0.137203,0.1205735 0.205808,0.249463 0.205808,0.3866673 0,0.099785 -0.0083,0.1746241 -0.02495,0.2245167 -0.03326,0.087312 -0.118492,0.1995703 -0.255695,0.3367752 l -7.55873,7.2281885 c -0.137203,0.120574 -0.257781,0.247384 -0.361723,0.380431 -0.06652,0.120574 -0.108097,0.214123 -0.124728,0.280646 0,0.03742 0.0083,0.06444 0.02494,0.08107 0.04989,0.153836 0.212045,0.230753 0.486457,0.230753 h 0.305587 5.775071 c 0.286882,0 0.557132,0.02495 0.810751,0.07484 0.257781,0.04989 0.446958,0.126811 0.56753,0.230754 0.116416,0.116416 0.201651,0.268172 0.2557,0.45527 0.04989,0.207885 0.07484,0.438638 0.07484,0.692259 v 9.198946 c 0,0.320144 -0.09355,0.592474 -0.280644,0.816991 -0.203727,0.236989 -0.511401,0.355485 -0.92301,0.355485 l -1.939579,0.02495 c -0.307669,0 -0.546738,-0.01663 -0.717203,-0.04989 -0.166309,-0.01663 -0.309749,-0.09355 -0.430327,-0.230753 -0.120572,-0.137204 -0.189171,-0.282724 -0.205802,-0.43656 -0.03326,-0.133047 -0.04989,-0.353406 -0.04989,-0.661077 v -6.947542 c 0,-0.324302 -0.01663,-0.563371 -0.04989,-0.717206 -0.05406,-0.153836 -0.155915,-0.288962 -0.305593,-0.405378 -0.15384,-0.120574 -0.307674,-0.197491 -0.461508,-0.230753 -0.170465,-0.03326 -0.349248,-0.04989 -0.536344,-0.04989 h -2.120438 c -0.390822,0 -0.690178,0.0083 -0.898066,0.02495 -0.220358,0.03326 -0.415772,0.118494 -0.586237,0.255699 -0.303512,0.253621 -0.45527,0.652761 -0.45527,1.197422 v 6.822812 c 0,0.357563 -0.0686,0.663155 -0.205808,0.916776 -0.241145,0.324301 -0.590393,0.486453 -1.047744,0.486453 h -2.145381 c -0.528032,0 -0.852331,-0.162152 -0.972903,-0.486453 -0.04989,-0.09979 -0.08315,-0.234911 -0.09978,-0.405377 -0.01663,-0.153835 -0.02495,-0.332617 -0.02495,-0.536346 V 6.3569394 c 0,-0.3409327 0.110178,-0.6382095 0.330541,-0.8918299 0.220358,-0.2577794 0.501002,-0.3866678 0.841937,-0.3866678 z m 52.524417,0 h 8.22604 0.7671 c 0.23699,0.033262 0.47606,0.1434413 0.71721,0.3305385 0.23698,0.2411475 0.35548,0.5571339 0.35548,0.9479592 V 25.160208 c 0,0.253621 -0.052,0.473979 -0.15591,0.661077 -0.17047,0.307671 -0.45111,0.461506 -0.84194,0.461506 -0.39082,0 -0.66315,-0.128889 -0.81699,-0.386667 -0.17047,-0.253621 -0.2557,-0.507241 -0.2557,-0.760862 v -6.872704 c 0,-0.307671 -0.025,-0.571686 -0.0748,-0.792045 -0.0665,-0.203728 -0.19541,-0.399141 -0.38667,-0.586238 -0.25362,-0.257778 -0.65276,-0.386667 -1.19742,-0.386667 h -4.14108 c -0.14968,0 -0.32015,0.0083 -0.5114,0.02495 -0.20373,0.01663 -0.39083,0.08523 -0.5613,0.205807 -0.18709,0.120574 -0.33885,0.29104 -0.45526,0.511399 -0.13721,0.220359 -0.20581,0.432403 -0.20581,0.63613 v 7.103457 c 0,0.561292 -0.18709,0.935487 -0.56129,1.122584 -0.27441,0.137204 -0.70889,0.205807 -1.30345,0.205807 h -0.5114 -0.38043 c -0.1372,0 -0.26609,0.0083 -0.38666,0.02495 -0.42409,0 -0.72968,-0.07692 -0.91678,-0.230753 -0.25778,-0.203729 -0.38667,-0.586238 -0.38667,-1.14753 v -7.458942 c 0,-0.236989 0.025,-0.415771 0.0748,-0.536345 0.0374,-0.120574 0.10602,-0.249463 0.20581,-0.386668 0.0333,-0.03326 0.45111,-0.228674 1.25355,-0.586237 0.59455,-0.253621 0.89183,-0.696418 0.89183,-1.328391 V 6.6625316 c 0,-0.2868826 0.027,-0.5155567 0.0811,-0.6860233 0.0333,-0.1704666 0.12681,-0.3409327 0.28064,-0.5113988 0.14968,-0.1538359 0.32846,-0.2556997 0.53635,-0.3055923 0.20373,-0.05405 0.42408,-0.081075 0.66107,-0.081075 z m -21.528651,0.081075 h 2.195274 c 0.378353,0 0.669396,0.083154 0.873123,0.249463 0.187096,0.1704666 0.338854,0.3762731 0.45527,0.6174206 l 1.920862,4.315709 c 0.09979,0.340932 0.2952,0.511399 0.586242,0.511399 0.120573,0 0.230752,-0.04366 0.330537,-0.130968 0.08731,-0.06652 0.172546,-0.176703 0.2557,-0.330539 L 101.20898,6.0264 c 0.0665,-0.1205734 0.16008,-0.2411475 0.28065,-0.3617209 0.11641,-0.099785 0.20997,-0.1850188 0.28065,-0.2556997 0.20372,-0.1496779 0.46774,-0.2245167 0.79204,-0.2245167 h 4.13485 c 0.3243,0 0.59663,0.074839 0.81699,0.2245167 0.13721,0.1039432 0.23075,0.2328321 0.28065,0.3866673 0.0374,0.1538357 0.0561,0.365879 0.0561,0.6361308 V 6.8433918 25.28494 c 0,0.444875 -0.12058,0.760862 -0.36173,0.947959 -0.1372,0.116417 -0.27233,0.18294 -0.40537,0.19957 -0.13721,0.03742 -0.34302,0.05613 -0.61742,0.05613 l -1.98947,-0.02495 c -0.29104,0 -0.49477,-0.01871 -0.61118,-0.05613 -0.13721,-0.01663 -0.25779,-0.101865 -0.36173,-0.2557 -0.0998,-0.133047 -0.14967,-0.378351 -0.14967,-0.735915 V 8.4274818 7.8911362 c -0.0374,-0.1704661 -0.13929,-0.2806454 -0.3056,-0.330538 h -0.0561 c -0.0998,0 -0.20996,0.049893 -0.33053,0.1496777 -0.15384,0.1372044 -0.26402,0.2827247 -0.33054,0.4365599 l -3.448826,5.8748522 c -0.120577,0.220359 -0.249462,0.390826 -0.386671,0.511399 -0.149678,0.137205 -0.318062,0.205807 -0.505158,0.205807 -0.428246,0 -0.73592,-0.222438 -0.923015,-0.667313 L 94.255203,7.9659751 C 94.188685,7.795509 94.095132,7.6499887 93.974559,7.5294152 93.874774,7.4462609 93.772913,7.4046837 93.668966,7.4046837 h -0.09978 c -0.187096,0.049893 -0.305593,0.1517565 -0.355485,0.3055922 -0.07068,0.1704661 -0.106023,0.3845886 -0.106023,0.642367 V 25.104079 c 0,0.340933 -0.08523,0.648603 -0.255694,0.923013 -0.170471,0.29104 -0.426171,0.43656 -0.767101,0.43656 -0.303512,0 -0.532187,-0.14552 -0.686022,-0.43656 C 91.245017,25.752682 91.1681,25.42838 91.1681,25.054186 V 6.3070468 c 0,-0.1372049 0.0083,-0.2744092 0.02495,-0.4116141 0,-0.1164161 0.04157,-0.2432263 0.124729,-0.3804306 0.191257,-0.2369904 0.438639,-0.3554849 0.742151,-0.3554849 z m 34.082871,0.024946 h 11.64993 c 0.30766,0 0.57999,0.093549 0.81698,0.280646 0.24115,0.1870969 0.36173,0.424087 0.36173,0.7109691 0,0.2910401 -0.11226,0.5467397 -0.33678,0.7670984 -0.22036,0.2203592 -0.47606,0.3305385 -0.7671,0.3305385 h -2.32 c -0.25778,0 -0.41993,0.010394 -0.48645,0.031183 -0.12058,0.033262 -0.2661,0.1184948 -0.43657,0.2556997 -0.25362,0.2203586 -0.38043,0.5508972 -0.38043,0.991615 V 25.185154 c 0,0.286883 -0.0353,0.523872 -0.10602,0.71097 -0.0832,0.207885 -0.20996,0.353405 -0.38043,0.43656 -0.18709,0.08731 -0.44279,0.130968 -0.7671,0.130968 h -1.91463 c -0.29103,0 -0.49476,-0.01871 -0.61118,-0.05613 -0.1372,-0.01663 -0.26609,-0.101865 -0.38667,-0.2557 -0.1372,-0.149679 -0.21412,-0.309749 -0.23075,-0.480216 -0.0333,-0.170466 -0.0499,-0.340932 -0.0499,-0.511399 V 8.7580203 c 0,-0.4947684 -0.1185,-0.8689629 -0.35549,-1.1225832 -0.1372,-0.1372049 -0.30767,-0.2390688 -0.5114,-0.3055923 -0.20373,-0.05405 -0.44279,-0.081076 -0.7172,-0.081076 h -2.12044 c -0.34093,0 -0.6382,-0.093548 -0.89183,-0.2806459 -0.25777,-0.1704661 -0.38666,-0.4074561 -0.38666,-0.7109691 0,-0.3243018 0.1372,-0.5883169 0.41161,-0.7920447 0.25362,-0.1870975 0.55921,-0.280646 0.91677,-0.280646 z M 114.99181,6.868337 c -0.18709,0.016631 -0.37419,0.093549 -0.56129,0.2307534 -0.35757,0.23699 -0.53634,0.6194999 -0.53634,1.1475295 V 12.74319 c 0,0.236989 0.008,0.467742 0.0249,0.692259 0,0.220359 0.0935,0.407456 0.28065,0.561292 0.17046,0.170466 0.36795,0.27233 0.59247,0.305592 0.20373,0.04989 0.48437,0.07484 0.84194,0.07484 h 4.29076 c 0.35756,0 0.67355,-0.04158 0.94796,-0.124732 0.25362,-0.07068 0.44072,-0.19957 0.56129,-0.386667 0.0998,-0.187098 0.16631,-0.374195 0.19957,-0.561292 0.0166,-0.187097 0.025,-0.434481 0.025,-0.742152 V 8.3214599 c 0,-0.303513 -0.008,-0.5405031 -0.025,-0.7109691 -0.0333,-0.1538358 -0.12681,-0.3159864 -0.28064,-0.486453 -0.15384,-0.1704661 -0.41785,-0.2556997 -0.79205,-0.2556997 h -0.33054 -4.64624 z M 79.605494,7.0741452 c -0.320143,0 -0.584156,0.024946 -0.792044,0.074839 -0.220358,0.066523 -0.415772,0.1850182 -0.586237,0.3554848 -0.307673,0.3076709 -0.461508,0.7421521 -0.461508,1.303444 v 13.489708 c 0,0.440718 0.04366,0.789967 0.130967,1.047744 0.08315,0.270252 0.261937,0.517635 0.536349,0.742153 0.187096,0.133047 0.399141,0.226596 0.636129,0.280645 0.224514,0.04989 0.471901,0.07484 0.742152,0.07484 h 3.324091 c 0.320148,0 0.625736,-0.05197 0.916779,-0.155914 0.274411,-0.09979 0.46982,-0.243227 0.586236,-0.430324 0.103947,-0.170466 0.172546,-0.357563 0.205808,-0.561291 0.01663,-0.187097 0.02495,-0.442797 0.02495,-0.767099 v -6.972489 c 0,-0.207886 0.01663,-0.378352 0.04989,-0.511399 0.01663,-0.137205 0.110179,-0.324302 0.280644,-0.561292 0.170465,-0.224516 0.478139,-0.378351 0.92301,-0.461506 0.42409,-0.07068 0.746314,-0.130968 0.966671,-0.180861 0.224514,-0.04989 0.353405,-0.160071 0.386666,-0.330538 0.01663,-0.170466 0.02495,-0.324302 0.02495,-0.461506 V 12.587276 8.2965136 c 0,-0.1330469 -0.03326,-0.276488 -0.09978,-0.4303237 C 87.313901,7.7123547 87.212035,7.5751498 87.095619,7.4545763 86.804577,7.2009554 86.395042,7.0741452 85.867016,7.0741452 Z M 11.23394,7.0990915 c -0.286883,0 -0.507242,0.016631 -0.661077,0.049893 C 10.402396,7.1988767 10.240246,7.2924251 10.08641,7.42963 9.7787391,7.6832504 9.6249039,8.0491294 9.6249039,8.5272669 v 4.1909771 c 0,0.203728 0.018709,0.407456 0.056129,0.611184 0.016631,0.220359 0.1101794,0.426166 0.2806455,0.617421 0.2536206,0.286882 0.6194996,0.430324 1.0976366,0.430324 h 2.220221 c 0.307671,0 0.56337,-0.04989 0.767099,-0.149678 0.203727,-0.103943 0.374194,-0.249463 0.511398,-0.43656 0.22036,-0.29104 0.330539,-0.67355 0.330539,-1.14753 V 8.6021058 c 0,-0.1870969 -0.03326,-0.3741944 -0.09979,-0.5612919 -0.07068,-0.170466 -0.155915,-0.3222225 -0.2557,-0.4552694 C 14.429144,7.4483396 14.300255,7.344397 14.14642,7.2737155 13.90943,7.1572995 13.620468,7.0990915 13.279536,7.0990915 Z m 0.255699,9.3985165 c -0.390825,0 -0.67147,0.0083 -0.841937,0.02495 -0.187097,0.03326 -0.374195,0.135126 -0.561292,0.305592 -0.3243018,0.29104 -0.4864524,0.667313 -0.4864524,1.12882 v 4.621301 c 0,0.253621 0.027025,0.47398 0.081076,0.661077 0.049893,0.207885 0.160072,0.39706 0.3305384,0.567528 0.170467,0.170466 0.38251,0.288961 0.636131,0.355484 0.241147,0.08316 0.471901,0.124732 0.692259,0.124732 h 3.704525 c 0.374195,0 0.679786,-0.03326 0.916776,-0.09979 0.224517,-0.04989 0.43864,-0.168388 0.642366,-0.355485 0.357564,-0.340933 0.536346,-0.792045 0.536346,-1.353336 v -4.371838 c 0,-0.52803 -0.187097,-0.954196 -0.561292,-1.278498 -0.153835,-0.133047 -0.332617,-0.226595 -0.536345,-0.280646 -0.207886,-0.03326 -0.45527,-0.04989 -0.742153,-0.04989 z m 85.759119,3.473771 h 1.989472 c 0.34093,0 0.629892,0.101864 0.86688,0.305592 0.24115,0.224517 0.36172,0.507242 0.36172,0.848174 v 3.953988 c 0,0.30767 -0.008,0.530109 -0.025,0.667313 -0.0332,0.137206 -0.12681,0.27233 -0.28064,0.405377 -0.170465,0.153835 -0.349248,0.239068 -0.536344,0.2557 -0.187096,0.03742 -0.365879,0.05613 -0.536344,0.05613 h -1.864737 c -0.307669,0 -0.521794,-0.01871 -0.642367,-0.05613 -0.137208,-0.01663 -0.2557,-0.110179 -0.355485,-0.280646 -0.103942,-0.153834 -0.164228,-0.297276 -0.180859,-0.430323 -0.03327,-0.137206 -0.04989,-0.343013 -0.04989,-0.617421 V 21.22493 c 0,-0.170466 0.03326,-0.340932 0.09979,-0.511399 0.07068,-0.170466 0.147597,-0.297276 0.230751,-0.38043 0.257776,-0.241148 0.565449,-0.361722 0.92301,-0.361722 z"
     id="rect877" />
  <rect
     style="opacity:1;fill:#ff0000;fill-opacity:1;stroke:none;stroke-width:0.37138358;stroke-miterlimit:4;stroke-dasharray:none;stroke-opacity:1"
     id="rect934-5"
     width="1.0583333"
     height="2.3948443"
     x="11.523379"
     y="4.8735886" />
  <rect
     style="opacity:1;fill:#ff0000;fill-opacity:1;stroke:none;stroke-width:0.39035994;stroke-miterlimit:4;stroke-dasharray:none;stroke-opacity:1"
     id="rect934-5-3"
     width="1.0583333"
     height="2.6458333"
     x="11.523379"
     y="14.208412" />
  <rect
     style="opacity:1;fill:#ff0000;fill-opacity:1;stroke:none;stroke-width:0.37138355;stroke-miterlimit:4;stroke-dasharray:none;stroke-opacity:1"
     id="rect934-5-8"
     width="1.0583333"
     height="2.3948443"
     x="80.909889"
     y="24.189951" />
  <rect
     style="opacity:1;fill:#ff0000;fill-opacity:1;stroke:none;stroke-width:0.37138352;stroke-miterlimit:4;stroke-dasharray:none;stroke-opacity:1"
     id="rect934-5-8-9"
     width="1.0583333"
     height="2.3948443"
     x="80.909889"
     y="4.8432612" />
  <rect
     style="opacity:1;fill:#ff0000;fill-opacity:1;stroke:none;stroke-width:0.37138352;stroke-miterlimit:4;stroke-dasharray:none;stroke-opacity:1"
     id="rect934-5-8-6"
     width="1.0583333"
     height="2.3948443"
     x="117.39217"
     y="4.8005257" />
  <rect
     style="opacity:1;fill:#ff0000;fill-opacity:1;stroke:none;stroke-width:0.37138349;stroke-miterlimit:4;stroke-dasharray:none;stroke-opacity:1"
     id="rect934-5-8-6-4"
     width="1.0583333"
     height="2.3948443"
     x="117.39217"
     y="14.274484" />
  <rect
     style="opacity:1;fill:#ff0000;fill-opacity:1;stroke:none;stroke-width:0.39035994;stroke-miterlimit:4;stroke-dasharray:none;stroke-opacity:1"
     id="rect934-5-3-7"
     width="1.0583333"
     height="2.6458333"
     x="11.523379"
     y="24.042669" />
</svg>
