<?xml version="1.0" encoding="UTF-8" standalone="no"?>
<svg
   xmlns:dc="http://purl.org/dc/elements/1.1/"
   xmlns:cc="http://creativecommons.org/ns#"
   xmlns:rdf="http://www.w3.org/1999/02/22-rdf-syntax-ns#"
   xmlns:svg="http://www.w3.org/2000/svg"
   xmlns="http://www.w3.org/2000/svg"
   xmlns:sodipodi="http://sodipodi.sourceforge.net/DTD/sodipodi-0.dtd"
   xmlns:inkscape="http://www.inkscape.org/namespaces/inkscape"
   id="svg8"
   version="1.1"
   viewBox="0 0 240 52.52858"
   height="52.528584mm"
   width="240mm"
   sodipodi:docname="stencil-240mm.svg"
   inkscape:version="0.92.3 (2405546, 2018-03-11)"
   inkscape:export-filename="/home/chill/bleskomat-logo.png"
   inkscape:export-xdpi="300.03387"
   inkscape:export-ydpi="300.03387">
  <sodipodi:namedview
     pagecolor="#ffffff"
     bordercolor="#666666"
     borderopacity="1"
     objecttolerance="10"
     gridtolerance="10"
     guidetolerance="10"
     inkscape:pageopacity="1"
     inkscape:pageshadow="2"
     inkscape:window-width="1920"
     inkscape:window-height="1000"
     id="namedview8"
     showgrid="false"
     inkscape:zoom="0.70710678"
     inkscape:cx="473.40679"
     inkscape:cy="100.99976"
     inkscape:window-x="0"
     inkscape:window-y="41"
     inkscape:window-maximized="1"
     inkscape:current-layer="svg8"
     showguides="true"
     inkscape:guide-bbox="true">
    <sodipodi:guide
       position="136.35136,43.662449"
       orientation="1,0"
       id="guide951"
       inkscape:locked="false" />
    <sodipodi:guide
       position="197.25307,24.956615"
       orientation="1,0"
       id="guide998"
       inkscape:locked="false" />
    <sodipodi:guide
       position="20.845769,42.530514"
       orientation="1,0"
       id="guide1015"
       inkscape:locked="false" />
  </sodipodi:namedview>
  <defs
     id="defs2">
    <style
       id="style2">.cls-1{fill:#ff9000;}.cls-2{fill:#fff;}.cls-3{fill:#ffba00;}.cls-4{font-size:260px;letter-spacing:-0.03em;}.cls-4,.cls-7{fill:#4e4e4e;font-family:Ubuntu-BoldItalic, Ubuntu;font-style:italic;}.cls-4,.cls-8,.cls-9{font-weight:700;}.cls-5{letter-spacing:-0.04em;}.cls-6{letter-spacing:-0.05em;}.cls-7{font-size:57px;}.cls-12,.cls-9{letter-spacing:0.01em;}.cls-10,.cls-11,.cls-12,.cls-13,.cls-14{font-family:Ubuntu-LightItalic, Ubuntu;}.cls-10{letter-spacing:-0.02em;}.cls-11{letter-spacing:-0.02em;}.cls-13{letter-spacing:-0.01em;}.cls-14{letter-spacing:0.01em;}</style>
    <style
       id="style2-4">.cls-1{fill:#ff9000;}.cls-2{fill:#fff;}.cls-3{fill:#ffba00;}.cls-4{font-size:260px;letter-spacing:-0.03em;}.cls-4,.cls-7{fill:#4e4e4e;font-family:Ubuntu-BoldItalic, Ubuntu;font-style:italic;}.cls-4,.cls-8,.cls-9{font-weight:700;}.cls-5{letter-spacing:-0.04em;}.cls-6{letter-spacing:-0.05em;}.cls-7{font-size:57px;}.cls-12,.cls-9{letter-spacing:0.01em;}.cls-10,.cls-11,.cls-12,.cls-13,.cls-14{font-family:Ubuntu-LightItalic, Ubuntu;}.cls-10{letter-spacing:-0.02em;}.cls-11{letter-spacing:-0.02em;}.cls-13{letter-spacing:-0.01em;}.cls-14{letter-spacing:0.01em;}</style>
  </defs>
  <metadata
     id="metadata5">
    <rdf:RDF>
      <cc:Work
         rdf:about="">
        <dc:format>image/svg+xml</dc:format>
        <dc:type
           rdf:resource="http://purl.org/dc/dcmitype/StillImage" />
        <dc:title></dc:title>
      </cc:Work>
    </rdf:RDF>
  </metadata>
  <g
     id="g913"
     transform="matrix(0.33523631,0,0,0.33523631,0.00175472,0.01653646)">
    <path
       id="rect877"
       transform="scale(0.26458333)"
       d="M 75.589844,0 C 33.71267,0 0,33.71267 0,75.589844 V 516.62695 c 0,41.87717 33.71267,75.5918 75.589844,75.5918 H 2630.2227 c 41.8771,0 75.5898,-33.71463 75.5898,-75.5918 V 75.589844 C 2705.8125,33.71267 2672.0998,0 2630.2227,0 Z M 1463.707,94.488281 h 189.1407 c 4.7656,0 8.9062,0.3125 12.4218,0.9375 3.5156,0.625001 6.4063,1.914064 8.6719,3.867188 5.1563,4.140621 7.7344,10.546871 7.7344,19.218751 v 348.98437 c 0,8.59374 -2.2656,15.31249 -6.7969,20.15625 -2.8906,2.89064 -6.25,4.64846 -10.0781,5.27344 -3.8282,0.9375 -8.6328,1.40625 -14.4141,1.40625 l -191.0156,0.46875 h -8.6719 c -5.3906,0 -9.375,-0.46875 -11.9531,-1.40625 -2.8906,-0.62501 -5.625,-2.3828 -8.2031,-5.27344 -2.8906,-2.89063 -4.6485,-6.25001 -5.2735,-10.07812 -0.9375,-3.82813 -1.4062,-8.63282 -1.4062,-14.41406 V 119.44922 c 0,-6.40625 2.3828,-12.5 7.1484,-18.28125 2.8906,-2.812504 6.9141,-4.726564 12.0703,-5.742189 5.0782,-0.625 11.9532,-0.9375 20.625,-0.9375 z m -1342.26559,0.46875 h 167.92968 c 6.40626,0 11.05469,0.156249 13.94532,0.46875 2.57812,0.625001 5.78125,2.695306 9.60937,6.210939 3.51563,3.90625 5.27344,9.375 5.27344,16.40625 v 129.60937 c 0,7.03126 2.73437,12.77344 8.20312,17.22657 1.875,1.64062 6.99219,3.86718 15.35157,6.67968 7.96875,2.89063 12.42187,4.84375 13.35937,5.85938 4.21875,3.82813 6.32813,10.19531 6.32813,19.10156 v 165.11719 c 0,7.10937 -0.35157,12.26562 -1.05469,15.46875 -0.9375,3.51561 -3.32031,7.03123 -7.14844,10.54687 -2.57812,2.50001 -5.3125,4.10157 -8.20312,4.80469 -3.20313,0.9375 -7.1875,1.40625 -11.95313,1.40625 h -8.20312 -195.35157 -5.74218 c -4.14063,0 -7.96876,-0.46875 -11.48438,-1.40625 -3.82812,-0.70312 -7.34375,-2.46091 -10.54687,-5.27344 -4.843785,-4.53125 -7.265629,-11.75782 -7.265629,-21.67968 V 119.91797 c 0,-4.76563 0.664062,-8.59375 1.992188,-11.48438 0.937499,-2.57812 2.53903,-5 4.804691,-7.26562 4.45312,-4.140635 11.17187,-6.210939 20.15625,-6.210939 z m 333.75,0.46875 c 5.39064,0 9.84376,2.265597 13.35937,6.796879 3.51564,4.45312 5.27344,9.57031 5.27344,15.35156 v 306.21094 6.67968 c 0,6.40625 0.15626,10.4297 0.46875,12.07032 0.39063,1.5625 1.36718,3.47656 2.92969,5.74218 2.8906,3.82814 6.24999,6.3672 10.07812,7.61719 3.51562,1.32813 8.16405,1.99219 13.94531,1.99219 h 70.07813 c 8.28125,0 15.15625,1.24999 20.625,3.75 5.15626,2.57812 7.73437,7.3828 7.73437,14.41406 0,7.03126 -2.57811,11.83595 -7.73437,14.41406 -5.46875,2.57812 -12.34375,3.86719 -20.625,3.86719 H 420.15234 c -6.40625,0 -12.03125,-0.78127 -16.875,-2.34375 -5.07812,-1.32812 -8.4375,-3.59375 -10.07812,-6.79687 -1.56251,-2.89064 -2.49998,-5.74219 -2.8125,-8.55469 -0.31249,-2.89063 -0.46875,-6.44533 -0.46875,-10.66406 V 335.42578 c 0,-6.71875 0.31249,-11.36719 0.9375,-13.94531 0.31249,-2.1875 1.40625,-4.57031 3.28125,-7.14844 1.95313,-2.57812 7.42188,-4.96094 16.40625,-7.14844 8.59376,-2.26562 14.49219,-5.15625 17.69531,-8.67187 5.78124,-6.71875 8.67188,-14.88282 8.67188,-24.49219 V 117.57422 c 0,-6.09375 1.75782,-11.40625 5.27343,-15.9375 3.20315,-4.140632 7.53909,-6.210939 13.00782,-6.210939 z m 202.5,0 h 156.44531 c 6.71876,0 12.50001,1.601557 17.34375,4.804689 4.45311,3.51562 6.67969,8.32031 6.67969,14.41406 0,6.71875 -2.22658,11.52344 -6.67969,14.41406 -4.45312,3.20313 -10.23436,4.80469 -17.34375,4.80469 H 703.27734 c -6.71874,0 -12.46093,0.9375 -17.22656,2.8125 -1.95313,0.70313 -4.53125,2.14844 -7.73437,4.33594 -3.51562,2.57813 -6.05468,5.78125 -7.61719,9.60937 -1.95314,3.82813 -2.92969,7.69532 -2.92969,11.60157 v 76.28906 c 0,5.07812 0.31249,9.57031 0.9375,13.47656 0.70312,4.14063 2.46094,7.96875 5.27344,11.48438 2.57814,3.51562 6.60156,5.89843 12.07031,7.14843 5.39062,1.64063 11.95313,2.46094 19.6875,2.46094 h 105.11719 c 7.65624,0 14.21875,1.44532 19.6875,4.33594 5.39064,2.8125 8.08594,7.92969 8.08594,15.35156 0,7.34375 -3.04687,12.61719 -9.14063,15.82031 -4.14062,2.26563 -10.5078,3.39844 -19.10156,3.39844 h -69.14063 c -4.14062,0 -7.96873,0.46875 -11.48437,1.40625 -3.90624,0.9375 -7.26563,2.85157 -10.07813,5.74219 -5.46875,5.46875 -8.20312,12.8125 -8.20312,22.03125 v 86.48437 c 0,8.28125 1.91405,15 5.74219,20.15625 2.8906,3.51562 6.56248,5.89845 11.01562,7.14844 4.14062,1.64064 9.25781,2.46094 15.35156,2.46094 h 70.54688 c 6.71876,0 12.46095,1.44533 17.22656,4.33594 4.84377,2.81252 7.26563,7.73439 7.26563,14.76562 0,6.71877 -2.42186,11.3672 -7.26563,13.94531 -4.76561,2.57812 -10.5078,3.86719 -17.22656,3.86719 h -144.375 c -10.31249,0 -17.69532,-0.31252 -22.14844,-0.9375 -4.45314,-0.31252 -8.43751,-2.07031 -11.95312,-5.27344 -3.51564,-2.89063 -5.62501,-6.09376 -6.32813,-9.60937 -0.9375,-3.20313 -1.40625,-7.53906 -1.40625,-13.00781 v -342.1875 c 0,-5.46875 0.46875,-9.80469 1.40625,-13.00782 0.70312,-3.20312 2.49999,-6.09374 5.39063,-8.67187 2.81249,-2.500006 5.97654,-4.257814 9.49218,-5.273439 3.20313,-0.625 7.69533,-0.9375 13.47657,-0.9375 z m 239.53125,0 h 166.52344 c 5.7813,0 9.9609,0.156251 12.5391,0.46875 2.5781,0.703126 5.2734,2.148433 8.0859,4.335939 5.4687,4.14062 8.2031,10.07812 8.2031,17.8125 v 76.28906 c 0,6.40625 -1.6015,11.875 -4.8047,16.40625 -3.2031,4.45313 -7.6953,6.67969 -13.4765,6.67969 -6.3281,0 -11.2891,-2.26563 -14.8828,-6.79688 -3.8282,-4.14062 -5.7422,-9.57031 -5.7422,-16.28906 v -34.10156 c 0,-5.07813 -0.1563,-8.90625 -0.4688,-11.48438 -0.625,-2.26562 -2.0703,-5 -4.3359,-8.20312 -2.1875,-2.89063 -4.8828,-4.80469 -8.086,-5.74219 -3.2031,-0.9375 -7.2265,-1.40625 -12.0703,-1.40625 h -89.29684 -9.49219 c -3.20313,0.3125 -6.56251,1.60156 -10.07813,3.86719 -8.67187,6.01562 -13.00781,13.98437 -13.00781,23.90625 v 77.8125 c 0,8.28125 2.22657,15.625 6.67969,22.03125 3.51561,4.53125 6.56248,7.77344 9.14062,9.72656 2.57812,1.875 6.09374,2.8125 10.54688,2.8125 h 126.21098 c 8.0468,0 13.9843,0.15625 17.8125,0.46875 3.5156,0.625 7.0312,2.53906 10.5468,5.74219 3.2032,3.51562 4.8047,8.16406 4.8047,13.94531 v 172.26563 5.74218 c 0,3.59376 -0.1562,6.52344 -0.4687,8.78907 -0.3125,2.18749 -1.6016,4.72655 -3.8672,7.61718 -2.1875,2.89064 -5.0391,4.64843 -8.5547,5.27344 -3.9062,0.9375 -9.0625,1.40625 -15.4688,1.40625 H 891.94922 c -3.51562,0 -6.71874,-0.31249 -9.60938,-0.9375 -3.20312,-0.62501 -6.25001,-2.53906 -9.14062,-5.74219 -1.25002,-1.64061 -2.03126,-4.0625 -2.34375,-7.26562 -0.31252,-2.89063 -0.46875,-6.40625 -0.46875,-10.54688 v -80.15625 c 0,-6.71876 1.91405,-12.14844 5.74219,-16.28906 3.51564,-3.82812 10.07812,-5.74219 19.6875,-5.74219 h 33.04687 c 5.78124,0 10.89842,2.07032 15.35156,6.21094 4.53125,4.14061 6.79688,10.23436 6.79688,18.28125 v 34.57031 c 0,8.59374 1.75782,15.625 5.27344,21.09375 4.76563,7.34375 12.10938,11.01563 22.03125,11.01563 l 46.05469,-0.46875 c 9.2969,0 16.8359,-2.42188 22.6172,-7.26563 5.7812,-4.45314 8.6719,-10.66405 8.6719,-18.63281 v -89.76562 c 0,-6.40626 -0.3125,-11.52344 -0.9375,-15.35157 -1.0157,-3.51562 -2.9688,-6.71875 -5.8594,-9.60937 -2.8907,-2.89063 -6.4063,-4.80469 -10.5469,-5.74219 -4.1406,-1.01562 -8.789,-1.52344 -13.9453,-1.52344 H 901.55859 c -8.04686,0 -13.63282,-0.3125 -16.75781,-0.9375 -3.20312,-0.3125 -6.40625,-1.75781 -9.60937,-4.33593 -3.20315,-2.1875 -5.15626,-5.39063 -5.85938,-9.60938 -0.9375,-3.82812 -1.40625,-8.78906 -1.40625,-14.88281 V 121.91016 c 0,-2.89063 0.31249,-5.9375 0.9375,-9.14063 0.31249,-3.20312 1.91406,-6.5625 4.80469,-10.07812 2.26562,-2.57813 5.46875,-4.492191 9.60937,-5.742191 4.14063,-1.015625 8.78906,-1.523438 13.94532,-1.523438 z m 250.19534,0 c 6.0937,0 11.3671,2.42186 15.8203,7.265629 4.1406,5.07812 6.2109,10.97656 6.2109,17.69531 v 122.46094 7.61718 c 0,3.51563 0.3516,6.09375 1.0547,7.73438 0.9375,2.57812 2.6953,4.02344 5.2734,4.33594 h 1.4063 c 1.5625,0 3.1641,-0.35157 4.8047,-1.05469 1.9531,-0.9375 3.8672,-2.1875 5.7422,-3.75 l 149.7656,-143.08594 c 4.8437,-4.45312 9.0234,-7.96875 12.5391,-10.54687 5.0781,-3.82813 9.6875,-6.054691 13.8281,-6.679691 3.9062,-0.312499 7.4218,-0.46875 10.5469,-0.46875 9.9218,0 16.3281,1.093746 19.2187,3.281251 2.5781,2.26562 3.8672,4.6875 3.8672,7.26562 0,1.875 -0.1563,3.28125 -0.4688,4.21875 -0.625,1.64063 -2.2265,3.75 -4.8046,6.32813 l -142.0313,135.82031 c -2.5781,2.26563 -4.8438,4.64844 -6.7969,7.14844 -1.25,2.26562 -2.0312,4.02344 -2.3437,5.27344 0,0.70312 0.1562,1.21093 0.4687,1.52343 0.9375,2.89063 3.9844,4.33594 9.1407,4.33594 h 5.7421 108.5157 c 5.3906,0 10.4687,0.46875 15.2343,1.40625 4.8438,0.9375 8.3985,2.38281 10.6641,4.33594 2.1875,2.1875 3.7891,5.03906 4.8047,8.55469 0.9375,3.90625 1.4062,8.24218 1.4062,13.00781 v 172.85156 c 0,6.01562 -1.7578,11.1328 -5.2734,15.35156 -3.8281,4.45312 -9.6094,6.67969 -17.3437,6.67969 l -36.4454,0.46875 c -5.7812,0 -10.2734,-0.31249 -13.4765,-0.9375 -3.125,-0.31249 -5.8203,-1.75779 -8.086,-4.33594 -2.2656,-2.57811 -3.5546,-5.31249 -3.8671,-8.20312 -0.625,-2.50001 -0.9375,-6.64064 -0.9375,-12.42188 V 338.35547 c 0,-6.09375 -0.3125,-10.58594 -0.9375,-13.47656 -1.0157,-2.89063 -2.9297,-5.42969 -5.7422,-7.61719 -2.8907,-2.26563 -5.7813,-3.71094 -8.6719,-4.33594 -3.2031,-0.625 -6.5625,-0.9375 -10.0781,-0.9375 h -39.8438 c -7.3437,0 -12.9687,0.15625 -16.875,0.46875 -4.1406,0.625 -7.8125,2.22656 -11.0156,4.80469 -5.7031,4.76562 -8.5547,12.26562 -8.5547,22.5 v 128.20312 c 0,6.71874 -1.2891,12.46093 -3.8672,17.22657 -4.5312,6.09373 -11.0937,9.14062 -19.6875,9.14062 h -40.3125 c -9.9219,0 -16.0156,-3.04689 -18.2812,-9.14062 -0.9375,-1.87503 -1.5625,-4.41407 -1.875,-7.61719 -0.3125,-2.89061 -0.4688,-6.24999 -0.4688,-10.07813 V 119.44922 c 0,-6.40625 2.0703,-11.99219 6.211,-16.75781 4.1406,-4.843769 9.414,-7.265629 15.8203,-7.265629 z m 986.9531,0 h 154.5703 14.4141 c 4.4531,0.625001 8.9453,2.695313 13.4765,6.210939 4.4531,4.53125 6.6797,10.46875 6.6797,17.8125 v 353.32031 c 0,4.76563 -0.9765,8.90624 -2.9297,12.42188 -3.2031,5.78124 -8.4765,8.67187 -15.8203,8.67187 -7.3437,0 -12.4609,-2.42188 -15.3515,-7.26562 -3.2032,-4.76564 -4.8047,-9.53125 -4.8047,-14.29688 V 343.16016 c 0,-5.78125 -0.4688,-10.74219 -1.4063,-14.88282 -1.25,-3.82812 -3.6719,-7.5 -7.2656,-11.01562 -4.7656,-4.84375 -12.2657,-7.26563 -22.5,-7.26563 h -77.8125 c -2.8125,0 -6.0156,0.15625 -9.6094,0.46875 -3.8281,0.3125 -7.3437,1.60157 -10.5469,3.86719 -3.5156,2.26563 -6.3671,5.46875 -8.5546,9.60938 -2.5782,4.14062 -3.8672,8.125 -3.8672,11.95312 v 133.47656 c 0,10.54688 -3.5156,17.57814 -10.5469,21.09375 -5.1563,2.57812 -13.3203,3.86719 -24.4922,3.86719 h -9.6094 -7.1484 c -2.5781,0 -5,0.15623 -7.2656,0.46875 -7.9688,0 -13.711,-1.4453 -17.2266,-4.33594 -4.8437,-3.82813 -7.2656,-11.01562 -7.2656,-21.5625 V 328.74609 c 0,-4.45312 0.4687,-7.8125 1.4062,-10.07812 0.7031,-2.26563 1.9922,-4.6875 3.8672,-7.26563 0.625,-0.625 8.4766,-4.29687 23.5547,-11.01562 11.1719,-4.76563 16.7578,-13.08594 16.7578,-24.96094 V 125.19141 c 0,-5.39063 0.5078,-9.6875 1.5235,-12.89063 0.6249,-3.20313 2.3828,-6.40625 5.2734,-9.60937 2.8125,-2.890633 6.1719,-4.804692 10.0781,-5.742191 3.8282,-1.015625 7.9688,-1.523438 12.4219,-1.523438 z m -404.5313,1.523438 h 41.25 c 7.1094,0 12.5782,1.562499 16.4063,4.687501 3.5156,3.20313 6.3672,7.07031 8.5547,11.60156 l 36.0937,81.09375 c 1.875,6.40625 5.5469,9.60938 11.0157,9.60938 2.2656,0 4.3359,-0.82032 6.2109,-2.46094 1.6406,-1.25 3.2422,-3.32031 4.8047,-6.21094 l 47.5781,-82.03125 c 1.25,-2.26562 3.0078,-4.53125 5.2734,-6.79687 2.1875,-1.875 3.9454,-3.47657 5.2735,-4.80469 3.8281,-2.812503 8.7891,-4.218751 14.8828,-4.218751 h 77.6953 c 6.0938,0 11.2109,1.406248 15.3516,4.218751 2.5781,1.95313 4.3359,4.375 5.2734,7.26562 0.7031,2.89063 1.0547,6.875 1.0547,11.95313 v 7.73437 346.52344 c 0,8.35938 -2.2656,14.29689 -6.7969,17.8125 -2.5781,2.18752 -5.1172,3.43751 -7.6172,3.75 -2.5781,0.70312 -6.4453,1.05469 -11.6015,1.05469 l -37.3828,-0.46875 c -5.4688,0 -9.2969,-0.35157 -11.4844,-1.05469 -2.5781,-0.31252 -4.8438,-1.91408 -6.7969,-4.80469 -1.875,-2.5 -2.8125,-7.10936 -2.8125,-13.82812 V 158.35547 148.27734 c -0.7031,-3.20312 -2.6172,-5.27343 -5.7422,-6.21093 h -1.0547 c -1.875,0 -3.9453,0.9375 -6.2109,2.8125 -2.8906,2.57812 -4.961,5.3125 -6.2109,8.20312 l -64.8047,110.39063 c -2.2657,4.14062 -4.6875,7.34375 -7.2657,9.60937 -2.8125,2.57813 -5.9765,3.86719 -9.4921,3.86719 -8.0469,0 -13.8282,-4.17969 -17.3438,-12.53906 l -52.8516,-114.72657 c -1.2499,-3.20312 -3.0078,-5.9375 -5.2734,-8.20312 -1.875,-1.5625 -3.789,-2.34375 -5.7422,-2.34375 h -1.875 c -3.5156,0.9375 -5.7422,2.85156 -6.6797,5.74219 -1.3281,3.20312 -1.9922,7.22656 -1.9922,12.07031 v 314.76562 c 0,6.40625 -1.6015,12.1875 -4.8046,17.34375 -3.2032,5.46875 -8.0079,8.20313 -14.4141,8.20313 -5.7031,0 -10,-2.73438 -12.8906,-8.20313 -2.8907,-5.15625 -4.336,-11.25001 -4.336,-18.28125 V 118.51172 c 0,-2.57813 0.1563,-5.15625 0.4688,-7.73438 0,-2.1875 0.7812,-4.57031 2.3437,-7.14843 3.5938,-4.453137 8.2422,-6.679691 13.9453,-6.679691 z m 640.4297,0.46875 h 218.9063 c 5.7812,0 10.8984,1.757811 15.3515,5.273441 4.5313,3.51562 6.7969,7.96875 6.7969,13.35937 0,5.46875 -2.1094,10.27344 -6.3281,14.41406 -4.1407,4.14063 -8.9453,6.21094 -14.4141,6.21094 h -43.5937 c -4.8438,0 -7.8907,0.19531 -9.1406,0.58594 -2.2657,0.625 -5,2.22656 -8.2032,4.80469 -4.7656,4.14062 -7.1484,10.35156 -7.1484,18.63281 v 312.53906 c 0,5.39062 -0.6641,9.84374 -1.9922,13.35938 -1.5625,3.90624 -3.9453,6.64061 -7.1484,8.20312 -3.5156,1.64062 -8.3203,2.46094 -14.4141,2.46094 h -35.9766 c -5.4687,0 -9.2968,-0.35157 -11.4843,-1.05469 -2.5781,-0.31252 -5,-1.91408 -7.2657,-4.80469 -2.5781,-2.81252 -4.0234,-5.82031 -4.3359,-9.02343 -0.625,-3.20313 -0.9375,-6.40625 -0.9375,-9.60938 V 164.56641 c 0,-9.29688 -2.2266,-16.32813 -6.6797,-21.09375 -2.5781,-2.57813 -5.7812,-4.49219 -9.6094,-5.74219 -3.8281,-1.01563 -8.3203,-1.52344 -13.4765,-1.52344 h -39.8438 c -6.4062,0 -11.9921,-1.75781 -16.7578,-5.27344 -4.8437,-3.20312 -7.2656,-7.65625 -7.2656,-13.35937 0,-6.09375 2.5781,-11.05469 7.7344,-14.88281 4.7656,-3.51563 10.5078,-5.273441 17.2265,-5.273441 z m -209.5312,31.640621 c -3.5156,0.3125 -7.0313,1.75782 -10.5469,4.33594 -6.7188,4.45313 -10.0781,11.64063 -10.0781,21.5625 v 84.49219 c 0,4.45312 0.1562,8.78906 0.4687,13.00781 0,4.14063 1.7578,7.65625 5.2735,10.54688 3.2031,3.20312 6.914,5.11718 11.1328,5.74218 3.8281,0.9375 9.1015,1.40625 15.8203,1.40625 h 80.625 c 6.7187,0 12.6562,-0.78125 17.8125,-2.34375 4.7656,-1.32812 8.2812,-3.75 10.5469,-7.26562 1.875,-3.51563 3.125,-7.03125 3.75,-10.54688 0.3125,-3.51562 0.4687,-8.16406 0.4687,-13.94531 v -79.6875 c 0,-5.70312 -0.1562,-10.15625 -0.4687,-13.35937 -0.625,-2.89063 -2.3828,-5.9375 -5.2735,-9.14063 -2.8906,-3.20312 -7.8515,-4.80469 -14.8828,-4.80469 h -6.2109 -87.3047 z m -664.9219,3.86719 c -6.0156,0 -10.9765,0.46875 -14.8828,1.40625 -4.1406,1.25 -7.8125,3.47656 -11.0156,6.67969 -5.7813,5.78125 -8.6719,13.94531 -8.6719,24.49219 v 253.47656 c 0,8.28125 0.8203,14.84376 2.4609,19.6875 1.5625,5.07812 4.9219,9.72655 10.0782,13.94531 3.5156,2.50001 7.5,4.25783 11.9531,5.27344 4.2187,0.9375 8.8672,1.40625 13.9453,1.40625 h 62.4609 c 6.0157,0 11.7578,-0.97658 17.2266,-2.92969 5.1563,-1.87502 8.8281,-4.57032 11.0156,-8.08594 1.9532,-3.20312 3.2422,-6.71874 3.8672,-10.54687 0.3125,-3.51562 0.4688,-8.32031 0.4688,-14.41406 V 292.30078 c 0,-3.90625 0.3124,-7.10937 0.9375,-9.60937 0.3124,-2.57813 2.0703,-6.09375 5.2734,-10.54688 3.2031,-4.21875 8.9844,-7.10937 17.3437,-8.67187 7.9688,-1.32813 14.0235,-2.46094 18.1641,-3.39844 4.2187,-0.9375 6.6406,-3.00781 7.2656,-6.21094 0.3125,-3.20312 0.4688,-6.09375 0.4688,-8.67187 v -8.67188 -80.625 c 0,-2.5 -0.625,-5.19531 -1.875,-8.08594 -1.6406,-2.89062 -3.5547,-5.46875 -5.7422,-7.73437 -5.4688,-4.76563 -13.1641,-7.14844 -23.0859,-7.14844 z m -1284.72656,0.46875 c -5.39062,0 -9.53125,0.3125 -12.42187,0.9375 -3.20313,0.9375 -6.25,2.69531 -9.14063,5.27344 -5.78125,4.76562 -8.67187,11.64062 -8.67187,20.625 v 78.75 c 0,3.82812 0.35156,7.65625 1.05469,11.48437 0.3125,4.14063 2.07031,8.00781 5.27343,11.60157 4.76563,5.39062 11.64063,8.08593 20.625,8.08593 h 41.71875 c 5.78125,0 10.58594,-0.9375 14.41407,-2.8125 3.82812,-1.95312 7.03125,-4.6875 9.60937,-8.20312 4.14063,-5.46875 6.21094,-12.65625 6.21094,-21.5625 v -75.9375 c 0,-3.51562 -0.625,-7.03125 -1.875,-10.54688 -1.32813,-3.20312 -2.92969,-6.05468 -4.80469,-8.55468 -1.95313,-2.57813 -4.375,-4.53125 -7.26562,-5.85938 -4.45313,-2.1875 -9.88282,-3.28125 -16.28907,-3.28125 z m 4.80469,176.60156 c -7.34375,0 -12.61718,0.15625 -15.82031,0.46875 -3.51562,0.625 -7.03125,2.53907 -10.54688,5.74219 -6.09375,5.46875 -9.14062,12.53906 -9.14062,21.21094 v 86.83594 c 0,4.76563 0.50781,8.90626 1.52344,12.42187 0.9375,3.90624 3.00781,7.46091 6.21093,10.66406 3.20313,3.20313 7.1875,5.4297 11.95313,6.67969 4.53125,1.56251 8.86719,2.34375 13.00781,2.34375 h 69.60938 c 7.03125,0 12.77343,-0.62498 17.22656,-1.875 4.21875,-0.9375 8.24219,-3.16407 12.07031,-6.67969 6.71875,-6.40625 10.07813,-14.88281 10.07813,-25.42968 v -82.14844 c 0,-9.92188 -3.51563,-17.92969 -10.54688,-24.02344 -2.89062,-2.5 -6.25,-4.25781 -10.07812,-5.27344 -3.90625,-0.625 -8.55469,-0.9375 -13.94532,-0.9375 z m 1611.44527,65.27344 h 37.3829 c 6.4062,0 11.8359,1.91406 16.289,5.74219 4.5313,4.21876 6.7969,9.53125 6.7969,15.9375 v 74.29687 c 0,5.78124 -0.1562,9.96095 -0.4688,12.53907 -0.6249,2.57814 -2.3828,5.11718 -5.2734,7.61718 -3.2031,2.89061 -6.5625,4.49217 -10.0781,4.80469 -3.5156,0.70312 -6.875,1.05469 -10.0781,1.05469 h -35.0391 c -5.7812,0 -9.8047,-0.35157 -12.0703,-1.05469 -2.5782,-0.31252 -4.8047,-2.07031 -6.6797,-5.27344 -1.9531,-2.8906 -3.0859,-5.58593 -3.3984,-8.08593 -0.6251,-2.57815 -0.9375,-6.44533 -0.9375,-11.60157 v -72.42187 c 0,-3.20313 0.6249,-6.40625 1.875,-9.60938 1.3281,-3.20312 2.7734,-5.58593 4.3359,-7.14843 4.8437,-4.53125 10.625,-6.79688 17.3437,-6.79688 z"
       mask="none"
       style="opacity:1;fill:#000000;fill-opacity:1;stroke:none;stroke-width:9.4398613;stroke-miterlimit:4;stroke-dasharray:none;stroke-opacity:1"
       inkscape:connector-curvature="0" />
    <rect
       y="24.229618"
       x="57.943745"
       height="11.90625"
       width="4.2333331"
       id="rect934-5"
       style="opacity:1;fill:#ff0000;fill-opacity:1;stroke:none;stroke-width:1.65615714;stroke-miterlimit:4;stroke-dasharray:none;stroke-opacity:1" />
    <rect
       y="70.757462"
       x="57.943745"
       height="11.90625"
       width="4.2333331"
       id="rect934-5-3"
       style="opacity:1;fill:#ff0000;fill-opacity:1;stroke:none;stroke-width:1.65615702;stroke-miterlimit:4;stroke-dasharray:none;stroke-opacity:1" />
    <rect
       y="119.58761"
       x="57.943745"
       height="11.90625"
       width="4.2333331"
       id="rect934-5-3-1"
       style="opacity:1;fill:#ff0000;fill-opacity:1;stroke:none;stroke-width:1.6561569;stroke-miterlimit:4;stroke-dasharray:none;stroke-opacity:1" />
    <rect
       y="120.26318"
       x="402.49741"
       height="11.90625"
       width="4.2333331"
       id="rect934-5-8"
       style="opacity:1;fill:#ff0000;fill-opacity:1;stroke:none;stroke-width:1.65615702;stroke-miterlimit:4;stroke-dasharray:none;stroke-opacity:1" />
    <rect
       y="24.078844"
       x="402.49741"
       height="11.90625"
       width="4.2333331"
       id="rect934-5-8-9"
       style="opacity:1;fill:#ff0000;fill-opacity:1;stroke:none;stroke-width:1.6561569;stroke-miterlimit:4;stroke-dasharray:none;stroke-opacity:1" />
    <rect
       y="23.517578"
       x="584.16052"
       height="11.90625"
       width="4.2333331"
       id="rect934-5-8-6"
       style="opacity:1;fill:#ff0000;fill-opacity:1;stroke:none;stroke-width:1.6561569;stroke-miterlimit:4;stroke-dasharray:none;stroke-opacity:1" />
    <rect
       y="70.851006"
       x="584.16052"
       height="11.90625"
       width="4.2333331"
       id="rect934-5-8-6-4"
       style="opacity:1;fill:#ff0000;fill-opacity:1;stroke:none;stroke-width:1.65615678;stroke-miterlimit:4;stroke-dasharray:none;stroke-opacity:1" />
  </g>
</svg>
