<?xml version="1.0" encoding="UTF-8" standalone="no"?>
<svg
   xmlns:dc="http://purl.org/dc/elements/1.1/"
   xmlns:cc="http://creativecommons.org/ns#"
   xmlns:rdf="http://www.w3.org/1999/02/22-rdf-syntax-ns#"
   xmlns:svg="http://www.w3.org/2000/svg"
   xmlns="http://www.w3.org/2000/svg"
   xmlns:sodipodi="http://sodipodi.sourceforge.net/DTD/sodipodi-0.dtd"
   xmlns:inkscape="http://www.inkscape.org/namespaces/inkscape"
   id="svg8"
   version="1.1"
   viewBox="0 0 120 26.26429"
   height="26.264292mm"
   width="120mm"
   sodipodi:docname="stencil-120mm.svg"
   inkscape:version="0.92.3 (2405546, 2018-03-11)"
   inkscape:export-filename="/home/chill/bleskomat-logo.png"
   inkscape:export-xdpi="300.03387"
   inkscape:export-ydpi="300.03387">
  <sodipodi:namedview
     pagecolor="#ffffff"
     bordercolor="#666666"
     borderopacity="1"
     objecttolerance="10"
     gridtolerance="10"
     guidetolerance="10"
     inkscape:pageopacity="1"
     inkscape:pageshadow="2"
     inkscape:window-width="1920"
     inkscape:window-height="1000"
     id="namedview8"
     showgrid="false"
     inkscape:zoom="4"
     inkscape:cx="222.73542"
     inkscape:cy="79.005953"
     inkscape:window-x="0"
     inkscape:window-y="41"
     inkscape:window-maximized="1"
     inkscape:current-layer="svg8"
     showguides="true"
     inkscape:guide-bbox="true">
    <sodipodi:guide
       position="68.494008,23.217187"
       orientation="1,0"
       id="guide951"
       inkscape:locked="false" />
    <sodipodi:guide
       position="98.782813,26.847223"
       orientation="1,0"
       id="guide998"
       inkscape:locked="false" />
    <sodipodi:guide
       position="10.523737,27.502033"
       orientation="1,0"
       id="guide1015"
       inkscape:locked="false" />
  </sodipodi:namedview>
  <defs
     id="defs2">
    <style
       id="style2">.cls-1{fill:#ff9000;}.cls-2{fill:#fff;}.cls-3{fill:#ffba00;}.cls-4{font-size:260px;letter-spacing:-0.03em;}.cls-4,.cls-7{fill:#4e4e4e;font-family:Ubuntu-BoldItalic, Ubuntu;font-style:italic;}.cls-4,.cls-8,.cls-9{font-weight:700;}.cls-5{letter-spacing:-0.04em;}.cls-6{letter-spacing:-0.05em;}.cls-7{font-size:57px;}.cls-12,.cls-9{letter-spacing:0.01em;}.cls-10,.cls-11,.cls-12,.cls-13,.cls-14{font-family:Ubuntu-LightItalic, Ubuntu;}.cls-10{letter-spacing:-0.02em;}.cls-11{letter-spacing:-0.02em;}.cls-13{letter-spacing:-0.01em;}.cls-14{letter-spacing:0.01em;}</style>
    <style
       id="style2-4">.cls-1{fill:#ff9000;}.cls-2{fill:#fff;}.cls-3{fill:#ffba00;}.cls-4{font-size:260px;letter-spacing:-0.03em;}.cls-4,.cls-7{fill:#4e4e4e;font-family:Ubuntu-BoldItalic, Ubuntu;font-style:italic;}.cls-4,.cls-8,.cls-9{font-weight:700;}.cls-5{letter-spacing:-0.04em;}.cls-6{letter-spacing:-0.05em;}.cls-7{font-size:57px;}.cls-12,.cls-9{letter-spacing:0.01em;}.cls-10,.cls-11,.cls-12,.cls-13,.cls-14{font-family:Ubuntu-LightItalic, Ubuntu;}.cls-10{letter-spacing:-0.02em;}.cls-11{letter-spacing:-0.02em;}.cls-13{letter-spacing:-0.01em;}.cls-14{letter-spacing:0.01em;}</style>
  </defs>
  <metadata
     id="metadata5">
    <rdf:RDF>
      <cc:Work
         rdf:about="">
        <dc:format>image/svg+xml</dc:format>
        <dc:type
           rdf:resource="http://purl.org/dc/dcmitype/StillImage" />
        <dc:title />
      </cc:Work>
    </rdf:RDF>
  </metadata>
  <path
     inkscape:connector-curvature="0"
     style="opacity:1;fill:#000000;fill-opacity:1;stroke:none;stroke-width:0.41864812;stroke-miterlimit:4;stroke-dasharray:none;stroke-opacity:1"
     mask="none"
     d="M 3.3523317,0 C 1.4951222,0 0,1.4951222 0,3.3523317 V 22.911873 c 0,1.857209 1.4951222,3.352419 3.3523317,3.352419 H 116.64767 c 1.8572,0 3.35233,-1.49521 3.35233,-3.352419 V 3.3523317 C 120,1.4951222 118.50487,0 116.64767,0 Z M 64.913898,4.1904579 h 8.388195 c 0.21135,0 0.394981,0.013859 0.550894,0.041577 0.155913,0.027718 0.284113,0.084887 0.38459,0.1715058 0.228677,0.1836323 0.343013,0.4677429 0.343013,0.8523318 V 20.73297 c 0,0.381124 -0.100477,0.679093 -0.301436,0.893909 -0.128195,0.128197 -0.277181,0.206154 -0.446953,0.233872 -0.169777,0.04158 -0.382856,0.06236 -0.639251,0.06236 l -8.471345,0.02079 h -0.38459 c -0.239067,0 -0.415771,-0.02079 -0.530107,-0.06237 -0.128196,-0.02772 -0.249463,-0.105675 -0.363799,-0.233871 -0.128196,-0.128197 -0.206157,-0.277182 -0.233875,-0.446955 -0.04158,-0.169773 -0.06236,-0.382856 -0.06236,-0.639248 V 5.2974499 c 0,-0.2841106 0.105675,-0.5543622 0.317024,-0.8107546 0.128192,-0.1247317 0.30663,-0.2096183 0.535302,-0.2546602 0.225213,-0.027718 0.530112,-0.041577 0.914698,-0.041577 z M 5.3858014,4.2112465 H 12.83331 c 0.284111,0 0.490264,0.00693 0.61846,0.020789 0.114337,0.027718 0.256393,0.119534 0.426166,0.2754487 0.155915,0.1732382 0.233872,0.4157716 0.233872,0.7276003 v 5.7480415 c 0,0.311829 0.121266,0.566489 0.3638,0.763981 0.08315,0.07276 0.310096,0.171505 0.680826,0.296237 0.353406,0.128196 0.550897,0.214815 0.592474,0.259857 0.187097,0.169774 0.280646,0.452152 0.280646,0.847135 v 7.322777 c 0,0.315293 -0.01559,0.543968 -0.04677,0.686023 -0.04158,0.155914 -0.147252,0.311828 -0.317026,0.467743 -0.114337,0.110873 -0.235604,0.1819 -0.3638,0.213083 -0.142056,0.04158 -0.318758,0.06237 -0.530109,0.06237 h -0.3638 -8.6636409 -0.2546598 c -0.1836326,0 -0.3534063,-0.02079 -0.5093204,-0.06237 C 4.8106507,21.808779 4.6547362,21.730823 4.5126811,21.60609 4.2978642,21.405134 4.1904579,21.084643 4.1904579,20.644619 V 5.3182385 c 0,-0.2113508 0.02945,-0.381124 0.088351,-0.5093205 C 4.3203865,4.6945811 4.3914128,4.5871732 4.4918925,4.4866953 4.6893838,4.3030624 4.9873534,4.2112465 5.3858014,4.2112465 Z M 20.18727,4.2320351 c 0.23907,0 0.436561,0.1004769 0.592474,0.3014346 0.155915,0.1974913 0.233872,0.4244334 0.233872,0.6808259 v 13.5801394 0.296237 c 0,0.284111 0.0069,0.462547 0.02079,0.535307 0.01732,0.0693 0.06063,0.154181 0.129928,0.254659 0.128196,0.169774 0.277181,0.282379 0.446955,0.337815 0.155914,0.0589 0.362067,0.08835 0.61846,0.08835 h 3.107893 c 0.367265,0 0.672164,0.05544 0.914697,0.166309 0.228675,0.114337 0.343012,0.32742 0.343012,0.639249 0,0.311829 -0.114337,0.524912 -0.343012,0.639248 -0.242533,0.114337 -0.547432,0.171506 -0.914697,0.171506 h -6.704317 c -0.284111,0 -0.533574,-0.03465 -0.748389,-0.103943 -0.22521,-0.0589 -0.374195,-0.159379 -0.446955,-0.301434 -0.0693,-0.128197 -0.110871,-0.25466 -0.124731,-0.379391 -0.01386,-0.128197 -0.02079,-0.285844 -0.02079,-0.47294 v -5.78962 c 0,-0.29797 0.01386,-0.504123 0.04158,-0.61846 0.01386,-0.09701 0.06236,-0.202689 0.14552,-0.317026 0.08662,-0.114337 0.329152,-0.220013 0.7276,-0.317026 0.381124,-0.100478 0.642714,-0.228675 0.784769,-0.384589 0.256392,-0.297969 0.384589,-0.660037 0.384589,-1.086203 V 5.2142956 c 0,-0.2702516 0.07796,-0.5058555 0.233871,-0.7068118 0.142056,-0.1836327 0.334351,-0.2754487 0.576883,-0.2754487 z m 8.980667,0 h 6.938188 c 0.29797,0 0.554363,0.071027 0.769177,0.213083 0.197491,0.1559141 0.296238,0.3689972 0.296238,0.6392487 0,0.2979697 -0.09875,0.5110527 -0.296238,0.6392487 -0.197491,0.1420556 -0.453883,0.2130831 -0.769177,0.2130831 h -4.916499 c -0.29797,0 -0.55263,0.041577 -0.763981,0.1247315 -0.08662,0.031183 -0.200956,0.095281 -0.343011,0.1922944 C 29.92672,6.3680619 29.814115,6.510117 29.74482,6.6798902 29.6582,6.8496638 29.614891,7.0211697 29.614891,7.1944079 v 3.3833411 c 0,0.22521 0.01386,0.424434 0.04158,0.597672 0.03118,0.183632 0.10914,0.353406 0.233872,0.50932 0.114337,0.155914 0.292772,0.261589 0.535305,0.317026 0.239069,0.07276 0.530109,0.10914 0.873121,0.10914 h 4.661839 c 0.339546,0 0.630587,0.0641 0.87312,0.192294 0.23907,0.124732 0.358603,0.351674 0.358603,0.680826 0,0.325688 -0.135125,0.559559 -0.405377,0.701615 -0.183632,0.100478 -0.46601,0.150717 -0.847135,0.150717 h -3.066315 c -0.183633,0 -0.353405,0.02079 -0.50932,0.06237 -0.173238,0.04158 -0.322224,0.126464 -0.446955,0.25466 -0.242533,0.242533 -0.3638,0.568221 -0.3638,0.977063 v 3.835493 c 0,0.367265 0.08489,0.665234 0.25466,0.893909 0.128195,0.155914 0.291039,0.26159 0.488532,0.317026 0.183632,0.07276 0.410574,0.10914 0.680826,0.10914 h 3.128681 c 0.29797,0 0.55263,0.0641 0.76398,0.192294 0.214816,0.124733 0.322223,0.343013 0.322223,0.65484 0,0.297971 -0.107407,0.504124 -0.322223,0.61846 -0.21135,0.114337 -0.46601,0.171506 -0.76398,0.171506 h -6.402883 c -0.457348,0 -0.784769,-0.01386 -0.98226,-0.04158 C 28.523493,21.86768 28.34679,21.78972 28.190876,21.647669 28.034961,21.519472 27.941413,21.377417 27.91023,21.221503 27.86865,21.079447 27.84787,20.887153 27.84787,20.64462 V 5.4689558 c 0,-0.2425335 0.02079,-0.4348279 0.06236,-0.5768835 0.03118,-0.142055 0.110872,-0.270251 0.239069,-0.3845885 0.124731,-0.1108726 0.265054,-0.1888296 0.420969,-0.2338715 0.142055,-0.027718 0.34128,-0.041577 0.597672,-0.041577 z m 10.622964,0 h 7.385143 c 0.256395,0 0.441756,0.00693 0.556096,0.020789 0.114336,0.031183 0.23387,0.095281 0.358601,0.1922944 0.242532,0.1836322 0.363799,0.4469542 0.363799,0.789966 v 3.3833413 c 0,0.2841106 -0.07102,0.526644 -0.213083,0.7276003 -0.142054,0.1974917 -0.341279,0.2962373 -0.597669,0.2962373 -0.280645,0 -0.50066,-0.1004783 -0.660037,-0.3014346 -0.169777,-0.1836322 -0.25466,-0.4244334 -0.25466,-0.722403 V 7.1060563 c 0,-0.2252098 -0.0069,-0.394983 -0.02079,-0.5093204 C 46.680582,6.496258 46.616484,6.374991 46.516007,6.232936 46.418994,6.1047395 46.29946,6.0198529 46.157401,5.9782757 46.015347,5.9366986 45.836913,5.91591 45.622096,5.91591 h -3.960223 -0.420969 c -0.142055,0.013859 -0.29104,0.071027 -0.446955,0.1715059 -0.384588,0.2667866 -0.576883,0.6201924 -0.576883,1.0602176 v 3.4509045 c 0,0.367265 0.09875,0.692952 0.296238,0.977063 0.155914,0.200956 0.291039,0.344744 0.405377,0.431363 0.114337,0.08315 0.270251,0.124731 0.467743,0.124731 h 5.597327 c 0.356867,0 0.620189,0.0069 0.789966,0.02079 0.155913,0.02772 0.311827,0.112605 0.46774,0.25466 0.142059,0.155914 0.213083,0.362068 0.213083,0.61846 v 7.639804 0.254659 c 0,0.15938 -0.0069,0.289308 -0.02079,0.389786 -0.01386,0.09701 -0.07103,0.209618 -0.171506,0.337815 -0.09701,0.128196 -0.223479,0.206153 -0.379392,0.233871 -0.173236,0.04158 -0.401913,0.06237 -0.686026,0.06237 h -7.639801 c -0.155914,0 -0.297969,-0.01386 -0.426166,-0.04158 -0.142055,-0.02772 -0.277181,-0.112605 -0.405377,-0.25466 -0.05544,-0.07276 -0.09008,-0.180168 -0.103943,-0.322223 -0.01386,-0.128197 -0.02079,-0.284111 -0.02079,-0.467743 v -3.554848 c 0,-0.29797 0.08489,-0.53877 0.25466,-0.722403 0.155915,-0.169773 0.446954,-0.25466 0.87312,-0.25466 h 1.465595 c 0.256392,0 0.483333,0.09182 0.680826,0.275449 0.200956,0.183632 0.301434,0.453883 0.301434,0.810755 v 1.533157 c 0,0.381124 0.07796,0.692953 0.233872,0.935486 0.211351,0.325688 0.537038,0.488532 0.977063,0.488532 l 2.042478,-0.02079 c 0.412308,0 0.746655,-0.107408 1.00305,-0.322224 0.25639,-0.197492 0.38459,-0.472939 0.38459,-0.826346 V 15.2188 c 0,-0.284111 -0.01386,-0.511053 -0.04158,-0.680827 -0.04505,-0.155914 -0.131663,-0.297969 -0.259858,-0.426165 -0.1282,-0.128197 -0.284113,-0.213083 -0.467744,-0.254661 -0.183631,-0.04504 -0.389783,-0.06756 -0.61846,-0.06756 h -5.446608 c -0.35687,0 -0.604602,-0.01386 -0.743192,-0.04158 -0.142055,-0.01386 -0.28411,-0.07796 -0.426165,-0.192294 -0.142057,-0.09701 -0.228675,-0.239069 -0.259858,-0.426166 -0.04158,-0.169773 -0.06237,-0.389786 -0.06237,-0.660037 V 5.40659 c 0,-0.1281964 0.01386,-0.263322 0.04158,-0.4053775 0.01386,-0.1420551 0.08489,-0.2910401 0.213083,-0.4469542 0.100478,-0.1143374 0.242533,-0.1992241 0.426165,-0.2546603 0.183633,-0.045042 0.389786,-0.067563 0.618461,-0.067563 z m 11.095905,0 c 0.27025,0 0.50412,0.107407 0.701614,0.3222232 0.183632,0.2252094 0.275447,0.4867991 0.275447,0.7847687 v 5.431017 0.337814 c 0,0.155914 0.01559,0.270251 0.04678,0.343011 0.04158,0.114337 0.119534,0.178436 0.23387,0.192295 h 0.06237 c 0.0693,0 0.140325,-0.01559 0.213084,-0.04677 0.08662,-0.04158 0.171506,-0.09701 0.25466,-0.166309 l 6.64195,-6.3457142 C 59.531395,4.8868795 59.71676,4.730965 59.872678,4.616628 c 0.225208,-0.1697736 0.42963,-0.2685193 0.613262,-0.2962374 0.173236,-0.013859 0.329149,-0.020789 0.467744,-0.020789 0.440021,0 0.724134,0.048507 0.852329,0.1455201 0.114336,0.1004779 0.171507,0.2078858 0.171507,0.3222228 0,0.083154 -0.0069,0.14552 -0.02079,0.1870972 -0.02772,0.07276 -0.09874,0.1663086 -0.213079,0.280646 l -6.298942,6.0234913 c -0.114336,0.100478 -0.214818,0.206154 -0.301436,0.317026 -0.05544,0.100478 -0.09008,0.178435 -0.10394,0.233872 0,0.03118 0.0069,0.0537 0.02079,0.06756 0.04158,0.128197 0.176704,0.192295 0.405381,0.192295 h 0.254656 4.812559 c 0.239068,0 0.464276,0.02079 0.675626,0.06236 0.214817,0.04158 0.372465,0.105676 0.472942,0.192295 0.09701,0.09701 0.168042,0.223477 0.213083,0.379391 0.04158,0.173239 0.06236,0.365533 0.06236,0.576883 v 7.665789 c 0,0.266787 -0.07796,0.493728 -0.23387,0.680826 -0.169772,0.197491 -0.426167,0.296237 -0.769175,0.296237 l -1.616316,0.02079 c -0.25639,0 -0.455615,-0.01386 -0.597669,-0.04158 -0.138591,-0.01386 -0.258124,-0.07796 -0.358606,-0.192295 -0.100477,-0.114336 -0.157643,-0.235603 -0.171502,-0.3638 -0.02772,-0.110872 -0.04158,-0.294505 -0.04158,-0.550897 v -5.789619 c 0,-0.270252 -0.01386,-0.469476 -0.04158,-0.597672 -0.04505,-0.128196 -0.129929,-0.240801 -0.254661,-0.337814 -0.128199,-0.100479 -0.256394,-0.164577 -0.38459,-0.192295 -0.142054,-0.02772 -0.29104,-0.04158 -0.446953,-0.04158 h -1.767031 c -0.325686,0 -0.575149,0.0069 -0.748389,0.02079 -0.183632,0.02772 -0.346477,0.09875 -0.488531,0.213084 -0.252926,0.21135 -0.379392,0.543967 -0.379392,0.997851 v 5.685677 c 0,0.297969 -0.05717,0.552629 -0.171506,0.76398 -0.200954,0.270251 -0.491994,0.405377 -0.873121,0.405377 h -1.787817 c -0.440027,0 -0.710276,-0.135126 -0.810753,-0.405377 -0.04158,-0.08315 -0.06929,-0.195759 -0.08315,-0.337814 -0.01386,-0.128196 -0.02079,-0.277181 -0.02079,-0.446955 V 5.2974499 c 0,-0.2841106 0.09182,-0.5318413 0.275451,-0.7431916 0.183632,-0.2148162 0.417502,-0.3222232 0.701614,-0.3222232 z m 43.770354,0 h 6.85503 0.63925 c 0.19749,0.027718 0.39672,0.1195344 0.59767,0.2754487 0.19749,0.2009563 0.29624,0.4642783 0.29624,0.7899661 V 20.966842 c 0,0.21135 -0.0433,0.394982 -0.12993,0.550897 -0.14205,0.256392 -0.37592,0.384589 -0.70161,0.384589 -0.32569,0 -0.55263,-0.107408 -0.68083,-0.322223 -0.14205,-0.211351 -0.21308,-0.422701 -0.21308,-0.634052 V 15.2188 c 0,-0.256393 -0.0208,-0.476405 -0.0624,-0.660038 -0.0554,-0.169773 -0.16284,-0.332617 -0.32222,-0.488531 -0.21135,-0.214816 -0.54397,-0.322224 -0.997851,-0.322224 h -3.450904 c -0.124732,0 -0.266786,0.0069 -0.426167,0.02079 -0.169772,0.01386 -0.325686,0.07103 -0.467744,0.171506 -0.155913,0.100478 -0.282375,0.242533 -0.379388,0.426166 -0.11434,0.183632 -0.171506,0.360335 -0.171506,0.530108 v 5.919548 c 0,0.467744 -0.155914,0.779573 -0.467744,0.935486 -0.228677,0.114337 -0.590742,0.171506 -1.086204,0.171506 h -0.426167 -0.317024 c -0.114337,0 -0.221745,0.0069 -0.322222,0.02079 -0.353408,0 -0.608069,-0.0641 -0.763982,-0.192295 -0.214813,-0.169773 -0.322222,-0.488531 -0.322222,-0.956274 V 14.57955 c 0,-0.197491 0.02079,-0.346476 0.06236,-0.446954 0.03118,-0.100478 0.08835,-0.207886 0.171507,-0.322223 0.02772,-0.02772 0.375928,-0.190562 1.044626,-0.488531 0.495463,-0.211351 0.743192,-0.580348 0.743192,-1.106992 V 5.5521101 c 0,-0.2390689 0.02252,-0.4296307 0.06757,-0.5716862 C 93.45312,4.8383684 93.531085,4.6963133 93.65928,4.5542583 93.784012,4.4260617 93.932997,4.3411751 94.106233,4.299598 94.27601,4.254556 94.459641,4.232035 94.657132,4.232035 Z M 76.716613,4.299598 h 1.829395 c 0.315295,0 0.557831,0.069295 0.727603,0.2078858 0.155913,0.1420556 0.282379,0.313561 0.379392,0.5145173 l 1.600718,3.5964243 c 0.08316,0.2841106 0.246,0.4261661 0.488535,0.4261661 0.100477,0 0.192293,-0.03638 0.275447,-0.1091402 0.07276,-0.055436 0.143789,-0.1472523 0.213084,-0.2754488 l 2.11004,-3.6380014 c 0.05544,-0.1004779 0.133392,-0.2009563 0.23387,-0.3014342 0.09701,-0.083154 0.174974,-0.1541823 0.233874,-0.2130831 0.169772,-0.1247316 0.389787,-0.1870972 0.660037,-0.1870972 h 3.445706 c 0.270254,0 0.497192,0.062366 0.680828,0.1870972 0.114336,0.086619 0.192293,0.1940268 0.23387,0.3222228 0.03118,0.1281965 0.04677,0.3048992 0.04677,0.530109 V 5.702827 21.070785 c 0,0.370729 -0.100477,0.634052 -0.301436,0.789966 -0.114336,0.09701 -0.226943,0.15245 -0.337815,0.166308 -0.114336,0.03118 -0.285842,0.04678 -0.514515,0.04678 l -1.657888,-0.02079 c -0.242536,0 -0.412308,-0.01559 -0.509321,-0.04677 -0.114337,-0.01386 -0.214818,-0.08489 -0.301436,-0.213083 -0.08315,-0.110873 -0.124731,-0.315293 -0.124731,-0.613263 V 7.022902 6.5759473 C 86.097463,6.4338922 86.012574,6.3420761 85.873984,6.300499 h -0.04677 c -0.08315,0 -0.17497,0.041577 -0.275447,0.1247314 -0.128195,0.114337 -0.220015,0.2356039 -0.275447,0.3638 l -2.874022,4.8957106 c -0.100481,0.183632 -0.207886,0.325688 -0.322226,0.426166 -0.124732,0.114337 -0.265052,0.171506 -0.420965,0.171506 -0.356872,0 -0.613266,-0.185365 -0.76918,-0.556095 L 78.546008,6.638313 C 78.490577,6.496258 78.412616,6.374991 78.312139,6.2745131 78.228984,6.2052179 78.1441,6.1705702 78.057478,6.1705702 h -0.08315 C 77.818414,6.2121472 77.719667,6.297034 77.67809,6.4252304 77.61919,6.5672855 77.58974,6.7457209 77.58974,6.9605362 V 20.920067 c 0,0.284111 -0.07103,0.540503 -0.213079,0.769178 -0.142059,0.242533 -0.355142,0.3638 -0.639251,0.3638 -0.252926,0 -0.44349,-0.121267 -0.571685,-0.3638 C 76.03752,21.46057 75.973422,21.190318 75.973422,20.87849 V 5.2558727 c 0,-0.1143374 0.0069,-0.2286744 0.02079,-0.3430118 0,-0.097013 0.03464,-0.2026885 0.103941,-0.3170255 0.159381,-0.197492 0.365533,-0.2962374 0.61846,-0.2962374 z m 28.402397,0.020789 h 9.70827 c 0.25639,0 0.48333,0.077957 0.68082,0.2338717 0.20096,0.1559141 0.30144,0.3534058 0.30144,0.5924743 0,0.2425334 -0.0935,0.4556164 -0.28065,0.6392487 -0.18363,0.1836327 -0.39671,0.2754488 -0.63925,0.2754488 h -1.93333 c -0.21482,0 -0.34995,0.00866 -0.40538,0.025986 -0.10048,0.027718 -0.22174,0.098746 -0.3638,0.2130831 -0.21135,0.1836322 -0.31703,0.459081 -0.31703,0.8263459 V 20.98763 c 0,0.239069 -0.0294,0.43656 -0.0883,0.592475 -0.0693,0.173238 -0.17497,0.294504 -0.31702,0.3638 -0.15592,0.07276 -0.369,0.10914 -0.63925,0.10914 H 109.23 c -0.24253,0 -0.4123,-0.01559 -0.50931,-0.04677 -0.11434,-0.01386 -0.22175,-0.08489 -0.32223,-0.213083 -0.11434,-0.124733 -0.17843,-0.258125 -0.19229,-0.40018 -0.0277,-0.142056 -0.0416,-0.284111 -0.0416,-0.426166 V 7.2983508 c 0,-0.4123071 -0.0987,-0.7241358 -0.29624,-0.9354861 -0.11433,-0.1143374 -0.25639,-0.199224 -0.42617,-0.2546602 -0.16977,-0.045042 -0.36899,-0.067563 -0.59766,-0.067563 h -1.76704 c -0.2841,0 -0.53183,-0.077957 -0.74319,-0.2338716 -0.21481,-0.1420551 -0.32222,-0.3395468 -0.32222,-0.5924743 0,-0.2702516 0.11434,-0.4902642 0.34301,-0.6600373 0.21135,-0.1559146 0.46601,-0.2338717 0.76398,-0.2338717 z M 95.826518,5.7236155 C 95.670605,5.7374746 95.514687,5.801573 95.358774,5.91591 95.060802,6.1134017 94.911821,6.43216 94.911821,6.8721847 v 3.7471413 c 0,0.197492 0.0069,0.389786 0.02079,0.576883 0,0.183633 0.07796,0.339547 0.233874,0.467744 0.142054,0.142055 0.306629,0.226941 0.493728,0.254659 0.169773,0.04158 0.403643,0.06237 0.701614,0.06237 h 3.575636 c 0.297967,0 0.561287,-0.03465 0.789967,-0.103943 0.21134,-0.0589 0.36726,-0.166309 0.46774,-0.322223 0.0831,-0.155914 0.13859,-0.311828 0.16631,-0.467743 0.0139,-0.155914 0.0208,-0.362068 0.0208,-0.61846 V 6.9345504 c 0,-0.2529275 -0.007,-0.4504192 -0.0208,-0.5924743 -0.0277,-0.1281964 -0.10568,-0.263322 -0.23388,-0.4053775 -0.12819,-0.1420551 -0.3482,-0.2130831 -0.66003,-0.2130831 h -0.27545 -3.87187 z M 66.337917,5.8951214 c -0.266786,0 -0.486797,0.020789 -0.660037,0.062366 -0.183632,0.055436 -0.346477,0.1541818 -0.488531,0.2962373 -0.256394,0.2563925 -0.38459,0.6184602 -0.38459,1.0862034 V 18.581352 c 0,0.367265 0.03638,0.658306 0.109139,0.873121 0.06929,0.225209 0.218281,0.431362 0.446958,0.61846 0.155913,0.110873 0.332617,0.18883 0.530107,0.233871 0.187095,0.04158 0.393251,0.06237 0.61846,0.06237 H 69.2795 c 0.26679,0 0.521446,-0.04331 0.763982,-0.129929 0.228676,-0.08316 0.391517,-0.202689 0.48853,-0.358603 0.08662,-0.142055 0.143788,-0.297969 0.171506,-0.467743 0.01386,-0.155914 0.02079,-0.368997 0.02079,-0.639248 v -5.810408 c 0,-0.173239 0.01385,-0.315294 0.04158,-0.426166 0.01386,-0.114338 0.09182,-0.270252 0.23387,-0.467743 0.142054,-0.187098 0.398449,-0.315294 0.769175,-0.384589 0.353409,-0.0589 0.621928,-0.10914 0.80556,-0.150717 0.187095,-0.04158 0.294503,-0.133393 0.322221,-0.275449 0.01386,-0.142055 0.02079,-0.270252 0.02079,-0.384589 V 10.489398 6.9137618 c 0,-0.1108724 -0.02772,-0.2304066 -0.08315,-0.3586031 C 72.76159,6.4269627 72.676702,6.3126253 72.579688,6.2121474 72.337153,6.0007966 71.995874,5.8951214 71.555852,5.8951214 Z M 9.361617,5.91591 c -0.2390685,0 -0.4227011,0.013859 -0.5508972,0.041577 C 8.6686643,5.9990643 8.5335388,6.0770214 8.4053423,6.1913588 8.1489498,6.4027091 8.0207538,6.7076083 8.0207538,7.1060563 v 3.4924817 c 0,0.169773 0.015591,0.339546 0.046774,0.50932 0.013859,0.183632 0.091816,0.355138 0.2338712,0.514517 0.2113508,0.239069 0.51625,0.358603 0.9146975,0.358603 h 1.8501845 c 0.256392,0 0.469475,-0.04158 0.639249,-0.124731 0.169773,-0.08662 0.311828,-0.207886 0.426165,-0.3638 0.183633,-0.242534 0.275449,-0.561292 0.275449,-0.956275 v -3.36775 c 0,-0.1559141 -0.02772,-0.3118286 -0.08315,-0.4677432 C 12.265089,6.5586237 12.194061,6.43216 12.110907,6.3212875 12.024287,6.2069501 11.91688,6.1203313 11.788684,6.0614301 11.591192,5.9644167 11.350391,5.91591 11.066281,5.91591 Z M 9.5747,13.748007 c -0.3256877,0 -0.5595589,0.0069 -0.7016144,0.02079 -0.1559141,0.02772 -0.3118287,0.112605 -0.4677433,0.25466 -0.2702515,0.242534 -0.4053771,0.556094 -0.4053771,0.940683 v 3.851085 c 0,0.211351 0.022521,0.394983 0.067563,0.550897 0.041577,0.173238 0.1333933,0.330884 0.2754484,0.47294 0.1420555,0.142056 0.3187582,0.240802 0.530109,0.296238 0.2009563,0.0693 0.3932507,0.103942 0.576883,0.103942 h 3.0871044 c 0.311829,0 0.566488,-0.02772 0.76398,-0.08315 0.187097,-0.04158 0.365533,-0.140323 0.535306,-0.296237 0.29797,-0.284111 0.446955,-0.660038 0.446955,-1.12778 v -3.643199 c 0,-0.440025 -0.155915,-0.795163 -0.467744,-1.065415 -0.128196,-0.110872 -0.277181,-0.188829 -0.446954,-0.233872 -0.173238,-0.02772 -0.379392,-0.04158 -0.618461,-0.04158 z m 71.465938,2.89481 h 1.657893 c 0.284108,0 0.52491,0.08489 0.7224,0.25466 0.200959,0.187098 0.301436,0.422701 0.301436,0.706812 v 3.29499 c 0,0.256392 -0.0069,0.441758 -0.02079,0.556095 -0.02771,0.114337 -0.105675,0.226941 -0.23387,0.337814 -0.142054,0.128195 -0.29104,0.199223 -0.446953,0.213083 -0.155913,0.03118 -0.304899,0.04677 -0.446953,0.04677 h -1.553948 c -0.256391,0 -0.434829,-0.01559 -0.535306,-0.04677 -0.11434,-0.01386 -0.213083,-0.09182 -0.296238,-0.233872 -0.08662,-0.128195 -0.136856,-0.24773 -0.150715,-0.358603 -0.02772,-0.114338 -0.04158,-0.285843 -0.04158,-0.514517 v -3.211836 c 0,-0.142055 0.02771,-0.28411 0.08315,-0.426166 0.0589,-0.142055 0.122997,-0.24773 0.192293,-0.317025 0.214813,-0.200957 0.471208,-0.301435 0.769175,-0.301435 z"
     id="rect877" />
  <rect
     style="opacity:1;fill:#ff0000;fill-opacity:1;stroke:none;stroke-width:0.35132396;stroke-miterlimit:4;stroke-dasharray:none;stroke-opacity:1"
     id="rect934-5"
     width="0.95249999"
     height="2.3812499"
     x="9.5712366"
     y="3.8737583" />
  <rect
     style="opacity:1;fill:#ff0000;fill-opacity:1;stroke:none;stroke-width:0.32162759;stroke-miterlimit:4;stroke-dasharray:none;stroke-opacity:1"
     id="rect934-5-8"
     width="0.95249999"
     height="1.9957036"
     x="67.541512"
     y="20.158293" />
  <rect
     style="opacity:1;fill:#ff0000;fill-opacity:1;stroke:none;stroke-width:0.32162756;stroke-miterlimit:4;stroke-dasharray:none;stroke-opacity:1"
     id="rect934-5-8-9"
     width="0.95249999"
     height="1.9957036"
     x="67.541512"
     y="4.0360513" />
  <rect
     style="opacity:1;fill:#ff0000;fill-opacity:1;stroke:none;stroke-width:0.32162756;stroke-miterlimit:4;stroke-dasharray:none;stroke-opacity:1"
     id="rect934-5-8-6"
     width="0.95249999"
     height="1.9957036"
     x="97.830315"
     y="3.941973" />
  <rect
     style="opacity:1;fill:#ff0000;fill-opacity:1;stroke:none;stroke-width:0.32162753;stroke-miterlimit:4;stroke-dasharray:none;stroke-opacity:1"
     id="rect934-5-8-6-4"
     width="0.95249999"
     height="1.9957036"
     x="97.830315"
     y="11.875915" />
  <rect
     style="opacity:1;fill:#ff0000;fill-opacity:1;stroke:none;stroke-width:0.35132396;stroke-miterlimit:4;stroke-dasharray:none;stroke-opacity:1"
     id="rect934-5-7"
     width="0.95249999"
     height="2.3812499"
     x="9.5712366"
     y="11.650054" />
  <rect
     style="opacity:1;fill:#ff0000;fill-opacity:1;stroke:none;stroke-width:0.35132396;stroke-miterlimit:4;stroke-dasharray:none;stroke-opacity:1"
     id="rect934-5-3"
     width="0.95249999"
     height="2.3812499"
     x="9.5712366"
     y="19.928728" />
</svg>
