M48
; DRILL file {KiCad 5.1.6-c6e7f7d~87~ubuntu18.04.1} date Sun Nov  8 20:47:05 2020
; FORMAT={-:-/ absolute / inch / decimal}
; #@! TF.CreationDate,2020-11-08T20:47:05+01:00
; #@! TF.GenerationSoftware,Kicad,Pcbnew,5.1.6-c6e7f7d~87~ubuntu18.04.1
; #@! TF.FileFunction,Plated,1,2,PTH
FMAT,2
INCH
T1C0.0157
T2C0.0300
T3C0.0315
T4C0.0394
T5C0.0402
T6C0.0512
%
G90
G05
T1
X5.35Y-3.4
T2
X5.55Y-3.35
X5.55Y-3.45
X5.55Y-3.55
X5.55Y-3.65
X5.55Y-3.75
X5.55Y-3.85
X5.55Y-3.95
X5.55Y-4.05
T3
X5.8Y-3.75
X6.1Y-3.75
T4
X4.1012Y-2.6654
X4.1012Y-2.6654
X4.1012Y-2.7654
X4.1012Y-2.7654
X4.1012Y-2.8654
X4.1012Y-2.8654
X4.1012Y-2.9654
X4.1012Y-2.9654
X4.1012Y-3.0654
X4.1012Y-3.0654
X4.1012Y-3.1654
X4.1012Y-3.1654
X4.1012Y-3.2654
X4.1012Y-3.2654
X4.1012Y-3.3654
X4.1012Y-3.3654
X4.1012Y-3.4654
X4.1012Y-3.4654
X4.1012Y-3.5654
X4.1012Y-3.5654
X4.1012Y-3.6654
X4.1012Y-3.6654
X4.1012Y-3.7654
X4.1012Y-3.7654
X4.1012Y-3.8654
X4.1012Y-3.8654
X4.1012Y-3.9654
X4.1012Y-3.9654
X4.1012Y-4.0654
X4.1012Y-4.0654
X5.113Y-2.6614
X5.113Y-2.6614
X5.113Y-2.7614
X5.113Y-2.7614
X5.113Y-2.8614
X5.113Y-2.8614
X5.113Y-2.9614
X5.113Y-2.9614
X5.113Y-3.0614
X5.113Y-3.0614
X5.113Y-3.1614
X5.113Y-3.1614
X5.113Y-3.2614
X5.113Y-3.2614
X5.113Y-3.3614
X5.113Y-3.3614
X5.113Y-3.4614
X5.113Y-3.4614
X5.113Y-3.5614
X5.113Y-3.5614
X5.113Y-3.6614
X5.113Y-3.6614
X5.113Y-3.7614
X5.113Y-3.7614
X5.113Y-3.8614
X5.113Y-3.8614
X5.113Y-3.9614
X5.113Y-3.9614
X5.113Y-4.0614
X5.113Y-4.0614
T5
X5.35Y-4.25
X5.35Y-4.35
X5.35Y-4.45
X5.45Y-4.25
X5.45Y-4.35
X5.45Y-4.45
X5.36Y-2.44
X5.36Y-3.185
X6.95Y-2.44
X6.955Y-3.19
X5.8Y-3.4
X5.8Y-3.5
X5.9Y-3.4
X5.9Y-3.5
X6.0Y-3.4
X6.0Y-3.5
X6.1Y-3.4
X6.1Y-3.5
X6.2Y-3.4
X6.2Y-3.5
X6.3Y-3.4
X6.3Y-3.5
X6.4Y-3.4
X6.4Y-3.5
X6.5Y-3.4
X6.5Y-3.5
X6.3Y-3.75
X6.4Y-3.75
X6.5Y-3.75
X5.75Y-4.05
X5.75Y-4.15
X5.75Y-4.25
X5.75Y-4.35
T6
X6.5031Y-4.35
X6.7Y-4.35
X6.8969Y-4.35
T3
G00X6.0488Y-3.9717
M15
G01X6.1512Y-3.9717
M16
G05
G00X6.0567Y-4.2
M15
G01X6.1433Y-4.2
M16
G05
G00X6.289Y-4.1331
M15
G01X6.289Y-4.0465
M16
G05
T0
M30
