%TF.GenerationSoftware,KiCad,Pcbnew,5.1.6-c6e7f7d~87~ubuntu18.04.1*%
%TF.CreationDate,2020-11-08T20:46:57+01:00*%
%TF.ProjectId,bleskomat-board,626c6573-6b6f-46d6-9174-2d626f617264,rev?*%
%TF.SameCoordinates,Original*%
%TF.FileFunction,Legend,Bot*%
%TF.FilePolarity,Positive*%
%FSLAX46Y46*%
G04 Gerber Fmt 4.6, Leading zero omitted, Abs format (unit mm)*
G04 Created by KiCad (PCBNEW 5.1.6-c6e7f7d~87~ubuntu18.04.1) date 2020-11-08 20:46:57*
%MOMM*%
%LPD*%
G01*
G04 APERTURE LIST*
%ADD10C,0.150000*%
G04 APERTURE END LIST*
D10*
X166019523Y-68508571D02*
X165876666Y-68556190D01*
X165829047Y-68603809D01*
X165781428Y-68699047D01*
X165781428Y-68841904D01*
X165829047Y-68937142D01*
X165876666Y-68984761D01*
X165971904Y-69032380D01*
X166352857Y-69032380D01*
X166352857Y-68032380D01*
X166019523Y-68032380D01*
X165924285Y-68080000D01*
X165876666Y-68127619D01*
X165829047Y-68222857D01*
X165829047Y-68318095D01*
X165876666Y-68413333D01*
X165924285Y-68460952D01*
X166019523Y-68508571D01*
X166352857Y-68508571D01*
X164876666Y-69032380D02*
X165352857Y-69032380D01*
X165352857Y-68032380D01*
X164543333Y-68508571D02*
X164210000Y-68508571D01*
X164067142Y-69032380D02*
X164543333Y-69032380D01*
X164543333Y-68032380D01*
X164067142Y-68032380D01*
X163686190Y-68984761D02*
X163543333Y-69032380D01*
X163305238Y-69032380D01*
X163210000Y-68984761D01*
X163162380Y-68937142D01*
X163114761Y-68841904D01*
X163114761Y-68746666D01*
X163162380Y-68651428D01*
X163210000Y-68603809D01*
X163305238Y-68556190D01*
X163495714Y-68508571D01*
X163590952Y-68460952D01*
X163638571Y-68413333D01*
X163686190Y-68318095D01*
X163686190Y-68222857D01*
X163638571Y-68127619D01*
X163590952Y-68080000D01*
X163495714Y-68032380D01*
X163257619Y-68032380D01*
X163114761Y-68080000D01*
X162686190Y-69032380D02*
X162686190Y-68032380D01*
X162114761Y-69032380D02*
X162543333Y-68460952D01*
X162114761Y-68032380D02*
X162686190Y-68603809D01*
X161495714Y-68032380D02*
X161305238Y-68032380D01*
X161210000Y-68080000D01*
X161114761Y-68175238D01*
X161067142Y-68365714D01*
X161067142Y-68699047D01*
X161114761Y-68889523D01*
X161210000Y-68984761D01*
X161305238Y-69032380D01*
X161495714Y-69032380D01*
X161590952Y-68984761D01*
X161686190Y-68889523D01*
X161733809Y-68699047D01*
X161733809Y-68365714D01*
X161686190Y-68175238D01*
X161590952Y-68080000D01*
X161495714Y-68032380D01*
X160638571Y-69032380D02*
X160638571Y-68032380D01*
X160305238Y-68746666D01*
X159971904Y-68032380D01*
X159971904Y-69032380D01*
X159543333Y-68746666D02*
X159067142Y-68746666D01*
X159638571Y-69032380D02*
X159305238Y-68032380D01*
X158971904Y-69032380D01*
X158781428Y-68032380D02*
X158210000Y-68032380D01*
X158495714Y-69032380D02*
X158495714Y-68032380D01*
X157114761Y-69032380D02*
X157114761Y-68032380D01*
X156733809Y-68032380D01*
X156638571Y-68080000D01*
X156590952Y-68127619D01*
X156543333Y-68222857D01*
X156543333Y-68365714D01*
X156590952Y-68460952D01*
X156638571Y-68508571D01*
X156733809Y-68556190D01*
X157114761Y-68556190D01*
X155543333Y-69032380D02*
X155876666Y-68556190D01*
X156114761Y-69032380D02*
X156114761Y-68032380D01*
X155733809Y-68032380D01*
X155638571Y-68080000D01*
X155590952Y-68127619D01*
X155543333Y-68222857D01*
X155543333Y-68365714D01*
X155590952Y-68460952D01*
X155638571Y-68508571D01*
X155733809Y-68556190D01*
X156114761Y-68556190D01*
X154924285Y-68032380D02*
X154733809Y-68032380D01*
X154638571Y-68080000D01*
X154543333Y-68175238D01*
X154495714Y-68365714D01*
X154495714Y-68699047D01*
X154543333Y-68889523D01*
X154638571Y-68984761D01*
X154733809Y-69032380D01*
X154924285Y-69032380D01*
X155019523Y-68984761D01*
X155114761Y-68889523D01*
X155162380Y-68699047D01*
X155162380Y-68365714D01*
X155114761Y-68175238D01*
X155019523Y-68080000D01*
X154924285Y-68032380D01*
X154210000Y-68032380D02*
X153638571Y-68032380D01*
X153924285Y-69032380D02*
X153924285Y-68032380D01*
X153114761Y-68032380D02*
X152924285Y-68032380D01*
X152829047Y-68080000D01*
X152733809Y-68175238D01*
X152686190Y-68365714D01*
X152686190Y-68699047D01*
X152733809Y-68889523D01*
X152829047Y-68984761D01*
X152924285Y-69032380D01*
X153114761Y-69032380D01*
X153210000Y-68984761D01*
X153305238Y-68889523D01*
X153352857Y-68699047D01*
X153352857Y-68365714D01*
X153305238Y-68175238D01*
X153210000Y-68080000D01*
X153114761Y-68032380D01*
X152400476Y-68032380D02*
X151829047Y-68032380D01*
X152114761Y-69032380D02*
X152114761Y-68032380D01*
X151305238Y-68556190D02*
X151305238Y-69032380D01*
X151638571Y-68032380D02*
X151305238Y-68556190D01*
X150971904Y-68032380D01*
X150638571Y-69032380D02*
X150638571Y-68032380D01*
X150257619Y-68032380D01*
X150162380Y-68080000D01*
X150114761Y-68127619D01*
X150067142Y-68222857D01*
X150067142Y-68365714D01*
X150114761Y-68460952D01*
X150162380Y-68508571D01*
X150257619Y-68556190D01*
X150638571Y-68556190D01*
X149638571Y-68508571D02*
X149305238Y-68508571D01*
X149162380Y-69032380D02*
X149638571Y-69032380D01*
X149638571Y-68032380D01*
X149162380Y-68032380D01*
X147781428Y-68032380D02*
X147686190Y-68032380D01*
X147590952Y-68080000D01*
X147543333Y-68127619D01*
X147495714Y-68222857D01*
X147448095Y-68413333D01*
X147448095Y-68651428D01*
X147495714Y-68841904D01*
X147543333Y-68937142D01*
X147590952Y-68984761D01*
X147686190Y-69032380D01*
X147781428Y-69032380D01*
X147876666Y-68984761D01*
X147924285Y-68937142D01*
X147971904Y-68841904D01*
X148019523Y-68651428D01*
X148019523Y-68413333D01*
X147971904Y-68222857D01*
X147924285Y-68127619D01*
X147876666Y-68080000D01*
X147781428Y-68032380D01*
X147019523Y-68937142D02*
X146971904Y-68984761D01*
X147019523Y-69032380D01*
X147067142Y-68984761D01*
X147019523Y-68937142D01*
X147019523Y-69032380D01*
X146019523Y-69032380D02*
X146590952Y-69032380D01*
X146305238Y-69032380D02*
X146305238Y-68032380D01*
X146400476Y-68175238D01*
X146495714Y-68270476D01*
X146590952Y-68318095D01*
M02*
