%TF.GenerationSoftware,KiCad,Pcbnew,5.1.6-c6e7f7d~87~ubuntu18.04.1*%
%TF.CreationDate,2020-11-08T20:46:57+01:00*%
%TF.ProjectId,bleskomat-board,626c6573-6b6f-46d6-9174-2d626f617264,rev?*%
%TF.SameCoordinates,Original*%
%TF.FileFunction,Soldermask,Top*%
%TF.FilePolarity,Negative*%
%FSLAX46Y46*%
G04 Gerber Fmt 4.6, Leading zero omitted, Abs format (unit mm)*
G04 Created by KiCad (PCBNEW 5.1.6-c6e7f7d~87~ubuntu18.04.1) date 2020-11-08 20:46:57*
%MOMM*%
%LPD*%
G01*
G04 APERTURE LIST*
%ADD10R,4.499999X1.900000*%
%ADD11O,4.100000X1.900000*%
%ADD12O,1.900000X4.100000*%
%ADD13C,1.624000*%
%ADD14O,1.700000X1.700000*%
%ADD15C,1.700000*%
%ADD16C,2.100000*%
%ADD17O,1.800000X1.800000*%
%ADD18R,1.800000X1.800000*%
G04 APERTURE END LIST*
D10*
%TO.C,barrel-jack*%
X154940000Y-100880000D03*
D11*
X154940000Y-106680000D03*
D12*
X159740000Y-103880000D03*
%TD*%
D13*
%TO.C,button*%
X146050000Y-110490000D03*
X146050000Y-107950000D03*
X146050000Y-105410000D03*
X146050000Y-102870000D03*
%TD*%
%TO.C,stepdown1*%
X176657000Y-81026000D03*
X176530000Y-61976000D03*
X136144000Y-61976000D03*
X136144000Y-80899000D03*
%TD*%
%TO.C,relay1*%
X135890000Y-110490000D03*
X135890000Y-113030000D03*
X135890000Y-107950000D03*
X138430000Y-113030000D03*
X138430000Y-110490000D03*
X138430000Y-107950000D03*
%TD*%
D14*
%TO.C,R1*%
X154940000Y-95250000D03*
D15*
X147320000Y-95250000D03*
%TD*%
D16*
%TO.C,alternative-power*%
X175180000Y-110490000D03*
X170180000Y-110490000D03*
X165180000Y-110490000D03*
%TD*%
D13*
%TO.C,coina-acceptor1*%
X165100000Y-95250000D03*
X162560000Y-95250000D03*
X160020000Y-95250000D03*
%TD*%
%TO.C,bill-acceptor1*%
X162560000Y-88900000D03*
X165100000Y-88900000D03*
X147320000Y-88900000D03*
X149860000Y-88900000D03*
X152400000Y-88900000D03*
X154940000Y-88900000D03*
X157480000Y-88900000D03*
X160020000Y-88900000D03*
X165100000Y-86360000D03*
X162560000Y-86360000D03*
X160020000Y-86360000D03*
X157480000Y-86360000D03*
X154940000Y-86360000D03*
X152400000Y-86360000D03*
X149860000Y-86360000D03*
X147320000Y-86360000D03*
%TD*%
%TO.C,tft*%
X140970000Y-102870000D03*
X140970000Y-100330000D03*
X140970000Y-97790000D03*
X140970000Y-95250000D03*
X140970000Y-92710000D03*
X140970000Y-90170000D03*
X140970000Y-87630000D03*
X140970000Y-85090000D03*
%TD*%
D17*
%TO.C,esp32-dev*%
X129870000Y-103160000D03*
X129870000Y-100620000D03*
X129870000Y-98080000D03*
X129870000Y-95540000D03*
X129870000Y-93000000D03*
X129870000Y-90460000D03*
X129870000Y-87920000D03*
X129870000Y-85380000D03*
X129870000Y-82840000D03*
X129870000Y-80300000D03*
X129870000Y-77760000D03*
X129870000Y-75220000D03*
X129870000Y-72680000D03*
X129870000Y-70140000D03*
D18*
X129870000Y-67600000D03*
X129870000Y-67600000D03*
D17*
X129870000Y-70140000D03*
X129870000Y-72680000D03*
X129870000Y-75220000D03*
X129870000Y-77760000D03*
X129870000Y-80300000D03*
X129870000Y-82840000D03*
X129870000Y-85380000D03*
X129870000Y-87920000D03*
X129870000Y-90460000D03*
X129870000Y-93000000D03*
X129870000Y-95540000D03*
X129870000Y-98080000D03*
X129870000Y-100620000D03*
X129870000Y-103160000D03*
X104170000Y-103260000D03*
X104170000Y-100720000D03*
X104170000Y-98180000D03*
X104170000Y-95640000D03*
X104170000Y-93100000D03*
X104170000Y-90560000D03*
X104170000Y-88020000D03*
X104170000Y-85480000D03*
X104170000Y-82940000D03*
X104170000Y-80400000D03*
X104170000Y-77860000D03*
X104170000Y-75320000D03*
X104170000Y-72780000D03*
X104170000Y-70240000D03*
D18*
X104170000Y-67700000D03*
X104170000Y-67700000D03*
D17*
X104170000Y-70240000D03*
X104170000Y-72780000D03*
X104170000Y-75320000D03*
X104170000Y-77860000D03*
X104170000Y-80400000D03*
X104170000Y-82940000D03*
X104170000Y-85480000D03*
X104170000Y-88020000D03*
X104170000Y-90560000D03*
X104170000Y-93100000D03*
X104170000Y-95640000D03*
X104170000Y-98180000D03*
X104170000Y-100720000D03*
X104170000Y-103260000D03*
%TD*%
M02*
