%TF.GenerationSoftware,KiCad,Pcbnew,5.1.7-a382d34a8~88~ubuntu18.04.1*%
%TF.CreationDate,2021-02-15T21:35:44+01:00*%
%TF.ProjectId,test-board-esp32-assembly,74657374-2d62-46f6-9172-642d65737033,test*%
%TF.SameCoordinates,Original*%
%TF.FileFunction,Copper,L2,Bot*%
%TF.FilePolarity,Positive*%
%FSLAX46Y46*%
G04 Gerber Fmt 4.6, Leading zero omitted, Abs format (unit mm)*
G04 Created by KiCad (PCBNEW 5.1.7-a382d34a8~88~ubuntu18.04.1) date 2021-02-15 21:35:44*
%MOMM*%
%LPD*%
G01*
G04 APERTURE LIST*
%TA.AperFunction,NonConductor*%
%ADD10C,0.300000*%
%TD*%
%TA.AperFunction,ComponentPad*%
%ADD11C,1.498600*%
%TD*%
G04 APERTURE END LIST*
D10*
X155731714Y-107334857D02*
X155517428Y-107406285D01*
X155446000Y-107477714D01*
X155374571Y-107620571D01*
X155374571Y-107834857D01*
X155446000Y-107977714D01*
X155517428Y-108049142D01*
X155660285Y-108120571D01*
X156231714Y-108120571D01*
X156231714Y-106620571D01*
X155731714Y-106620571D01*
X155588857Y-106692000D01*
X155517428Y-106763428D01*
X155446000Y-106906285D01*
X155446000Y-107049142D01*
X155517428Y-107192000D01*
X155588857Y-107263428D01*
X155731714Y-107334857D01*
X156231714Y-107334857D01*
X154517428Y-108120571D02*
X154660285Y-108049142D01*
X154731714Y-107906285D01*
X154731714Y-106620571D01*
X153374571Y-108049142D02*
X153517428Y-108120571D01*
X153803142Y-108120571D01*
X153946000Y-108049142D01*
X154017428Y-107906285D01*
X154017428Y-107334857D01*
X153946000Y-107192000D01*
X153803142Y-107120571D01*
X153517428Y-107120571D01*
X153374571Y-107192000D01*
X153303142Y-107334857D01*
X153303142Y-107477714D01*
X154017428Y-107620571D01*
X152731714Y-108049142D02*
X152588857Y-108120571D01*
X152303142Y-108120571D01*
X152160285Y-108049142D01*
X152088857Y-107906285D01*
X152088857Y-107834857D01*
X152160285Y-107692000D01*
X152303142Y-107620571D01*
X152517428Y-107620571D01*
X152660285Y-107549142D01*
X152731714Y-107406285D01*
X152731714Y-107334857D01*
X152660285Y-107192000D01*
X152517428Y-107120571D01*
X152303142Y-107120571D01*
X152160285Y-107192000D01*
X151446000Y-108120571D02*
X151446000Y-106620571D01*
X151303142Y-107549142D02*
X150874571Y-108120571D01*
X150874571Y-107120571D02*
X151446000Y-107692000D01*
X150017428Y-108120571D02*
X150160285Y-108049142D01*
X150231714Y-107977714D01*
X150303142Y-107834857D01*
X150303142Y-107406285D01*
X150231714Y-107263428D01*
X150160285Y-107192000D01*
X150017428Y-107120571D01*
X149803142Y-107120571D01*
X149660285Y-107192000D01*
X149588857Y-107263428D01*
X149517428Y-107406285D01*
X149517428Y-107834857D01*
X149588857Y-107977714D01*
X149660285Y-108049142D01*
X149803142Y-108120571D01*
X150017428Y-108120571D01*
X148874571Y-108120571D02*
X148874571Y-107120571D01*
X148874571Y-107263428D02*
X148803142Y-107192000D01*
X148660285Y-107120571D01*
X148446000Y-107120571D01*
X148303142Y-107192000D01*
X148231714Y-107334857D01*
X148231714Y-108120571D01*
X148231714Y-107334857D02*
X148160285Y-107192000D01*
X148017428Y-107120571D01*
X147803142Y-107120571D01*
X147660285Y-107192000D01*
X147588857Y-107334857D01*
X147588857Y-108120571D01*
X146231714Y-108120571D02*
X146231714Y-107334857D01*
X146303142Y-107192000D01*
X146446000Y-107120571D01*
X146731714Y-107120571D01*
X146874571Y-107192000D01*
X146231714Y-108049142D02*
X146374571Y-108120571D01*
X146731714Y-108120571D01*
X146874571Y-108049142D01*
X146946000Y-107906285D01*
X146946000Y-107763428D01*
X146874571Y-107620571D01*
X146731714Y-107549142D01*
X146374571Y-107549142D01*
X146231714Y-107477714D01*
X145731714Y-107120571D02*
X145160285Y-107120571D01*
X145517428Y-106620571D02*
X145517428Y-107906285D01*
X145446000Y-108049142D01*
X145303142Y-108120571D01*
X145160285Y-108120571D01*
X143731714Y-107120571D02*
X143160285Y-107120571D01*
X143517428Y-106620571D02*
X143517428Y-107906285D01*
X143446000Y-108049142D01*
X143303142Y-108120571D01*
X143160285Y-108120571D01*
X142088857Y-108049142D02*
X142231714Y-108120571D01*
X142517428Y-108120571D01*
X142660285Y-108049142D01*
X142731714Y-107906285D01*
X142731714Y-107334857D01*
X142660285Y-107192000D01*
X142517428Y-107120571D01*
X142231714Y-107120571D01*
X142088857Y-107192000D01*
X142017428Y-107334857D01*
X142017428Y-107477714D01*
X142731714Y-107620571D01*
X141446000Y-108049142D02*
X141303142Y-108120571D01*
X141017428Y-108120571D01*
X140874571Y-108049142D01*
X140803142Y-107906285D01*
X140803142Y-107834857D01*
X140874571Y-107692000D01*
X141017428Y-107620571D01*
X141231714Y-107620571D01*
X141374571Y-107549142D01*
X141446000Y-107406285D01*
X141446000Y-107334857D01*
X141374571Y-107192000D01*
X141231714Y-107120571D01*
X141017428Y-107120571D01*
X140874571Y-107192000D01*
X140374571Y-107120571D02*
X139803142Y-107120571D01*
X140160285Y-106620571D02*
X140160285Y-107906285D01*
X140088857Y-108049142D01*
X139946000Y-108120571D01*
X139803142Y-108120571D01*
X137517428Y-108120571D02*
X137517428Y-107334857D01*
X137588857Y-107192000D01*
X137731714Y-107120571D01*
X138017428Y-107120571D01*
X138160285Y-107192000D01*
X137517428Y-108049142D02*
X137660285Y-108120571D01*
X138017428Y-108120571D01*
X138160285Y-108049142D01*
X138231714Y-107906285D01*
X138231714Y-107763428D01*
X138160285Y-107620571D01*
X138017428Y-107549142D01*
X137660285Y-107549142D01*
X137517428Y-107477714D01*
X136874571Y-108049142D02*
X136731714Y-108120571D01*
X136446000Y-108120571D01*
X136303142Y-108049142D01*
X136231714Y-107906285D01*
X136231714Y-107834857D01*
X136303142Y-107692000D01*
X136446000Y-107620571D01*
X136660285Y-107620571D01*
X136803142Y-107549142D01*
X136874571Y-107406285D01*
X136874571Y-107334857D01*
X136803142Y-107192000D01*
X136660285Y-107120571D01*
X136446000Y-107120571D01*
X136303142Y-107192000D01*
X135660285Y-108049142D02*
X135517428Y-108120571D01*
X135231714Y-108120571D01*
X135088857Y-108049142D01*
X135017428Y-107906285D01*
X135017428Y-107834857D01*
X135088857Y-107692000D01*
X135231714Y-107620571D01*
X135446000Y-107620571D01*
X135588857Y-107549142D01*
X135660285Y-107406285D01*
X135660285Y-107334857D01*
X135588857Y-107192000D01*
X135446000Y-107120571D01*
X135231714Y-107120571D01*
X135088857Y-107192000D01*
X133803142Y-108049142D02*
X133946000Y-108120571D01*
X134231714Y-108120571D01*
X134374571Y-108049142D01*
X134446000Y-107906285D01*
X134446000Y-107334857D01*
X134374571Y-107192000D01*
X134231714Y-107120571D01*
X133946000Y-107120571D01*
X133803142Y-107192000D01*
X133731714Y-107334857D01*
X133731714Y-107477714D01*
X134446000Y-107620571D01*
X133088857Y-108120571D02*
X133088857Y-107120571D01*
X133088857Y-107263428D02*
X133017428Y-107192000D01*
X132874571Y-107120571D01*
X132660285Y-107120571D01*
X132517428Y-107192000D01*
X132446000Y-107334857D01*
X132446000Y-108120571D01*
X132446000Y-107334857D02*
X132374571Y-107192000D01*
X132231714Y-107120571D01*
X132017428Y-107120571D01*
X131874571Y-107192000D01*
X131803142Y-107334857D01*
X131803142Y-108120571D01*
X131088857Y-108120571D02*
X131088857Y-106620571D01*
X131088857Y-107192000D02*
X130946000Y-107120571D01*
X130660285Y-107120571D01*
X130517428Y-107192000D01*
X130446000Y-107263428D01*
X130374571Y-107406285D01*
X130374571Y-107834857D01*
X130446000Y-107977714D01*
X130517428Y-108049142D01*
X130660285Y-108120571D01*
X130946000Y-108120571D01*
X131088857Y-108049142D01*
X129517428Y-108120571D02*
X129660285Y-108049142D01*
X129731714Y-107906285D01*
X129731714Y-106620571D01*
X129088857Y-107120571D02*
X128731714Y-108120571D01*
X128374571Y-107120571D02*
X128731714Y-108120571D01*
X128874571Y-108477714D01*
X128946000Y-108549142D01*
X129088857Y-108620571D01*
X126803142Y-107120571D02*
X126446000Y-108120571D01*
X126088857Y-107120571D01*
X125231714Y-106620571D02*
X125088857Y-106620571D01*
X124946000Y-106692000D01*
X124874571Y-106763428D01*
X124803142Y-106906285D01*
X124731714Y-107192000D01*
X124731714Y-107549142D01*
X124803142Y-107834857D01*
X124874571Y-107977714D01*
X124946000Y-108049142D01*
X125088857Y-108120571D01*
X125231714Y-108120571D01*
X125374571Y-108049142D01*
X125446000Y-107977714D01*
X125517428Y-107834857D01*
X125588857Y-107549142D01*
X125588857Y-107192000D01*
X125517428Y-106906285D01*
X125446000Y-106763428D01*
X125374571Y-106692000D01*
X125231714Y-106620571D01*
X124088857Y-107977714D02*
X124017428Y-108049142D01*
X124088857Y-108120571D01*
X124160285Y-108049142D01*
X124088857Y-107977714D01*
X124088857Y-108120571D01*
X122588857Y-108120571D02*
X123446000Y-108120571D01*
X123017428Y-108120571D02*
X123017428Y-106620571D01*
X123160285Y-106834857D01*
X123303142Y-106977714D01*
X123446000Y-107049142D01*
D11*
%TO.P,J4,8*%
%TO.N,Net-(J4-Pad8)*%
X123952000Y-87402000D03*
%TO.P,J4,7*%
%TO.N,Net-(J4-Pad7)*%
X123952000Y-89902000D03*
%TO.P,J4,6*%
%TO.N,Net-(J4-Pad6)*%
X123952000Y-92402000D03*
%TO.P,J4,5*%
%TO.N,Net-(J4-Pad5)*%
X123952000Y-94902000D03*
%TO.P,J4,4*%
%TO.N,Net-(J4-Pad4)*%
X123952000Y-97402000D03*
%TO.P,J4,3*%
%TO.N,Net-(J4-Pad3)*%
X123952000Y-99902000D03*
%TO.P,J4,2*%
%TO.N,Net-(J4-Pad2)*%
X123952000Y-102402000D03*
%TO.P,J4,1*%
%TO.N,Net-(J4-Pad1)*%
X123952000Y-104902000D03*
%TD*%
%TO.P,J1,1*%
%TO.N,Net-(J1-Pad1)*%
X154178000Y-87376000D03*
%TO.P,J1,2*%
%TO.N,Net-(J1-Pad2)*%
X154178000Y-89876000D03*
%TO.P,J1,3*%
%TO.N,Net-(J1-Pad3)*%
X154178000Y-92376000D03*
%TO.P,J1,4*%
%TO.N,Net-(J1-Pad4)*%
X154178000Y-94876000D03*
%TO.P,J1,5*%
%TO.N,Net-(J1-Pad5)*%
X154178000Y-97376000D03*
%TO.P,J1,6*%
%TO.N,Net-(J1-Pad6)*%
X154178000Y-99876000D03*
%TO.P,J1,7*%
X154178000Y-102376000D03*
%TO.P,J1,8*%
X154178000Y-104876000D03*
%TD*%
%TO.P,J2,8*%
%TO.N,Net-(J2-Pad8)*%
X154178000Y-81508000D03*
%TO.P,J2,7*%
%TO.N,Net-(J2-Pad7)*%
X154178000Y-79008000D03*
%TO.P,J2,6*%
%TO.N,Net-(J2-Pad6)*%
X154178000Y-76508000D03*
%TO.P,J2,5*%
%TO.N,Net-(J2-Pad5)*%
X154178000Y-74008000D03*
%TO.P,J2,4*%
%TO.N,Net-(J2-Pad4)*%
X154178000Y-71508000D03*
%TO.P,J2,3*%
%TO.N,Net-(J2-Pad3)*%
X154178000Y-69008000D03*
%TO.P,J2,2*%
%TO.N,Net-(J2-Pad2)*%
X154178000Y-66508000D03*
%TO.P,J2,1*%
%TO.N,Net-(J2-Pad1)*%
X154178000Y-64008000D03*
%TD*%
%TO.P,J3,1*%
%TO.N,Net-(J3-Pad1)*%
X130556000Y-65024000D03*
%TO.P,J3,2*%
%TO.N,Net-(J3-Pad2)*%
X133056000Y-65024000D03*
%TO.P,J3,3*%
%TO.N,Net-(J3-Pad3)*%
X135556000Y-65024000D03*
%TO.P,J3,4*%
%TO.N,Net-(J3-Pad4)*%
X138056000Y-65024000D03*
%TO.P,J3,5*%
%TO.N,Net-(J3-Pad5)*%
X140556000Y-65024000D03*
%TO.P,J3,6*%
%TO.N,Net-(J3-Pad6)*%
X143056000Y-65024000D03*
%TO.P,J3,7*%
%TO.N,Net-(J3-Pad7)*%
X145556000Y-65024000D03*
%TO.P,J3,8*%
%TO.N,Net-(J3-Pad8)*%
X148056000Y-65024000D03*
%TD*%
%TO.P,J5,1*%
%TO.N,Net-(J5-Pad1)*%
X123952000Y-81534000D03*
%TO.P,J5,2*%
%TO.N,Net-(J5-Pad2)*%
X123952000Y-79034000D03*
%TO.P,J5,3*%
%TO.N,Net-(J5-Pad3)*%
X123952000Y-76534000D03*
%TO.P,J5,4*%
%TO.N,Net-(J5-Pad4)*%
X123952000Y-74034000D03*
%TO.P,J5,5*%
%TO.N,Net-(J5-Pad5)*%
X123952000Y-71534000D03*
%TO.P,J5,6*%
%TO.N,GND*%
X123952000Y-69034000D03*
%TO.P,J5,7*%
X123952000Y-66534000D03*
%TO.P,J5,8*%
X123952000Y-64034000D03*
%TD*%
M02*
