%TF.GenerationSoftware,KiCad,Pcbnew,5.1.7-a382d34a8~88~ubuntu18.04.1*%
%TF.CreationDate,2021-02-15T21:35:44+01:00*%
%TF.ProjectId,test-board-esp32-assembly,74657374-2d62-46f6-9172-642d65737033,test*%
%TF.SameCoordinates,Original*%
%TF.FileFunction,Legend,Top*%
%TF.FilePolarity,Positive*%
%FSLAX46Y46*%
G04 Gerber Fmt 4.6, Leading zero omitted, Abs format (unit mm)*
G04 Created by KiCad (PCBNEW 5.1.7-a382d34a8~88~ubuntu18.04.1) date 2021-02-15 21:35:44*
%MOMM*%
%LPD*%
G01*
G04 APERTURE LIST*
%ADD10C,0.010000*%
%ADD11C,0.152400*%
%ADD12C,0.150000*%
%ADD13C,0.500000*%
G04 APERTURE END LIST*
D10*
%TO.C,G\u002A\u002A\u002A*%
G36*
X146431226Y-102738882D02*
G01*
X146592252Y-103071554D01*
X146733717Y-103337773D01*
X146837796Y-103505481D01*
X146880771Y-103547334D01*
X146994438Y-103489013D01*
X147148705Y-103306086D01*
X147352494Y-102986600D01*
X147522635Y-102687561D01*
X147688339Y-102401683D01*
X147837576Y-102169244D01*
X147940994Y-102035613D01*
X147949252Y-102028104D01*
X148101889Y-101979731D01*
X148402740Y-101955118D01*
X148832146Y-101955816D01*
X148856639Y-101956543D01*
X149648333Y-101981000D01*
X149670639Y-104849618D01*
X149675400Y-105695352D01*
X149675048Y-106383053D01*
X149669293Y-106923952D01*
X149657848Y-107329282D01*
X149640421Y-107610274D01*
X149616724Y-107778161D01*
X149593601Y-107837940D01*
X149448813Y-107914332D01*
X149172696Y-107937467D01*
X149020961Y-107932655D01*
X148547667Y-107907667D01*
X148505333Y-105240667D01*
X148491964Y-104423564D01*
X148477329Y-103767135D01*
X148456758Y-103262754D01*
X148425587Y-102901795D01*
X148379149Y-102675633D01*
X148312775Y-102575642D01*
X148221800Y-102593196D01*
X148101556Y-102719670D01*
X147947377Y-102946438D01*
X147754596Y-103264875D01*
X147588858Y-103546772D01*
X147367913Y-103909194D01*
X147166540Y-104214220D01*
X147004480Y-104433692D01*
X146901472Y-104539451D01*
X146889385Y-104544541D01*
X146801155Y-104493497D01*
X146667963Y-104308825D01*
X146484629Y-103982201D01*
X146257488Y-103529103D01*
X146032751Y-103084281D01*
X145845601Y-102752790D01*
X145705152Y-102549658D01*
X145626667Y-102489000D01*
X145590414Y-102507686D01*
X145561148Y-102574909D01*
X145537915Y-102707420D01*
X145519756Y-102921970D01*
X145505717Y-103235308D01*
X145494842Y-103664184D01*
X145486173Y-104225350D01*
X145478755Y-104935556D01*
X145477256Y-105106490D01*
X145469258Y-105881378D01*
X145458858Y-106503310D01*
X145444434Y-106988663D01*
X145424366Y-107353812D01*
X145397036Y-107615134D01*
X145360821Y-107789003D01*
X145314103Y-107891797D01*
X145255261Y-107939892D01*
X145195945Y-107950000D01*
X145104051Y-107884314D01*
X145035833Y-107784092D01*
X145008531Y-107642942D01*
X144987787Y-107335871D01*
X144973674Y-106866172D01*
X144966264Y-106237134D01*
X144965632Y-105452046D01*
X144969354Y-104799592D01*
X144991667Y-101981000D01*
X145523832Y-101955716D01*
X146055998Y-101930431D01*
X146431226Y-102738882D01*
G37*
X146431226Y-102738882D02*
X146592252Y-103071554D01*
X146733717Y-103337773D01*
X146837796Y-103505481D01*
X146880771Y-103547334D01*
X146994438Y-103489013D01*
X147148705Y-103306086D01*
X147352494Y-102986600D01*
X147522635Y-102687561D01*
X147688339Y-102401683D01*
X147837576Y-102169244D01*
X147940994Y-102035613D01*
X147949252Y-102028104D01*
X148101889Y-101979731D01*
X148402740Y-101955118D01*
X148832146Y-101955816D01*
X148856639Y-101956543D01*
X149648333Y-101981000D01*
X149670639Y-104849618D01*
X149675400Y-105695352D01*
X149675048Y-106383053D01*
X149669293Y-106923952D01*
X149657848Y-107329282D01*
X149640421Y-107610274D01*
X149616724Y-107778161D01*
X149593601Y-107837940D01*
X149448813Y-107914332D01*
X149172696Y-107937467D01*
X149020961Y-107932655D01*
X148547667Y-107907667D01*
X148505333Y-105240667D01*
X148491964Y-104423564D01*
X148477329Y-103767135D01*
X148456758Y-103262754D01*
X148425587Y-102901795D01*
X148379149Y-102675633D01*
X148312775Y-102575642D01*
X148221800Y-102593196D01*
X148101556Y-102719670D01*
X147947377Y-102946438D01*
X147754596Y-103264875D01*
X147588858Y-103546772D01*
X147367913Y-103909194D01*
X147166540Y-104214220D01*
X147004480Y-104433692D01*
X146901472Y-104539451D01*
X146889385Y-104544541D01*
X146801155Y-104493497D01*
X146667963Y-104308825D01*
X146484629Y-103982201D01*
X146257488Y-103529103D01*
X146032751Y-103084281D01*
X145845601Y-102752790D01*
X145705152Y-102549658D01*
X145626667Y-102489000D01*
X145590414Y-102507686D01*
X145561148Y-102574909D01*
X145537915Y-102707420D01*
X145519756Y-102921970D01*
X145505717Y-103235308D01*
X145494842Y-103664184D01*
X145486173Y-104225350D01*
X145478755Y-104935556D01*
X145477256Y-105106490D01*
X145469258Y-105881378D01*
X145458858Y-106503310D01*
X145444434Y-106988663D01*
X145424366Y-107353812D01*
X145397036Y-107615134D01*
X145360821Y-107789003D01*
X145314103Y-107891797D01*
X145255261Y-107939892D01*
X145195945Y-107950000D01*
X145104051Y-107884314D01*
X145035833Y-107784092D01*
X145008531Y-107642942D01*
X144987787Y-107335871D01*
X144973674Y-106866172D01*
X144966264Y-106237134D01*
X144965632Y-105452046D01*
X144969354Y-104799592D01*
X144991667Y-101981000D01*
X145523832Y-101955716D01*
X146055998Y-101930431D01*
X146431226Y-102738882D01*
G36*
X147176956Y-106191624D02*
G01*
X147394040Y-106231633D01*
X147453873Y-106262371D01*
X147515309Y-106397206D01*
X147556279Y-106648844D01*
X147576183Y-106965920D01*
X147574422Y-107297074D01*
X147550395Y-107590944D01*
X147503502Y-107796165D01*
X147472400Y-107848400D01*
X147328068Y-107912466D01*
X147094110Y-107945409D01*
X146829581Y-107947845D01*
X146593535Y-107920390D01*
X146445028Y-107863661D01*
X146424835Y-107837466D01*
X146408098Y-107706140D01*
X146400274Y-107451456D01*
X146402342Y-107119203D01*
X146406326Y-106969633D01*
X146431000Y-106214334D01*
X146882373Y-106188504D01*
X147176956Y-106191624D01*
G37*
X147176956Y-106191624D02*
X147394040Y-106231633D01*
X147453873Y-106262371D01*
X147515309Y-106397206D01*
X147556279Y-106648844D01*
X147576183Y-106965920D01*
X147574422Y-107297074D01*
X147550395Y-107590944D01*
X147503502Y-107796165D01*
X147472400Y-107848400D01*
X147328068Y-107912466D01*
X147094110Y-107945409D01*
X146829581Y-107947845D01*
X146593535Y-107920390D01*
X146445028Y-107863661D01*
X146424835Y-107837466D01*
X146408098Y-107706140D01*
X146400274Y-107451456D01*
X146402342Y-107119203D01*
X146406326Y-106969633D01*
X146431000Y-106214334D01*
X146882373Y-106188504D01*
X147176956Y-106191624D01*
G36*
X157213489Y-101939815D02*
G01*
X157687318Y-101944236D01*
X158033150Y-101953394D01*
X158271650Y-101968756D01*
X158423481Y-101991786D01*
X158509305Y-102023950D01*
X158549788Y-102066712D01*
X158554747Y-102077910D01*
X158542321Y-102238473D01*
X158384471Y-102360468D01*
X158102940Y-102432325D01*
X157861751Y-102446667D01*
X157592846Y-102465494D01*
X157388645Y-102513486D01*
X157327600Y-102548267D01*
X157296154Y-102631079D01*
X157271152Y-102817899D01*
X157252133Y-103120771D01*
X157238634Y-103551740D01*
X157230195Y-104122848D01*
X157226353Y-104846139D01*
X157226000Y-105198333D01*
X157223952Y-105989158D01*
X157217501Y-106622740D01*
X157206184Y-107111121D01*
X157189541Y-107466346D01*
X157167109Y-107700459D01*
X157138427Y-107825503D01*
X157124400Y-107848400D01*
X156990485Y-107902329D01*
X156756825Y-107937284D01*
X156488150Y-107950422D01*
X156249190Y-107938896D01*
X156104674Y-107899861D01*
X156097111Y-107893556D01*
X156083097Y-107797899D01*
X156070351Y-107553962D01*
X156059320Y-107182793D01*
X156050452Y-106705443D01*
X156044193Y-106142962D01*
X156040992Y-105516401D01*
X156040667Y-105236923D01*
X156038971Y-104456771D01*
X156033519Y-103831953D01*
X156023758Y-103348497D01*
X156009139Y-102992433D01*
X155989111Y-102749792D01*
X155963122Y-102606602D01*
X155934833Y-102551726D01*
X155798497Y-102501286D01*
X155551025Y-102456016D01*
X155298573Y-102430032D01*
X154918577Y-102382738D01*
X154693614Y-102300449D01*
X154611821Y-102176803D01*
X154629767Y-102071358D01*
X154665128Y-102027958D01*
X154747103Y-101994999D01*
X154896033Y-101971106D01*
X155132259Y-101954903D01*
X155476121Y-101945013D01*
X155947961Y-101940060D01*
X156568118Y-101938668D01*
X156591000Y-101938667D01*
X157213489Y-101939815D01*
G37*
X157213489Y-101939815D02*
X157687318Y-101944236D01*
X158033150Y-101953394D01*
X158271650Y-101968756D01*
X158423481Y-101991786D01*
X158509305Y-102023950D01*
X158549788Y-102066712D01*
X158554747Y-102077910D01*
X158542321Y-102238473D01*
X158384471Y-102360468D01*
X158102940Y-102432325D01*
X157861751Y-102446667D01*
X157592846Y-102465494D01*
X157388645Y-102513486D01*
X157327600Y-102548267D01*
X157296154Y-102631079D01*
X157271152Y-102817899D01*
X157252133Y-103120771D01*
X157238634Y-103551740D01*
X157230195Y-104122848D01*
X157226353Y-104846139D01*
X157226000Y-105198333D01*
X157223952Y-105989158D01*
X157217501Y-106622740D01*
X157206184Y-107111121D01*
X157189541Y-107466346D01*
X157167109Y-107700459D01*
X157138427Y-107825503D01*
X157124400Y-107848400D01*
X156990485Y-107902329D01*
X156756825Y-107937284D01*
X156488150Y-107950422D01*
X156249190Y-107938896D01*
X156104674Y-107899861D01*
X156097111Y-107893556D01*
X156083097Y-107797899D01*
X156070351Y-107553962D01*
X156059320Y-107182793D01*
X156050452Y-106705443D01*
X156044193Y-106142962D01*
X156040992Y-105516401D01*
X156040667Y-105236923D01*
X156038971Y-104456771D01*
X156033519Y-103831953D01*
X156023758Y-103348497D01*
X156009139Y-102992433D01*
X155989111Y-102749792D01*
X155963122Y-102606602D01*
X155934833Y-102551726D01*
X155798497Y-102501286D01*
X155551025Y-102456016D01*
X155298573Y-102430032D01*
X154918577Y-102382738D01*
X154693614Y-102300449D01*
X154611821Y-102176803D01*
X154629767Y-102071358D01*
X154665128Y-102027958D01*
X154747103Y-101994999D01*
X154896033Y-101971106D01*
X155132259Y-101954903D01*
X155476121Y-101945013D01*
X155947961Y-101940060D01*
X156568118Y-101938668D01*
X156591000Y-101938667D01*
X157213489Y-101939815D01*
G36*
X122835749Y-101853706D02*
G01*
X123173419Y-101866867D01*
X123406141Y-101888640D01*
X123479408Y-101905392D01*
X123533964Y-101949709D01*
X123571745Y-102050985D01*
X123595619Y-102235264D01*
X123608450Y-102528591D01*
X123613103Y-102957011D01*
X123613333Y-103122692D01*
X123615282Y-103608639D01*
X123627259Y-103955302D01*
X123658458Y-104192726D01*
X123718073Y-104350957D01*
X123815299Y-104460042D01*
X123959331Y-104550027D01*
X124066863Y-104604771D01*
X124132644Y-104645402D01*
X124180838Y-104708553D01*
X124214721Y-104819175D01*
X124237569Y-105002216D01*
X124252660Y-105282626D01*
X124263270Y-105685353D01*
X124271542Y-106163274D01*
X124276301Y-106787538D01*
X124267965Y-107250883D01*
X124246164Y-107561247D01*
X124210530Y-107726564D01*
X124197675Y-107748364D01*
X124082196Y-107788142D01*
X123828391Y-107820561D01*
X123467112Y-107845494D01*
X123029213Y-107862818D01*
X122545546Y-107872406D01*
X122046964Y-107874133D01*
X121564320Y-107867875D01*
X121128466Y-107853505D01*
X120770255Y-107830899D01*
X120520540Y-107799930D01*
X120412933Y-107763734D01*
X120383600Y-107651561D01*
X120358850Y-107394652D01*
X120338684Y-107017540D01*
X120325696Y-106623451D01*
X121513947Y-106623451D01*
X121562086Y-106980898D01*
X121681550Y-107216143D01*
X121894530Y-107351673D01*
X122223214Y-107409975D01*
X122689792Y-107413535D01*
X122786795Y-107410224D01*
X123173107Y-107383316D01*
X123428774Y-107332216D01*
X123591730Y-107248700D01*
X123612295Y-107231273D01*
X123691438Y-107139960D01*
X123741771Y-107014606D01*
X123769544Y-106818451D01*
X123781003Y-106514739D01*
X123782667Y-106229045D01*
X123777299Y-105767009D01*
X123743760Y-105447866D01*
X123655891Y-105245183D01*
X123487535Y-105132531D01*
X123212536Y-105083481D01*
X122804735Y-105071601D01*
X122636911Y-105071334D01*
X122190843Y-105076387D01*
X121886018Y-105109068D01*
X121694353Y-105195660D01*
X121587763Y-105362445D01*
X121538163Y-105635706D01*
X121517469Y-106041725D01*
X121514947Y-106121316D01*
X121513947Y-106623451D01*
X120325696Y-106623451D01*
X120323102Y-106544759D01*
X120312103Y-106000844D01*
X120305689Y-105410329D01*
X120303858Y-104797747D01*
X120306611Y-104187633D01*
X120313948Y-103604522D01*
X120316843Y-103475393D01*
X121581333Y-103475393D01*
X121586024Y-103919489D01*
X121612825Y-104221715D01*
X121680830Y-104409510D01*
X121809136Y-104510311D01*
X122016834Y-104551555D01*
X122323021Y-104560679D01*
X122336666Y-104560759D01*
X122708606Y-104530937D01*
X122937443Y-104434379D01*
X122950500Y-104423211D01*
X123024147Y-104330480D01*
X123070570Y-104189729D01*
X123095520Y-103965006D01*
X123104750Y-103620360D01*
X123105333Y-103455592D01*
X123097689Y-103007790D01*
X123061720Y-102702145D01*
X122977875Y-102511709D01*
X122826600Y-102409531D01*
X122588344Y-102368664D01*
X122311886Y-102362000D01*
X122008628Y-102377787D01*
X121777648Y-102419283D01*
X121682933Y-102463600D01*
X121629680Y-102609177D01*
X121595683Y-102915765D01*
X121581675Y-103376058D01*
X121581333Y-103475393D01*
X120316843Y-103475393D01*
X120325868Y-103072947D01*
X120342373Y-102617443D01*
X120363461Y-102262544D01*
X120389133Y-102032784D01*
X120412933Y-101955600D01*
X120525432Y-101924185D01*
X120772935Y-101897454D01*
X121121163Y-101875968D01*
X121535837Y-101860290D01*
X121982679Y-101850979D01*
X122427409Y-101848597D01*
X122835749Y-101853706D01*
G37*
X122835749Y-101853706D02*
X123173419Y-101866867D01*
X123406141Y-101888640D01*
X123479408Y-101905392D01*
X123533964Y-101949709D01*
X123571745Y-102050985D01*
X123595619Y-102235264D01*
X123608450Y-102528591D01*
X123613103Y-102957011D01*
X123613333Y-103122692D01*
X123615282Y-103608639D01*
X123627259Y-103955302D01*
X123658458Y-104192726D01*
X123718073Y-104350957D01*
X123815299Y-104460042D01*
X123959331Y-104550027D01*
X124066863Y-104604771D01*
X124132644Y-104645402D01*
X124180838Y-104708553D01*
X124214721Y-104819175D01*
X124237569Y-105002216D01*
X124252660Y-105282626D01*
X124263270Y-105685353D01*
X124271542Y-106163274D01*
X124276301Y-106787538D01*
X124267965Y-107250883D01*
X124246164Y-107561247D01*
X124210530Y-107726564D01*
X124197675Y-107748364D01*
X124082196Y-107788142D01*
X123828391Y-107820561D01*
X123467112Y-107845494D01*
X123029213Y-107862818D01*
X122545546Y-107872406D01*
X122046964Y-107874133D01*
X121564320Y-107867875D01*
X121128466Y-107853505D01*
X120770255Y-107830899D01*
X120520540Y-107799930D01*
X120412933Y-107763734D01*
X120383600Y-107651561D01*
X120358850Y-107394652D01*
X120338684Y-107017540D01*
X120325696Y-106623451D01*
X121513947Y-106623451D01*
X121562086Y-106980898D01*
X121681550Y-107216143D01*
X121894530Y-107351673D01*
X122223214Y-107409975D01*
X122689792Y-107413535D01*
X122786795Y-107410224D01*
X123173107Y-107383316D01*
X123428774Y-107332216D01*
X123591730Y-107248700D01*
X123612295Y-107231273D01*
X123691438Y-107139960D01*
X123741771Y-107014606D01*
X123769544Y-106818451D01*
X123781003Y-106514739D01*
X123782667Y-106229045D01*
X123777299Y-105767009D01*
X123743760Y-105447866D01*
X123655891Y-105245183D01*
X123487535Y-105132531D01*
X123212536Y-105083481D01*
X122804735Y-105071601D01*
X122636911Y-105071334D01*
X122190843Y-105076387D01*
X121886018Y-105109068D01*
X121694353Y-105195660D01*
X121587763Y-105362445D01*
X121538163Y-105635706D01*
X121517469Y-106041725D01*
X121514947Y-106121316D01*
X121513947Y-106623451D01*
X120325696Y-106623451D01*
X120323102Y-106544759D01*
X120312103Y-106000844D01*
X120305689Y-105410329D01*
X120303858Y-104797747D01*
X120306611Y-104187633D01*
X120313948Y-103604522D01*
X120316843Y-103475393D01*
X121581333Y-103475393D01*
X121586024Y-103919489D01*
X121612825Y-104221715D01*
X121680830Y-104409510D01*
X121809136Y-104510311D01*
X122016834Y-104551555D01*
X122323021Y-104560679D01*
X122336666Y-104560759D01*
X122708606Y-104530937D01*
X122937443Y-104434379D01*
X122950500Y-104423211D01*
X123024147Y-104330480D01*
X123070570Y-104189729D01*
X123095520Y-103965006D01*
X123104750Y-103620360D01*
X123105333Y-103455592D01*
X123097689Y-103007790D01*
X123061720Y-102702145D01*
X122977875Y-102511709D01*
X122826600Y-102409531D01*
X122588344Y-102368664D01*
X122311886Y-102362000D01*
X122008628Y-102377787D01*
X121777648Y-102419283D01*
X121682933Y-102463600D01*
X121629680Y-102609177D01*
X121595683Y-102915765D01*
X121581675Y-103376058D01*
X121581333Y-103475393D01*
X120316843Y-103475393D01*
X120325868Y-103072947D01*
X120342373Y-102617443D01*
X120363461Y-102262544D01*
X120389133Y-102032784D01*
X120412933Y-101955600D01*
X120525432Y-101924185D01*
X120772935Y-101897454D01*
X121121163Y-101875968D01*
X121535837Y-101860290D01*
X121982679Y-101850979D01*
X122427409Y-101848597D01*
X122835749Y-101853706D01*
G36*
X125849359Y-101905117D02*
G01*
X125887606Y-101935466D01*
X125917954Y-102005567D01*
X125941291Y-102132922D01*
X125958504Y-102335031D01*
X125970483Y-102629394D01*
X125978113Y-103033513D01*
X125982284Y-103564886D01*
X125983882Y-104241016D01*
X125984000Y-104559270D01*
X125984651Y-105296044D01*
X125987285Y-105881940D01*
X125992917Y-106335409D01*
X126002566Y-106674901D01*
X126017249Y-106918871D01*
X126037984Y-107085767D01*
X126065789Y-107194044D01*
X126101680Y-107262151D01*
X126135055Y-107298459D01*
X126269217Y-107371506D01*
X126499517Y-107420523D01*
X126855103Y-107450447D01*
X127087555Y-107459748D01*
X127461038Y-107474029D01*
X127696554Y-107494145D01*
X127825463Y-107527681D01*
X127879123Y-107582226D01*
X127889000Y-107653667D01*
X127881154Y-107714537D01*
X127842146Y-107759316D01*
X127748771Y-107790995D01*
X127577826Y-107812564D01*
X127306106Y-107827015D01*
X126910406Y-107837336D01*
X126395959Y-107846081D01*
X125852772Y-107852830D01*
X125455471Y-107852651D01*
X125180693Y-107843838D01*
X125005070Y-107824687D01*
X124905239Y-107793492D01*
X124857833Y-107748548D01*
X124850793Y-107733323D01*
X124831770Y-107602129D01*
X124815857Y-107336860D01*
X124804453Y-106972767D01*
X124798956Y-106545100D01*
X124798667Y-106420212D01*
X124798667Y-105242939D01*
X125088185Y-105121971D01*
X125307740Y-104995226D01*
X125459559Y-104846283D01*
X125469185Y-104830067D01*
X125504417Y-104677817D01*
X125532324Y-104381041D01*
X125551426Y-103964443D01*
X125560242Y-103452731D01*
X125560667Y-103303896D01*
X125565245Y-102841897D01*
X125577893Y-102441497D01*
X125596982Y-102132365D01*
X125620882Y-101944174D01*
X125637693Y-101901056D01*
X125775799Y-101886283D01*
X125849359Y-101905117D01*
G37*
X125849359Y-101905117D02*
X125887606Y-101935466D01*
X125917954Y-102005567D01*
X125941291Y-102132922D01*
X125958504Y-102335031D01*
X125970483Y-102629394D01*
X125978113Y-103033513D01*
X125982284Y-103564886D01*
X125983882Y-104241016D01*
X125984000Y-104559270D01*
X125984651Y-105296044D01*
X125987285Y-105881940D01*
X125992917Y-106335409D01*
X126002566Y-106674901D01*
X126017249Y-106918871D01*
X126037984Y-107085767D01*
X126065789Y-107194044D01*
X126101680Y-107262151D01*
X126135055Y-107298459D01*
X126269217Y-107371506D01*
X126499517Y-107420523D01*
X126855103Y-107450447D01*
X127087555Y-107459748D01*
X127461038Y-107474029D01*
X127696554Y-107494145D01*
X127825463Y-107527681D01*
X127879123Y-107582226D01*
X127889000Y-107653667D01*
X127881154Y-107714537D01*
X127842146Y-107759316D01*
X127748771Y-107790995D01*
X127577826Y-107812564D01*
X127306106Y-107827015D01*
X126910406Y-107837336D01*
X126395959Y-107846081D01*
X125852772Y-107852830D01*
X125455471Y-107852651D01*
X125180693Y-107843838D01*
X125005070Y-107824687D01*
X124905239Y-107793492D01*
X124857833Y-107748548D01*
X124850793Y-107733323D01*
X124831770Y-107602129D01*
X124815857Y-107336860D01*
X124804453Y-106972767D01*
X124798956Y-106545100D01*
X124798667Y-106420212D01*
X124798667Y-105242939D01*
X125088185Y-105121971D01*
X125307740Y-104995226D01*
X125459559Y-104846283D01*
X125469185Y-104830067D01*
X125504417Y-104677817D01*
X125532324Y-104381041D01*
X125551426Y-103964443D01*
X125560242Y-103452731D01*
X125560667Y-103303896D01*
X125565245Y-102841897D01*
X125577893Y-102441497D01*
X125596982Y-102132365D01*
X125620882Y-101944174D01*
X125637693Y-101901056D01*
X125775799Y-101886283D01*
X125849359Y-101905117D01*
G36*
X130545527Y-101856788D02*
G01*
X130933405Y-101866509D01*
X131199712Y-101885201D01*
X131368296Y-101914901D01*
X131463001Y-101957644D01*
X131486438Y-101979922D01*
X131551798Y-102146112D01*
X131541796Y-102233922D01*
X131493272Y-102287781D01*
X131378994Y-102324634D01*
X131173003Y-102347365D01*
X130849340Y-102358858D01*
X130389324Y-102362000D01*
X129864827Y-102365656D01*
X129485974Y-102388998D01*
X129229078Y-102450585D01*
X129070453Y-102568976D01*
X128986413Y-102762731D01*
X128953271Y-103050410D01*
X128947341Y-103450571D01*
X128947333Y-103491878D01*
X128951663Y-103895995D01*
X128981134Y-104183083D01*
X129060468Y-104373150D01*
X129214389Y-104486202D01*
X129467618Y-104542248D01*
X129844878Y-104561293D01*
X130271318Y-104563334D01*
X130808960Y-104574313D01*
X131192416Y-104609862D01*
X131435568Y-104673894D01*
X131552298Y-104770325D01*
X131556489Y-104903069D01*
X131549293Y-104923717D01*
X131487238Y-104988737D01*
X131341117Y-105033638D01*
X131082549Y-105063671D01*
X130683154Y-105084084D01*
X130681957Y-105084127D01*
X130256240Y-105105567D01*
X129963534Y-105152106D01*
X129778936Y-105251361D01*
X129677546Y-105430946D01*
X129634463Y-105718477D01*
X129624785Y-106141569D01*
X129624667Y-106256667D01*
X129630241Y-106712876D01*
X129663888Y-107027832D01*
X129750991Y-107229591D01*
X129916936Y-107346213D01*
X130187107Y-107405756D01*
X130586889Y-107436277D01*
X130697059Y-107442000D01*
X131079298Y-107464232D01*
X131322979Y-107489174D01*
X131458798Y-107524630D01*
X131517455Y-107578406D01*
X131529667Y-107653667D01*
X131521597Y-107715466D01*
X131481651Y-107760661D01*
X131386218Y-107792401D01*
X131211691Y-107813838D01*
X130934462Y-107828124D01*
X130530922Y-107838408D01*
X130088018Y-107846085D01*
X129503772Y-107851421D01*
X129072355Y-107845536D01*
X128777582Y-107827588D01*
X128603265Y-107796733D01*
X128542852Y-107765652D01*
X128513130Y-107653094D01*
X128488001Y-107395812D01*
X128467472Y-107018346D01*
X128451551Y-106545236D01*
X128440247Y-106001022D01*
X128433568Y-105410246D01*
X128431521Y-104797447D01*
X128434116Y-104187167D01*
X128441359Y-103603946D01*
X128453259Y-103072323D01*
X128469825Y-102616840D01*
X128491064Y-102262037D01*
X128516984Y-102032455D01*
X128540933Y-101955600D01*
X128655983Y-101912042D01*
X128907630Y-101881097D01*
X129305909Y-101862074D01*
X129860853Y-101854278D01*
X130012233Y-101854000D01*
X130545527Y-101856788D01*
G37*
X130545527Y-101856788D02*
X130933405Y-101866509D01*
X131199712Y-101885201D01*
X131368296Y-101914901D01*
X131463001Y-101957644D01*
X131486438Y-101979922D01*
X131551798Y-102146112D01*
X131541796Y-102233922D01*
X131493272Y-102287781D01*
X131378994Y-102324634D01*
X131173003Y-102347365D01*
X130849340Y-102358858D01*
X130389324Y-102362000D01*
X129864827Y-102365656D01*
X129485974Y-102388998D01*
X129229078Y-102450585D01*
X129070453Y-102568976D01*
X128986413Y-102762731D01*
X128953271Y-103050410D01*
X128947341Y-103450571D01*
X128947333Y-103491878D01*
X128951663Y-103895995D01*
X128981134Y-104183083D01*
X129060468Y-104373150D01*
X129214389Y-104486202D01*
X129467618Y-104542248D01*
X129844878Y-104561293D01*
X130271318Y-104563334D01*
X130808960Y-104574313D01*
X131192416Y-104609862D01*
X131435568Y-104673894D01*
X131552298Y-104770325D01*
X131556489Y-104903069D01*
X131549293Y-104923717D01*
X131487238Y-104988737D01*
X131341117Y-105033638D01*
X131082549Y-105063671D01*
X130683154Y-105084084D01*
X130681957Y-105084127D01*
X130256240Y-105105567D01*
X129963534Y-105152106D01*
X129778936Y-105251361D01*
X129677546Y-105430946D01*
X129634463Y-105718477D01*
X129624785Y-106141569D01*
X129624667Y-106256667D01*
X129630241Y-106712876D01*
X129663888Y-107027832D01*
X129750991Y-107229591D01*
X129916936Y-107346213D01*
X130187107Y-107405756D01*
X130586889Y-107436277D01*
X130697059Y-107442000D01*
X131079298Y-107464232D01*
X131322979Y-107489174D01*
X131458798Y-107524630D01*
X131517455Y-107578406D01*
X131529667Y-107653667D01*
X131521597Y-107715466D01*
X131481651Y-107760661D01*
X131386218Y-107792401D01*
X131211691Y-107813838D01*
X130934462Y-107828124D01*
X130530922Y-107838408D01*
X130088018Y-107846085D01*
X129503772Y-107851421D01*
X129072355Y-107845536D01*
X128777582Y-107827588D01*
X128603265Y-107796733D01*
X128542852Y-107765652D01*
X128513130Y-107653094D01*
X128488001Y-107395812D01*
X128467472Y-107018346D01*
X128451551Y-106545236D01*
X128440247Y-106001022D01*
X128433568Y-105410246D01*
X128431521Y-104797447D01*
X128434116Y-104187167D01*
X128441359Y-103603946D01*
X128453259Y-103072323D01*
X128469825Y-102616840D01*
X128491064Y-102262037D01*
X128516984Y-102032455D01*
X128540933Y-101955600D01*
X128655983Y-101912042D01*
X128907630Y-101881097D01*
X129305909Y-101862074D01*
X129860853Y-101854278D01*
X130012233Y-101854000D01*
X130545527Y-101856788D01*
G36*
X134348262Y-101855428D02*
G01*
X134775691Y-101866862D01*
X135077455Y-101899033D01*
X135275385Y-101962669D01*
X135391315Y-102068498D01*
X135447078Y-102227250D01*
X135464507Y-102449654D01*
X135465510Y-102685548D01*
X135454820Y-103114575D01*
X135420212Y-103397724D01*
X135354757Y-103557598D01*
X135251525Y-103616797D01*
X135180463Y-103615276D01*
X135079418Y-103579386D01*
X135017763Y-103481291D01*
X134979761Y-103281417D01*
X134958619Y-103057383D01*
X134909008Y-102700168D01*
X134830704Y-102487704D01*
X134789286Y-102444846D01*
X134655533Y-102411583D01*
X134393913Y-102384785D01*
X134045861Y-102367726D01*
X133756967Y-102363297D01*
X133292191Y-102369282D01*
X132970412Y-102405260D01*
X132765379Y-102495919D01*
X132650837Y-102665950D01*
X132600535Y-102940041D01*
X132588220Y-103342884D01*
X132588000Y-103462667D01*
X132591031Y-103851461D01*
X132615673Y-104134380D01*
X132685248Y-104328938D01*
X132823078Y-104452654D01*
X133052486Y-104523042D01*
X133396793Y-104557621D01*
X133879322Y-104573905D01*
X134073349Y-104578261D01*
X134577457Y-104592893D01*
X134936353Y-104612635D01*
X135174142Y-104640326D01*
X135314932Y-104678807D01*
X135382827Y-104730917D01*
X135383955Y-104732667D01*
X135409676Y-104855482D01*
X135430991Y-105112214D01*
X135447531Y-105467496D01*
X135458927Y-105885959D01*
X135464810Y-106332236D01*
X135464810Y-106770958D01*
X135458557Y-107166759D01*
X135445683Y-107484269D01*
X135425819Y-107688121D01*
X135415275Y-107731409D01*
X135377458Y-107778753D01*
X135290719Y-107813666D01*
X135132776Y-107837953D01*
X134881345Y-107853417D01*
X134514143Y-107861864D01*
X134008889Y-107865096D01*
X133761313Y-107865334D01*
X132158743Y-107865334D01*
X132182871Y-106997500D01*
X132207000Y-106129667D01*
X133223000Y-106129667D01*
X133265333Y-106646007D01*
X133312079Y-107019165D01*
X133400046Y-107254229D01*
X133562138Y-107382236D01*
X133831259Y-107434220D01*
X134109245Y-107442000D01*
X134443717Y-107432274D01*
X134676699Y-107385913D01*
X134826432Y-107277143D01*
X134911162Y-107080190D01*
X134949130Y-106769279D01*
X134958581Y-106318639D01*
X134958667Y-106241956D01*
X134956793Y-105822297D01*
X134935668Y-105517182D01*
X134872031Y-105308369D01*
X134742624Y-105177615D01*
X134524188Y-105106679D01*
X134193465Y-105077319D01*
X133727194Y-105071293D01*
X133466100Y-105071334D01*
X132906508Y-105064420D01*
X132508916Y-105043321D01*
X132266541Y-105007502D01*
X132181600Y-104969733D01*
X132138119Y-104854927D01*
X132107206Y-104603776D01*
X132088164Y-104206199D01*
X132080301Y-103652114D01*
X132080000Y-103494114D01*
X132082596Y-102962629D01*
X132091866Y-102575264D01*
X132110029Y-102306867D01*
X132139307Y-102132285D01*
X132181920Y-102026363D01*
X132213047Y-101987048D01*
X132289448Y-101936746D01*
X132419018Y-101900510D01*
X132626419Y-101876237D01*
X132936313Y-101861825D01*
X133373359Y-101855170D01*
X133773333Y-101854000D01*
X134348262Y-101855428D01*
G37*
X134348262Y-101855428D02*
X134775691Y-101866862D01*
X135077455Y-101899033D01*
X135275385Y-101962669D01*
X135391315Y-102068498D01*
X135447078Y-102227250D01*
X135464507Y-102449654D01*
X135465510Y-102685548D01*
X135454820Y-103114575D01*
X135420212Y-103397724D01*
X135354757Y-103557598D01*
X135251525Y-103616797D01*
X135180463Y-103615276D01*
X135079418Y-103579386D01*
X135017763Y-103481291D01*
X134979761Y-103281417D01*
X134958619Y-103057383D01*
X134909008Y-102700168D01*
X134830704Y-102487704D01*
X134789286Y-102444846D01*
X134655533Y-102411583D01*
X134393913Y-102384785D01*
X134045861Y-102367726D01*
X133756967Y-102363297D01*
X133292191Y-102369282D01*
X132970412Y-102405260D01*
X132765379Y-102495919D01*
X132650837Y-102665950D01*
X132600535Y-102940041D01*
X132588220Y-103342884D01*
X132588000Y-103462667D01*
X132591031Y-103851461D01*
X132615673Y-104134380D01*
X132685248Y-104328938D01*
X132823078Y-104452654D01*
X133052486Y-104523042D01*
X133396793Y-104557621D01*
X133879322Y-104573905D01*
X134073349Y-104578261D01*
X134577457Y-104592893D01*
X134936353Y-104612635D01*
X135174142Y-104640326D01*
X135314932Y-104678807D01*
X135382827Y-104730917D01*
X135383955Y-104732667D01*
X135409676Y-104855482D01*
X135430991Y-105112214D01*
X135447531Y-105467496D01*
X135458927Y-105885959D01*
X135464810Y-106332236D01*
X135464810Y-106770958D01*
X135458557Y-107166759D01*
X135445683Y-107484269D01*
X135425819Y-107688121D01*
X135415275Y-107731409D01*
X135377458Y-107778753D01*
X135290719Y-107813666D01*
X135132776Y-107837953D01*
X134881345Y-107853417D01*
X134514143Y-107861864D01*
X134008889Y-107865096D01*
X133761313Y-107865334D01*
X132158743Y-107865334D01*
X132182871Y-106997500D01*
X132207000Y-106129667D01*
X133223000Y-106129667D01*
X133265333Y-106646007D01*
X133312079Y-107019165D01*
X133400046Y-107254229D01*
X133562138Y-107382236D01*
X133831259Y-107434220D01*
X134109245Y-107442000D01*
X134443717Y-107432274D01*
X134676699Y-107385913D01*
X134826432Y-107277143D01*
X134911162Y-107080190D01*
X134949130Y-106769279D01*
X134958581Y-106318639D01*
X134958667Y-106241956D01*
X134956793Y-105822297D01*
X134935668Y-105517182D01*
X134872031Y-105308369D01*
X134742624Y-105177615D01*
X134524188Y-105106679D01*
X134193465Y-105077319D01*
X133727194Y-105071293D01*
X133466100Y-105071334D01*
X132906508Y-105064420D01*
X132508916Y-105043321D01*
X132266541Y-105007502D01*
X132181600Y-104969733D01*
X132138119Y-104854927D01*
X132107206Y-104603776D01*
X132088164Y-104206199D01*
X132080301Y-103652114D01*
X132080000Y-103494114D01*
X132082596Y-102962629D01*
X132091866Y-102575264D01*
X132110029Y-102306867D01*
X132139307Y-102132285D01*
X132181920Y-102026363D01*
X132213047Y-101987048D01*
X132289448Y-101936746D01*
X132419018Y-101900510D01*
X132626419Y-101876237D01*
X132936313Y-101861825D01*
X133373359Y-101855170D01*
X133773333Y-101854000D01*
X134348262Y-101855428D01*
G36*
X136440333Y-101938667D02*
G01*
X136496400Y-102021182D01*
X136534050Y-102176808D01*
X136556289Y-102432679D01*
X136566123Y-102815931D01*
X136567333Y-103085109D01*
X136571029Y-103589233D01*
X136584854Y-103947602D01*
X136612914Y-104183686D01*
X136659315Y-104320955D01*
X136728165Y-104382881D01*
X136796328Y-104394000D01*
X136892736Y-104337484D01*
X137089781Y-104179607D01*
X137367499Y-103937878D01*
X137705928Y-103629804D01*
X138085106Y-103272892D01*
X138196125Y-103166333D01*
X138630522Y-102750186D01*
X138963787Y-102438896D01*
X139214650Y-102217707D01*
X139401837Y-102071861D01*
X139544078Y-101986602D01*
X139660101Y-101947173D01*
X139754189Y-101938667D01*
X139945309Y-101959775D01*
X140037220Y-102011411D01*
X140038667Y-102019571D01*
X139980770Y-102101148D01*
X139819436Y-102280788D01*
X139573199Y-102539094D01*
X139260593Y-102856670D01*
X138900151Y-103214117D01*
X138855124Y-103258221D01*
X138493338Y-103617876D01*
X138180872Y-103939571D01*
X137935412Y-104204169D01*
X137774642Y-104392532D01*
X137716247Y-104485525D01*
X137717121Y-104489650D01*
X137814658Y-104518117D01*
X138047114Y-104541694D01*
X138380092Y-104557986D01*
X138779197Y-104564602D01*
X138794830Y-104564630D01*
X139203177Y-104570506D01*
X139553972Y-104585552D01*
X139810080Y-104607497D01*
X139934364Y-104634071D01*
X139934801Y-104634343D01*
X139974600Y-104701607D01*
X140002297Y-104857185D01*
X140018859Y-105119662D01*
X140025251Y-105507623D01*
X140022440Y-106039655D01*
X140019468Y-106262880D01*
X139996333Y-107823000D01*
X138895667Y-107823000D01*
X138873133Y-106553000D01*
X138861604Y-106020341D01*
X138840016Y-105633623D01*
X138795213Y-105369481D01*
X138714039Y-105204552D01*
X138583339Y-105115470D01*
X138389958Y-105078871D01*
X138120739Y-105071392D01*
X138038865Y-105071333D01*
X137748774Y-105077060D01*
X137539601Y-105110095D01*
X137398121Y-105194222D01*
X137311111Y-105353226D01*
X137265348Y-105610891D01*
X137247608Y-105991000D01*
X137244667Y-106499781D01*
X137237519Y-107055847D01*
X137215744Y-107449392D01*
X137178841Y-107686640D01*
X137143067Y-107763734D01*
X137007340Y-107819220D01*
X136763330Y-107856123D01*
X136550400Y-107865334D01*
X136059333Y-107865334D01*
X136059333Y-104954700D01*
X136060221Y-104160540D01*
X136063346Y-103519233D01*
X136069403Y-103014305D01*
X136079084Y-102629285D01*
X136093084Y-102347698D01*
X136112097Y-102153072D01*
X136136815Y-102028933D01*
X136167933Y-101958809D01*
X136186333Y-101938667D01*
X136321846Y-101875948D01*
X136440333Y-101938667D01*
G37*
X136440333Y-101938667D02*
X136496400Y-102021182D01*
X136534050Y-102176808D01*
X136556289Y-102432679D01*
X136566123Y-102815931D01*
X136567333Y-103085109D01*
X136571029Y-103589233D01*
X136584854Y-103947602D01*
X136612914Y-104183686D01*
X136659315Y-104320955D01*
X136728165Y-104382881D01*
X136796328Y-104394000D01*
X136892736Y-104337484D01*
X137089781Y-104179607D01*
X137367499Y-103937878D01*
X137705928Y-103629804D01*
X138085106Y-103272892D01*
X138196125Y-103166333D01*
X138630522Y-102750186D01*
X138963787Y-102438896D01*
X139214650Y-102217707D01*
X139401837Y-102071861D01*
X139544078Y-101986602D01*
X139660101Y-101947173D01*
X139754189Y-101938667D01*
X139945309Y-101959775D01*
X140037220Y-102011411D01*
X140038667Y-102019571D01*
X139980770Y-102101148D01*
X139819436Y-102280788D01*
X139573199Y-102539094D01*
X139260593Y-102856670D01*
X138900151Y-103214117D01*
X138855124Y-103258221D01*
X138493338Y-103617876D01*
X138180872Y-103939571D01*
X137935412Y-104204169D01*
X137774642Y-104392532D01*
X137716247Y-104485525D01*
X137717121Y-104489650D01*
X137814658Y-104518117D01*
X138047114Y-104541694D01*
X138380092Y-104557986D01*
X138779197Y-104564602D01*
X138794830Y-104564630D01*
X139203177Y-104570506D01*
X139553972Y-104585552D01*
X139810080Y-104607497D01*
X139934364Y-104634071D01*
X139934801Y-104634343D01*
X139974600Y-104701607D01*
X140002297Y-104857185D01*
X140018859Y-105119662D01*
X140025251Y-105507623D01*
X140022440Y-106039655D01*
X140019468Y-106262880D01*
X139996333Y-107823000D01*
X138895667Y-107823000D01*
X138873133Y-106553000D01*
X138861604Y-106020341D01*
X138840016Y-105633623D01*
X138795213Y-105369481D01*
X138714039Y-105204552D01*
X138583339Y-105115470D01*
X138389958Y-105078871D01*
X138120739Y-105071392D01*
X138038865Y-105071333D01*
X137748774Y-105077060D01*
X137539601Y-105110095D01*
X137398121Y-105194222D01*
X137311111Y-105353226D01*
X137265348Y-105610891D01*
X137247608Y-105991000D01*
X137244667Y-106499781D01*
X137237519Y-107055847D01*
X137215744Y-107449392D01*
X137178841Y-107686640D01*
X137143067Y-107763734D01*
X137007340Y-107819220D01*
X136763330Y-107856123D01*
X136550400Y-107865334D01*
X136059333Y-107865334D01*
X136059333Y-104954700D01*
X136060221Y-104160540D01*
X136063346Y-103519233D01*
X136069403Y-103014305D01*
X136079084Y-102629285D01*
X136093084Y-102347698D01*
X136112097Y-102153072D01*
X136136815Y-102028933D01*
X136167933Y-101958809D01*
X136186333Y-101938667D01*
X136321846Y-101875948D01*
X136440333Y-101938667D01*
G36*
X143123370Y-101854907D02*
G01*
X143560716Y-101858994D01*
X143874148Y-101868312D01*
X144086373Y-101884909D01*
X144220100Y-101910835D01*
X144298036Y-101948141D01*
X144342888Y-101998875D01*
X144353688Y-102017767D01*
X144380098Y-102153962D01*
X144402186Y-102449573D01*
X144419647Y-102894731D01*
X144432177Y-103479567D01*
X144439471Y-104194211D01*
X144441333Y-104859667D01*
X144438491Y-105671981D01*
X144430167Y-106362461D01*
X144416667Y-106921237D01*
X144398293Y-107338440D01*
X144375352Y-107604201D01*
X144353688Y-107701566D01*
X144315034Y-107756279D01*
X144250760Y-107797260D01*
X144138477Y-107826483D01*
X143955797Y-107845918D01*
X143680331Y-107857537D01*
X143289690Y-107863313D01*
X142761486Y-107865215D01*
X142494000Y-107865334D01*
X141901523Y-107864467D01*
X141455987Y-107860554D01*
X141135003Y-107851623D01*
X140916184Y-107835701D01*
X140777139Y-107810818D01*
X140695481Y-107775002D01*
X140648821Y-107726281D01*
X140634312Y-107701566D01*
X140607999Y-107565536D01*
X140585980Y-107269873D01*
X140568551Y-106824229D01*
X140556005Y-106238258D01*
X140549444Y-105599957D01*
X141054105Y-105599957D01*
X141057438Y-106175502D01*
X141072196Y-106617096D01*
X141105908Y-106942410D01*
X141166102Y-107169115D01*
X141260307Y-107314883D01*
X141396052Y-107397386D01*
X141580867Y-107434295D01*
X141822281Y-107443281D01*
X142127821Y-107442016D01*
X142149286Y-107442000D01*
X142551328Y-107433720D01*
X142817100Y-107405646D01*
X142979006Y-107352928D01*
X143038286Y-107308953D01*
X143091784Y-107226736D01*
X143129292Y-107087181D01*
X143153339Y-106863921D01*
X143166455Y-106530586D01*
X143171170Y-106060809D01*
X143171333Y-105922320D01*
X143172907Y-105416072D01*
X143183245Y-105051965D01*
X143210776Y-104802808D01*
X143263924Y-104641408D01*
X143351118Y-104540574D01*
X143480783Y-104473115D01*
X143637000Y-104419672D01*
X143891000Y-104337941D01*
X143915365Y-103508338D01*
X143924793Y-103091098D01*
X143909361Y-102789796D01*
X143845917Y-102585564D01*
X143711308Y-102459535D01*
X143482384Y-102392841D01*
X143135992Y-102366616D01*
X142648980Y-102361992D01*
X142508711Y-102362000D01*
X142027098Y-102365372D01*
X141685759Y-102377568D01*
X141455730Y-102401714D01*
X141308046Y-102440932D01*
X141213744Y-102498347D01*
X141209500Y-102502122D01*
X141162592Y-102555777D01*
X141126192Y-102634982D01*
X141098982Y-102759904D01*
X141079644Y-102950710D01*
X141066861Y-103227567D01*
X141059318Y-103610642D01*
X141055695Y-104120102D01*
X141054676Y-104776114D01*
X141054667Y-104872789D01*
X141054105Y-105599957D01*
X140549444Y-105599957D01*
X140548638Y-105521613D01*
X140546667Y-104828947D01*
X140547561Y-104067606D01*
X140550791Y-103458023D01*
X140557181Y-102982629D01*
X140567551Y-102623856D01*
X140582726Y-102364136D01*
X140603527Y-102185899D01*
X140630778Y-102071579D01*
X140665299Y-102003605D01*
X140679714Y-101987048D01*
X140748768Y-101941036D01*
X140866029Y-101906707D01*
X141053807Y-101882464D01*
X141334408Y-101866713D01*
X141730141Y-101857856D01*
X142263312Y-101854298D01*
X142539402Y-101854000D01*
X143123370Y-101854907D01*
G37*
X143123370Y-101854907D02*
X143560716Y-101858994D01*
X143874148Y-101868312D01*
X144086373Y-101884909D01*
X144220100Y-101910835D01*
X144298036Y-101948141D01*
X144342888Y-101998875D01*
X144353688Y-102017767D01*
X144380098Y-102153962D01*
X144402186Y-102449573D01*
X144419647Y-102894731D01*
X144432177Y-103479567D01*
X144439471Y-104194211D01*
X144441333Y-104859667D01*
X144438491Y-105671981D01*
X144430167Y-106362461D01*
X144416667Y-106921237D01*
X144398293Y-107338440D01*
X144375352Y-107604201D01*
X144353688Y-107701566D01*
X144315034Y-107756279D01*
X144250760Y-107797260D01*
X144138477Y-107826483D01*
X143955797Y-107845918D01*
X143680331Y-107857537D01*
X143289690Y-107863313D01*
X142761486Y-107865215D01*
X142494000Y-107865334D01*
X141901523Y-107864467D01*
X141455987Y-107860554D01*
X141135003Y-107851623D01*
X140916184Y-107835701D01*
X140777139Y-107810818D01*
X140695481Y-107775002D01*
X140648821Y-107726281D01*
X140634312Y-107701566D01*
X140607999Y-107565536D01*
X140585980Y-107269873D01*
X140568551Y-106824229D01*
X140556005Y-106238258D01*
X140549444Y-105599957D01*
X141054105Y-105599957D01*
X141057438Y-106175502D01*
X141072196Y-106617096D01*
X141105908Y-106942410D01*
X141166102Y-107169115D01*
X141260307Y-107314883D01*
X141396052Y-107397386D01*
X141580867Y-107434295D01*
X141822281Y-107443281D01*
X142127821Y-107442016D01*
X142149286Y-107442000D01*
X142551328Y-107433720D01*
X142817100Y-107405646D01*
X142979006Y-107352928D01*
X143038286Y-107308953D01*
X143091784Y-107226736D01*
X143129292Y-107087181D01*
X143153339Y-106863921D01*
X143166455Y-106530586D01*
X143171170Y-106060809D01*
X143171333Y-105922320D01*
X143172907Y-105416072D01*
X143183245Y-105051965D01*
X143210776Y-104802808D01*
X143263924Y-104641408D01*
X143351118Y-104540574D01*
X143480783Y-104473115D01*
X143637000Y-104419672D01*
X143891000Y-104337941D01*
X143915365Y-103508338D01*
X143924793Y-103091098D01*
X143909361Y-102789796D01*
X143845917Y-102585564D01*
X143711308Y-102459535D01*
X143482384Y-102392841D01*
X143135992Y-102366616D01*
X142648980Y-102361992D01*
X142508711Y-102362000D01*
X142027098Y-102365372D01*
X141685759Y-102377568D01*
X141455730Y-102401714D01*
X141308046Y-102440932D01*
X141213744Y-102498347D01*
X141209500Y-102502122D01*
X141162592Y-102555777D01*
X141126192Y-102634982D01*
X141098982Y-102759904D01*
X141079644Y-102950710D01*
X141066861Y-103227567D01*
X141059318Y-103610642D01*
X141055695Y-104120102D01*
X141054676Y-104776114D01*
X141054667Y-104872789D01*
X141054105Y-105599957D01*
X140549444Y-105599957D01*
X140548638Y-105521613D01*
X140546667Y-104828947D01*
X140547561Y-104067606D01*
X140550791Y-103458023D01*
X140557181Y-102982629D01*
X140567551Y-102623856D01*
X140582726Y-102364136D01*
X140603527Y-102185899D01*
X140630778Y-102071579D01*
X140665299Y-102003605D01*
X140679714Y-101987048D01*
X140748768Y-101941036D01*
X140866029Y-101906707D01*
X141053807Y-101882464D01*
X141334408Y-101866713D01*
X141730141Y-101857856D01*
X142263312Y-101854298D01*
X142539402Y-101854000D01*
X143123370Y-101854907D01*
G36*
X152802777Y-101851684D02*
G01*
X153229874Y-101863836D01*
X153605413Y-101885254D01*
X153894236Y-101915602D01*
X154061186Y-101954544D01*
X154084106Y-101969882D01*
X154112454Y-102064476D01*
X154134284Y-102278013D01*
X154149824Y-102619644D01*
X154159301Y-103098522D01*
X154162940Y-103723799D01*
X154160968Y-104504627D01*
X154157973Y-104953246D01*
X154151556Y-105726156D01*
X154144897Y-106346658D01*
X154136937Y-106831676D01*
X154126616Y-107198131D01*
X154112873Y-107462948D01*
X154094649Y-107643049D01*
X154070884Y-107755359D01*
X154040519Y-107816799D01*
X154002493Y-107844294D01*
X153976479Y-107851362D01*
X153809441Y-107824625D01*
X153744942Y-107767831D01*
X153718216Y-107644533D01*
X153695748Y-107386853D01*
X153679569Y-107029726D01*
X153671715Y-106608089D01*
X153671296Y-106502622D01*
X153668556Y-105980331D01*
X153649252Y-105603593D01*
X153594725Y-105348639D01*
X153486313Y-105191703D01*
X153305355Y-105109015D01*
X153033191Y-105076809D01*
X152651160Y-105071317D01*
X152547547Y-105071334D01*
X152153462Y-105073410D01*
X151869293Y-105095492D01*
X151677082Y-105161358D01*
X151558869Y-105294787D01*
X151496694Y-105519556D01*
X151472598Y-105859445D01*
X151468621Y-106338233D01*
X151468667Y-106499781D01*
X151461519Y-107055847D01*
X151439744Y-107449392D01*
X151402841Y-107686640D01*
X151367067Y-107763733D01*
X151233151Y-107817662D01*
X150999492Y-107852618D01*
X150730817Y-107865755D01*
X150491857Y-107854229D01*
X150347340Y-107815194D01*
X150339778Y-107808889D01*
X150320174Y-107708705D01*
X150303528Y-107469979D01*
X150291132Y-107123493D01*
X150284278Y-106700031D01*
X150283333Y-106464494D01*
X150283333Y-105176544D01*
X150540569Y-105069993D01*
X150746495Y-104949791D01*
X150879236Y-104811288D01*
X150907458Y-104676645D01*
X150931437Y-104406052D01*
X150949320Y-104032873D01*
X150959256Y-103590473D01*
X150960190Y-103427408D01*
X151384000Y-103427408D01*
X151388483Y-103884336D01*
X151419355Y-104198621D01*
X151502751Y-104396954D01*
X151664807Y-104506027D01*
X151931657Y-104552529D01*
X152329437Y-104563152D01*
X152496280Y-104563334D01*
X152874626Y-104554833D01*
X153202205Y-104531976D01*
X153433327Y-104498728D01*
X153506233Y-104475688D01*
X153577916Y-104421496D01*
X153625156Y-104329422D01*
X153652926Y-104167840D01*
X153666200Y-103905127D01*
X153669951Y-103509658D01*
X153670000Y-103434288D01*
X153660108Y-102928171D01*
X153630696Y-102581237D01*
X153582156Y-102397578D01*
X153568400Y-102378933D01*
X153422936Y-102325472D01*
X153118328Y-102291376D01*
X152663759Y-102277591D01*
X152580233Y-102277333D01*
X152109338Y-102282027D01*
X151781766Y-102312778D01*
X151571509Y-102394589D01*
X151452562Y-102552464D01*
X151398917Y-102811406D01*
X151384567Y-103196419D01*
X151384000Y-103427408D01*
X150960190Y-103427408D01*
X150960667Y-103344212D01*
X150962149Y-102842768D01*
X150968650Y-102484259D01*
X150983252Y-102242299D01*
X151009034Y-102090502D01*
X151049077Y-102002481D01*
X151106464Y-101951850D01*
X151124434Y-101941646D01*
X151281958Y-101902439D01*
X151563712Y-101874175D01*
X151934539Y-101856518D01*
X152359280Y-101849133D01*
X152802777Y-101851684D01*
G37*
X152802777Y-101851684D02*
X153229874Y-101863836D01*
X153605413Y-101885254D01*
X153894236Y-101915602D01*
X154061186Y-101954544D01*
X154084106Y-101969882D01*
X154112454Y-102064476D01*
X154134284Y-102278013D01*
X154149824Y-102619644D01*
X154159301Y-103098522D01*
X154162940Y-103723799D01*
X154160968Y-104504627D01*
X154157973Y-104953246D01*
X154151556Y-105726156D01*
X154144897Y-106346658D01*
X154136937Y-106831676D01*
X154126616Y-107198131D01*
X154112873Y-107462948D01*
X154094649Y-107643049D01*
X154070884Y-107755359D01*
X154040519Y-107816799D01*
X154002493Y-107844294D01*
X153976479Y-107851362D01*
X153809441Y-107824625D01*
X153744942Y-107767831D01*
X153718216Y-107644533D01*
X153695748Y-107386853D01*
X153679569Y-107029726D01*
X153671715Y-106608089D01*
X153671296Y-106502622D01*
X153668556Y-105980331D01*
X153649252Y-105603593D01*
X153594725Y-105348639D01*
X153486313Y-105191703D01*
X153305355Y-105109015D01*
X153033191Y-105076809D01*
X152651160Y-105071317D01*
X152547547Y-105071334D01*
X152153462Y-105073410D01*
X151869293Y-105095492D01*
X151677082Y-105161358D01*
X151558869Y-105294787D01*
X151496694Y-105519556D01*
X151472598Y-105859445D01*
X151468621Y-106338233D01*
X151468667Y-106499781D01*
X151461519Y-107055847D01*
X151439744Y-107449392D01*
X151402841Y-107686640D01*
X151367067Y-107763733D01*
X151233151Y-107817662D01*
X150999492Y-107852618D01*
X150730817Y-107865755D01*
X150491857Y-107854229D01*
X150347340Y-107815194D01*
X150339778Y-107808889D01*
X150320174Y-107708705D01*
X150303528Y-107469979D01*
X150291132Y-107123493D01*
X150284278Y-106700031D01*
X150283333Y-106464494D01*
X150283333Y-105176544D01*
X150540569Y-105069993D01*
X150746495Y-104949791D01*
X150879236Y-104811288D01*
X150907458Y-104676645D01*
X150931437Y-104406052D01*
X150949320Y-104032873D01*
X150959256Y-103590473D01*
X150960190Y-103427408D01*
X151384000Y-103427408D01*
X151388483Y-103884336D01*
X151419355Y-104198621D01*
X151502751Y-104396954D01*
X151664807Y-104506027D01*
X151931657Y-104552529D01*
X152329437Y-104563152D01*
X152496280Y-104563334D01*
X152874626Y-104554833D01*
X153202205Y-104531976D01*
X153433327Y-104498728D01*
X153506233Y-104475688D01*
X153577916Y-104421496D01*
X153625156Y-104329422D01*
X153652926Y-104167840D01*
X153666200Y-103905127D01*
X153669951Y-103509658D01*
X153670000Y-103434288D01*
X153660108Y-102928171D01*
X153630696Y-102581237D01*
X153582156Y-102397578D01*
X153568400Y-102378933D01*
X153422936Y-102325472D01*
X153118328Y-102291376D01*
X152663759Y-102277591D01*
X152580233Y-102277333D01*
X152109338Y-102282027D01*
X151781766Y-102312778D01*
X151571509Y-102394589D01*
X151452562Y-102552464D01*
X151398917Y-102811406D01*
X151384567Y-103196419D01*
X151384000Y-103427408D01*
X150960190Y-103427408D01*
X150960667Y-103344212D01*
X150962149Y-102842768D01*
X150968650Y-102484259D01*
X150983252Y-102242299D01*
X151009034Y-102090502D01*
X151049077Y-102002481D01*
X151106464Y-101951850D01*
X151124434Y-101941646D01*
X151281958Y-101902439D01*
X151563712Y-101874175D01*
X151934539Y-101856518D01*
X152359280Y-101849133D01*
X152802777Y-101851684D01*
D11*
%TO.C,J4*%
X124333000Y-109258400D02*
G75*
G03*
X124333000Y-109258400I-381000J0D01*
G01*
X120424999Y-107480400D02*
X126419399Y-107480400D01*
X120424999Y-84823600D02*
X120424999Y-107480400D01*
X126419399Y-84823600D02*
X120424999Y-84823600D01*
X126419399Y-107480400D02*
X126419399Y-84823600D01*
%TO.C,J1*%
X151710601Y-84797600D02*
X151710601Y-107454400D01*
X151710601Y-107454400D02*
X157705001Y-107454400D01*
X157705001Y-107454400D02*
X157705001Y-84797600D01*
X157705001Y-84797600D02*
X151710601Y-84797600D01*
X154559000Y-83019600D02*
G75*
G03*
X154559000Y-83019600I-381000J0D01*
G01*
%TO.C,J2*%
X154559000Y-59651600D02*
G75*
G03*
X154559000Y-59651600I-381000J0D01*
G01*
X157705001Y-61429600D02*
X151710601Y-61429600D01*
X157705001Y-84086400D02*
X157705001Y-61429600D01*
X151710601Y-84086400D02*
X157705001Y-84086400D01*
X151710601Y-61429600D02*
X151710601Y-84086400D01*
%TO.C,J3*%
X127977600Y-67491399D02*
X150634400Y-67491399D01*
X150634400Y-67491399D02*
X150634400Y-61496999D01*
X150634400Y-61496999D02*
X127977600Y-61496999D01*
X127977600Y-61496999D02*
X127977600Y-67491399D01*
X126580600Y-65024000D02*
G75*
G03*
X126580600Y-65024000I-381000J0D01*
G01*
%TO.C,J5*%
X126419399Y-84112400D02*
X126419399Y-61455600D01*
X126419399Y-61455600D02*
X120424999Y-61455600D01*
X120424999Y-61455600D02*
X120424999Y-84112400D01*
X120424999Y-84112400D02*
X126419399Y-84112400D01*
X124333000Y-85890400D02*
G75*
G03*
X124333000Y-85890400I-381000J0D01*
G01*
D12*
%TO.C,U1*%
X129520000Y-102950000D02*
X147520000Y-102950000D01*
X129520000Y-77450000D02*
X147520000Y-77450000D01*
X129520000Y-102950000D02*
X129520000Y-77450000D01*
X147520000Y-102950000D02*
X147520000Y-77450000D01*
X129520000Y-96950000D02*
X147520000Y-96950000D01*
D13*
X148709981Y-96804000D02*
G75*
G03*
X148709981Y-96804000I-283981J0D01*
G01*
%TO.C,J4*%
D12*
X127976380Y-100409333D02*
X128690666Y-100409333D01*
X128833523Y-100456952D01*
X128928761Y-100552190D01*
X128976380Y-100695047D01*
X128976380Y-100790285D01*
X128309714Y-99504571D02*
X128976380Y-99504571D01*
X127928761Y-99742666D02*
X128643047Y-99980761D01*
X128643047Y-99361714D01*
X114482571Y-104591714D02*
X114530190Y-104448857D01*
X114577809Y-104401238D01*
X114673047Y-104353619D01*
X114815904Y-104353619D01*
X114911142Y-104401238D01*
X114958761Y-104448857D01*
X115006380Y-104544095D01*
X115006380Y-104925047D01*
X114006380Y-104925047D01*
X114006380Y-104591714D01*
X114054000Y-104496476D01*
X114101619Y-104448857D01*
X114196857Y-104401238D01*
X114292095Y-104401238D01*
X114387333Y-104448857D01*
X114434952Y-104496476D01*
X114482571Y-104591714D01*
X114482571Y-104925047D01*
X114434952Y-103782190D02*
X114387333Y-103877428D01*
X114339714Y-103925047D01*
X114244476Y-103972666D01*
X114196857Y-103972666D01*
X114101619Y-103925047D01*
X114054000Y-103877428D01*
X114006380Y-103782190D01*
X114006380Y-103591714D01*
X114054000Y-103496476D01*
X114101619Y-103448857D01*
X114196857Y-103401238D01*
X114244476Y-103401238D01*
X114339714Y-103448857D01*
X114387333Y-103496476D01*
X114434952Y-103591714D01*
X114434952Y-103782190D01*
X114482571Y-103877428D01*
X114530190Y-103925047D01*
X114625428Y-103972666D01*
X114815904Y-103972666D01*
X114911142Y-103925047D01*
X114958761Y-103877428D01*
X115006380Y-103782190D01*
X115006380Y-103591714D01*
X114958761Y-103496476D01*
X114911142Y-103448857D01*
X114815904Y-103401238D01*
X114625428Y-103401238D01*
X114530190Y-103448857D01*
X114482571Y-103496476D01*
X114434952Y-103591714D01*
X114482571Y-102639333D02*
X114530190Y-102496476D01*
X114577809Y-102448857D01*
X114673047Y-102401238D01*
X114815904Y-102401238D01*
X114911142Y-102448857D01*
X114958761Y-102496476D01*
X115006380Y-102591714D01*
X115006380Y-102972666D01*
X114006380Y-102972666D01*
X114006380Y-102639333D01*
X114054000Y-102544095D01*
X114101619Y-102496476D01*
X114196857Y-102448857D01*
X114292095Y-102448857D01*
X114387333Y-102496476D01*
X114434952Y-102544095D01*
X114482571Y-102639333D01*
X114482571Y-102972666D01*
X114625428Y-101972666D02*
X114625428Y-101210761D01*
X114006380Y-100829809D02*
X115006380Y-100163142D01*
X114006380Y-100163142D02*
X115006380Y-100829809D01*
X115006380Y-99782190D02*
X114006380Y-99782190D01*
X114482571Y-99782190D02*
X114482571Y-99210761D01*
X115006380Y-99210761D02*
X114006380Y-99210761D01*
X114625428Y-98734571D02*
X114625428Y-97972666D01*
X114720666Y-97544095D02*
X114720666Y-97067904D01*
X115006380Y-97639333D02*
X114006380Y-97306000D01*
X115006380Y-96972666D01*
X115101619Y-96877428D02*
X115101619Y-96115523D01*
X115006380Y-95401238D02*
X115006380Y-95877428D01*
X114006380Y-95877428D01*
X114482571Y-94734571D02*
X114482571Y-95067904D01*
X115006380Y-95067904D02*
X114006380Y-95067904D01*
X114006380Y-94591714D01*
X114958761Y-94258380D02*
X115006380Y-94115523D01*
X115006380Y-93877428D01*
X114958761Y-93782190D01*
X114911142Y-93734571D01*
X114815904Y-93686952D01*
X114720666Y-93686952D01*
X114625428Y-93734571D01*
X114577809Y-93782190D01*
X114530190Y-93877428D01*
X114482571Y-94067904D01*
X114434952Y-94163142D01*
X114387333Y-94210761D01*
X114292095Y-94258380D01*
X114196857Y-94258380D01*
X114101619Y-94210761D01*
X114054000Y-94163142D01*
X114006380Y-94067904D01*
X114006380Y-93829809D01*
X114054000Y-93686952D01*
X115006380Y-93258380D02*
X114006380Y-93258380D01*
X115006380Y-92686952D01*
X114006380Y-92686952D01*
%TO.C,J1*%
X155916380Y-91519333D02*
X156630666Y-91519333D01*
X156773523Y-91566952D01*
X156868761Y-91662190D01*
X156916380Y-91805047D01*
X156916380Y-91900285D01*
X156916380Y-90519333D02*
X156916380Y-91090761D01*
X156916380Y-90805047D02*
X155916380Y-90805047D01*
X156059238Y-90900285D01*
X156154476Y-90995523D01*
X156202095Y-91090761D01*
X162742571Y-99003714D02*
X162790190Y-98860857D01*
X162837809Y-98813238D01*
X162933047Y-98765619D01*
X163075904Y-98765619D01*
X163171142Y-98813238D01*
X163218761Y-98860857D01*
X163266380Y-98956095D01*
X163266380Y-99337047D01*
X162266380Y-99337047D01*
X162266380Y-99003714D01*
X162314000Y-98908476D01*
X162361619Y-98860857D01*
X162456857Y-98813238D01*
X162552095Y-98813238D01*
X162647333Y-98860857D01*
X162694952Y-98908476D01*
X162742571Y-99003714D01*
X162742571Y-99337047D01*
X162694952Y-98194190D02*
X162647333Y-98289428D01*
X162599714Y-98337047D01*
X162504476Y-98384666D01*
X162456857Y-98384666D01*
X162361619Y-98337047D01*
X162314000Y-98289428D01*
X162266380Y-98194190D01*
X162266380Y-98003714D01*
X162314000Y-97908476D01*
X162361619Y-97860857D01*
X162456857Y-97813238D01*
X162504476Y-97813238D01*
X162599714Y-97860857D01*
X162647333Y-97908476D01*
X162694952Y-98003714D01*
X162694952Y-98194190D01*
X162742571Y-98289428D01*
X162790190Y-98337047D01*
X162885428Y-98384666D01*
X163075904Y-98384666D01*
X163171142Y-98337047D01*
X163218761Y-98289428D01*
X163266380Y-98194190D01*
X163266380Y-98003714D01*
X163218761Y-97908476D01*
X163171142Y-97860857D01*
X163075904Y-97813238D01*
X162885428Y-97813238D01*
X162790190Y-97860857D01*
X162742571Y-97908476D01*
X162694952Y-98003714D01*
X162742571Y-97051333D02*
X162790190Y-96908476D01*
X162837809Y-96860857D01*
X162933047Y-96813238D01*
X163075904Y-96813238D01*
X163171142Y-96860857D01*
X163218761Y-96908476D01*
X163266380Y-97003714D01*
X163266380Y-97384666D01*
X162266380Y-97384666D01*
X162266380Y-97051333D01*
X162314000Y-96956095D01*
X162361619Y-96908476D01*
X162456857Y-96860857D01*
X162552095Y-96860857D01*
X162647333Y-96908476D01*
X162694952Y-96956095D01*
X162742571Y-97051333D01*
X162742571Y-97384666D01*
X162885428Y-96384666D02*
X162885428Y-95622761D01*
X162266380Y-95241809D02*
X163266380Y-94575142D01*
X162266380Y-94575142D02*
X163266380Y-95241809D01*
X163266380Y-94194190D02*
X162266380Y-94194190D01*
X162742571Y-94194190D02*
X162742571Y-93622761D01*
X163266380Y-93622761D02*
X162266380Y-93622761D01*
X162885428Y-93146571D02*
X162885428Y-92384666D01*
X162980666Y-91956095D02*
X162980666Y-91479904D01*
X163266380Y-92051333D02*
X162266380Y-91718000D01*
X163266380Y-91384666D01*
X163361619Y-91289428D02*
X163361619Y-90527523D01*
X163266380Y-89813238D02*
X163266380Y-90289428D01*
X162266380Y-90289428D01*
X162742571Y-89146571D02*
X162742571Y-89479904D01*
X163266380Y-89479904D02*
X162266380Y-89479904D01*
X162266380Y-89003714D01*
X163218761Y-88670380D02*
X163266380Y-88527523D01*
X163266380Y-88289428D01*
X163218761Y-88194190D01*
X163171142Y-88146571D01*
X163075904Y-88098952D01*
X162980666Y-88098952D01*
X162885428Y-88146571D01*
X162837809Y-88194190D01*
X162790190Y-88289428D01*
X162742571Y-88479904D01*
X162694952Y-88575142D01*
X162647333Y-88622761D01*
X162552095Y-88670380D01*
X162456857Y-88670380D01*
X162361619Y-88622761D01*
X162314000Y-88575142D01*
X162266380Y-88479904D01*
X162266380Y-88241809D01*
X162314000Y-88098952D01*
X163266380Y-87670380D02*
X162266380Y-87670380D01*
X163266380Y-87098952D01*
X162266380Y-87098952D01*
X153630380Y-87376000D02*
X153868476Y-87376000D01*
X153773238Y-87614095D02*
X153868476Y-87376000D01*
X153773238Y-87137904D01*
X154058952Y-87518857D02*
X153868476Y-87376000D01*
X154058952Y-87233142D01*
%TO.C,J2*%
X149058380Y-69167333D02*
X149772666Y-69167333D01*
X149915523Y-69214952D01*
X150010761Y-69310190D01*
X150058380Y-69453047D01*
X150058380Y-69548285D01*
X149153619Y-68738761D02*
X149106000Y-68691142D01*
X149058380Y-68595904D01*
X149058380Y-68357809D01*
X149106000Y-68262571D01*
X149153619Y-68214952D01*
X149248857Y-68167333D01*
X149344095Y-68167333D01*
X149486952Y-68214952D01*
X150058380Y-68786380D01*
X150058380Y-68167333D01*
X161726571Y-75127714D02*
X161774190Y-74984857D01*
X161821809Y-74937238D01*
X161917047Y-74889619D01*
X162059904Y-74889619D01*
X162155142Y-74937238D01*
X162202761Y-74984857D01*
X162250380Y-75080095D01*
X162250380Y-75461047D01*
X161250380Y-75461047D01*
X161250380Y-75127714D01*
X161298000Y-75032476D01*
X161345619Y-74984857D01*
X161440857Y-74937238D01*
X161536095Y-74937238D01*
X161631333Y-74984857D01*
X161678952Y-75032476D01*
X161726571Y-75127714D01*
X161726571Y-75461047D01*
X161678952Y-74318190D02*
X161631333Y-74413428D01*
X161583714Y-74461047D01*
X161488476Y-74508666D01*
X161440857Y-74508666D01*
X161345619Y-74461047D01*
X161298000Y-74413428D01*
X161250380Y-74318190D01*
X161250380Y-74127714D01*
X161298000Y-74032476D01*
X161345619Y-73984857D01*
X161440857Y-73937238D01*
X161488476Y-73937238D01*
X161583714Y-73984857D01*
X161631333Y-74032476D01*
X161678952Y-74127714D01*
X161678952Y-74318190D01*
X161726571Y-74413428D01*
X161774190Y-74461047D01*
X161869428Y-74508666D01*
X162059904Y-74508666D01*
X162155142Y-74461047D01*
X162202761Y-74413428D01*
X162250380Y-74318190D01*
X162250380Y-74127714D01*
X162202761Y-74032476D01*
X162155142Y-73984857D01*
X162059904Y-73937238D01*
X161869428Y-73937238D01*
X161774190Y-73984857D01*
X161726571Y-74032476D01*
X161678952Y-74127714D01*
X161726571Y-73175333D02*
X161774190Y-73032476D01*
X161821809Y-72984857D01*
X161917047Y-72937238D01*
X162059904Y-72937238D01*
X162155142Y-72984857D01*
X162202761Y-73032476D01*
X162250380Y-73127714D01*
X162250380Y-73508666D01*
X161250380Y-73508666D01*
X161250380Y-73175333D01*
X161298000Y-73080095D01*
X161345619Y-73032476D01*
X161440857Y-72984857D01*
X161536095Y-72984857D01*
X161631333Y-73032476D01*
X161678952Y-73080095D01*
X161726571Y-73175333D01*
X161726571Y-73508666D01*
X161869428Y-72508666D02*
X161869428Y-71746761D01*
X161250380Y-71365809D02*
X162250380Y-70699142D01*
X161250380Y-70699142D02*
X162250380Y-71365809D01*
X162250380Y-70318190D02*
X161250380Y-70318190D01*
X161726571Y-70318190D02*
X161726571Y-69746761D01*
X162250380Y-69746761D02*
X161250380Y-69746761D01*
X161869428Y-69270571D02*
X161869428Y-68508666D01*
X161964666Y-68080095D02*
X161964666Y-67603904D01*
X162250380Y-68175333D02*
X161250380Y-67842000D01*
X162250380Y-67508666D01*
X162345619Y-67413428D02*
X162345619Y-66651523D01*
X162250380Y-65937238D02*
X162250380Y-66413428D01*
X161250380Y-66413428D01*
X161726571Y-65270571D02*
X161726571Y-65603904D01*
X162250380Y-65603904D02*
X161250380Y-65603904D01*
X161250380Y-65127714D01*
X162202761Y-64794380D02*
X162250380Y-64651523D01*
X162250380Y-64413428D01*
X162202761Y-64318190D01*
X162155142Y-64270571D01*
X162059904Y-64222952D01*
X161964666Y-64222952D01*
X161869428Y-64270571D01*
X161821809Y-64318190D01*
X161774190Y-64413428D01*
X161726571Y-64603904D01*
X161678952Y-64699142D01*
X161631333Y-64746761D01*
X161536095Y-64794380D01*
X161440857Y-64794380D01*
X161345619Y-64746761D01*
X161298000Y-64699142D01*
X161250380Y-64603904D01*
X161250380Y-64365809D01*
X161298000Y-64222952D01*
X162250380Y-63794380D02*
X161250380Y-63794380D01*
X162250380Y-63222952D01*
X161250380Y-63222952D01*
X153630380Y-64008000D02*
X153868476Y-64008000D01*
X153773238Y-64246095D02*
X153868476Y-64008000D01*
X153773238Y-63769904D01*
X154058952Y-64150857D02*
X153868476Y-64008000D01*
X154058952Y-63865142D01*
%TO.C,J3*%
X135048666Y-69048380D02*
X135048666Y-69762666D01*
X135001047Y-69905523D01*
X134905809Y-70000761D01*
X134762952Y-70048380D01*
X134667714Y-70048380D01*
X135429619Y-69048380D02*
X136048666Y-69048380D01*
X135715333Y-69429333D01*
X135858190Y-69429333D01*
X135953428Y-69476952D01*
X136001047Y-69524571D01*
X136048666Y-69619809D01*
X136048666Y-69857904D01*
X136001047Y-69953142D01*
X135953428Y-70000761D01*
X135858190Y-70048380D01*
X135572476Y-70048380D01*
X135477238Y-70000761D01*
X135429619Y-69953142D01*
X130612285Y-59491571D02*
X130755142Y-59539190D01*
X130802761Y-59586809D01*
X130850380Y-59682047D01*
X130850380Y-59824904D01*
X130802761Y-59920142D01*
X130755142Y-59967761D01*
X130659904Y-60015380D01*
X130278952Y-60015380D01*
X130278952Y-59015380D01*
X130612285Y-59015380D01*
X130707523Y-59063000D01*
X130755142Y-59110619D01*
X130802761Y-59205857D01*
X130802761Y-59301095D01*
X130755142Y-59396333D01*
X130707523Y-59443952D01*
X130612285Y-59491571D01*
X130278952Y-59491571D01*
X131421809Y-59443952D02*
X131326571Y-59396333D01*
X131278952Y-59348714D01*
X131231333Y-59253476D01*
X131231333Y-59205857D01*
X131278952Y-59110619D01*
X131326571Y-59063000D01*
X131421809Y-59015380D01*
X131612285Y-59015380D01*
X131707523Y-59063000D01*
X131755142Y-59110619D01*
X131802761Y-59205857D01*
X131802761Y-59253476D01*
X131755142Y-59348714D01*
X131707523Y-59396333D01*
X131612285Y-59443952D01*
X131421809Y-59443952D01*
X131326571Y-59491571D01*
X131278952Y-59539190D01*
X131231333Y-59634428D01*
X131231333Y-59824904D01*
X131278952Y-59920142D01*
X131326571Y-59967761D01*
X131421809Y-60015380D01*
X131612285Y-60015380D01*
X131707523Y-59967761D01*
X131755142Y-59920142D01*
X131802761Y-59824904D01*
X131802761Y-59634428D01*
X131755142Y-59539190D01*
X131707523Y-59491571D01*
X131612285Y-59443952D01*
X132564666Y-59491571D02*
X132707523Y-59539190D01*
X132755142Y-59586809D01*
X132802761Y-59682047D01*
X132802761Y-59824904D01*
X132755142Y-59920142D01*
X132707523Y-59967761D01*
X132612285Y-60015380D01*
X132231333Y-60015380D01*
X132231333Y-59015380D01*
X132564666Y-59015380D01*
X132659904Y-59063000D01*
X132707523Y-59110619D01*
X132755142Y-59205857D01*
X132755142Y-59301095D01*
X132707523Y-59396333D01*
X132659904Y-59443952D01*
X132564666Y-59491571D01*
X132231333Y-59491571D01*
X133231333Y-59634428D02*
X133993238Y-59634428D01*
X134374190Y-59015380D02*
X135040857Y-60015380D01*
X135040857Y-59015380D02*
X134374190Y-60015380D01*
X135421809Y-60015380D02*
X135421809Y-59015380D01*
X135421809Y-59491571D02*
X135993238Y-59491571D01*
X135993238Y-60015380D02*
X135993238Y-59015380D01*
X136469428Y-59634428D02*
X137231333Y-59634428D01*
X137659904Y-59729666D02*
X138136095Y-59729666D01*
X137564666Y-60015380D02*
X137898000Y-59015380D01*
X138231333Y-60015380D01*
X138326571Y-60110619D02*
X139088476Y-60110619D01*
X139802761Y-60015380D02*
X139326571Y-60015380D01*
X139326571Y-59015380D01*
X140469428Y-59491571D02*
X140136095Y-59491571D01*
X140136095Y-60015380D02*
X140136095Y-59015380D01*
X140612285Y-59015380D01*
X140945619Y-59967761D02*
X141088476Y-60015380D01*
X141326571Y-60015380D01*
X141421809Y-59967761D01*
X141469428Y-59920142D01*
X141517047Y-59824904D01*
X141517047Y-59729666D01*
X141469428Y-59634428D01*
X141421809Y-59586809D01*
X141326571Y-59539190D01*
X141136095Y-59491571D01*
X141040857Y-59443952D01*
X140993238Y-59396333D01*
X140945619Y-59301095D01*
X140945619Y-59205857D01*
X140993238Y-59110619D01*
X141040857Y-59063000D01*
X141136095Y-59015380D01*
X141374190Y-59015380D01*
X141517047Y-59063000D01*
X141945619Y-60015380D02*
X141945619Y-59015380D01*
X142517047Y-60015380D01*
X142517047Y-59015380D01*
X130556000Y-64476380D02*
X130556000Y-64714476D01*
X130317904Y-64619238D02*
X130556000Y-64714476D01*
X130794095Y-64619238D01*
X130413142Y-64904952D02*
X130556000Y-64714476D01*
X130698857Y-64904952D01*
%TO.C,J5*%
X127976380Y-77041333D02*
X128690666Y-77041333D01*
X128833523Y-77088952D01*
X128928761Y-77184190D01*
X128976380Y-77327047D01*
X128976380Y-77422285D01*
X127976380Y-76088952D02*
X127976380Y-76565142D01*
X128452571Y-76612761D01*
X128404952Y-76565142D01*
X128357333Y-76469904D01*
X128357333Y-76231809D01*
X128404952Y-76136571D01*
X128452571Y-76088952D01*
X128547809Y-76041333D01*
X128785904Y-76041333D01*
X128881142Y-76088952D01*
X128928761Y-76136571D01*
X128976380Y-76231809D01*
X128976380Y-76469904D01*
X128928761Y-76565142D01*
X128881142Y-76612761D01*
X114228571Y-82747714D02*
X114276190Y-82604857D01*
X114323809Y-82557238D01*
X114419047Y-82509619D01*
X114561904Y-82509619D01*
X114657142Y-82557238D01*
X114704761Y-82604857D01*
X114752380Y-82700095D01*
X114752380Y-83081047D01*
X113752380Y-83081047D01*
X113752380Y-82747714D01*
X113800000Y-82652476D01*
X113847619Y-82604857D01*
X113942857Y-82557238D01*
X114038095Y-82557238D01*
X114133333Y-82604857D01*
X114180952Y-82652476D01*
X114228571Y-82747714D01*
X114228571Y-83081047D01*
X114180952Y-81938190D02*
X114133333Y-82033428D01*
X114085714Y-82081047D01*
X113990476Y-82128666D01*
X113942857Y-82128666D01*
X113847619Y-82081047D01*
X113800000Y-82033428D01*
X113752380Y-81938190D01*
X113752380Y-81747714D01*
X113800000Y-81652476D01*
X113847619Y-81604857D01*
X113942857Y-81557238D01*
X113990476Y-81557238D01*
X114085714Y-81604857D01*
X114133333Y-81652476D01*
X114180952Y-81747714D01*
X114180952Y-81938190D01*
X114228571Y-82033428D01*
X114276190Y-82081047D01*
X114371428Y-82128666D01*
X114561904Y-82128666D01*
X114657142Y-82081047D01*
X114704761Y-82033428D01*
X114752380Y-81938190D01*
X114752380Y-81747714D01*
X114704761Y-81652476D01*
X114657142Y-81604857D01*
X114561904Y-81557238D01*
X114371428Y-81557238D01*
X114276190Y-81604857D01*
X114228571Y-81652476D01*
X114180952Y-81747714D01*
X114228571Y-80795333D02*
X114276190Y-80652476D01*
X114323809Y-80604857D01*
X114419047Y-80557238D01*
X114561904Y-80557238D01*
X114657142Y-80604857D01*
X114704761Y-80652476D01*
X114752380Y-80747714D01*
X114752380Y-81128666D01*
X113752380Y-81128666D01*
X113752380Y-80795333D01*
X113800000Y-80700095D01*
X113847619Y-80652476D01*
X113942857Y-80604857D01*
X114038095Y-80604857D01*
X114133333Y-80652476D01*
X114180952Y-80700095D01*
X114228571Y-80795333D01*
X114228571Y-81128666D01*
X114371428Y-80128666D02*
X114371428Y-79366761D01*
X113752380Y-78985809D02*
X114752380Y-78319142D01*
X113752380Y-78319142D02*
X114752380Y-78985809D01*
X114752380Y-77938190D02*
X113752380Y-77938190D01*
X114228571Y-77938190D02*
X114228571Y-77366761D01*
X114752380Y-77366761D02*
X113752380Y-77366761D01*
X114371428Y-76890571D02*
X114371428Y-76128666D01*
X114466666Y-75700095D02*
X114466666Y-75223904D01*
X114752380Y-75795333D02*
X113752380Y-75462000D01*
X114752380Y-75128666D01*
X114847619Y-75033428D02*
X114847619Y-74271523D01*
X114752380Y-73557238D02*
X114752380Y-74033428D01*
X113752380Y-74033428D01*
X114228571Y-72890571D02*
X114228571Y-73223904D01*
X114752380Y-73223904D02*
X113752380Y-73223904D01*
X113752380Y-72747714D01*
X114704761Y-72414380D02*
X114752380Y-72271523D01*
X114752380Y-72033428D01*
X114704761Y-71938190D01*
X114657142Y-71890571D01*
X114561904Y-71842952D01*
X114466666Y-71842952D01*
X114371428Y-71890571D01*
X114323809Y-71938190D01*
X114276190Y-72033428D01*
X114228571Y-72223904D01*
X114180952Y-72319142D01*
X114133333Y-72366761D01*
X114038095Y-72414380D01*
X113942857Y-72414380D01*
X113847619Y-72366761D01*
X113800000Y-72319142D01*
X113752380Y-72223904D01*
X113752380Y-71985809D01*
X113800000Y-71842952D01*
X114752380Y-71414380D02*
X113752380Y-71414380D01*
X114752380Y-70842952D01*
X113752380Y-70842952D01*
X123404380Y-81534000D02*
X123642476Y-81534000D01*
X123547238Y-81772095D02*
X123642476Y-81534000D01*
X123547238Y-81295904D01*
X123832952Y-81676857D02*
X123642476Y-81534000D01*
X123832952Y-81391142D01*
%TO.C,U1*%
X126201095Y-98669380D02*
X126201095Y-99478904D01*
X126248714Y-99574142D01*
X126296333Y-99621761D01*
X126391571Y-99669380D01*
X126582047Y-99669380D01*
X126677285Y-99621761D01*
X126724904Y-99574142D01*
X126772523Y-99478904D01*
X126772523Y-98669380D01*
X127772523Y-99669380D02*
X127201095Y-99669380D01*
X127486809Y-99669380D02*
X127486809Y-98669380D01*
X127391571Y-98812238D01*
X127296333Y-98907476D01*
X127201095Y-98955095D01*
X131590571Y-95882428D02*
X131590571Y-95549095D01*
X132114380Y-95406238D02*
X132114380Y-95882428D01*
X131114380Y-95882428D01*
X131114380Y-95406238D01*
X132066761Y-95025285D02*
X132114380Y-94930047D01*
X132114380Y-94739571D01*
X132066761Y-94644333D01*
X131971523Y-94596714D01*
X131923904Y-94596714D01*
X131828666Y-94644333D01*
X131781047Y-94739571D01*
X131781047Y-94882428D01*
X131733428Y-94977666D01*
X131638190Y-95025285D01*
X131590571Y-95025285D01*
X131495333Y-94977666D01*
X131447714Y-94882428D01*
X131447714Y-94739571D01*
X131495333Y-94644333D01*
X131447714Y-94168142D02*
X132447714Y-94168142D01*
X131495333Y-94168142D02*
X131447714Y-94072904D01*
X131447714Y-93882428D01*
X131495333Y-93787190D01*
X131542952Y-93739571D01*
X131638190Y-93691952D01*
X131923904Y-93691952D01*
X132019142Y-93739571D01*
X132066761Y-93787190D01*
X132114380Y-93882428D01*
X132114380Y-94072904D01*
X132066761Y-94168142D01*
X132114380Y-93263380D02*
X131447714Y-93263380D01*
X131638190Y-93263380D02*
X131542952Y-93215761D01*
X131495333Y-93168142D01*
X131447714Y-93072904D01*
X131447714Y-92977666D01*
X132066761Y-92263380D02*
X132114380Y-92358619D01*
X132114380Y-92549095D01*
X132066761Y-92644333D01*
X131971523Y-92691952D01*
X131590571Y-92691952D01*
X131495333Y-92644333D01*
X131447714Y-92549095D01*
X131447714Y-92358619D01*
X131495333Y-92263380D01*
X131590571Y-92215761D01*
X131685809Y-92215761D01*
X131781047Y-92691952D01*
X132066761Y-91834809D02*
X132114380Y-91739571D01*
X132114380Y-91549095D01*
X132066761Y-91453857D01*
X131971523Y-91406238D01*
X131923904Y-91406238D01*
X131828666Y-91453857D01*
X131781047Y-91549095D01*
X131781047Y-91691952D01*
X131733428Y-91787190D01*
X131638190Y-91834809D01*
X131590571Y-91834809D01*
X131495333Y-91787190D01*
X131447714Y-91691952D01*
X131447714Y-91549095D01*
X131495333Y-91453857D01*
X132066761Y-91025285D02*
X132114380Y-90930047D01*
X132114380Y-90739571D01*
X132066761Y-90644333D01*
X131971523Y-90596714D01*
X131923904Y-90596714D01*
X131828666Y-90644333D01*
X131781047Y-90739571D01*
X131781047Y-90882428D01*
X131733428Y-90977666D01*
X131638190Y-91025285D01*
X131590571Y-91025285D01*
X131495333Y-90977666D01*
X131447714Y-90882428D01*
X131447714Y-90739571D01*
X131495333Y-90644333D01*
X132114380Y-90168142D02*
X131447714Y-90168142D01*
X131114380Y-90168142D02*
X131162000Y-90215761D01*
X131209619Y-90168142D01*
X131162000Y-90120523D01*
X131114380Y-90168142D01*
X131209619Y-90168142D01*
X131447714Y-89834809D02*
X131447714Y-89453857D01*
X132114380Y-89691952D02*
X131257238Y-89691952D01*
X131162000Y-89644333D01*
X131114380Y-89549095D01*
X131114380Y-89453857D01*
X132066761Y-88406238D02*
X132114380Y-88263380D01*
X132114380Y-88025285D01*
X132066761Y-87930047D01*
X132019142Y-87882428D01*
X131923904Y-87834809D01*
X131828666Y-87834809D01*
X131733428Y-87882428D01*
X131685809Y-87930047D01*
X131638190Y-88025285D01*
X131590571Y-88215761D01*
X131542952Y-88311000D01*
X131495333Y-88358619D01*
X131400095Y-88406238D01*
X131304857Y-88406238D01*
X131209619Y-88358619D01*
X131162000Y-88311000D01*
X131114380Y-88215761D01*
X131114380Y-87977666D01*
X131162000Y-87834809D01*
X131447714Y-87501476D02*
X132114380Y-87263380D01*
X131447714Y-87025285D02*
X132114380Y-87263380D01*
X132352476Y-87358619D01*
X132400095Y-87406238D01*
X132447714Y-87501476D01*
X132066761Y-86691952D02*
X132114380Y-86596714D01*
X132114380Y-86406238D01*
X132066761Y-86311000D01*
X131971523Y-86263380D01*
X131923904Y-86263380D01*
X131828666Y-86311000D01*
X131781047Y-86406238D01*
X131781047Y-86549095D01*
X131733428Y-86644333D01*
X131638190Y-86691952D01*
X131590571Y-86691952D01*
X131495333Y-86644333D01*
X131447714Y-86549095D01*
X131447714Y-86406238D01*
X131495333Y-86311000D01*
X131447714Y-85977666D02*
X131447714Y-85596714D01*
X131114380Y-85834809D02*
X131971523Y-85834809D01*
X132066761Y-85787190D01*
X132114380Y-85691952D01*
X132114380Y-85596714D01*
X132066761Y-84882428D02*
X132114380Y-84977666D01*
X132114380Y-85168142D01*
X132066761Y-85263380D01*
X131971523Y-85311000D01*
X131590571Y-85311000D01*
X131495333Y-85263380D01*
X131447714Y-85168142D01*
X131447714Y-84977666D01*
X131495333Y-84882428D01*
X131590571Y-84834809D01*
X131685809Y-84834809D01*
X131781047Y-85311000D01*
X132114380Y-84406238D02*
X131447714Y-84406238D01*
X131542952Y-84406238D02*
X131495333Y-84358619D01*
X131447714Y-84263380D01*
X131447714Y-84120523D01*
X131495333Y-84025285D01*
X131590571Y-83977666D01*
X132114380Y-83977666D01*
X131590571Y-83977666D02*
X131495333Y-83930047D01*
X131447714Y-83834809D01*
X131447714Y-83691952D01*
X131495333Y-83596714D01*
X131590571Y-83549095D01*
X132114380Y-83549095D01*
X132066761Y-83120523D02*
X132114380Y-83025285D01*
X132114380Y-82834809D01*
X132066761Y-82739571D01*
X131971523Y-82691952D01*
X131923904Y-82691952D01*
X131828666Y-82739571D01*
X131781047Y-82834809D01*
X131781047Y-82977666D01*
X131733428Y-83072904D01*
X131638190Y-83120523D01*
X131590571Y-83120523D01*
X131495333Y-83072904D01*
X131447714Y-82977666D01*
X131447714Y-82834809D01*
X131495333Y-82739571D01*
X133241571Y-95906380D02*
X133241571Y-95573047D01*
X133765380Y-95430190D02*
X133765380Y-95906380D01*
X132765380Y-95906380D01*
X132765380Y-95430190D01*
X133717761Y-95049238D02*
X133765380Y-94906380D01*
X133765380Y-94668285D01*
X133717761Y-94573047D01*
X133670142Y-94525428D01*
X133574904Y-94477809D01*
X133479666Y-94477809D01*
X133384428Y-94525428D01*
X133336809Y-94573047D01*
X133289190Y-94668285D01*
X133241571Y-94858761D01*
X133193952Y-94954000D01*
X133146333Y-95001619D01*
X133051095Y-95049238D01*
X132955857Y-95049238D01*
X132860619Y-95001619D01*
X132813000Y-94954000D01*
X132765380Y-94858761D01*
X132765380Y-94620666D01*
X132813000Y-94477809D01*
X133765380Y-94049238D02*
X132765380Y-94049238D01*
X132765380Y-93668285D01*
X132813000Y-93573047D01*
X132860619Y-93525428D01*
X132955857Y-93477809D01*
X133098714Y-93477809D01*
X133193952Y-93525428D01*
X133241571Y-93573047D01*
X133289190Y-93668285D01*
X133289190Y-94049238D01*
X132765380Y-93144476D02*
X132765380Y-92525428D01*
X133146333Y-92858761D01*
X133146333Y-92715904D01*
X133193952Y-92620666D01*
X133241571Y-92573047D01*
X133336809Y-92525428D01*
X133574904Y-92525428D01*
X133670142Y-92573047D01*
X133717761Y-92620666D01*
X133765380Y-92715904D01*
X133765380Y-93001619D01*
X133717761Y-93096857D01*
X133670142Y-93144476D01*
X132860619Y-92144476D02*
X132813000Y-92096857D01*
X132765380Y-92001619D01*
X132765380Y-91763523D01*
X132813000Y-91668285D01*
X132860619Y-91620666D01*
X132955857Y-91573047D01*
X133051095Y-91573047D01*
X133193952Y-91620666D01*
X133765380Y-92192095D01*
X133765380Y-91573047D01*
X133384428Y-91144476D02*
X133384428Y-90382571D01*
X132765380Y-90001619D02*
X133765380Y-89763523D01*
X133051095Y-89573047D01*
X133765380Y-89382571D01*
X132765380Y-89144476D01*
X133765380Y-88192095D02*
X133289190Y-88525428D01*
X133765380Y-88763523D02*
X132765380Y-88763523D01*
X132765380Y-88382571D01*
X132813000Y-88287333D01*
X132860619Y-88239714D01*
X132955857Y-88192095D01*
X133098714Y-88192095D01*
X133193952Y-88239714D01*
X133241571Y-88287333D01*
X133289190Y-88382571D01*
X133289190Y-88763523D01*
X132765380Y-87573047D02*
X132765380Y-87382571D01*
X132813000Y-87287333D01*
X132908238Y-87192095D01*
X133098714Y-87144476D01*
X133432047Y-87144476D01*
X133622523Y-87192095D01*
X133717761Y-87287333D01*
X133765380Y-87382571D01*
X133765380Y-87573047D01*
X133717761Y-87668285D01*
X133622523Y-87763523D01*
X133432047Y-87811142D01*
X133098714Y-87811142D01*
X132908238Y-87763523D01*
X132813000Y-87668285D01*
X132765380Y-87573047D01*
X132765380Y-86525428D02*
X132765380Y-86334952D01*
X132813000Y-86239714D01*
X132908238Y-86144476D01*
X133098714Y-86096857D01*
X133432047Y-86096857D01*
X133622523Y-86144476D01*
X133717761Y-86239714D01*
X133765380Y-86334952D01*
X133765380Y-86525428D01*
X133717761Y-86620666D01*
X133622523Y-86715904D01*
X133432047Y-86763523D01*
X133098714Y-86763523D01*
X132908238Y-86715904D01*
X132813000Y-86620666D01*
X132765380Y-86525428D01*
X133765380Y-85668285D02*
X132765380Y-85668285D01*
X133479666Y-85334952D01*
X132765380Y-85001619D01*
X133765380Y-85001619D01*
%TD*%
M02*
