%TF.GenerationSoftware,KiCad,Pcbnew,5.1.7-a382d34a8~88~ubuntu18.04.1*%
%TF.CreationDate,2021-02-15T21:35:44+01:00*%
%TF.ProjectId,test-board-esp32-assembly,74657374-2d62-46f6-9172-642d65737033,test*%
%TF.SameCoordinates,Original*%
%TF.FileFunction,Copper,L1,Top*%
%TF.FilePolarity,Positive*%
%FSLAX46Y46*%
G04 Gerber Fmt 4.6, Leading zero omitted, Abs format (unit mm)*
G04 Created by KiCad (PCBNEW 5.1.7-a382d34a8~88~ubuntu18.04.1) date 2021-02-15 21:35:44*
%MOMM*%
%LPD*%
G01*
G04 APERTURE LIST*
%TA.AperFunction,ComponentPad*%
%ADD10C,1.498600*%
%TD*%
%TA.AperFunction,SMDPad,CuDef*%
%ADD11O,2.500000X0.900000*%
%TD*%
%TA.AperFunction,SMDPad,CuDef*%
%ADD12O,0.900000X2.500000*%
%TD*%
%TA.AperFunction,SMDPad,CuDef*%
%ADD13R,6.000000X6.000000*%
%TD*%
%TA.AperFunction,Conductor*%
%ADD14C,0.254000*%
%TD*%
%TA.AperFunction,Conductor*%
%ADD15C,0.762000*%
%TD*%
%TA.AperFunction,Conductor*%
%ADD16C,0.100000*%
%TD*%
G04 APERTURE END LIST*
D10*
%TO.P,J4,8*%
%TO.N,Net-(J4-Pad8)*%
X123952000Y-87402000D03*
%TO.P,J4,7*%
%TO.N,Net-(J4-Pad7)*%
X123952000Y-89902000D03*
%TO.P,J4,6*%
%TO.N,Net-(J4-Pad6)*%
X123952000Y-92402000D03*
%TO.P,J4,5*%
%TO.N,Net-(J4-Pad5)*%
X123952000Y-94902000D03*
%TO.P,J4,4*%
%TO.N,Net-(J4-Pad4)*%
X123952000Y-97402000D03*
%TO.P,J4,3*%
%TO.N,Net-(J4-Pad3)*%
X123952000Y-99902000D03*
%TO.P,J4,2*%
%TO.N,Net-(J4-Pad2)*%
X123952000Y-102402000D03*
%TO.P,J4,1*%
%TO.N,Net-(J4-Pad1)*%
X123952000Y-104902000D03*
%TD*%
%TO.P,J1,1*%
%TO.N,Net-(J1-Pad1)*%
X154178000Y-87376000D03*
%TO.P,J1,2*%
%TO.N,Net-(J1-Pad2)*%
X154178000Y-89876000D03*
%TO.P,J1,3*%
%TO.N,Net-(J1-Pad3)*%
X154178000Y-92376000D03*
%TO.P,J1,4*%
%TO.N,Net-(J1-Pad4)*%
X154178000Y-94876000D03*
%TO.P,J1,5*%
%TO.N,Net-(J1-Pad5)*%
X154178000Y-97376000D03*
%TO.P,J1,6*%
%TO.N,Net-(J1-Pad6)*%
X154178000Y-99876000D03*
%TO.P,J1,7*%
X154178000Y-102376000D03*
%TO.P,J1,8*%
X154178000Y-104876000D03*
%TD*%
%TO.P,J2,8*%
%TO.N,Net-(J2-Pad8)*%
X154178000Y-81508000D03*
%TO.P,J2,7*%
%TO.N,Net-(J2-Pad7)*%
X154178000Y-79008000D03*
%TO.P,J2,6*%
%TO.N,Net-(J2-Pad6)*%
X154178000Y-76508000D03*
%TO.P,J2,5*%
%TO.N,Net-(J2-Pad5)*%
X154178000Y-74008000D03*
%TO.P,J2,4*%
%TO.N,Net-(J2-Pad4)*%
X154178000Y-71508000D03*
%TO.P,J2,3*%
%TO.N,Net-(J2-Pad3)*%
X154178000Y-69008000D03*
%TO.P,J2,2*%
%TO.N,Net-(J2-Pad2)*%
X154178000Y-66508000D03*
%TO.P,J2,1*%
%TO.N,Net-(J2-Pad1)*%
X154178000Y-64008000D03*
%TD*%
%TO.P,J3,1*%
%TO.N,Net-(J3-Pad1)*%
X130556000Y-65024000D03*
%TO.P,J3,2*%
%TO.N,Net-(J3-Pad2)*%
X133056000Y-65024000D03*
%TO.P,J3,3*%
%TO.N,Net-(J3-Pad3)*%
X135556000Y-65024000D03*
%TO.P,J3,4*%
%TO.N,Net-(J3-Pad4)*%
X138056000Y-65024000D03*
%TO.P,J3,5*%
%TO.N,Net-(J3-Pad5)*%
X140556000Y-65024000D03*
%TO.P,J3,6*%
%TO.N,Net-(J3-Pad6)*%
X143056000Y-65024000D03*
%TO.P,J3,7*%
%TO.N,Net-(J3-Pad7)*%
X145556000Y-65024000D03*
%TO.P,J3,8*%
%TO.N,Net-(J3-Pad8)*%
X148056000Y-65024000D03*
%TD*%
%TO.P,J5,1*%
%TO.N,Net-(J5-Pad1)*%
X123952000Y-81534000D03*
%TO.P,J5,2*%
%TO.N,Net-(J5-Pad2)*%
X123952000Y-79034000D03*
%TO.P,J5,3*%
%TO.N,Net-(J5-Pad3)*%
X123952000Y-76534000D03*
%TO.P,J5,4*%
%TO.N,Net-(J5-Pad4)*%
X123952000Y-74034000D03*
%TO.P,J5,5*%
%TO.N,Net-(J5-Pad5)*%
X123952000Y-71534000D03*
%TO.P,J5,6*%
%TO.N,GND*%
X123952000Y-69034000D03*
%TO.P,J5,7*%
X123952000Y-66534000D03*
%TO.P,J5,8*%
X123952000Y-64034000D03*
%TD*%
D11*
%TO.P,U1,38*%
%TO.N,GND*%
X129520000Y-95450000D03*
%TO.P,U1,37*%
%TO.N,Net-(J4-Pad1)*%
X129520000Y-94180000D03*
%TO.P,U1,36*%
%TO.N,Net-(J4-Pad2)*%
X129520000Y-92910000D03*
%TO.P,U1,35*%
%TO.N,Net-(J4-Pad3)*%
X129520000Y-91640000D03*
%TO.P,U1,34*%
%TO.N,Net-(J4-Pad4)*%
X129520000Y-90370000D03*
%TO.P,U1,33*%
%TO.N,Net-(J4-Pad5)*%
X129520000Y-89100000D03*
%TO.P,U1,32*%
%TO.N,Net-(J4-Pad6)*%
X129520000Y-87830000D03*
%TO.P,U1,31*%
%TO.N,Net-(J4-Pad7)*%
X129520000Y-86560000D03*
%TO.P,U1,30*%
%TO.N,Net-(J4-Pad8)*%
X129520000Y-85290000D03*
%TO.P,U1,29*%
%TO.N,Net-(J5-Pad1)*%
X129520000Y-84020000D03*
%TO.P,U1,28*%
%TO.N,Net-(J5-Pad2)*%
X129520000Y-82750000D03*
%TO.P,U1,27*%
%TO.N,Net-(J5-Pad3)*%
X129520000Y-81480000D03*
%TO.P,U1,26*%
%TO.N,Net-(J5-Pad4)*%
X129520000Y-80210000D03*
%TO.P,U1,25*%
%TO.N,Net-(J5-Pad5)*%
X129520000Y-78940000D03*
D12*
%TO.P,U1,24*%
%TO.N,Net-(J3-Pad1)*%
X132805000Y-77450000D03*
%TO.P,U1,23*%
%TO.N,Net-(J3-Pad2)*%
X134075000Y-77450000D03*
%TO.P,U1,22*%
%TO.N,Net-(J3-Pad3)*%
X135345000Y-77450000D03*
%TO.P,U1,21*%
%TO.N,Net-(J3-Pad4)*%
X136615000Y-77450000D03*
%TO.P,U1,20*%
%TO.N,Net-(J3-Pad5)*%
X137885000Y-77450000D03*
%TO.P,U1,19*%
%TO.N,Net-(J3-Pad6)*%
X139155000Y-77450000D03*
%TO.P,U1,18*%
%TO.N,Net-(J3-Pad7)*%
X140425000Y-77450000D03*
%TO.P,U1,17*%
%TO.N,Net-(J3-Pad8)*%
X141695000Y-77450000D03*
%TO.P,U1,16*%
%TO.N,Net-(J2-Pad1)*%
X142965000Y-77450000D03*
%TO.P,U1,15*%
%TO.N,GND*%
X144235000Y-77450000D03*
D11*
%TO.P,U1,14*%
%TO.N,Net-(J2-Pad2)*%
X147520000Y-78940000D03*
%TO.P,U1,13*%
%TO.N,Net-(J2-Pad3)*%
X147520000Y-80210000D03*
%TO.P,U1,12*%
%TO.N,Net-(J2-Pad4)*%
X147520000Y-81480000D03*
%TO.P,U1,11*%
%TO.N,Net-(J2-Pad5)*%
X147520000Y-82750000D03*
%TO.P,U1,10*%
%TO.N,Net-(J2-Pad6)*%
X147520000Y-84020000D03*
%TO.P,U1,9*%
%TO.N,Net-(J2-Pad7)*%
X147520000Y-85290000D03*
%TO.P,U1,8*%
%TO.N,Net-(J2-Pad8)*%
X147520000Y-86560000D03*
%TO.P,U1,7*%
%TO.N,Net-(J1-Pad1)*%
X147520000Y-87830000D03*
%TO.P,U1,6*%
%TO.N,Net-(J1-Pad2)*%
X147520000Y-89100000D03*
%TO.P,U1,5*%
%TO.N,Net-(J1-Pad3)*%
X147520000Y-90370000D03*
%TO.P,U1,4*%
%TO.N,Net-(J1-Pad4)*%
X147520000Y-91640000D03*
%TO.P,U1,3*%
%TO.N,Net-(J1-Pad5)*%
X147520000Y-92910000D03*
%TO.P,U1,2*%
%TO.N,Net-(J1-Pad6)*%
X147520000Y-94180000D03*
%TO.P,U1,1*%
%TO.N,GND*%
X147520000Y-95450000D03*
D13*
%TO.P,U1,39*%
X138820000Y-87750000D03*
%TD*%
D14*
%TO.N,Net-(J1-Pad1)*%
X153724000Y-87830000D02*
X154178000Y-87376000D01*
X147520000Y-87830000D02*
X153724000Y-87830000D01*
%TO.N,Net-(J1-Pad2)*%
X153402000Y-89100000D02*
X154178000Y-89876000D01*
X147520000Y-89100000D02*
X153402000Y-89100000D01*
%TO.N,Net-(J1-Pad3)*%
X152172000Y-90370000D02*
X154178000Y-92376000D01*
X147520000Y-90370000D02*
X152172000Y-90370000D01*
%TO.N,Net-(J1-Pad4)*%
X150942000Y-91640000D02*
X154178000Y-94876000D01*
X147520000Y-91640000D02*
X150942000Y-91640000D01*
%TO.N,Net-(J1-Pad5)*%
X149712000Y-92910000D02*
X154178000Y-97376000D01*
X147520000Y-92910000D02*
X149712000Y-92910000D01*
D15*
%TO.N,Net-(J1-Pad6)*%
X149532000Y-94180000D02*
X150876000Y-95524000D01*
X147520000Y-94180000D02*
X149532000Y-94180000D01*
X150876000Y-96574000D02*
X154178000Y-99876000D01*
X150876000Y-95524000D02*
X150876000Y-96574000D01*
X150876000Y-99074000D02*
X154178000Y-102376000D01*
X150876000Y-96574000D02*
X150876000Y-99074000D01*
D14*
%TO.N,Net-(J2-Pad8)*%
X149126000Y-86560000D02*
X154178000Y-81508000D01*
X147520000Y-86560000D02*
X149126000Y-86560000D01*
%TO.N,Net-(J2-Pad7)*%
X149024000Y-85290000D02*
X152654000Y-81660000D01*
X147520000Y-85290000D02*
X149024000Y-85290000D01*
X152654000Y-80532000D02*
X154178000Y-79008000D01*
X152654000Y-81660000D02*
X152654000Y-80532000D01*
%TO.N,Net-(J2-Pad6)*%
X152092010Y-80951990D02*
X152092010Y-78593990D01*
X147520000Y-84020000D02*
X149024000Y-84020000D01*
X152092010Y-78593990D02*
X154178000Y-76508000D01*
X149024000Y-84020000D02*
X152092010Y-80951990D01*
%TO.N,Net-(J2-Pad5)*%
X149024000Y-82750000D02*
X151638000Y-80136000D01*
X147520000Y-82750000D02*
X149024000Y-82750000D01*
X151638000Y-80136000D02*
X151638000Y-74930000D01*
X152560000Y-74008000D02*
X154178000Y-74008000D01*
X151638000Y-74930000D02*
X152560000Y-74008000D01*
%TO.N,Net-(J2-Pad4)*%
X148396067Y-81480000D02*
X151130000Y-78746067D01*
X147520000Y-81480000D02*
X148396067Y-81480000D01*
X151130000Y-74556000D02*
X154178000Y-71508000D01*
X151130000Y-78746067D02*
X151130000Y-74556000D01*
%TO.N,Net-(J2-Pad3)*%
X149024000Y-80210000D02*
X150114000Y-79120000D01*
X147520000Y-80210000D02*
X149024000Y-80210000D01*
X150114000Y-73072000D02*
X154178000Y-69008000D01*
X150114000Y-79120000D02*
X150114000Y-73072000D01*
%TO.N,Net-(J2-Pad2)*%
X147520000Y-73166000D02*
X154178000Y-66508000D01*
X147520000Y-78940000D02*
X147520000Y-73166000D01*
%TO.N,Net-(J2-Pad1)*%
X142965000Y-75221000D02*
X154178000Y-64008000D01*
X142965000Y-77450000D02*
X142965000Y-75221000D01*
%TO.N,Net-(J3-Pad1)*%
X132805000Y-77450000D02*
X132805000Y-73369000D01*
X130556000Y-71120000D02*
X130556000Y-65024000D01*
X132805000Y-73369000D02*
X130556000Y-71120000D01*
%TO.N,Net-(J3-Pad2)*%
X134075000Y-77450000D02*
X134075000Y-72353000D01*
X133056000Y-71334000D02*
X133056000Y-65024000D01*
X134075000Y-72353000D02*
X133056000Y-71334000D01*
%TO.N,Net-(J3-Pad3)*%
X135345000Y-65235000D02*
X135556000Y-65024000D01*
X135345000Y-77450000D02*
X135345000Y-65235000D01*
%TO.N,Net-(J3-Pad4)*%
X136615000Y-77450000D02*
X136615000Y-72935000D01*
X138056000Y-71494000D02*
X138056000Y-65024000D01*
X136615000Y-72935000D02*
X138056000Y-71494000D01*
%TO.N,Net-(J3-Pad5)*%
X137885000Y-77450000D02*
X137885000Y-73951000D01*
X140556000Y-71280000D02*
X140556000Y-65024000D01*
X137885000Y-73951000D02*
X140556000Y-71280000D01*
%TO.N,Net-(J3-Pad6)*%
X139155000Y-77450000D02*
X139155000Y-74459000D01*
X143056000Y-70558000D02*
X143056000Y-65024000D01*
X139155000Y-74459000D02*
X143056000Y-70558000D01*
%TO.N,Net-(J3-Pad7)*%
X140425000Y-73831066D02*
X145288000Y-68968066D01*
X140425000Y-77450000D02*
X140425000Y-73831066D01*
X145288000Y-65292000D02*
X145556000Y-65024000D01*
X145288000Y-68968066D02*
X145288000Y-65292000D01*
%TO.N,Net-(J3-Pad8)*%
X141695000Y-77450000D02*
X141695000Y-74967000D01*
X148056000Y-68606000D02*
X148056000Y-65024000D01*
X141695000Y-74967000D02*
X148056000Y-68606000D01*
%TO.N,Net-(J4-Pad8)*%
X126064000Y-85290000D02*
X123952000Y-87402000D01*
X129520000Y-85290000D02*
X126064000Y-85290000D01*
%TO.N,Net-(J4-Pad7)*%
X129520000Y-86560000D02*
X128016000Y-86560000D01*
X127762000Y-86814000D02*
X127762000Y-88317076D01*
X128016000Y-86560000D02*
X127762000Y-86814000D01*
X126177076Y-89902000D02*
X123952000Y-89902000D01*
X127762000Y-88317076D02*
X126177076Y-89902000D01*
%TO.N,Net-(J4-Pad6)*%
X128398152Y-88322990D02*
X126599980Y-90121162D01*
X129520000Y-87830000D02*
X129520000Y-88158000D01*
X129355010Y-88322990D02*
X128398152Y-88322990D01*
X129520000Y-88158000D02*
X129355010Y-88322990D01*
X126599980Y-90121162D02*
X126599980Y-91078020D01*
X125276000Y-92402000D02*
X123952000Y-92402000D01*
X126599980Y-91078020D02*
X125276000Y-92402000D01*
%TO.N,Net-(J4-Pad5)*%
X129520000Y-89100000D02*
X128643934Y-89100000D01*
X128643934Y-89100000D02*
X127053990Y-90689943D01*
X127053990Y-90689943D02*
X127053990Y-91945811D01*
X127053990Y-91945811D02*
X125691960Y-93307839D01*
X125546161Y-93307839D02*
X123952000Y-94902000D01*
X125691960Y-93307839D02*
X125546161Y-93307839D01*
%TO.N,Net-(J4-Pad4)*%
X127508000Y-90878000D02*
X127508000Y-92133867D01*
X129520000Y-90370000D02*
X128016000Y-90370000D01*
X128016000Y-90370000D02*
X127508000Y-90878000D01*
X127508000Y-92133867D02*
X126145970Y-93495896D01*
X126145970Y-93495896D02*
X126145970Y-96866030D01*
X125610000Y-97402000D02*
X123952000Y-97402000D01*
X126145970Y-96866030D02*
X125610000Y-97402000D01*
%TO.N,Net-(J4-Pad3)*%
X126599980Y-93683953D02*
X126599980Y-99206020D01*
X125904000Y-99902000D02*
X123952000Y-99902000D01*
X126599980Y-99206020D02*
X125904000Y-99902000D01*
X129520000Y-91640000D02*
X128643933Y-91640000D01*
X128643933Y-91640000D02*
X126599980Y-93683953D01*
%TO.N,Net-(J4-Pad2)*%
X128016000Y-92910000D02*
X127053990Y-93872010D01*
X129520000Y-92910000D02*
X128016000Y-92910000D01*
X127053990Y-93872010D02*
X127053990Y-100530010D01*
X125182000Y-102402000D02*
X123952000Y-102402000D01*
X127053990Y-100530010D02*
X125182000Y-102402000D01*
%TO.N,Net-(J4-Pad1)*%
X126238000Y-104902000D02*
X123952000Y-104902000D01*
X127508000Y-103632000D02*
X126238000Y-104902000D01*
X127508000Y-94688000D02*
X127508000Y-103632000D01*
X129520000Y-94180000D02*
X128016000Y-94180000D01*
X128016000Y-94180000D02*
X127508000Y-94688000D01*
%TO.N,Net-(J5-Pad1)*%
X126438000Y-84020000D02*
X123952000Y-81534000D01*
X129520000Y-84020000D02*
X126438000Y-84020000D01*
%TO.N,Net-(J5-Pad2)*%
X127668000Y-82750000D02*
X123952000Y-79034000D01*
X129520000Y-82750000D02*
X127668000Y-82750000D01*
%TO.N,Net-(J5-Pad3)*%
X128016000Y-81480000D02*
X125984000Y-79448000D01*
X129520000Y-81480000D02*
X128016000Y-81480000D01*
X125984000Y-78566000D02*
X123952000Y-76534000D01*
X125984000Y-79448000D02*
X125984000Y-78566000D01*
%TO.N,Net-(J5-Pad4)*%
X128720000Y-80210000D02*
X125984000Y-77474000D01*
X129520000Y-80210000D02*
X128720000Y-80210000D01*
X125984000Y-76066000D02*
X123952000Y-74034000D01*
X125984000Y-77474000D02*
X125984000Y-76066000D01*
%TO.N,Net-(J5-Pad5)*%
X129520000Y-77102000D02*
X123952000Y-71534000D01*
X129520000Y-78940000D02*
X129520000Y-77102000D01*
%TO.N,GND*%
X138820000Y-87750000D02*
X143644000Y-87750000D01*
X138820000Y-87750000D02*
X138820000Y-83176000D01*
X123952000Y-69034000D02*
X126800000Y-69034000D01*
X123952000Y-69034000D02*
X122628000Y-69034000D01*
%TD*%
%TO.N,GND*%
X158114988Y-108560000D02*
X120040000Y-108560000D01*
X120040000Y-71397658D01*
X122567700Y-71397658D01*
X122567700Y-71670342D01*
X122620898Y-71937785D01*
X122725249Y-72189712D01*
X122876744Y-72416440D01*
X123069560Y-72609256D01*
X123296288Y-72760751D01*
X123352416Y-72784000D01*
X123296288Y-72807249D01*
X123069560Y-72958744D01*
X122876744Y-73151560D01*
X122725249Y-73378288D01*
X122620898Y-73630215D01*
X122567700Y-73897658D01*
X122567700Y-74170342D01*
X122620898Y-74437785D01*
X122725249Y-74689712D01*
X122876744Y-74916440D01*
X123069560Y-75109256D01*
X123296288Y-75260751D01*
X123352416Y-75284000D01*
X123296288Y-75307249D01*
X123069560Y-75458744D01*
X122876744Y-75651560D01*
X122725249Y-75878288D01*
X122620898Y-76130215D01*
X122567700Y-76397658D01*
X122567700Y-76670342D01*
X122620898Y-76937785D01*
X122725249Y-77189712D01*
X122876744Y-77416440D01*
X123069560Y-77609256D01*
X123296288Y-77760751D01*
X123352416Y-77784000D01*
X123296288Y-77807249D01*
X123069560Y-77958744D01*
X122876744Y-78151560D01*
X122725249Y-78378288D01*
X122620898Y-78630215D01*
X122567700Y-78897658D01*
X122567700Y-79170342D01*
X122620898Y-79437785D01*
X122725249Y-79689712D01*
X122876744Y-79916440D01*
X123069560Y-80109256D01*
X123296288Y-80260751D01*
X123352416Y-80284000D01*
X123296288Y-80307249D01*
X123069560Y-80458744D01*
X122876744Y-80651560D01*
X122725249Y-80878288D01*
X122620898Y-81130215D01*
X122567700Y-81397658D01*
X122567700Y-81670342D01*
X122620898Y-81937785D01*
X122725249Y-82189712D01*
X122876744Y-82416440D01*
X123069560Y-82609256D01*
X123296288Y-82760751D01*
X123548215Y-82865102D01*
X123815658Y-82918300D01*
X124088342Y-82918300D01*
X124230410Y-82890041D01*
X125872721Y-84532352D01*
X125885458Y-84547873D01*
X125770985Y-84582598D01*
X125638608Y-84653355D01*
X125522578Y-84748578D01*
X125498721Y-84777648D01*
X124230410Y-86045959D01*
X124088342Y-86017700D01*
X123815658Y-86017700D01*
X123548215Y-86070898D01*
X123296288Y-86175249D01*
X123069560Y-86326744D01*
X122876744Y-86519560D01*
X122725249Y-86746288D01*
X122620898Y-86998215D01*
X122567700Y-87265658D01*
X122567700Y-87538342D01*
X122620898Y-87805785D01*
X122725249Y-88057712D01*
X122876744Y-88284440D01*
X123069560Y-88477256D01*
X123296288Y-88628751D01*
X123352416Y-88652000D01*
X123296288Y-88675249D01*
X123069560Y-88826744D01*
X122876744Y-89019560D01*
X122725249Y-89246288D01*
X122620898Y-89498215D01*
X122567700Y-89765658D01*
X122567700Y-90038342D01*
X122620898Y-90305785D01*
X122725249Y-90557712D01*
X122876744Y-90784440D01*
X123069560Y-90977256D01*
X123296288Y-91128751D01*
X123352416Y-91152000D01*
X123296288Y-91175249D01*
X123069560Y-91326744D01*
X122876744Y-91519560D01*
X122725249Y-91746288D01*
X122620898Y-91998215D01*
X122567700Y-92265658D01*
X122567700Y-92538342D01*
X122620898Y-92805785D01*
X122725249Y-93057712D01*
X122876744Y-93284440D01*
X123069560Y-93477256D01*
X123296288Y-93628751D01*
X123352416Y-93652000D01*
X123296288Y-93675249D01*
X123069560Y-93826744D01*
X122876744Y-94019560D01*
X122725249Y-94246288D01*
X122620898Y-94498215D01*
X122567700Y-94765658D01*
X122567700Y-95038342D01*
X122620898Y-95305785D01*
X122725249Y-95557712D01*
X122876744Y-95784440D01*
X123069560Y-95977256D01*
X123296288Y-96128751D01*
X123352416Y-96152000D01*
X123296288Y-96175249D01*
X123069560Y-96326744D01*
X122876744Y-96519560D01*
X122725249Y-96746288D01*
X122620898Y-96998215D01*
X122567700Y-97265658D01*
X122567700Y-97538342D01*
X122620898Y-97805785D01*
X122725249Y-98057712D01*
X122876744Y-98284440D01*
X123069560Y-98477256D01*
X123296288Y-98628751D01*
X123352416Y-98652000D01*
X123296288Y-98675249D01*
X123069560Y-98826744D01*
X122876744Y-99019560D01*
X122725249Y-99246288D01*
X122620898Y-99498215D01*
X122567700Y-99765658D01*
X122567700Y-100038342D01*
X122620898Y-100305785D01*
X122725249Y-100557712D01*
X122876744Y-100784440D01*
X123069560Y-100977256D01*
X123296288Y-101128751D01*
X123352416Y-101152000D01*
X123296288Y-101175249D01*
X123069560Y-101326744D01*
X122876744Y-101519560D01*
X122725249Y-101746288D01*
X122620898Y-101998215D01*
X122567700Y-102265658D01*
X122567700Y-102538342D01*
X122620898Y-102805785D01*
X122725249Y-103057712D01*
X122876744Y-103284440D01*
X123069560Y-103477256D01*
X123296288Y-103628751D01*
X123352416Y-103652000D01*
X123296288Y-103675249D01*
X123069560Y-103826744D01*
X122876744Y-104019560D01*
X122725249Y-104246288D01*
X122620898Y-104498215D01*
X122567700Y-104765658D01*
X122567700Y-105038342D01*
X122620898Y-105305785D01*
X122725249Y-105557712D01*
X122876744Y-105784440D01*
X123069560Y-105977256D01*
X123296288Y-106128751D01*
X123548215Y-106233102D01*
X123815658Y-106286300D01*
X124088342Y-106286300D01*
X124355785Y-106233102D01*
X124607712Y-106128751D01*
X124834440Y-105977256D01*
X125027256Y-105784440D01*
X125107732Y-105664000D01*
X126200577Y-105664000D01*
X126238000Y-105667686D01*
X126275423Y-105664000D01*
X126275426Y-105664000D01*
X126387378Y-105652974D01*
X126531015Y-105609402D01*
X126663392Y-105538645D01*
X126779422Y-105443422D01*
X126803284Y-105414346D01*
X128020352Y-104197279D01*
X128049422Y-104173422D01*
X128144645Y-104057392D01*
X128215402Y-103925015D01*
X128258974Y-103781378D01*
X128270000Y-103669426D01*
X128270000Y-103669424D01*
X128273686Y-103632001D01*
X128270000Y-103594578D01*
X128270000Y-96439788D01*
X128383767Y-96489376D01*
X128593000Y-96535000D01*
X129393000Y-96535000D01*
X129393000Y-95577000D01*
X129647000Y-95577000D01*
X129647000Y-96535000D01*
X130447000Y-96535000D01*
X130656233Y-96489376D01*
X130852545Y-96403809D01*
X131028391Y-96281587D01*
X131177014Y-96127408D01*
X131292702Y-95947197D01*
X131364408Y-95744001D01*
X145675592Y-95744001D01*
X145747298Y-95947197D01*
X145862986Y-96127408D01*
X146011609Y-96281587D01*
X146187455Y-96403809D01*
X146383767Y-96489376D01*
X146593000Y-96535000D01*
X147393000Y-96535000D01*
X147393000Y-95577000D01*
X145802498Y-95577000D01*
X145675592Y-95744001D01*
X131364408Y-95744001D01*
X131237502Y-95577000D01*
X129647000Y-95577000D01*
X129393000Y-95577000D01*
X129373000Y-95577000D01*
X129373000Y-95323000D01*
X129393000Y-95323000D01*
X129393000Y-95303000D01*
X129647000Y-95303000D01*
X129647000Y-95323000D01*
X131237502Y-95323000D01*
X131364408Y-95155999D01*
X131292702Y-94952803D01*
X131203463Y-94813792D01*
X131226509Y-94785710D01*
X131327259Y-94597220D01*
X131389300Y-94392697D01*
X131410249Y-94180000D01*
X131389300Y-93967303D01*
X131327259Y-93762780D01*
X131226509Y-93574290D01*
X131202471Y-93545000D01*
X131226509Y-93515710D01*
X131327259Y-93327220D01*
X131389300Y-93122697D01*
X131410249Y-92910000D01*
X131389300Y-92697303D01*
X131327259Y-92492780D01*
X131226509Y-92304290D01*
X131202471Y-92275000D01*
X131226509Y-92245710D01*
X131327259Y-92057220D01*
X131389300Y-91852697D01*
X131410249Y-91640000D01*
X131389300Y-91427303D01*
X131327259Y-91222780D01*
X131226509Y-91034290D01*
X131202471Y-91005000D01*
X131226509Y-90975710D01*
X131327259Y-90787220D01*
X131338549Y-90750000D01*
X135181928Y-90750000D01*
X135194188Y-90874482D01*
X135230498Y-90994180D01*
X135289463Y-91104494D01*
X135368815Y-91201185D01*
X135465506Y-91280537D01*
X135575820Y-91339502D01*
X135695518Y-91375812D01*
X135820000Y-91388072D01*
X138534250Y-91385000D01*
X138693000Y-91226250D01*
X138693000Y-87877000D01*
X138947000Y-87877000D01*
X138947000Y-91226250D01*
X139105750Y-91385000D01*
X141820000Y-91388072D01*
X141944482Y-91375812D01*
X142064180Y-91339502D01*
X142174494Y-91280537D01*
X142271185Y-91201185D01*
X142350537Y-91104494D01*
X142409502Y-90994180D01*
X142445812Y-90874482D01*
X142458072Y-90750000D01*
X142455000Y-88035750D01*
X142296250Y-87877000D01*
X138947000Y-87877000D01*
X138693000Y-87877000D01*
X135343750Y-87877000D01*
X135185000Y-88035750D01*
X135181928Y-90750000D01*
X131338549Y-90750000D01*
X131389300Y-90582697D01*
X131410249Y-90370000D01*
X131389300Y-90157303D01*
X131327259Y-89952780D01*
X131226509Y-89764290D01*
X131202471Y-89735000D01*
X131226509Y-89705710D01*
X131327259Y-89517220D01*
X131389300Y-89312697D01*
X131410249Y-89100000D01*
X131389300Y-88887303D01*
X131327259Y-88682780D01*
X131226509Y-88494290D01*
X131202471Y-88465000D01*
X131226509Y-88435710D01*
X131327259Y-88247220D01*
X131389300Y-88042697D01*
X131410249Y-87830000D01*
X131389300Y-87617303D01*
X131327259Y-87412780D01*
X131226509Y-87224290D01*
X131202471Y-87195000D01*
X131226509Y-87165710D01*
X131327259Y-86977220D01*
X131389300Y-86772697D01*
X131410249Y-86560000D01*
X131389300Y-86347303D01*
X131327259Y-86142780D01*
X131226509Y-85954290D01*
X131202471Y-85925000D01*
X131226509Y-85895710D01*
X131327259Y-85707220D01*
X131389300Y-85502697D01*
X131410249Y-85290000D01*
X131389300Y-85077303D01*
X131327259Y-84872780D01*
X131261632Y-84750000D01*
X135181928Y-84750000D01*
X135185000Y-87464250D01*
X135343750Y-87623000D01*
X138693000Y-87623000D01*
X138693000Y-84273750D01*
X138947000Y-84273750D01*
X138947000Y-87623000D01*
X142296250Y-87623000D01*
X142455000Y-87464250D01*
X142458072Y-84750000D01*
X142445812Y-84625518D01*
X142409502Y-84505820D01*
X142350537Y-84395506D01*
X142271185Y-84298815D01*
X142174494Y-84219463D01*
X142064180Y-84160498D01*
X141944482Y-84124188D01*
X141820000Y-84111928D01*
X139105750Y-84115000D01*
X138947000Y-84273750D01*
X138693000Y-84273750D01*
X138534250Y-84115000D01*
X135820000Y-84111928D01*
X135695518Y-84124188D01*
X135575820Y-84160498D01*
X135465506Y-84219463D01*
X135368815Y-84298815D01*
X135289463Y-84395506D01*
X135230498Y-84505820D01*
X135194188Y-84625518D01*
X135181928Y-84750000D01*
X131261632Y-84750000D01*
X131226509Y-84684290D01*
X131202471Y-84655000D01*
X131226509Y-84625710D01*
X131327259Y-84437220D01*
X131389300Y-84232697D01*
X131410249Y-84020000D01*
X131389300Y-83807303D01*
X131327259Y-83602780D01*
X131226509Y-83414290D01*
X131202471Y-83385000D01*
X131226509Y-83355710D01*
X131327259Y-83167220D01*
X131389300Y-82962697D01*
X131410249Y-82750000D01*
X131389300Y-82537303D01*
X131327259Y-82332780D01*
X131226509Y-82144290D01*
X131202471Y-82115000D01*
X131226509Y-82085710D01*
X131327259Y-81897220D01*
X131389300Y-81692697D01*
X131410249Y-81480000D01*
X131389300Y-81267303D01*
X131327259Y-81062780D01*
X131226509Y-80874290D01*
X131202471Y-80845000D01*
X131226509Y-80815710D01*
X131327259Y-80627220D01*
X131389300Y-80422697D01*
X131410249Y-80210000D01*
X131389300Y-79997303D01*
X131327259Y-79792780D01*
X131226509Y-79604290D01*
X131202471Y-79575000D01*
X131226509Y-79545710D01*
X131327259Y-79357220D01*
X131389300Y-79152697D01*
X131410249Y-78940000D01*
X131389300Y-78727303D01*
X131327259Y-78522780D01*
X131226509Y-78334290D01*
X131090922Y-78169078D01*
X130925710Y-78033491D01*
X130737220Y-77932741D01*
X130532697Y-77870700D01*
X130373294Y-77855000D01*
X130282000Y-77855000D01*
X130282000Y-77139422D01*
X130285686Y-77101999D01*
X130282000Y-77064574D01*
X130270974Y-76952622D01*
X130227402Y-76808985D01*
X130156645Y-76676608D01*
X130061422Y-76560578D01*
X130032352Y-76536721D01*
X125308041Y-71812411D01*
X125336300Y-71670342D01*
X125336300Y-71397658D01*
X125283102Y-71130215D01*
X125178751Y-70878288D01*
X125027256Y-70651560D01*
X124834440Y-70458744D01*
X124607712Y-70307249D01*
X124556942Y-70286219D01*
X124663448Y-70229290D01*
X124728888Y-69990493D01*
X123952000Y-69213605D01*
X123175112Y-69990493D01*
X123240552Y-70229290D01*
X123354931Y-70282958D01*
X123296288Y-70307249D01*
X123069560Y-70458744D01*
X122876744Y-70651560D01*
X122725249Y-70878288D01*
X122620898Y-71130215D01*
X122567700Y-71397658D01*
X120040000Y-71397658D01*
X120040000Y-69106521D01*
X122562893Y-69106521D01*
X122603732Y-69376129D01*
X122696385Y-69632589D01*
X122756710Y-69745448D01*
X122995507Y-69810888D01*
X123772395Y-69034000D01*
X124131605Y-69034000D01*
X124908493Y-69810888D01*
X125147290Y-69745448D01*
X125263120Y-69498588D01*
X125328564Y-69233874D01*
X125341107Y-68961479D01*
X125300268Y-68691871D01*
X125207615Y-68435411D01*
X125147290Y-68322552D01*
X124908493Y-68257112D01*
X124131605Y-69034000D01*
X123772395Y-69034000D01*
X122995507Y-68257112D01*
X122756710Y-68322552D01*
X122640880Y-68569412D01*
X122575436Y-68834126D01*
X122562893Y-69106521D01*
X120040000Y-69106521D01*
X120040000Y-67490493D01*
X123175112Y-67490493D01*
X123240552Y-67729290D01*
X123349565Y-67780441D01*
X123240552Y-67838710D01*
X123175112Y-68077507D01*
X123952000Y-68854395D01*
X124728888Y-68077507D01*
X124663448Y-67838710D01*
X124554435Y-67787559D01*
X124663448Y-67729290D01*
X124728888Y-67490493D01*
X123952000Y-66713605D01*
X123175112Y-67490493D01*
X120040000Y-67490493D01*
X120040000Y-66606521D01*
X122562893Y-66606521D01*
X122603732Y-66876129D01*
X122696385Y-67132589D01*
X122756710Y-67245448D01*
X122995507Y-67310888D01*
X123772395Y-66534000D01*
X124131605Y-66534000D01*
X124908493Y-67310888D01*
X125147290Y-67245448D01*
X125263120Y-66998588D01*
X125328564Y-66733874D01*
X125341107Y-66461479D01*
X125300268Y-66191871D01*
X125207615Y-65935411D01*
X125147290Y-65822552D01*
X124908493Y-65757112D01*
X124131605Y-66534000D01*
X123772395Y-66534000D01*
X122995507Y-65757112D01*
X122756710Y-65822552D01*
X122640880Y-66069412D01*
X122575436Y-66334126D01*
X122562893Y-66606521D01*
X120040000Y-66606521D01*
X120040000Y-64990493D01*
X123175112Y-64990493D01*
X123240552Y-65229290D01*
X123349565Y-65280441D01*
X123240552Y-65338710D01*
X123175112Y-65577507D01*
X123952000Y-66354395D01*
X124728888Y-65577507D01*
X124663448Y-65338710D01*
X124554435Y-65287559D01*
X124663448Y-65229290D01*
X124728888Y-64990493D01*
X124626053Y-64887658D01*
X129171700Y-64887658D01*
X129171700Y-65160342D01*
X129224898Y-65427785D01*
X129329249Y-65679712D01*
X129480744Y-65906440D01*
X129673560Y-66099256D01*
X129794001Y-66179732D01*
X129794000Y-71082577D01*
X129790314Y-71120000D01*
X129794000Y-71157423D01*
X129794000Y-71157425D01*
X129805026Y-71269377D01*
X129848598Y-71413014D01*
X129881535Y-71474635D01*
X129919355Y-71545392D01*
X129953760Y-71587314D01*
X130014578Y-71661422D01*
X130043654Y-71685284D01*
X132043001Y-73684632D01*
X132043000Y-75871756D01*
X132034078Y-75879078D01*
X131898491Y-76044290D01*
X131797741Y-76232781D01*
X131735700Y-76437304D01*
X131720000Y-76596707D01*
X131720000Y-78303294D01*
X131735700Y-78462697D01*
X131797742Y-78667220D01*
X131898492Y-78855710D01*
X132034079Y-79020922D01*
X132199291Y-79156509D01*
X132387781Y-79257259D01*
X132592304Y-79319300D01*
X132805000Y-79340249D01*
X133017697Y-79319300D01*
X133222220Y-79257259D01*
X133410710Y-79156509D01*
X133440001Y-79132471D01*
X133469291Y-79156509D01*
X133657781Y-79257259D01*
X133862304Y-79319300D01*
X134075000Y-79340249D01*
X134287697Y-79319300D01*
X134492220Y-79257259D01*
X134680710Y-79156509D01*
X134710001Y-79132471D01*
X134739291Y-79156509D01*
X134927781Y-79257259D01*
X135132304Y-79319300D01*
X135345000Y-79340249D01*
X135557697Y-79319300D01*
X135762220Y-79257259D01*
X135950710Y-79156509D01*
X135980001Y-79132471D01*
X136009291Y-79156509D01*
X136197781Y-79257259D01*
X136402304Y-79319300D01*
X136615000Y-79340249D01*
X136827697Y-79319300D01*
X137032220Y-79257259D01*
X137220710Y-79156509D01*
X137250001Y-79132471D01*
X137279291Y-79156509D01*
X137467781Y-79257259D01*
X137672304Y-79319300D01*
X137885000Y-79340249D01*
X138097697Y-79319300D01*
X138302220Y-79257259D01*
X138490710Y-79156509D01*
X138520001Y-79132471D01*
X138549291Y-79156509D01*
X138737781Y-79257259D01*
X138942304Y-79319300D01*
X139155000Y-79340249D01*
X139367697Y-79319300D01*
X139572220Y-79257259D01*
X139760710Y-79156509D01*
X139790001Y-79132471D01*
X139819291Y-79156509D01*
X140007781Y-79257259D01*
X140212304Y-79319300D01*
X140425000Y-79340249D01*
X140637697Y-79319300D01*
X140842220Y-79257259D01*
X141030710Y-79156509D01*
X141060001Y-79132471D01*
X141089291Y-79156509D01*
X141277781Y-79257259D01*
X141482304Y-79319300D01*
X141695000Y-79340249D01*
X141907697Y-79319300D01*
X142112220Y-79257259D01*
X142300710Y-79156509D01*
X142330001Y-79132471D01*
X142359291Y-79156509D01*
X142547781Y-79257259D01*
X142752304Y-79319300D01*
X142965000Y-79340249D01*
X143177697Y-79319300D01*
X143382220Y-79257259D01*
X143570710Y-79156509D01*
X143598792Y-79133463D01*
X143737803Y-79222702D01*
X143940999Y-79294408D01*
X144108000Y-79167502D01*
X144108000Y-77577000D01*
X144362000Y-77577000D01*
X144362000Y-79167502D01*
X144529001Y-79294408D01*
X144732197Y-79222702D01*
X144912408Y-79107014D01*
X145066587Y-78958391D01*
X145188809Y-78782545D01*
X145274376Y-78586233D01*
X145320000Y-78377000D01*
X145320000Y-77577000D01*
X144362000Y-77577000D01*
X144108000Y-77577000D01*
X144088000Y-77577000D01*
X144088000Y-77323000D01*
X144108000Y-77323000D01*
X144108000Y-75732498D01*
X144362000Y-75732498D01*
X144362000Y-77323000D01*
X145320000Y-77323000D01*
X145320000Y-76523000D01*
X145274376Y-76313767D01*
X145188809Y-76117455D01*
X145066587Y-75941609D01*
X144912408Y-75792986D01*
X144732197Y-75677298D01*
X144529001Y-75605592D01*
X144362000Y-75732498D01*
X144108000Y-75732498D01*
X143940999Y-75605592D01*
X143737803Y-75677298D01*
X143727000Y-75684233D01*
X143727000Y-75536630D01*
X152793700Y-66469930D01*
X152793700Y-66644342D01*
X152821959Y-66786410D01*
X147007649Y-72600721D01*
X146978579Y-72624578D01*
X146954722Y-72653648D01*
X146954721Y-72653649D01*
X146883355Y-72740608D01*
X146812599Y-72872985D01*
X146769027Y-73016622D01*
X146754314Y-73166000D01*
X146758001Y-73203433D01*
X146758000Y-77855000D01*
X146666706Y-77855000D01*
X146507303Y-77870700D01*
X146302780Y-77932741D01*
X146114290Y-78033491D01*
X145949078Y-78169078D01*
X145813491Y-78334290D01*
X145712741Y-78522780D01*
X145650700Y-78727303D01*
X145629751Y-78940000D01*
X145650700Y-79152697D01*
X145712741Y-79357220D01*
X145813491Y-79545710D01*
X145837529Y-79575000D01*
X145813491Y-79604290D01*
X145712741Y-79792780D01*
X145650700Y-79997303D01*
X145629751Y-80210000D01*
X145650700Y-80422697D01*
X145712741Y-80627220D01*
X145813491Y-80815710D01*
X145837529Y-80845000D01*
X145813491Y-80874290D01*
X145712741Y-81062780D01*
X145650700Y-81267303D01*
X145629751Y-81480000D01*
X145650700Y-81692697D01*
X145712741Y-81897220D01*
X145813491Y-82085710D01*
X145837529Y-82115000D01*
X145813491Y-82144290D01*
X145712741Y-82332780D01*
X145650700Y-82537303D01*
X145629751Y-82750000D01*
X145650700Y-82962697D01*
X145712741Y-83167220D01*
X145813491Y-83355710D01*
X145837529Y-83385000D01*
X145813491Y-83414290D01*
X145712741Y-83602780D01*
X145650700Y-83807303D01*
X145629751Y-84020000D01*
X145650700Y-84232697D01*
X145712741Y-84437220D01*
X145813491Y-84625710D01*
X145837529Y-84655000D01*
X145813491Y-84684290D01*
X145712741Y-84872780D01*
X145650700Y-85077303D01*
X145629751Y-85290000D01*
X145650700Y-85502697D01*
X145712741Y-85707220D01*
X145813491Y-85895710D01*
X145837529Y-85925000D01*
X145813491Y-85954290D01*
X145712741Y-86142780D01*
X145650700Y-86347303D01*
X145629751Y-86560000D01*
X145650700Y-86772697D01*
X145712741Y-86977220D01*
X145813491Y-87165710D01*
X145837529Y-87195000D01*
X145813491Y-87224290D01*
X145712741Y-87412780D01*
X145650700Y-87617303D01*
X145629751Y-87830000D01*
X145650700Y-88042697D01*
X145712741Y-88247220D01*
X145813491Y-88435710D01*
X145837529Y-88465000D01*
X145813491Y-88494290D01*
X145712741Y-88682780D01*
X145650700Y-88887303D01*
X145629751Y-89100000D01*
X145650700Y-89312697D01*
X145712741Y-89517220D01*
X145813491Y-89705710D01*
X145837529Y-89735000D01*
X145813491Y-89764290D01*
X145712741Y-89952780D01*
X145650700Y-90157303D01*
X145629751Y-90370000D01*
X145650700Y-90582697D01*
X145712741Y-90787220D01*
X145813491Y-90975710D01*
X145837529Y-91005000D01*
X145813491Y-91034290D01*
X145712741Y-91222780D01*
X145650700Y-91427303D01*
X145629751Y-91640000D01*
X145650700Y-91852697D01*
X145712741Y-92057220D01*
X145813491Y-92245710D01*
X145837529Y-92275000D01*
X145813491Y-92304290D01*
X145712741Y-92492780D01*
X145650700Y-92697303D01*
X145629751Y-92910000D01*
X145650700Y-93122697D01*
X145712741Y-93327220D01*
X145813491Y-93515710D01*
X145837529Y-93545000D01*
X145813491Y-93574290D01*
X145712741Y-93762780D01*
X145650700Y-93967303D01*
X145629751Y-94180000D01*
X145650700Y-94392697D01*
X145712741Y-94597220D01*
X145813491Y-94785710D01*
X145836537Y-94813792D01*
X145747298Y-94952803D01*
X145675592Y-95155999D01*
X145802498Y-95323000D01*
X147393000Y-95323000D01*
X147393000Y-95303000D01*
X147647000Y-95303000D01*
X147647000Y-95323000D01*
X147667000Y-95323000D01*
X147667000Y-95577000D01*
X147647000Y-95577000D01*
X147647000Y-96535000D01*
X148447000Y-96535000D01*
X148656233Y-96489376D01*
X148852545Y-96403809D01*
X149028391Y-96281587D01*
X149177014Y-96127408D01*
X149292702Y-95947197D01*
X149364408Y-95744001D01*
X149237504Y-95577002D01*
X149405000Y-95577002D01*
X149405000Y-95489840D01*
X149860000Y-95944841D01*
X149860001Y-96524089D01*
X149855085Y-96574000D01*
X149860000Y-96623902D01*
X149860001Y-99024089D01*
X149855085Y-99074000D01*
X149874702Y-99273170D01*
X149910036Y-99389649D01*
X149932799Y-99464687D01*
X150027141Y-99641190D01*
X150154105Y-99795896D01*
X150192868Y-99827708D01*
X152793700Y-102428541D01*
X152793700Y-102512342D01*
X152846898Y-102779785D01*
X152951249Y-103031712D01*
X153102744Y-103258440D01*
X153295560Y-103451256D01*
X153522288Y-103602751D01*
X153578416Y-103626000D01*
X153522288Y-103649249D01*
X153295560Y-103800744D01*
X153102744Y-103993560D01*
X152951249Y-104220288D01*
X152846898Y-104472215D01*
X152793700Y-104739658D01*
X152793700Y-105012342D01*
X152846898Y-105279785D01*
X152951249Y-105531712D01*
X153102744Y-105758440D01*
X153295560Y-105951256D01*
X153522288Y-106102751D01*
X153774215Y-106207102D01*
X154041658Y-106260300D01*
X154314342Y-106260300D01*
X154581785Y-106207102D01*
X154833712Y-106102751D01*
X155060440Y-105951256D01*
X155253256Y-105758440D01*
X155404751Y-105531712D01*
X155509102Y-105279785D01*
X155562300Y-105012342D01*
X155562300Y-104739658D01*
X155509102Y-104472215D01*
X155404751Y-104220288D01*
X155253256Y-103993560D01*
X155060440Y-103800744D01*
X154833712Y-103649249D01*
X154777584Y-103626000D01*
X154833712Y-103602751D01*
X155060440Y-103451256D01*
X155253256Y-103258440D01*
X155404751Y-103031712D01*
X155509102Y-102779785D01*
X155562300Y-102512342D01*
X155562300Y-102239658D01*
X155509102Y-101972215D01*
X155404751Y-101720288D01*
X155253256Y-101493560D01*
X155060440Y-101300744D01*
X154833712Y-101149249D01*
X154777584Y-101126000D01*
X154833712Y-101102751D01*
X155060440Y-100951256D01*
X155253256Y-100758440D01*
X155404751Y-100531712D01*
X155509102Y-100279785D01*
X155562300Y-100012342D01*
X155562300Y-99739658D01*
X155509102Y-99472215D01*
X155404751Y-99220288D01*
X155253256Y-98993560D01*
X155060440Y-98800744D01*
X154833712Y-98649249D01*
X154777584Y-98626000D01*
X154833712Y-98602751D01*
X155060440Y-98451256D01*
X155253256Y-98258440D01*
X155404751Y-98031712D01*
X155509102Y-97779785D01*
X155562300Y-97512342D01*
X155562300Y-97239658D01*
X155509102Y-96972215D01*
X155404751Y-96720288D01*
X155253256Y-96493560D01*
X155060440Y-96300744D01*
X154833712Y-96149249D01*
X154777584Y-96126000D01*
X154833712Y-96102751D01*
X155060440Y-95951256D01*
X155253256Y-95758440D01*
X155404751Y-95531712D01*
X155509102Y-95279785D01*
X155562300Y-95012342D01*
X155562300Y-94739658D01*
X155509102Y-94472215D01*
X155404751Y-94220288D01*
X155253256Y-93993560D01*
X155060440Y-93800744D01*
X154833712Y-93649249D01*
X154777584Y-93626000D01*
X154833712Y-93602751D01*
X155060440Y-93451256D01*
X155253256Y-93258440D01*
X155404751Y-93031712D01*
X155509102Y-92779785D01*
X155562300Y-92512342D01*
X155562300Y-92239658D01*
X155509102Y-91972215D01*
X155404751Y-91720288D01*
X155253256Y-91493560D01*
X155060440Y-91300744D01*
X154833712Y-91149249D01*
X154777584Y-91126000D01*
X154833712Y-91102751D01*
X155060440Y-90951256D01*
X155253256Y-90758440D01*
X155404751Y-90531712D01*
X155509102Y-90279785D01*
X155562300Y-90012342D01*
X155562300Y-89739658D01*
X155509102Y-89472215D01*
X155404751Y-89220288D01*
X155253256Y-88993560D01*
X155060440Y-88800744D01*
X154833712Y-88649249D01*
X154777584Y-88626000D01*
X154833712Y-88602751D01*
X155060440Y-88451256D01*
X155253256Y-88258440D01*
X155404751Y-88031712D01*
X155509102Y-87779785D01*
X155562300Y-87512342D01*
X155562300Y-87239658D01*
X155509102Y-86972215D01*
X155404751Y-86720288D01*
X155253256Y-86493560D01*
X155060440Y-86300744D01*
X154833712Y-86149249D01*
X154581785Y-86044898D01*
X154314342Y-85991700D01*
X154041658Y-85991700D01*
X153774215Y-86044898D01*
X153522288Y-86149249D01*
X153295560Y-86300744D01*
X153102744Y-86493560D01*
X152951249Y-86720288D01*
X152846898Y-86972215D01*
X152827845Y-87068000D01*
X149695630Y-87068000D01*
X153899590Y-82864041D01*
X154041658Y-82892300D01*
X154314342Y-82892300D01*
X154581785Y-82839102D01*
X154833712Y-82734751D01*
X155060440Y-82583256D01*
X155253256Y-82390440D01*
X155404751Y-82163712D01*
X155509102Y-81911785D01*
X155562300Y-81644342D01*
X155562300Y-81371658D01*
X155509102Y-81104215D01*
X155404751Y-80852288D01*
X155253256Y-80625560D01*
X155060440Y-80432744D01*
X154833712Y-80281249D01*
X154777584Y-80258000D01*
X154833712Y-80234751D01*
X155060440Y-80083256D01*
X155253256Y-79890440D01*
X155404751Y-79663712D01*
X155509102Y-79411785D01*
X155562300Y-79144342D01*
X155562300Y-78871658D01*
X155509102Y-78604215D01*
X155404751Y-78352288D01*
X155253256Y-78125560D01*
X155060440Y-77932744D01*
X154833712Y-77781249D01*
X154777584Y-77758000D01*
X154833712Y-77734751D01*
X155060440Y-77583256D01*
X155253256Y-77390440D01*
X155404751Y-77163712D01*
X155509102Y-76911785D01*
X155562300Y-76644342D01*
X155562300Y-76371658D01*
X155509102Y-76104215D01*
X155404751Y-75852288D01*
X155253256Y-75625560D01*
X155060440Y-75432744D01*
X154833712Y-75281249D01*
X154777584Y-75258000D01*
X154833712Y-75234751D01*
X155060440Y-75083256D01*
X155253256Y-74890440D01*
X155404751Y-74663712D01*
X155509102Y-74411785D01*
X155562300Y-74144342D01*
X155562300Y-73871658D01*
X155509102Y-73604215D01*
X155404751Y-73352288D01*
X155253256Y-73125560D01*
X155060440Y-72932744D01*
X154833712Y-72781249D01*
X154777584Y-72758000D01*
X154833712Y-72734751D01*
X155060440Y-72583256D01*
X155253256Y-72390440D01*
X155404751Y-72163712D01*
X155509102Y-71911785D01*
X155562300Y-71644342D01*
X155562300Y-71371658D01*
X155509102Y-71104215D01*
X155404751Y-70852288D01*
X155253256Y-70625560D01*
X155060440Y-70432744D01*
X154833712Y-70281249D01*
X154777584Y-70258000D01*
X154833712Y-70234751D01*
X155060440Y-70083256D01*
X155253256Y-69890440D01*
X155404751Y-69663712D01*
X155509102Y-69411785D01*
X155562300Y-69144342D01*
X155562300Y-68871658D01*
X155509102Y-68604215D01*
X155404751Y-68352288D01*
X155253256Y-68125560D01*
X155060440Y-67932744D01*
X154833712Y-67781249D01*
X154777584Y-67758000D01*
X154833712Y-67734751D01*
X155060440Y-67583256D01*
X155253256Y-67390440D01*
X155404751Y-67163712D01*
X155509102Y-66911785D01*
X155562300Y-66644342D01*
X155562300Y-66371658D01*
X155509102Y-66104215D01*
X155404751Y-65852288D01*
X155253256Y-65625560D01*
X155060440Y-65432744D01*
X154833712Y-65281249D01*
X154777584Y-65258000D01*
X154833712Y-65234751D01*
X155060440Y-65083256D01*
X155253256Y-64890440D01*
X155404751Y-64663712D01*
X155509102Y-64411785D01*
X155562300Y-64144342D01*
X155562300Y-63871658D01*
X155509102Y-63604215D01*
X155404751Y-63352288D01*
X155253256Y-63125560D01*
X155060440Y-62932744D01*
X154833712Y-62781249D01*
X154581785Y-62676898D01*
X154314342Y-62623700D01*
X154041658Y-62623700D01*
X153774215Y-62676898D01*
X153522288Y-62781249D01*
X153295560Y-62932744D01*
X153102744Y-63125560D01*
X152951249Y-63352288D01*
X152846898Y-63604215D01*
X152793700Y-63871658D01*
X152793700Y-64144342D01*
X152821959Y-64286411D01*
X148818000Y-68290370D01*
X148818000Y-66179732D01*
X148938440Y-66099256D01*
X149131256Y-65906440D01*
X149282751Y-65679712D01*
X149387102Y-65427785D01*
X149440300Y-65160342D01*
X149440300Y-64887658D01*
X149387102Y-64620215D01*
X149282751Y-64368288D01*
X149131256Y-64141560D01*
X148938440Y-63948744D01*
X148711712Y-63797249D01*
X148459785Y-63692898D01*
X148192342Y-63639700D01*
X147919658Y-63639700D01*
X147652215Y-63692898D01*
X147400288Y-63797249D01*
X147173560Y-63948744D01*
X146980744Y-64141560D01*
X146829249Y-64368288D01*
X146806000Y-64424416D01*
X146782751Y-64368288D01*
X146631256Y-64141560D01*
X146438440Y-63948744D01*
X146211712Y-63797249D01*
X145959785Y-63692898D01*
X145692342Y-63639700D01*
X145419658Y-63639700D01*
X145152215Y-63692898D01*
X144900288Y-63797249D01*
X144673560Y-63948744D01*
X144480744Y-64141560D01*
X144329249Y-64368288D01*
X144306000Y-64424416D01*
X144282751Y-64368288D01*
X144131256Y-64141560D01*
X143938440Y-63948744D01*
X143711712Y-63797249D01*
X143459785Y-63692898D01*
X143192342Y-63639700D01*
X142919658Y-63639700D01*
X142652215Y-63692898D01*
X142400288Y-63797249D01*
X142173560Y-63948744D01*
X141980744Y-64141560D01*
X141829249Y-64368288D01*
X141806000Y-64424416D01*
X141782751Y-64368288D01*
X141631256Y-64141560D01*
X141438440Y-63948744D01*
X141211712Y-63797249D01*
X140959785Y-63692898D01*
X140692342Y-63639700D01*
X140419658Y-63639700D01*
X140152215Y-63692898D01*
X139900288Y-63797249D01*
X139673560Y-63948744D01*
X139480744Y-64141560D01*
X139329249Y-64368288D01*
X139306000Y-64424416D01*
X139282751Y-64368288D01*
X139131256Y-64141560D01*
X138938440Y-63948744D01*
X138711712Y-63797249D01*
X138459785Y-63692898D01*
X138192342Y-63639700D01*
X137919658Y-63639700D01*
X137652215Y-63692898D01*
X137400288Y-63797249D01*
X137173560Y-63948744D01*
X136980744Y-64141560D01*
X136829249Y-64368288D01*
X136806000Y-64424416D01*
X136782751Y-64368288D01*
X136631256Y-64141560D01*
X136438440Y-63948744D01*
X136211712Y-63797249D01*
X135959785Y-63692898D01*
X135692342Y-63639700D01*
X135419658Y-63639700D01*
X135152215Y-63692898D01*
X134900288Y-63797249D01*
X134673560Y-63948744D01*
X134480744Y-64141560D01*
X134329249Y-64368288D01*
X134306000Y-64424416D01*
X134282751Y-64368288D01*
X134131256Y-64141560D01*
X133938440Y-63948744D01*
X133711712Y-63797249D01*
X133459785Y-63692898D01*
X133192342Y-63639700D01*
X132919658Y-63639700D01*
X132652215Y-63692898D01*
X132400288Y-63797249D01*
X132173560Y-63948744D01*
X131980744Y-64141560D01*
X131829249Y-64368288D01*
X131806000Y-64424416D01*
X131782751Y-64368288D01*
X131631256Y-64141560D01*
X131438440Y-63948744D01*
X131211712Y-63797249D01*
X130959785Y-63692898D01*
X130692342Y-63639700D01*
X130419658Y-63639700D01*
X130152215Y-63692898D01*
X129900288Y-63797249D01*
X129673560Y-63948744D01*
X129480744Y-64141560D01*
X129329249Y-64368288D01*
X129224898Y-64620215D01*
X129171700Y-64887658D01*
X124626053Y-64887658D01*
X123952000Y-64213605D01*
X123175112Y-64990493D01*
X120040000Y-64990493D01*
X120040000Y-64106521D01*
X122562893Y-64106521D01*
X122603732Y-64376129D01*
X122696385Y-64632589D01*
X122756710Y-64745448D01*
X122995507Y-64810888D01*
X123772395Y-64034000D01*
X124131605Y-64034000D01*
X124908493Y-64810888D01*
X125147290Y-64745448D01*
X125263120Y-64498588D01*
X125328564Y-64233874D01*
X125341107Y-63961479D01*
X125300268Y-63691871D01*
X125207615Y-63435411D01*
X125147290Y-63322552D01*
X124908493Y-63257112D01*
X124131605Y-64034000D01*
X123772395Y-64034000D01*
X122995507Y-63257112D01*
X122756710Y-63322552D01*
X122640880Y-63569412D01*
X122575436Y-63834126D01*
X122562893Y-64106521D01*
X120040000Y-64106521D01*
X120040000Y-63077507D01*
X123175112Y-63077507D01*
X123952000Y-63854395D01*
X124728888Y-63077507D01*
X124663448Y-62838710D01*
X124416588Y-62722880D01*
X124151874Y-62657436D01*
X123879479Y-62644893D01*
X123609871Y-62685732D01*
X123353411Y-62778385D01*
X123240552Y-62838710D01*
X123175112Y-63077507D01*
X120040000Y-63077507D01*
X120040000Y-61620000D01*
X158114989Y-61620000D01*
X158114988Y-108560000D01*
%TA.AperFunction,Conductor*%
D16*
G36*
X158114988Y-108560000D02*
G01*
X120040000Y-108560000D01*
X120040000Y-71397658D01*
X122567700Y-71397658D01*
X122567700Y-71670342D01*
X122620898Y-71937785D01*
X122725249Y-72189712D01*
X122876744Y-72416440D01*
X123069560Y-72609256D01*
X123296288Y-72760751D01*
X123352416Y-72784000D01*
X123296288Y-72807249D01*
X123069560Y-72958744D01*
X122876744Y-73151560D01*
X122725249Y-73378288D01*
X122620898Y-73630215D01*
X122567700Y-73897658D01*
X122567700Y-74170342D01*
X122620898Y-74437785D01*
X122725249Y-74689712D01*
X122876744Y-74916440D01*
X123069560Y-75109256D01*
X123296288Y-75260751D01*
X123352416Y-75284000D01*
X123296288Y-75307249D01*
X123069560Y-75458744D01*
X122876744Y-75651560D01*
X122725249Y-75878288D01*
X122620898Y-76130215D01*
X122567700Y-76397658D01*
X122567700Y-76670342D01*
X122620898Y-76937785D01*
X122725249Y-77189712D01*
X122876744Y-77416440D01*
X123069560Y-77609256D01*
X123296288Y-77760751D01*
X123352416Y-77784000D01*
X123296288Y-77807249D01*
X123069560Y-77958744D01*
X122876744Y-78151560D01*
X122725249Y-78378288D01*
X122620898Y-78630215D01*
X122567700Y-78897658D01*
X122567700Y-79170342D01*
X122620898Y-79437785D01*
X122725249Y-79689712D01*
X122876744Y-79916440D01*
X123069560Y-80109256D01*
X123296288Y-80260751D01*
X123352416Y-80284000D01*
X123296288Y-80307249D01*
X123069560Y-80458744D01*
X122876744Y-80651560D01*
X122725249Y-80878288D01*
X122620898Y-81130215D01*
X122567700Y-81397658D01*
X122567700Y-81670342D01*
X122620898Y-81937785D01*
X122725249Y-82189712D01*
X122876744Y-82416440D01*
X123069560Y-82609256D01*
X123296288Y-82760751D01*
X123548215Y-82865102D01*
X123815658Y-82918300D01*
X124088342Y-82918300D01*
X124230410Y-82890041D01*
X125872721Y-84532352D01*
X125885458Y-84547873D01*
X125770985Y-84582598D01*
X125638608Y-84653355D01*
X125522578Y-84748578D01*
X125498721Y-84777648D01*
X124230410Y-86045959D01*
X124088342Y-86017700D01*
X123815658Y-86017700D01*
X123548215Y-86070898D01*
X123296288Y-86175249D01*
X123069560Y-86326744D01*
X122876744Y-86519560D01*
X122725249Y-86746288D01*
X122620898Y-86998215D01*
X122567700Y-87265658D01*
X122567700Y-87538342D01*
X122620898Y-87805785D01*
X122725249Y-88057712D01*
X122876744Y-88284440D01*
X123069560Y-88477256D01*
X123296288Y-88628751D01*
X123352416Y-88652000D01*
X123296288Y-88675249D01*
X123069560Y-88826744D01*
X122876744Y-89019560D01*
X122725249Y-89246288D01*
X122620898Y-89498215D01*
X122567700Y-89765658D01*
X122567700Y-90038342D01*
X122620898Y-90305785D01*
X122725249Y-90557712D01*
X122876744Y-90784440D01*
X123069560Y-90977256D01*
X123296288Y-91128751D01*
X123352416Y-91152000D01*
X123296288Y-91175249D01*
X123069560Y-91326744D01*
X122876744Y-91519560D01*
X122725249Y-91746288D01*
X122620898Y-91998215D01*
X122567700Y-92265658D01*
X122567700Y-92538342D01*
X122620898Y-92805785D01*
X122725249Y-93057712D01*
X122876744Y-93284440D01*
X123069560Y-93477256D01*
X123296288Y-93628751D01*
X123352416Y-93652000D01*
X123296288Y-93675249D01*
X123069560Y-93826744D01*
X122876744Y-94019560D01*
X122725249Y-94246288D01*
X122620898Y-94498215D01*
X122567700Y-94765658D01*
X122567700Y-95038342D01*
X122620898Y-95305785D01*
X122725249Y-95557712D01*
X122876744Y-95784440D01*
X123069560Y-95977256D01*
X123296288Y-96128751D01*
X123352416Y-96152000D01*
X123296288Y-96175249D01*
X123069560Y-96326744D01*
X122876744Y-96519560D01*
X122725249Y-96746288D01*
X122620898Y-96998215D01*
X122567700Y-97265658D01*
X122567700Y-97538342D01*
X122620898Y-97805785D01*
X122725249Y-98057712D01*
X122876744Y-98284440D01*
X123069560Y-98477256D01*
X123296288Y-98628751D01*
X123352416Y-98652000D01*
X123296288Y-98675249D01*
X123069560Y-98826744D01*
X122876744Y-99019560D01*
X122725249Y-99246288D01*
X122620898Y-99498215D01*
X122567700Y-99765658D01*
X122567700Y-100038342D01*
X122620898Y-100305785D01*
X122725249Y-100557712D01*
X122876744Y-100784440D01*
X123069560Y-100977256D01*
X123296288Y-101128751D01*
X123352416Y-101152000D01*
X123296288Y-101175249D01*
X123069560Y-101326744D01*
X122876744Y-101519560D01*
X122725249Y-101746288D01*
X122620898Y-101998215D01*
X122567700Y-102265658D01*
X122567700Y-102538342D01*
X122620898Y-102805785D01*
X122725249Y-103057712D01*
X122876744Y-103284440D01*
X123069560Y-103477256D01*
X123296288Y-103628751D01*
X123352416Y-103652000D01*
X123296288Y-103675249D01*
X123069560Y-103826744D01*
X122876744Y-104019560D01*
X122725249Y-104246288D01*
X122620898Y-104498215D01*
X122567700Y-104765658D01*
X122567700Y-105038342D01*
X122620898Y-105305785D01*
X122725249Y-105557712D01*
X122876744Y-105784440D01*
X123069560Y-105977256D01*
X123296288Y-106128751D01*
X123548215Y-106233102D01*
X123815658Y-106286300D01*
X124088342Y-106286300D01*
X124355785Y-106233102D01*
X124607712Y-106128751D01*
X124834440Y-105977256D01*
X125027256Y-105784440D01*
X125107732Y-105664000D01*
X126200577Y-105664000D01*
X126238000Y-105667686D01*
X126275423Y-105664000D01*
X126275426Y-105664000D01*
X126387378Y-105652974D01*
X126531015Y-105609402D01*
X126663392Y-105538645D01*
X126779422Y-105443422D01*
X126803284Y-105414346D01*
X128020352Y-104197279D01*
X128049422Y-104173422D01*
X128144645Y-104057392D01*
X128215402Y-103925015D01*
X128258974Y-103781378D01*
X128270000Y-103669426D01*
X128270000Y-103669424D01*
X128273686Y-103632001D01*
X128270000Y-103594578D01*
X128270000Y-96439788D01*
X128383767Y-96489376D01*
X128593000Y-96535000D01*
X129393000Y-96535000D01*
X129393000Y-95577000D01*
X129647000Y-95577000D01*
X129647000Y-96535000D01*
X130447000Y-96535000D01*
X130656233Y-96489376D01*
X130852545Y-96403809D01*
X131028391Y-96281587D01*
X131177014Y-96127408D01*
X131292702Y-95947197D01*
X131364408Y-95744001D01*
X145675592Y-95744001D01*
X145747298Y-95947197D01*
X145862986Y-96127408D01*
X146011609Y-96281587D01*
X146187455Y-96403809D01*
X146383767Y-96489376D01*
X146593000Y-96535000D01*
X147393000Y-96535000D01*
X147393000Y-95577000D01*
X145802498Y-95577000D01*
X145675592Y-95744001D01*
X131364408Y-95744001D01*
X131237502Y-95577000D01*
X129647000Y-95577000D01*
X129393000Y-95577000D01*
X129373000Y-95577000D01*
X129373000Y-95323000D01*
X129393000Y-95323000D01*
X129393000Y-95303000D01*
X129647000Y-95303000D01*
X129647000Y-95323000D01*
X131237502Y-95323000D01*
X131364408Y-95155999D01*
X131292702Y-94952803D01*
X131203463Y-94813792D01*
X131226509Y-94785710D01*
X131327259Y-94597220D01*
X131389300Y-94392697D01*
X131410249Y-94180000D01*
X131389300Y-93967303D01*
X131327259Y-93762780D01*
X131226509Y-93574290D01*
X131202471Y-93545000D01*
X131226509Y-93515710D01*
X131327259Y-93327220D01*
X131389300Y-93122697D01*
X131410249Y-92910000D01*
X131389300Y-92697303D01*
X131327259Y-92492780D01*
X131226509Y-92304290D01*
X131202471Y-92275000D01*
X131226509Y-92245710D01*
X131327259Y-92057220D01*
X131389300Y-91852697D01*
X131410249Y-91640000D01*
X131389300Y-91427303D01*
X131327259Y-91222780D01*
X131226509Y-91034290D01*
X131202471Y-91005000D01*
X131226509Y-90975710D01*
X131327259Y-90787220D01*
X131338549Y-90750000D01*
X135181928Y-90750000D01*
X135194188Y-90874482D01*
X135230498Y-90994180D01*
X135289463Y-91104494D01*
X135368815Y-91201185D01*
X135465506Y-91280537D01*
X135575820Y-91339502D01*
X135695518Y-91375812D01*
X135820000Y-91388072D01*
X138534250Y-91385000D01*
X138693000Y-91226250D01*
X138693000Y-87877000D01*
X138947000Y-87877000D01*
X138947000Y-91226250D01*
X139105750Y-91385000D01*
X141820000Y-91388072D01*
X141944482Y-91375812D01*
X142064180Y-91339502D01*
X142174494Y-91280537D01*
X142271185Y-91201185D01*
X142350537Y-91104494D01*
X142409502Y-90994180D01*
X142445812Y-90874482D01*
X142458072Y-90750000D01*
X142455000Y-88035750D01*
X142296250Y-87877000D01*
X138947000Y-87877000D01*
X138693000Y-87877000D01*
X135343750Y-87877000D01*
X135185000Y-88035750D01*
X135181928Y-90750000D01*
X131338549Y-90750000D01*
X131389300Y-90582697D01*
X131410249Y-90370000D01*
X131389300Y-90157303D01*
X131327259Y-89952780D01*
X131226509Y-89764290D01*
X131202471Y-89735000D01*
X131226509Y-89705710D01*
X131327259Y-89517220D01*
X131389300Y-89312697D01*
X131410249Y-89100000D01*
X131389300Y-88887303D01*
X131327259Y-88682780D01*
X131226509Y-88494290D01*
X131202471Y-88465000D01*
X131226509Y-88435710D01*
X131327259Y-88247220D01*
X131389300Y-88042697D01*
X131410249Y-87830000D01*
X131389300Y-87617303D01*
X131327259Y-87412780D01*
X131226509Y-87224290D01*
X131202471Y-87195000D01*
X131226509Y-87165710D01*
X131327259Y-86977220D01*
X131389300Y-86772697D01*
X131410249Y-86560000D01*
X131389300Y-86347303D01*
X131327259Y-86142780D01*
X131226509Y-85954290D01*
X131202471Y-85925000D01*
X131226509Y-85895710D01*
X131327259Y-85707220D01*
X131389300Y-85502697D01*
X131410249Y-85290000D01*
X131389300Y-85077303D01*
X131327259Y-84872780D01*
X131261632Y-84750000D01*
X135181928Y-84750000D01*
X135185000Y-87464250D01*
X135343750Y-87623000D01*
X138693000Y-87623000D01*
X138693000Y-84273750D01*
X138947000Y-84273750D01*
X138947000Y-87623000D01*
X142296250Y-87623000D01*
X142455000Y-87464250D01*
X142458072Y-84750000D01*
X142445812Y-84625518D01*
X142409502Y-84505820D01*
X142350537Y-84395506D01*
X142271185Y-84298815D01*
X142174494Y-84219463D01*
X142064180Y-84160498D01*
X141944482Y-84124188D01*
X141820000Y-84111928D01*
X139105750Y-84115000D01*
X138947000Y-84273750D01*
X138693000Y-84273750D01*
X138534250Y-84115000D01*
X135820000Y-84111928D01*
X135695518Y-84124188D01*
X135575820Y-84160498D01*
X135465506Y-84219463D01*
X135368815Y-84298815D01*
X135289463Y-84395506D01*
X135230498Y-84505820D01*
X135194188Y-84625518D01*
X135181928Y-84750000D01*
X131261632Y-84750000D01*
X131226509Y-84684290D01*
X131202471Y-84655000D01*
X131226509Y-84625710D01*
X131327259Y-84437220D01*
X131389300Y-84232697D01*
X131410249Y-84020000D01*
X131389300Y-83807303D01*
X131327259Y-83602780D01*
X131226509Y-83414290D01*
X131202471Y-83385000D01*
X131226509Y-83355710D01*
X131327259Y-83167220D01*
X131389300Y-82962697D01*
X131410249Y-82750000D01*
X131389300Y-82537303D01*
X131327259Y-82332780D01*
X131226509Y-82144290D01*
X131202471Y-82115000D01*
X131226509Y-82085710D01*
X131327259Y-81897220D01*
X131389300Y-81692697D01*
X131410249Y-81480000D01*
X131389300Y-81267303D01*
X131327259Y-81062780D01*
X131226509Y-80874290D01*
X131202471Y-80845000D01*
X131226509Y-80815710D01*
X131327259Y-80627220D01*
X131389300Y-80422697D01*
X131410249Y-80210000D01*
X131389300Y-79997303D01*
X131327259Y-79792780D01*
X131226509Y-79604290D01*
X131202471Y-79575000D01*
X131226509Y-79545710D01*
X131327259Y-79357220D01*
X131389300Y-79152697D01*
X131410249Y-78940000D01*
X131389300Y-78727303D01*
X131327259Y-78522780D01*
X131226509Y-78334290D01*
X131090922Y-78169078D01*
X130925710Y-78033491D01*
X130737220Y-77932741D01*
X130532697Y-77870700D01*
X130373294Y-77855000D01*
X130282000Y-77855000D01*
X130282000Y-77139422D01*
X130285686Y-77101999D01*
X130282000Y-77064574D01*
X130270974Y-76952622D01*
X130227402Y-76808985D01*
X130156645Y-76676608D01*
X130061422Y-76560578D01*
X130032352Y-76536721D01*
X125308041Y-71812411D01*
X125336300Y-71670342D01*
X125336300Y-71397658D01*
X125283102Y-71130215D01*
X125178751Y-70878288D01*
X125027256Y-70651560D01*
X124834440Y-70458744D01*
X124607712Y-70307249D01*
X124556942Y-70286219D01*
X124663448Y-70229290D01*
X124728888Y-69990493D01*
X123952000Y-69213605D01*
X123175112Y-69990493D01*
X123240552Y-70229290D01*
X123354931Y-70282958D01*
X123296288Y-70307249D01*
X123069560Y-70458744D01*
X122876744Y-70651560D01*
X122725249Y-70878288D01*
X122620898Y-71130215D01*
X122567700Y-71397658D01*
X120040000Y-71397658D01*
X120040000Y-69106521D01*
X122562893Y-69106521D01*
X122603732Y-69376129D01*
X122696385Y-69632589D01*
X122756710Y-69745448D01*
X122995507Y-69810888D01*
X123772395Y-69034000D01*
X124131605Y-69034000D01*
X124908493Y-69810888D01*
X125147290Y-69745448D01*
X125263120Y-69498588D01*
X125328564Y-69233874D01*
X125341107Y-68961479D01*
X125300268Y-68691871D01*
X125207615Y-68435411D01*
X125147290Y-68322552D01*
X124908493Y-68257112D01*
X124131605Y-69034000D01*
X123772395Y-69034000D01*
X122995507Y-68257112D01*
X122756710Y-68322552D01*
X122640880Y-68569412D01*
X122575436Y-68834126D01*
X122562893Y-69106521D01*
X120040000Y-69106521D01*
X120040000Y-67490493D01*
X123175112Y-67490493D01*
X123240552Y-67729290D01*
X123349565Y-67780441D01*
X123240552Y-67838710D01*
X123175112Y-68077507D01*
X123952000Y-68854395D01*
X124728888Y-68077507D01*
X124663448Y-67838710D01*
X124554435Y-67787559D01*
X124663448Y-67729290D01*
X124728888Y-67490493D01*
X123952000Y-66713605D01*
X123175112Y-67490493D01*
X120040000Y-67490493D01*
X120040000Y-66606521D01*
X122562893Y-66606521D01*
X122603732Y-66876129D01*
X122696385Y-67132589D01*
X122756710Y-67245448D01*
X122995507Y-67310888D01*
X123772395Y-66534000D01*
X124131605Y-66534000D01*
X124908493Y-67310888D01*
X125147290Y-67245448D01*
X125263120Y-66998588D01*
X125328564Y-66733874D01*
X125341107Y-66461479D01*
X125300268Y-66191871D01*
X125207615Y-65935411D01*
X125147290Y-65822552D01*
X124908493Y-65757112D01*
X124131605Y-66534000D01*
X123772395Y-66534000D01*
X122995507Y-65757112D01*
X122756710Y-65822552D01*
X122640880Y-66069412D01*
X122575436Y-66334126D01*
X122562893Y-66606521D01*
X120040000Y-66606521D01*
X120040000Y-64990493D01*
X123175112Y-64990493D01*
X123240552Y-65229290D01*
X123349565Y-65280441D01*
X123240552Y-65338710D01*
X123175112Y-65577507D01*
X123952000Y-66354395D01*
X124728888Y-65577507D01*
X124663448Y-65338710D01*
X124554435Y-65287559D01*
X124663448Y-65229290D01*
X124728888Y-64990493D01*
X124626053Y-64887658D01*
X129171700Y-64887658D01*
X129171700Y-65160342D01*
X129224898Y-65427785D01*
X129329249Y-65679712D01*
X129480744Y-65906440D01*
X129673560Y-66099256D01*
X129794001Y-66179732D01*
X129794000Y-71082577D01*
X129790314Y-71120000D01*
X129794000Y-71157423D01*
X129794000Y-71157425D01*
X129805026Y-71269377D01*
X129848598Y-71413014D01*
X129881535Y-71474635D01*
X129919355Y-71545392D01*
X129953760Y-71587314D01*
X130014578Y-71661422D01*
X130043654Y-71685284D01*
X132043001Y-73684632D01*
X132043000Y-75871756D01*
X132034078Y-75879078D01*
X131898491Y-76044290D01*
X131797741Y-76232781D01*
X131735700Y-76437304D01*
X131720000Y-76596707D01*
X131720000Y-78303294D01*
X131735700Y-78462697D01*
X131797742Y-78667220D01*
X131898492Y-78855710D01*
X132034079Y-79020922D01*
X132199291Y-79156509D01*
X132387781Y-79257259D01*
X132592304Y-79319300D01*
X132805000Y-79340249D01*
X133017697Y-79319300D01*
X133222220Y-79257259D01*
X133410710Y-79156509D01*
X133440001Y-79132471D01*
X133469291Y-79156509D01*
X133657781Y-79257259D01*
X133862304Y-79319300D01*
X134075000Y-79340249D01*
X134287697Y-79319300D01*
X134492220Y-79257259D01*
X134680710Y-79156509D01*
X134710001Y-79132471D01*
X134739291Y-79156509D01*
X134927781Y-79257259D01*
X135132304Y-79319300D01*
X135345000Y-79340249D01*
X135557697Y-79319300D01*
X135762220Y-79257259D01*
X135950710Y-79156509D01*
X135980001Y-79132471D01*
X136009291Y-79156509D01*
X136197781Y-79257259D01*
X136402304Y-79319300D01*
X136615000Y-79340249D01*
X136827697Y-79319300D01*
X137032220Y-79257259D01*
X137220710Y-79156509D01*
X137250001Y-79132471D01*
X137279291Y-79156509D01*
X137467781Y-79257259D01*
X137672304Y-79319300D01*
X137885000Y-79340249D01*
X138097697Y-79319300D01*
X138302220Y-79257259D01*
X138490710Y-79156509D01*
X138520001Y-79132471D01*
X138549291Y-79156509D01*
X138737781Y-79257259D01*
X138942304Y-79319300D01*
X139155000Y-79340249D01*
X139367697Y-79319300D01*
X139572220Y-79257259D01*
X139760710Y-79156509D01*
X139790001Y-79132471D01*
X139819291Y-79156509D01*
X140007781Y-79257259D01*
X140212304Y-79319300D01*
X140425000Y-79340249D01*
X140637697Y-79319300D01*
X140842220Y-79257259D01*
X141030710Y-79156509D01*
X141060001Y-79132471D01*
X141089291Y-79156509D01*
X141277781Y-79257259D01*
X141482304Y-79319300D01*
X141695000Y-79340249D01*
X141907697Y-79319300D01*
X142112220Y-79257259D01*
X142300710Y-79156509D01*
X142330001Y-79132471D01*
X142359291Y-79156509D01*
X142547781Y-79257259D01*
X142752304Y-79319300D01*
X142965000Y-79340249D01*
X143177697Y-79319300D01*
X143382220Y-79257259D01*
X143570710Y-79156509D01*
X143598792Y-79133463D01*
X143737803Y-79222702D01*
X143940999Y-79294408D01*
X144108000Y-79167502D01*
X144108000Y-77577000D01*
X144362000Y-77577000D01*
X144362000Y-79167502D01*
X144529001Y-79294408D01*
X144732197Y-79222702D01*
X144912408Y-79107014D01*
X145066587Y-78958391D01*
X145188809Y-78782545D01*
X145274376Y-78586233D01*
X145320000Y-78377000D01*
X145320000Y-77577000D01*
X144362000Y-77577000D01*
X144108000Y-77577000D01*
X144088000Y-77577000D01*
X144088000Y-77323000D01*
X144108000Y-77323000D01*
X144108000Y-75732498D01*
X144362000Y-75732498D01*
X144362000Y-77323000D01*
X145320000Y-77323000D01*
X145320000Y-76523000D01*
X145274376Y-76313767D01*
X145188809Y-76117455D01*
X145066587Y-75941609D01*
X144912408Y-75792986D01*
X144732197Y-75677298D01*
X144529001Y-75605592D01*
X144362000Y-75732498D01*
X144108000Y-75732498D01*
X143940999Y-75605592D01*
X143737803Y-75677298D01*
X143727000Y-75684233D01*
X143727000Y-75536630D01*
X152793700Y-66469930D01*
X152793700Y-66644342D01*
X152821959Y-66786410D01*
X147007649Y-72600721D01*
X146978579Y-72624578D01*
X146954722Y-72653648D01*
X146954721Y-72653649D01*
X146883355Y-72740608D01*
X146812599Y-72872985D01*
X146769027Y-73016622D01*
X146754314Y-73166000D01*
X146758001Y-73203433D01*
X146758000Y-77855000D01*
X146666706Y-77855000D01*
X146507303Y-77870700D01*
X146302780Y-77932741D01*
X146114290Y-78033491D01*
X145949078Y-78169078D01*
X145813491Y-78334290D01*
X145712741Y-78522780D01*
X145650700Y-78727303D01*
X145629751Y-78940000D01*
X145650700Y-79152697D01*
X145712741Y-79357220D01*
X145813491Y-79545710D01*
X145837529Y-79575000D01*
X145813491Y-79604290D01*
X145712741Y-79792780D01*
X145650700Y-79997303D01*
X145629751Y-80210000D01*
X145650700Y-80422697D01*
X145712741Y-80627220D01*
X145813491Y-80815710D01*
X145837529Y-80845000D01*
X145813491Y-80874290D01*
X145712741Y-81062780D01*
X145650700Y-81267303D01*
X145629751Y-81480000D01*
X145650700Y-81692697D01*
X145712741Y-81897220D01*
X145813491Y-82085710D01*
X145837529Y-82115000D01*
X145813491Y-82144290D01*
X145712741Y-82332780D01*
X145650700Y-82537303D01*
X145629751Y-82750000D01*
X145650700Y-82962697D01*
X145712741Y-83167220D01*
X145813491Y-83355710D01*
X145837529Y-83385000D01*
X145813491Y-83414290D01*
X145712741Y-83602780D01*
X145650700Y-83807303D01*
X145629751Y-84020000D01*
X145650700Y-84232697D01*
X145712741Y-84437220D01*
X145813491Y-84625710D01*
X145837529Y-84655000D01*
X145813491Y-84684290D01*
X145712741Y-84872780D01*
X145650700Y-85077303D01*
X145629751Y-85290000D01*
X145650700Y-85502697D01*
X145712741Y-85707220D01*
X145813491Y-85895710D01*
X145837529Y-85925000D01*
X145813491Y-85954290D01*
X145712741Y-86142780D01*
X145650700Y-86347303D01*
X145629751Y-86560000D01*
X145650700Y-86772697D01*
X145712741Y-86977220D01*
X145813491Y-87165710D01*
X145837529Y-87195000D01*
X145813491Y-87224290D01*
X145712741Y-87412780D01*
X145650700Y-87617303D01*
X145629751Y-87830000D01*
X145650700Y-88042697D01*
X145712741Y-88247220D01*
X145813491Y-88435710D01*
X145837529Y-88465000D01*
X145813491Y-88494290D01*
X145712741Y-88682780D01*
X145650700Y-88887303D01*
X145629751Y-89100000D01*
X145650700Y-89312697D01*
X145712741Y-89517220D01*
X145813491Y-89705710D01*
X145837529Y-89735000D01*
X145813491Y-89764290D01*
X145712741Y-89952780D01*
X145650700Y-90157303D01*
X145629751Y-90370000D01*
X145650700Y-90582697D01*
X145712741Y-90787220D01*
X145813491Y-90975710D01*
X145837529Y-91005000D01*
X145813491Y-91034290D01*
X145712741Y-91222780D01*
X145650700Y-91427303D01*
X145629751Y-91640000D01*
X145650700Y-91852697D01*
X145712741Y-92057220D01*
X145813491Y-92245710D01*
X145837529Y-92275000D01*
X145813491Y-92304290D01*
X145712741Y-92492780D01*
X145650700Y-92697303D01*
X145629751Y-92910000D01*
X145650700Y-93122697D01*
X145712741Y-93327220D01*
X145813491Y-93515710D01*
X145837529Y-93545000D01*
X145813491Y-93574290D01*
X145712741Y-93762780D01*
X145650700Y-93967303D01*
X145629751Y-94180000D01*
X145650700Y-94392697D01*
X145712741Y-94597220D01*
X145813491Y-94785710D01*
X145836537Y-94813792D01*
X145747298Y-94952803D01*
X145675592Y-95155999D01*
X145802498Y-95323000D01*
X147393000Y-95323000D01*
X147393000Y-95303000D01*
X147647000Y-95303000D01*
X147647000Y-95323000D01*
X147667000Y-95323000D01*
X147667000Y-95577000D01*
X147647000Y-95577000D01*
X147647000Y-96535000D01*
X148447000Y-96535000D01*
X148656233Y-96489376D01*
X148852545Y-96403809D01*
X149028391Y-96281587D01*
X149177014Y-96127408D01*
X149292702Y-95947197D01*
X149364408Y-95744001D01*
X149237504Y-95577002D01*
X149405000Y-95577002D01*
X149405000Y-95489840D01*
X149860000Y-95944841D01*
X149860001Y-96524089D01*
X149855085Y-96574000D01*
X149860000Y-96623902D01*
X149860001Y-99024089D01*
X149855085Y-99074000D01*
X149874702Y-99273170D01*
X149910036Y-99389649D01*
X149932799Y-99464687D01*
X150027141Y-99641190D01*
X150154105Y-99795896D01*
X150192868Y-99827708D01*
X152793700Y-102428541D01*
X152793700Y-102512342D01*
X152846898Y-102779785D01*
X152951249Y-103031712D01*
X153102744Y-103258440D01*
X153295560Y-103451256D01*
X153522288Y-103602751D01*
X153578416Y-103626000D01*
X153522288Y-103649249D01*
X153295560Y-103800744D01*
X153102744Y-103993560D01*
X152951249Y-104220288D01*
X152846898Y-104472215D01*
X152793700Y-104739658D01*
X152793700Y-105012342D01*
X152846898Y-105279785D01*
X152951249Y-105531712D01*
X153102744Y-105758440D01*
X153295560Y-105951256D01*
X153522288Y-106102751D01*
X153774215Y-106207102D01*
X154041658Y-106260300D01*
X154314342Y-106260300D01*
X154581785Y-106207102D01*
X154833712Y-106102751D01*
X155060440Y-105951256D01*
X155253256Y-105758440D01*
X155404751Y-105531712D01*
X155509102Y-105279785D01*
X155562300Y-105012342D01*
X155562300Y-104739658D01*
X155509102Y-104472215D01*
X155404751Y-104220288D01*
X155253256Y-103993560D01*
X155060440Y-103800744D01*
X154833712Y-103649249D01*
X154777584Y-103626000D01*
X154833712Y-103602751D01*
X155060440Y-103451256D01*
X155253256Y-103258440D01*
X155404751Y-103031712D01*
X155509102Y-102779785D01*
X155562300Y-102512342D01*
X155562300Y-102239658D01*
X155509102Y-101972215D01*
X155404751Y-101720288D01*
X155253256Y-101493560D01*
X155060440Y-101300744D01*
X154833712Y-101149249D01*
X154777584Y-101126000D01*
X154833712Y-101102751D01*
X155060440Y-100951256D01*
X155253256Y-100758440D01*
X155404751Y-100531712D01*
X155509102Y-100279785D01*
X155562300Y-100012342D01*
X155562300Y-99739658D01*
X155509102Y-99472215D01*
X155404751Y-99220288D01*
X155253256Y-98993560D01*
X155060440Y-98800744D01*
X154833712Y-98649249D01*
X154777584Y-98626000D01*
X154833712Y-98602751D01*
X155060440Y-98451256D01*
X155253256Y-98258440D01*
X155404751Y-98031712D01*
X155509102Y-97779785D01*
X155562300Y-97512342D01*
X155562300Y-97239658D01*
X155509102Y-96972215D01*
X155404751Y-96720288D01*
X155253256Y-96493560D01*
X155060440Y-96300744D01*
X154833712Y-96149249D01*
X154777584Y-96126000D01*
X154833712Y-96102751D01*
X155060440Y-95951256D01*
X155253256Y-95758440D01*
X155404751Y-95531712D01*
X155509102Y-95279785D01*
X155562300Y-95012342D01*
X155562300Y-94739658D01*
X155509102Y-94472215D01*
X155404751Y-94220288D01*
X155253256Y-93993560D01*
X155060440Y-93800744D01*
X154833712Y-93649249D01*
X154777584Y-93626000D01*
X154833712Y-93602751D01*
X155060440Y-93451256D01*
X155253256Y-93258440D01*
X155404751Y-93031712D01*
X155509102Y-92779785D01*
X155562300Y-92512342D01*
X155562300Y-92239658D01*
X155509102Y-91972215D01*
X155404751Y-91720288D01*
X155253256Y-91493560D01*
X155060440Y-91300744D01*
X154833712Y-91149249D01*
X154777584Y-91126000D01*
X154833712Y-91102751D01*
X155060440Y-90951256D01*
X155253256Y-90758440D01*
X155404751Y-90531712D01*
X155509102Y-90279785D01*
X155562300Y-90012342D01*
X155562300Y-89739658D01*
X155509102Y-89472215D01*
X155404751Y-89220288D01*
X155253256Y-88993560D01*
X155060440Y-88800744D01*
X154833712Y-88649249D01*
X154777584Y-88626000D01*
X154833712Y-88602751D01*
X155060440Y-88451256D01*
X155253256Y-88258440D01*
X155404751Y-88031712D01*
X155509102Y-87779785D01*
X155562300Y-87512342D01*
X155562300Y-87239658D01*
X155509102Y-86972215D01*
X155404751Y-86720288D01*
X155253256Y-86493560D01*
X155060440Y-86300744D01*
X154833712Y-86149249D01*
X154581785Y-86044898D01*
X154314342Y-85991700D01*
X154041658Y-85991700D01*
X153774215Y-86044898D01*
X153522288Y-86149249D01*
X153295560Y-86300744D01*
X153102744Y-86493560D01*
X152951249Y-86720288D01*
X152846898Y-86972215D01*
X152827845Y-87068000D01*
X149695630Y-87068000D01*
X153899590Y-82864041D01*
X154041658Y-82892300D01*
X154314342Y-82892300D01*
X154581785Y-82839102D01*
X154833712Y-82734751D01*
X155060440Y-82583256D01*
X155253256Y-82390440D01*
X155404751Y-82163712D01*
X155509102Y-81911785D01*
X155562300Y-81644342D01*
X155562300Y-81371658D01*
X155509102Y-81104215D01*
X155404751Y-80852288D01*
X155253256Y-80625560D01*
X155060440Y-80432744D01*
X154833712Y-80281249D01*
X154777584Y-80258000D01*
X154833712Y-80234751D01*
X155060440Y-80083256D01*
X155253256Y-79890440D01*
X155404751Y-79663712D01*
X155509102Y-79411785D01*
X155562300Y-79144342D01*
X155562300Y-78871658D01*
X155509102Y-78604215D01*
X155404751Y-78352288D01*
X155253256Y-78125560D01*
X155060440Y-77932744D01*
X154833712Y-77781249D01*
X154777584Y-77758000D01*
X154833712Y-77734751D01*
X155060440Y-77583256D01*
X155253256Y-77390440D01*
X155404751Y-77163712D01*
X155509102Y-76911785D01*
X155562300Y-76644342D01*
X155562300Y-76371658D01*
X155509102Y-76104215D01*
X155404751Y-75852288D01*
X155253256Y-75625560D01*
X155060440Y-75432744D01*
X154833712Y-75281249D01*
X154777584Y-75258000D01*
X154833712Y-75234751D01*
X155060440Y-75083256D01*
X155253256Y-74890440D01*
X155404751Y-74663712D01*
X155509102Y-74411785D01*
X155562300Y-74144342D01*
X155562300Y-73871658D01*
X155509102Y-73604215D01*
X155404751Y-73352288D01*
X155253256Y-73125560D01*
X155060440Y-72932744D01*
X154833712Y-72781249D01*
X154777584Y-72758000D01*
X154833712Y-72734751D01*
X155060440Y-72583256D01*
X155253256Y-72390440D01*
X155404751Y-72163712D01*
X155509102Y-71911785D01*
X155562300Y-71644342D01*
X155562300Y-71371658D01*
X155509102Y-71104215D01*
X155404751Y-70852288D01*
X155253256Y-70625560D01*
X155060440Y-70432744D01*
X154833712Y-70281249D01*
X154777584Y-70258000D01*
X154833712Y-70234751D01*
X155060440Y-70083256D01*
X155253256Y-69890440D01*
X155404751Y-69663712D01*
X155509102Y-69411785D01*
X155562300Y-69144342D01*
X155562300Y-68871658D01*
X155509102Y-68604215D01*
X155404751Y-68352288D01*
X155253256Y-68125560D01*
X155060440Y-67932744D01*
X154833712Y-67781249D01*
X154777584Y-67758000D01*
X154833712Y-67734751D01*
X155060440Y-67583256D01*
X155253256Y-67390440D01*
X155404751Y-67163712D01*
X155509102Y-66911785D01*
X155562300Y-66644342D01*
X155562300Y-66371658D01*
X155509102Y-66104215D01*
X155404751Y-65852288D01*
X155253256Y-65625560D01*
X155060440Y-65432744D01*
X154833712Y-65281249D01*
X154777584Y-65258000D01*
X154833712Y-65234751D01*
X155060440Y-65083256D01*
X155253256Y-64890440D01*
X155404751Y-64663712D01*
X155509102Y-64411785D01*
X155562300Y-64144342D01*
X155562300Y-63871658D01*
X155509102Y-63604215D01*
X155404751Y-63352288D01*
X155253256Y-63125560D01*
X155060440Y-62932744D01*
X154833712Y-62781249D01*
X154581785Y-62676898D01*
X154314342Y-62623700D01*
X154041658Y-62623700D01*
X153774215Y-62676898D01*
X153522288Y-62781249D01*
X153295560Y-62932744D01*
X153102744Y-63125560D01*
X152951249Y-63352288D01*
X152846898Y-63604215D01*
X152793700Y-63871658D01*
X152793700Y-64144342D01*
X152821959Y-64286411D01*
X148818000Y-68290370D01*
X148818000Y-66179732D01*
X148938440Y-66099256D01*
X149131256Y-65906440D01*
X149282751Y-65679712D01*
X149387102Y-65427785D01*
X149440300Y-65160342D01*
X149440300Y-64887658D01*
X149387102Y-64620215D01*
X149282751Y-64368288D01*
X149131256Y-64141560D01*
X148938440Y-63948744D01*
X148711712Y-63797249D01*
X148459785Y-63692898D01*
X148192342Y-63639700D01*
X147919658Y-63639700D01*
X147652215Y-63692898D01*
X147400288Y-63797249D01*
X147173560Y-63948744D01*
X146980744Y-64141560D01*
X146829249Y-64368288D01*
X146806000Y-64424416D01*
X146782751Y-64368288D01*
X146631256Y-64141560D01*
X146438440Y-63948744D01*
X146211712Y-63797249D01*
X145959785Y-63692898D01*
X145692342Y-63639700D01*
X145419658Y-63639700D01*
X145152215Y-63692898D01*
X144900288Y-63797249D01*
X144673560Y-63948744D01*
X144480744Y-64141560D01*
X144329249Y-64368288D01*
X144306000Y-64424416D01*
X144282751Y-64368288D01*
X144131256Y-64141560D01*
X143938440Y-63948744D01*
X143711712Y-63797249D01*
X143459785Y-63692898D01*
X143192342Y-63639700D01*
X142919658Y-63639700D01*
X142652215Y-63692898D01*
X142400288Y-63797249D01*
X142173560Y-63948744D01*
X141980744Y-64141560D01*
X141829249Y-64368288D01*
X141806000Y-64424416D01*
X141782751Y-64368288D01*
X141631256Y-64141560D01*
X141438440Y-63948744D01*
X141211712Y-63797249D01*
X140959785Y-63692898D01*
X140692342Y-63639700D01*
X140419658Y-63639700D01*
X140152215Y-63692898D01*
X139900288Y-63797249D01*
X139673560Y-63948744D01*
X139480744Y-64141560D01*
X139329249Y-64368288D01*
X139306000Y-64424416D01*
X139282751Y-64368288D01*
X139131256Y-64141560D01*
X138938440Y-63948744D01*
X138711712Y-63797249D01*
X138459785Y-63692898D01*
X138192342Y-63639700D01*
X137919658Y-63639700D01*
X137652215Y-63692898D01*
X137400288Y-63797249D01*
X137173560Y-63948744D01*
X136980744Y-64141560D01*
X136829249Y-64368288D01*
X136806000Y-64424416D01*
X136782751Y-64368288D01*
X136631256Y-64141560D01*
X136438440Y-63948744D01*
X136211712Y-63797249D01*
X135959785Y-63692898D01*
X135692342Y-63639700D01*
X135419658Y-63639700D01*
X135152215Y-63692898D01*
X134900288Y-63797249D01*
X134673560Y-63948744D01*
X134480744Y-64141560D01*
X134329249Y-64368288D01*
X134306000Y-64424416D01*
X134282751Y-64368288D01*
X134131256Y-64141560D01*
X133938440Y-63948744D01*
X133711712Y-63797249D01*
X133459785Y-63692898D01*
X133192342Y-63639700D01*
X132919658Y-63639700D01*
X132652215Y-63692898D01*
X132400288Y-63797249D01*
X132173560Y-63948744D01*
X131980744Y-64141560D01*
X131829249Y-64368288D01*
X131806000Y-64424416D01*
X131782751Y-64368288D01*
X131631256Y-64141560D01*
X131438440Y-63948744D01*
X131211712Y-63797249D01*
X130959785Y-63692898D01*
X130692342Y-63639700D01*
X130419658Y-63639700D01*
X130152215Y-63692898D01*
X129900288Y-63797249D01*
X129673560Y-63948744D01*
X129480744Y-64141560D01*
X129329249Y-64368288D01*
X129224898Y-64620215D01*
X129171700Y-64887658D01*
X124626053Y-64887658D01*
X123952000Y-64213605D01*
X123175112Y-64990493D01*
X120040000Y-64990493D01*
X120040000Y-64106521D01*
X122562893Y-64106521D01*
X122603732Y-64376129D01*
X122696385Y-64632589D01*
X122756710Y-64745448D01*
X122995507Y-64810888D01*
X123772395Y-64034000D01*
X124131605Y-64034000D01*
X124908493Y-64810888D01*
X125147290Y-64745448D01*
X125263120Y-64498588D01*
X125328564Y-64233874D01*
X125341107Y-63961479D01*
X125300268Y-63691871D01*
X125207615Y-63435411D01*
X125147290Y-63322552D01*
X124908493Y-63257112D01*
X124131605Y-64034000D01*
X123772395Y-64034000D01*
X122995507Y-63257112D01*
X122756710Y-63322552D01*
X122640880Y-63569412D01*
X122575436Y-63834126D01*
X122562893Y-64106521D01*
X120040000Y-64106521D01*
X120040000Y-63077507D01*
X123175112Y-63077507D01*
X123952000Y-63854395D01*
X124728888Y-63077507D01*
X124663448Y-62838710D01*
X124416588Y-62722880D01*
X124151874Y-62657436D01*
X123879479Y-62644893D01*
X123609871Y-62685732D01*
X123353411Y-62778385D01*
X123240552Y-62838710D01*
X123175112Y-63077507D01*
X120040000Y-63077507D01*
X120040000Y-61620000D01*
X158114989Y-61620000D01*
X158114988Y-108560000D01*
G37*
%TD.AperFunction*%
%TD*%
M02*
