%TF.GenerationSoftware,KiCad,Pcbnew,5.1.7-a382d34a8~88~ubuntu18.04.1*%
%TF.CreationDate,2021-02-15T21:35:44+01:00*%
%TF.ProjectId,test-board-esp32-assembly,74657374-2d62-46f6-9172-642d65737033,test*%
%TF.SameCoordinates,Original*%
%TF.FileFunction,Soldermask,Bot*%
%TF.FilePolarity,Negative*%
%FSLAX46Y46*%
G04 Gerber Fmt 4.6, Leading zero omitted, Abs format (unit mm)*
G04 Created by KiCad (PCBNEW 5.1.7-a382d34a8~88~ubuntu18.04.1) date 2021-02-15 21:35:44*
%MOMM*%
%LPD*%
G01*
G04 APERTURE LIST*
%ADD10C,1.498702*%
G04 APERTURE END LIST*
D10*
%TO.C,J4*%
X123952000Y-87402000D03*
X123952000Y-89902000D03*
X123952000Y-92402000D03*
X123952000Y-94902000D03*
X123952000Y-97402000D03*
X123952000Y-99902000D03*
X123952000Y-102402000D03*
X123952000Y-104902000D03*
%TD*%
%TO.C,J1*%
X154178000Y-87376000D03*
X154178000Y-89876000D03*
X154178000Y-92376000D03*
X154178000Y-94876000D03*
X154178000Y-97376000D03*
X154178000Y-99876000D03*
X154178000Y-102376000D03*
X154178000Y-104876000D03*
%TD*%
%TO.C,J2*%
X154178000Y-81508000D03*
X154178000Y-79008000D03*
X154178000Y-76508000D03*
X154178000Y-74008000D03*
X154178000Y-71508000D03*
X154178000Y-69008000D03*
X154178000Y-66508000D03*
X154178000Y-64008000D03*
%TD*%
%TO.C,J3*%
X130556000Y-65024000D03*
X133056000Y-65024000D03*
X135556000Y-65024000D03*
X138056000Y-65024000D03*
X140556000Y-65024000D03*
X143056000Y-65024000D03*
X145556000Y-65024000D03*
X148056000Y-65024000D03*
%TD*%
%TO.C,J5*%
X123952000Y-81534000D03*
X123952000Y-79034000D03*
X123952000Y-76534000D03*
X123952000Y-74034000D03*
X123952000Y-71534000D03*
X123952000Y-69034000D03*
X123952000Y-66534000D03*
X123952000Y-64034000D03*
%TD*%
M02*
