M48
; DRILL file {KiCad 5.1.7-a382d34a8~88~ubuntu18.04.1} date Mon Feb 15 21:43:30 2021
; FORMAT={-:-/ absolute / inch / decimal}
; #@! TF.CreationDate,2021-02-15T21:43:30+01:00
; #@! TF.GenerationSoftware,Kicad,Pcbnew,5.1.7-a382d34a8~88~ubuntu18.04.1
; #@! TF.FileFunction,Plated,1,2,PTH
FMAT,2
INCH
T1C0.0390
%
G90
G05
T1
X6.07Y-3.44
X6.07Y-3.5384
X6.07Y-3.6369
X6.07Y-3.7353
X6.07Y-3.8337
X6.07Y-3.9321
X6.07Y-4.0306
X6.07Y-4.129
X5.14Y-2.56
X5.2384Y-2.56
X5.3369Y-2.56
X5.4353Y-2.56
X5.5337Y-2.56
X5.6321Y-2.56
X5.7306Y-2.56
X5.829Y-2.56
X4.88Y-3.441
X4.88Y-3.5394
X4.88Y-3.6379
X4.88Y-3.7363
X4.88Y-3.8347
X4.88Y-3.9331
X4.88Y-4.0316
X4.88Y-4.13
X6.07Y-2.52
X6.07Y-2.6184
X6.07Y-2.7169
X6.07Y-2.8153
X6.07Y-2.9137
X6.07Y-3.0121
X6.07Y-3.1106
X6.07Y-3.209
X4.88Y-2.521
X4.88Y-2.6194
X4.88Y-2.7179
X4.88Y-2.8163
X4.88Y-2.9147
X4.88Y-3.0131
X4.88Y-3.1116
X4.88Y-3.21
T0
M30
