999
dxfrw 0.6.3
  0
SECTION
  2
HEADER
  9
$ACADVER
  1
AC1021
  9
$DWGCODEPAGE
  3
ANSI_1252
  9
$INSBASE
 10
0
 20
0
 30
0
  9
$EXTMIN
 10
-26.21368703582118
 20
-312.4713625154065
 30
0
  9
$EXTMAX
 10
1555
 20
861
 30
0
  9
$LIMMIN
 10
0
 20
0
  9
$LIMMAX
 10
420
 20
297
  9
$ORTHOMODE
 70
    0
  9
$REGENMODE
 70
    1
  9
$FILLMODE
 70
    1
  9
$QTEXTMODE
 70
    0
  9
$MIRRTEXT
 70
    0
  9
$LTSCALE
 40
1
  9
$ATTMODE
 70
    0
  9
$TEXTSIZE
 40
2.5
  9
$TRACEWID
 40
15.68
  9
$TEXTSTYLE
  7
STANDARD
  9
$CLAYER
  8
layer_dimension
  9
$CELTYPE
  6
BYLAYER
  9
$CECOLOR
 62
  256
  9
$CELTSCALE
 40
1
  9
$DISPSILH
 70
    0
  9
$DIMSCALE
 40
2
  9
$DIMASZ
 40
2.5
  9
$DIMEXO
 40
0.625
  9
$DIMDLI
 40
3.75
  9
$DIMRND
 40
0
  9
$DIMDLE
 40
0
  9
$DIMEXE
 40
1.25
  9
$DIMTP
 40
0
  9
$DIMTM
 40
0
  9
$DIMTXT
 40
2.5
  9
$DIMCEN
 40
2.5
  9
$DIMTSZ
 40
0
  9
$DIMTOL
 70
    0
  9
$DIMLIM
 70
    0
  9
$DIMTIH
 70
    0
  9
$DIMTOH
 70
    0
  9
$DIMSE1
 70
    0
  9
$DIMSE2
 70
    0
  9
$DIMTAD
 70
    1
  9
$DIMZIN
 70
    8
  9
$DIMBLK
  1

  9
$DIMASO
 70
    1
  9
$DIMSHO
 70
    1
  9
$DIMPOST
  1

  9
$DIMAPOST
  1

  9
$DIMALT
 70
    0
  9
$DIMALTD
 70
    3
  9
$DIMALTF
 40
0.03937
  9
$DIMLFAC
 40
1
  9
$DIMTOFL
 70
    1
  9
$DIMTVP
 40
0
  9
$DIMTIX
 70
    0
  9
$DIMSOXD
 70
    0
  9
$DIMSAH
 70
    0
  9
$DIMBLK1
  1

  9
$DIMBLK2
  1

  9
$DIMSTYLE
  2
STANDARD
  9
$DIMCLRD
 70
    0
  9
$DIMCLRE
 70
    0
  9
$DIMCLRT
 70
    0
  9
$DIMTFAC
 40
1
  9
$DIMGAP
 40
0.625
  9
$DIMJUST
 70
    0
  9
$DIMSD1
 70
    0
  9
$DIMSD2
 70
    0
  9
$DIMTOLJ
 70
    0
  9
$DIMTZIN
 70
    8
  9
$DIMALTZ
 70
    0
  9
$DIMALTTZ
 70
    0
  9
$DIMUPT
 70
    0
  9
$DIMDEC
 70
    2
  9
$DIMTDEC
 70
    2
  9
$DIMALTU
 70
    2
  9
$DIMALTTD
 70
    3
  9
$DIMTXSTY
  7
standard
  9
$DIMAUNIT
 70
    0
  9
$DIMADEC
 70
    0
  9
$DIMALTRND
 40
0
  9
$DIMAZIN
 70
    0
  9
$DIMDSEP
 70
   44
  9
$DIMATFIT
 70
    3
  9
$DIMFRAC
 70
    0
  9
$DIMLDRBLK
  1
STANDARD
  9
$DIMLUNIT
 70
    2
  9
$DIMLWD
 70
   -2
  9
$DIMLWE
 70
   -2
  9
$DIMTMOVE
 70
    0
  9
$DIMFXL
 40
1
  9
$DIMFXLON
 70
    0
  9
$DIMJOGANG
 40
0.7854
  9
$DIMTFILL
 70
    0
  9
$DIMTFILLCLR
 70
    0
  9
$DIMARCSYM
 70
    0
  9
$DIMLTYPE
  6

  9
$DIMLTEX1
  6

  9
$DIMLTEX2
  6

  9
$LUNITS
 70
    2
  9
$LUPREC
 70
    4
  9
$SKETCHINC
 40
1
  9
$FILLETRAD
 40
0
  9
$AUNITS
 70
    0
  9
$AUPREC
 70
    2
  9
$MENU
  1
.
  9
$ELEVATION
 40
0
  9
$PELEVATION
 40
0
  9
$THICKNESS
 40
0
  9
$LIMCHECK
 70
    0
  9
$CHAMFERA
 40
0
  9
$CHAMFERB
 40
0
  9
$CHAMFERC
 40
0
  9
$CHAMFERD
 40
0
  9
$SKPOLY
 70
    0
  9
$USRTIMER
 70
    1
  9
$ANGBASE
 50
0
  9
$ANGDIR
 70
    0
  9
$PDMODE
 70
   34
  9
$PDSIZE
 40
0
  9
$PLINEWID
 40
0
  9
$SPLFRAME
 70
    0
  9
$SPLINETYPE
 70
    2
  9
$SPLINESEGS
 70
    8
  9
$HANDSEED
  5
20000
  9
$SURFTAB1
 70
    6
  9
$SURFTAB2
 70
    6
  9
$SURFTYPE
 70
    6
  9
$SURFU
 70
    6
  9
$SURFV
 70
    6
  9
$UCSBASE
  2

  9
$UCSNAME
  2

  9
$UCSORG
 10
0
 20
0
 30
0
  9
$UCSXDIR
 10
1
 20
0
 30
0
  9
$UCSYDIR
 10
0
 20
1
 30
0
  9
$UCSORTHOREF
  2

  9
$UCSORTHOVIEW
 70
    0
  9
$UCSORGTOP
 10
0
 20
0
 30
0
  9
$UCSORGBOTTOM
 10
0
 20
0
 30
0
  9
$UCSORGLEFT
 10
0
 20
0
 30
0
  9
$UCSORGRIGHT
 10
0
 20
0
 30
0
  9
$UCSORGFRONT
 10
0
 20
0
 30
0
  9
$UCSORGBACK
 10
0
 20
0
 30
0
  9
$PUCSBASE
  2

  9
$PUCSNAME
  2

  9
$PUCSORG
 10
0
 20
0
 30
0
  9
$PUCSXDIR
 10
1
 20
0
 30
0
  9
$PUCSYDIR
 10
0
 20
1
 30
0
  9
$PUCSORTHOREF
  2

  9
$PUCSORTHOVIEW
 70
    0
  9
$PUCSORGTOP
 10
0
 20
0
 30
0
  9
$PUCSORGBOTTOM
 10
0
 20
0
 30
0
  9
$PUCSORGLEFT
 10
0
 20
0
 30
0
  9
$PUCSORGRIGHT
 10
0
 20
0
 30
0
  9
$PUCSORGFRONT
 10
0
 20
0
 30
0
  9
$PUCSORGBACK
 10
0
 20
0
 30
0
  9
$USERI1
 70
    0
  9
$USERI2
 70
    0
  9
$USERI3
 70
    0
  9
$USERI4
 70
    0
  9
$USERI5
 70
    0
  9
$USERR1
 40
0
  9
$USERR2
 40
0
  9
$USERR3
 40
0
  9
$USERR4
 40
0
  9
$USERR5
 40
0
  9
$WORLDVIEW
 70
    1
  9
$SHADEDGE
 70
    3
  9
$SHADEDIF
 70
   70
  9
$TILEMODE
 70
    1
  9
$MAXACTVP
 70
   64
  9
$PINSBASE
 10
-318.9563609058623
 20
3.623785780627856
 30
0
  9
$PLIMCHECK
 70
    0
  9
$PEXTMIN
 10
0
 20
0
 30
0
  9
$PEXTMAX
 10
0
 20
0
 30
0
  9
$GRIDMODE
 70
    1
  9
$SNAPSTYLE
 70
    0
  9
$GRIDUNIT
 10
0
 20
0
  9
$PLIMMIN
 10
0
 20
0
  9
$PLIMMAX
 10
210
 20
297
  9
$UNITMODE
 70
    0
  9
$VISRETAIN
 70
    1
  9
$PLINEGEN
 70
    0
  9
$PSLTSCALE
 70
    1
  9
$TREEDEPTH
 70
 3020
  9
$CMLSTYLE
  2
Standard
  9
$CMLJUST
 70
    0
  9
$CMLSCALE
 40
20
  9
$PROXYGRAPHICS
 70
    1
  9
$MEASUREMENT
 70
    1
  9
$CELWEIGHT
370
   -1
  9
$ENDCAPS
280
    0
  9
$JOINSTYLE
280
    0
  9
$LWDISPLAY
290
    0
  9
$INSUNITS
 70
    4
  9
$HYPERLINKBASE
  1

  9
$STYLESHEET
  1

  9
$XEDIT
290
    1
  9
$CEPSNTYPE
380
    0
  9
$PSTYLEMODE
290
    1
  9
$EXTNAMES
290
    1
  9
$PSVPSCALE
 40
0.3333333333333333
  9
$OLESTARTUP
290
    0
  9
$SORTENTS
280
  127
  9
$INDEXCTL
280
    0
  9
$HIDETEXT
280
    1
  9
$XCLIPFRAME
290
    0
  9
$HALOGAP
280
    0
  9
$OBSCOLOR
 70
  257
  9
$OBSLTYPE
280
    0
  9
$INTERSECTIONDISPLAY
280
    0
  9
$INTERSECTIONCOLOR
 70
  257
  9
$DIMASSOC
280
    1
  9
$PROJECTNAME
  1

  9
$CAMERADISPLAY
290
    0
  9
$LENSLENGTH
 40
50
  9
$CAMERAHEIGHT
 40
0
  9
$STEPSPERSEC
 40
2
  9
$STEPSIZE
 40
50
  9
$3DDWFPREC
 40
2
  9
$PSOLWIDTH
 40
5
  9
$PSOLHEIGHT
 40
80
  9
$LOFTANG1
 40
1.570796326794897
  9
$LOFTANG2
 40
1.570796326794897
  9
$LOFTMAG1
 40
0
  9
$LOFTMAG2
 40
0
  9
$LOFTPARAM
 70
    7
  9
$LOFTNORMALS
280
    1
  9
$LATITUDE
 40
1
  9
$LONGITUDE
 40
1
  9
$NORTHDIRECTION
 40
0
  9
$TIMEZONE
 70
-8000
  9
$LIGHTGLYPHDISPLAY
280
    1
  9
$TILEMODELIGHTSYNCH
280
    1
  9
$SOLIDHIST
280
    1
  9
$SHOWHIST
280
    1
  9
$DWFFRAME
280
    2
  9
$DGNFRAME
280
    0
  9
$REALWORLDSCALE
290
    1
  9
$INTERFERECOLOR
 62
    1
  9
$CSHADOW
280
    0
  9
$SHADOWPLANELOCATION
 40
0
  0
ENDSEC
  0
SECTION
  2
CLASSES
  0
ENDSEC
  0
SECTION
  2
TABLES
  0
TABLE
  2
VPORT
  5
8
330
0
100
AcDbSymbolTable
 70
    1
  0
VPORT
  5
31
330
2
100
AcDbSymbolTableRecord
100
AcDbViewportTableRecord
  2
*ACTIVE
 70
    0
 10
0
 20
0
 11
1
 21
1
 12
1180.240013666747
 22
520.4706498036835
 13
0
 23
0
 14
10
 24
10
 15
10
 25
10
 16
0
 26
0
 36
1
 17
0
 27
0
 37
0
 40
1054.871171013305
 41
1.663865546218487
 42
50
 43
0
 44
0
 50
0
 51
0
 71
    0
 72
  100
 73
    1
 74
    3
 75
    0
 76
    1
 77
    0
 78
    0
281
    0
 65
    1
110
0
120
0
130
0
111
1
121
0
131
0
112
0
122
1
132
0
 79
    0
146
0
348
10020
 60
    7
 61
    5
292
1
282
    1
141
0
142
0
 63
  250
421
3358443
  0
ENDTAB
  0
TABLE
  2
LTYPE
  5
5
330
0
100
AcDbSymbolTable
 70
    4
  0
LTYPE
  5
14
330
5
100
AcDbSymbolTableRecord
100
AcDbLinetypeTableRecord
  2
ByBlock
 70
    0
  3

 72
   65
 73
    0
 40
0
  0
LTYPE
  5
15
330
5
100
AcDbSymbolTableRecord
100
AcDbLinetypeTableRecord
  2
ByLayer
 70
    0
  3

 72
   65
 73
    0
 40
0
  0
LTYPE
  5
16
330
5
100
AcDbSymbolTableRecord
100
AcDbLinetypeTableRecord
  2
Continuous
 70
    0
  3
Solid line
 72
   65
 73
    0
 40
0
  0
LTYPE
  5
32
330
5
100
AcDbSymbolTableRecord
100
AcDbLinetypeTableRecord
  2
DOT
 70
    0
  3
Dot . . . . . . . . . . . . . . . . . . . . . .
 72
   65
 73
    2
 40
6.35
 49
0
 74
    0
 49
-6.35
 74
    0
  0
LTYPE
  5
33
330
5
100
AcDbSymbolTableRecord
100
AcDbLinetypeTableRecord
  2
DOTTINY
 70
    0
  3
Dot (.15x) .....................................
 72
   65
 73
    2
 40
0.9525
 49
0
 74
    0
 49
-0.9525
 74
    0
  0
LTYPE
  5
34
330
5
100
AcDbSymbolTableRecord
100
AcDbLinetypeTableRecord
  2
DOT2
 70
    0
  3
Dot (.5x) .....................................
 72
   65
 73
    2
 40
3.175
 49
0
 74
    0
 49
-3.175
 74
    0
  0
LTYPE
  5
35
330
5
100
AcDbSymbolTableRecord
100
AcDbLinetypeTableRecord
  2
DOTX2
 70
    0
  3
Dot (2x) .  .  .  .  .  .  .  .  .  .  .  .  .
 72
   65
 73
    2
 40
12.7
 49
0
 74
    0
 49
-12.7
 74
    0
  0
LTYPE
  5
36
330
5
100
AcDbSymbolTableRecord
100
AcDbLinetypeTableRecord
  2
DASHED
 70
    0
  3
Dashed _ _ _ _ _ _ _ _ _ _ _ _ _ _ _ _ _
 72
   65
 73
    2
 40
19.05
 49
12.7
 74
    0
 49
-6.35
 74
    0
  0
LTYPE
  5
37
330
5
100
AcDbSymbolTableRecord
100
AcDbLinetypeTableRecord
  2
DASHEDTINY
 70
    0
  3
Dashed (.15x) _ _ _ _ _ _ _ _ _ _ _ _ _ _ _ _ _
 72
   65
 73
    2
 40
2.8575
 49
1.905
 74
    0
 49
-0.9525
 74
    0
  0
LTYPE
  5
38
330
5
100
AcDbSymbolTableRecord
100
AcDbLinetypeTableRecord
  2
DASHED2
 70
    0
  3
Dashed (.5x) _ _ _ _ _ _ _ _ _ _ _ _ _ _ _ _ _
 72
   65
 73
    2
 40
9.524999999999999
 49
6.35
 74
    0
 49
-3.175
 74
    0
  0
LTYPE
  5
39
330
5
100
AcDbSymbolTableRecord
100
AcDbLinetypeTableRecord
  2
DASHEDX2
 70
    0
  3
Dashed (2x) ____  ____  ____  ____  ____  ___
 72
   65
 73
    2
 40
38.09999999999999
 49
25.4
 74
    0
 49
-12.7
 74
    0
  0
LTYPE
  5
3A
330
5
100
AcDbSymbolTableRecord
100
AcDbLinetypeTableRecord
  2
DASHDOT
 70
    0
  3
Dash dot __ . __ . __ . __ . __ . __ . __ . __
 72
   65
 73
    4
 40
25.4
 49
12.7
 74
    0
 49
-6.35
 74
    0
 49
0
 74
    0
 49
-6.35
 74
    0
  0
LTYPE
  5
3B
330
5
100
AcDbSymbolTableRecord
100
AcDbLinetypeTableRecord
  2
DASHDOTTINY
 70
    0
  3
Dash dot (.15x) _._._._._._._._._._._._._._._.
 72
   65
 73
    4
 40
3.81
 49
1.905
 74
    0
 49
-0.9525
 74
    0
 49
0
 74
    0
 49
-0.9525
 74
    0
  0
LTYPE
  5
3C
330
5
100
AcDbSymbolTableRecord
100
AcDbLinetypeTableRecord
  2
DASHDOT2
 70
    0
  3
Dash dot (.5x) _._._._._._._._._._._._._._._.
 72
   65
 73
    4
 40
12.7
 49
6.35
 74
    0
 49
-3.175
 74
    0
 49
0
 74
    0
 49
-3.175
 74
    0
  0
LTYPE
  5
3D
330
5
100
AcDbSymbolTableRecord
100
AcDbLinetypeTableRecord
  2
DASHDOTX2
 70
    0
  3
Dash dot (2x) ____  .  ____  .  ____  .  ___
 72
   65
 73
    4
 40
50.8
 49
25.4
 74
    0
 49
-12.7
 74
    0
 49
0
 74
    0
 49
-12.7
 74
    0
  0
LTYPE
  5
3E
330
5
100
AcDbSymbolTableRecord
100
AcDbLinetypeTableRecord
  2
DIVIDE
 70
    0
  3
Divide ____ . . ____ . . ____ . . ____ . . ____
 72
   65
 73
    6
 40
31.75
 49
12.7
 74
    0
 49
-6.35
 74
    0
 49
0
 74
    0
 49
-6.35
 74
    0
 49
0
 74
    0
 49
-6.35
 74
    0
  0
LTYPE
  5
3F
330
5
100
AcDbSymbolTableRecord
100
AcDbLinetypeTableRecord
  2
DIVIDETINY
 70
    0
  3
Divide (.15x) __..__..__..__..__..__..__..__.._
 72
   65
 73
    6
 40
4.7625
 49
1.905
 74
    0
 49
-0.9525
 74
    0
 49
0
 74
    0
 49
-0.9525
 74
    0
 49
0
 74
    0
 49
-0.9525
 74
    0
  0
LTYPE
  5
40
330
5
100
AcDbSymbolTableRecord
100
AcDbLinetypeTableRecord
  2
DIVIDE2
 70
    0
  3
Divide (.5x) __..__..__..__..__..__..__..__.._
 72
   65
 73
    6
 40
15.875
 49
6.35
 74
    0
 49
-3.175
 74
    0
 49
0
 74
    0
 49
-3.175
 74
    0
 49
0
 74
    0
 49
-3.175
 74
    0
  0
LTYPE
  5
41
330
5
100
AcDbSymbolTableRecord
100
AcDbLinetypeTableRecord
  2
DIVIDEX2
 70
    0
  3
Divide (2x) ________  .  .  ________  .  .  _
 72
   65
 73
    6
 40
63.5
 49
25.4
 74
    0
 49
-12.7
 74
    0
 49
0
 74
    0
 49
-12.7
 74
    0
 49
0
 74
    0
 49
-12.7
 74
    0
  0
LTYPE
  5
42
330
5
100
AcDbSymbolTableRecord
100
AcDbLinetypeTableRecord
  2
BORDER
 70
    0
  3
Border __ __ . __ __ . __ __ . __ __ . __ __ .
 72
   65
 73
    6
 40
44.45
 49
12.7
 74
    0
 49
-6.35
 74
    0
 49
12.7
 74
    0
 49
-6.35
 74
    0
 49
0
 74
    0
 49
-6.35
 74
    0
  0
LTYPE
  5
43
330
5
100
AcDbSymbolTableRecord
100
AcDbLinetypeTableRecord
  2
BORDERTINY
 70
    0
  3
Border (.15x) __.__.__.__.__.__.__.__.__.__.__.
 72
   65
 73
    6
 40
6.6675
 49
1.905
 74
    0
 49
-0.9525
 74
    0
 49
1.905
 74
    0
 49
-0.9525
 74
    0
 49
0
 74
    0
 49
-0.9525
 74
    0
  0
LTYPE
  5
44
330
5
100
AcDbSymbolTableRecord
100
AcDbLinetypeTableRecord
  2
BORDER2
 70
    0
  3
Border (.5x) __.__.__.__.__.__.__.__.__.__.__.
 72
   65
 73
    6
 40
22.225
 49
6.35
 74
    0
 49
-3.175
 74
    0
 49
6.35
 74
    0
 49
-3.175
 74
    0
 49
0
 74
    0
 49
-3.175
 74
    0
  0
LTYPE
  5
45
330
5
100
AcDbSymbolTableRecord
100
AcDbLinetypeTableRecord
  2
BORDERX2
 70
    0
  3
Border (2x) ____  ____  .  ____  ____  .  ___
 72
   65
 73
    6
 40
88.89999999999999
 49
25.4
 74
    0
 49
-12.7
 74
    0
 49
25.4
 74
    0
 49
-12.7
 74
    0
 49
0
 74
    0
 49
-12.7
 74
    0
  0
LTYPE
  5
46
330
5
100
AcDbSymbolTableRecord
100
AcDbLinetypeTableRecord
  2
CENTER
 70
    0
  3
Center ____ _ ____ _ ____ _ ____ _ ____ _ ____
 72
   65
 73
    4
 40
50.8
 49
31.75
 74
    0
 49
-6.35
 74
    0
 49
6.35
 74
    0
 49
-6.35
 74
    0
  0
LTYPE
  5
47
330
5
100
AcDbSymbolTableRecord
100
AcDbLinetypeTableRecord
  2
CENTERTINY
 70
    0
  3
Center (.15x) ___ _ ___ _ ___ _ ___ _ ___ _ ___
 72
   65
 73
    4
 40
7.619999999999999
 49
4.7625
 74
    0
 49
-0.9525
 74
    0
 49
0.9525
 74
    0
 49
-0.9525
 74
    0
  0
LTYPE
  5
48
330
5
100
AcDbSymbolTableRecord
100
AcDbLinetypeTableRecord
  2
CENTER2
 70
    0
  3
Center (.5x) ___ _ ___ _ ___ _ ___ _ ___ _ ___
 72
   65
 73
    4
 40
28.575
 49
19.05
 74
    0
 49
-3.175
 74
    0
 49
3.175
 74
    0
 49
-3.175
 74
    0
  0
LTYPE
  5
49
330
5
100
AcDbSymbolTableRecord
100
AcDbLinetypeTableRecord
  2
CENTERX2
 70
    0
  3
Center (2x) ________  __  ________  __  _____
 72
   65
 73
    4
 40
101.6
 49
63.5
 74
    0
 49
-12.7
 74
    0
 49
12.7
 74
    0
 49
-12.7
 74
    0
  0
ENDTAB
  0
TABLE
  2
LAYER
  5
2
330
0
100
AcDbSymbolTable
 70
    1
  0
LAYER
  5
10
330
2
100
AcDbSymbolTableRecord
100
AcDbLayerTableRecord
  2
0
 70
    0
 62
    7
  6
CONTINUOUS
370
   80
390
F
  0
LAYER
  5
4A
330
2
100
AcDbSymbolTableRecord
100
AcDbLayerTableRecord
  2
escala-1-1
 70
    0
 62
    7
  6
CONTINUOUS
370
    0
390
F
  0
LAYER
  5
4B
330
2
100
AcDbSymbolTableRecord
100
AcDbLayerTableRecord
  2
front
 70
    0
 62
    7
  6
CONTINUOUS
370
    0
390
F
  0
LAYER
  5
4C
330
2
100
AcDbSymbolTableRecord
100
AcDbLayerTableRecord
  2
layer_2
 70
    0
 62
    7
  6
CONTINUOUS
370
   50
390
F
  0
LAYER
  5
4D
330
2
100
AcDbSymbolTableRecord
100
AcDbLayerTableRecord
  2
layer_3
 70
    0
 62
    7
  6
CONTINUOUS
370
   35
390
F
  0
LAYER
  5
4E
330
2
100
AcDbSymbolTableRecord
100
AcDbLayerTableRecord
  2
layer_dimension
 70
    0
 62
    5
  6
CONTINUOUS
370
    0
390
F
  0
LAYER
  5
4F
330
2
100
AcDbSymbolTableRecord
100
AcDbLayerTableRecord
  2
reference
 70
    1
 62
    4
  6
CONTINUOUS
370
    0
390
F
  0
LAYER
  5
50
330
2
100
AcDbSymbolTableRecord
100
AcDbLayerTableRecord
  2
text
 70
    0
 62
    7
  6
CONTINUOUS
370
    0
390
F
  0
ENDTAB
  0
TABLE
  2
STYLE
  5
3
330
0
100
AcDbSymbolTable
 70
    3
  0
STYLE
  5
51
330
2
100
AcDbSymbolTableRecord
100
AcDbTextStyleTableRecord
  2
standard
 70
    0
 40
0
 41
1
 50
0
 71
    0
 42
1
  3
standard
  4

  0
ENDTAB
  0
TABLE
  2
VIEW
  5
6
330
0
100
AcDbSymbolTable
 70
    0
  0
ENDTAB
  0
TABLE
  2
UCS
  5
7
330
0
100
AcDbSymbolTable
 70
    0
  0
ENDTAB
  0
TABLE
  2
APPID
  5
9
330
0
100
AcDbSymbolTable
 70
    1
  0
APPID
  5
12
330
9
100
AcDbSymbolTableRecord
100
AcDbRegAppTableRecord
  2
ACAD
 70
    0
  0
APPID
  5
52
330
9
100
AcDbSymbolTableRecord
100
AcDbRegAppTableRecord
  2
LibreCad
 70
    0
  0
ENDTAB
  0
TABLE
  2
DIMSTYLE
  5
A
330
0
100
AcDbSymbolTable
 70
    1
100
AcDbDimStyleTable
 71
    1
  0
DIMSTYLE
105
53
330
A
100
AcDbSymbolTableRecord
100
AcDbDimStyleTableRecord
  2
Standard
 70
    0
 40
2
 41
2.5
 42
0.625
 43
0.38
 44
1.25
 45
0
 46
0
 47
0
 48
0
 49
1
140
2.5
141
0.09
142
0
143
25.4
144
1
145
0
146
1
147
0.625
148
0
 71
    0
 72
    0
 73
    0
 74
    1
 75
    0
 76
    0
 77
    0
 78
    8
 79
    0
170
    0
171
    2
172
    0
173
    0
174
    0
175
    0
176
    0
177
    0
178
    0
179
    0
271
    2
272
    4
273
    2
274
    2
275
    0
276
    0
277
    2
278
   44
279
    0
280
    0
281
    0
282
    0
283
    1
284
    0
285
    0
286
    0
288
    0
289
    3
340
standard
341

371
   -2
372
   -2
  0
ENDTAB
  0
TABLE
  2
BLOCK_RECORD
  5
1
330
0
100
AcDbSymbolTable
 70
    2
  0
BLOCK_RECORD
  5
1F
330
1
100
AcDbSymbolTableRecord
100
AcDbBlockTableRecord
  2
*Model_Space
 70
    0
280
    1
281
    0
  0
BLOCK_RECORD
  5
1E
330
1
100
AcDbSymbolTableRecord
100
AcDbBlockTableRecord
  2
*Paper_Space
 70
    0
280
    1
281
    0
  0
BLOCK_RECORD
  5
54
330
1
100
AcDbSymbolTableRecord
100
AcDbBlockTableRecord
  2
*D2
 70
    0
280
    1
281
    0
  0
BLOCK_RECORD
  5
57
330
1
100
AcDbSymbolTableRecord
100
AcDbBlockTableRecord
  2
*D12
 70
    0
280
    1
281
    0
  0
BLOCK_RECORD
  5
5A
330
1
100
AcDbSymbolTableRecord
100
AcDbBlockTableRecord
  2
*D31
 70
    0
280
    1
281
    0
  0
BLOCK_RECORD
  5
5D
330
1
100
AcDbSymbolTableRecord
100
AcDbBlockTableRecord
  2
*D18
 70
    0
280
    1
281
    0
  0
BLOCK_RECORD
  5
60
330
1
100
AcDbSymbolTableRecord
100
AcDbBlockTableRecord
  2
*D5
 70
    0
280
    1
281
    0
  0
BLOCK_RECORD
  5
63
330
1
100
AcDbSymbolTableRecord
100
AcDbBlockTableRecord
  2
*D26
 70
    0
280
    1
281
    0
  0
BLOCK_RECORD
  5
66
330
1
100
AcDbSymbolTableRecord
100
AcDbBlockTableRecord
  2
*D16
 70
    0
280
    1
281
    0
  0
BLOCK_RECORD
  5
69
330
1
100
AcDbSymbolTableRecord
100
AcDbBlockTableRecord
  2
*D36
 70
    0
280
    1
281
    0
  0
BLOCK_RECORD
  5
6C
330
1
100
AcDbSymbolTableRecord
100
AcDbBlockTableRecord
  2
*D10
 70
    0
280
    1
281
    0
  0
BLOCK_RECORD
  5
6F
330
1
100
AcDbSymbolTableRecord
100
AcDbBlockTableRecord
  2
*D24
 70
    0
280
    1
281
    0
  0
BLOCK_RECORD
  5
72
330
1
100
AcDbSymbolTableRecord
100
AcDbBlockTableRecord
  2
*D32
 70
    0
280
    1
281
    0
  0
BLOCK_RECORD
  5
75
330
1
100
AcDbSymbolTableRecord
100
AcDbBlockTableRecord
  2
*D34
 70
    0
280
    1
281
    0
  0
BLOCK_RECORD
  5
78
330
1
100
AcDbSymbolTableRecord
100
AcDbBlockTableRecord
  2
*D4
 70
    0
280
    1
281
    0
  0
BLOCK_RECORD
  5
7B
330
1
100
AcDbSymbolTableRecord
100
AcDbBlockTableRecord
  2
*D25
 70
    0
280
    1
281
    0
  0
BLOCK_RECORD
  5
7E
330
1
100
AcDbSymbolTableRecord
100
AcDbBlockTableRecord
  2
*D35
 70
    0
280
    1
281
    0
  0
BLOCK_RECORD
  5
81
330
1
100
AcDbSymbolTableRecord
100
AcDbBlockTableRecord
  2
*D17
 70
    0
280
    1
281
    0
  0
BLOCK_RECORD
  5
84
330
1
100
AcDbSymbolTableRecord
100
AcDbBlockTableRecord
  2
*D9
 70
    0
280
    1
281
    0
  0
BLOCK_RECORD
  5
87
330
1
100
AcDbSymbolTableRecord
100
AcDbBlockTableRecord
  2
*D20
 70
    0
280
    1
281
    0
  0
BLOCK_RECORD
  5
8A
330
1
100
AcDbSymbolTableRecord
100
AcDbBlockTableRecord
  2
*D1
 70
    0
280
    1
281
    0
  0
BLOCK_RECORD
  5
8D
330
1
100
AcDbSymbolTableRecord
100
AcDbBlockTableRecord
  2
*D33
 70
    0
280
    1
281
    0
  0
BLOCK_RECORD
  5
90
330
1
100
AcDbSymbolTableRecord
100
AcDbBlockTableRecord
  2
*D6
 70
    0
280
    1
281
    0
  0
BLOCK_RECORD
  5
93
330
1
100
AcDbSymbolTableRecord
100
AcDbBlockTableRecord
  2
*D7
 70
    0
280
    1
281
    0
  0
BLOCK_RECORD
  5
96
330
1
100
AcDbSymbolTableRecord
100
AcDbBlockTableRecord
  2
*D22
 70
    0
280
    1
281
    0
  0
BLOCK_RECORD
  5
99
330
1
100
AcDbSymbolTableRecord
100
AcDbBlockTableRecord
  2
*D27
 70
    0
280
    1
281
    0
  0
BLOCK_RECORD
  5
9C
330
1
100
AcDbSymbolTableRecord
100
AcDbBlockTableRecord
  2
*D23
 70
    0
280
    1
281
    0
  0
BLOCK_RECORD
  5
9F
330
1
100
AcDbSymbolTableRecord
100
AcDbBlockTableRecord
  2
*D3
 70
    0
280
    1
281
    0
  0
BLOCK_RECORD
  5
A2
330
1
100
AcDbSymbolTableRecord
100
AcDbBlockTableRecord
  2
*D21
 70
    0
280
    1
281
    0
  0
BLOCK_RECORD
  5
A5
330
1
100
AcDbSymbolTableRecord
100
AcDbBlockTableRecord
  2
*D29
 70
    0
280
    1
281
    0
  0
BLOCK_RECORD
  5
A8
330
1
100
AcDbSymbolTableRecord
100
AcDbBlockTableRecord
  2
*D13
 70
    0
280
    1
281
    0
  0
BLOCK_RECORD
  5
AB
330
1
100
AcDbSymbolTableRecord
100
AcDbBlockTableRecord
  2
*D19
 70
    0
280
    1
281
    0
  0
BLOCK_RECORD
  5
AE
330
1
100
AcDbSymbolTableRecord
100
AcDbBlockTableRecord
  2
*D30
 70
    0
280
    1
281
    0
  0
BLOCK_RECORD
  5
B1
330
1
100
AcDbSymbolTableRecord
100
AcDbBlockTableRecord
  2
*D11
 70
    0
280
    1
281
    0
  0
BLOCK_RECORD
  5
B4
330
1
100
AcDbSymbolTableRecord
100
AcDbBlockTableRecord
  2
*D15
 70
    0
280
    1
281
    0
  0
BLOCK_RECORD
  5
B7
330
1
100
AcDbSymbolTableRecord
100
AcDbBlockTableRecord
  2
*D14
 70
    0
280
    1
281
    0
  0
BLOCK_RECORD
  5
BA
330
1
100
AcDbSymbolTableRecord
100
AcDbBlockTableRecord
  2
*D8
 70
    0
280
    1
281
    0
  0
BLOCK_RECORD
  5
BD
330
1
100
AcDbSymbolTableRecord
100
AcDbBlockTableRecord
  2
*D28
 70
    0
280
    1
281
    0
  0
ENDTAB
  0
ENDSEC
  0
SECTION
  2
BLOCKS
  0
BLOCK
  5
20
330
1F
100
AcDbEntity
  8
0
100
AcDbBlockBegin
  2
*Model_Space
 70
    0
 10
0
 20
0
 30
0
  3
*Model_Space
  1

  0
ENDBLK
  5
21
330
1F
100
AcDbEntity
  8
0
100
AcDbBlockEnd
  0
BLOCK
  5
1C
330
1B
100
AcDbEntity
  8
0
100
AcDbBlockBegin
  2
*Paper_Space
 70
    0
 10
0
 20
0
 30
0
  3
*Paper_Space
  1

  0
ENDBLK
  5
1D
330
1F
100
AcDbEntity
  8
0
100
AcDbBlockEnd
  0
BLOCK
  5
55
330
54
100
AcDbEntity
  8
0
100
AcDbBlockBegin
  2
*D2
 70
    1
 10
0
 20
0
  3
*D2
  1

  0
LINE
  5
C0
100
AcDbEntity
  8
layer_dimension
  6
ByBlock
 62
    0
370
   -2
100
AcDbLine
 10
-9.963687035821177
 20
300.0286374845935
 11
-9.963687035821181
 21
230.0286374845935
  0
SOLID
  5
C1
100
AcDbEntity
  8
layer_dimension
  6
ByBlock
 62
    0
370
   -2
100
AcDbTrace
 10
-9.963687035821177
 20
300.0286374845935
 30
0
 11
-9.131117720275496
 21
295.0286374845935
 31
0
 12
-10.79625635136686
 22
295.0286374845935
 32
0
 13
-10.79625635136686
 23
295.0286374845935
 33
0
  0
SOLID
  5
C2
100
AcDbEntity
  8
layer_dimension
  6
ByBlock
 62
    0
370
   -2
100
AcDbTrace
 10
-9.963687035821181
 20
230.0286374845935
 30
0
 11
-10.79625635136686
 21
235.0286374845935
 31
0
 12
-9.131117720275499
 22
235.0286374845935
 32
0
 13
-9.131117720275499
 23
235.0286374845935
 33
0
  0
MTEXT
  5
C3
100
AcDbEntity
  8
layer_dimension
  6
CONTINUOUS
 62
    0
370
   -2
100
AcDbMText
 10
-13.71368703582118
 20
265.0286374845935
 30
0
 40
5
 41
6.111111111111112
 71
    5
 72
    1
  1
70
  7
standard
210
0
220
0
230
1
 50
90
 73
    2
 44
1
  0
LINE
  5
C4
100
AcDbEntity
  8
layer_dimension
  6
ByBlock
 62
    0
370
   -2
100
AcDbLine
 10
-1.213687035821181
 20
300.0286374845935
 11
-12.46368703582118
 21
300.0286374845935
  0
LINE
  5
C5
100
AcDbEntity
  8
layer_dimension
  6
ByBlock
 62
    0
370
   -2
100
AcDbLine
 10
-1.213687035821181
 20
230.0286374845935
 11
-12.46368703582118
 21
230.0286374845935
  0
ENDBLK
  5
56
330
54
100
AcDbEntity
  8
0
100
AcDbBlockEnd
  0
BLOCK
  5
58
330
57
100
AcDbEntity
  8
0
100
AcDbBlockBegin
  2
*D12
 70
    1
 10
0
 20
0
  3
*D12
  1

  0
LINE
  5
C6
100
AcDbEntity
  8
layer_dimension
  6
ByBlock
 62
    0
370
   -2
100
AcDbLine
 10
0.03631296417884755
 20
-309.9713625154065
 11
150.0363129641788
 21
-309.9713625154065
  0
SOLID
  5
C7
100
AcDbEntity
  8
layer_dimension
  6
ByBlock
 62
    0
370
   -2
100
AcDbTrace
 10
0.03631296417884755
 20
-309.9713625154065
 30
0
 11
5.036312964178848
 21
-309.1387931998608
 31
0
 12
5.036312964178848
 22
-310.8039318309522
 32
0
 13
5.036312964178848
 23
-310.8039318309522
 33
0
  0
SOLID
  5
C8
100
AcDbEntity
  8
layer_dimension
  6
ByBlock
 62
    0
370
   -2
100
AcDbTrace
 10
150.0363129641788
 20
-309.9713625154065
 30
0
 11
145.0363129641788
 21
-310.8039318309522
 31
0
 12
145.0363129641788
 22
-309.1387931998608
 32
0
 13
145.0363129641788
 23
-309.1387931998608
 33
0
  0
MTEXT
  5
C9
100
AcDbEntity
  8
layer_dimension
  6
CONTINUOUS
 62
    0
370
   -2
100
AcDbMText
 10
75.03631296417882
 20
-306.2213625154065
 30
0
 40
5
 41
8.888888888889198
 71
    5
 72
    1
  1
150
  7
standard
210
0
220
0
230
1
 50
0
 73
    2
 44
1
  0
LINE
  5
CA
100
AcDbEntity
  8
layer_dimension
  6
ByBlock
 62
    0
370
   -2
100
AcDbLine
 10
0.03631296417882223
 20
-301.2213625154065
 11
0.03631296417885375
 21
-312.4713625154065
  0
LINE
  5
CB
100
AcDbEntity
  8
layer_dimension
  6
ByBlock
 62
    0
370
   -2
100
AcDbLine
 10
150.0363129641788
 20
-301.2213625154065
 11
150.0363129641788
 21
-312.4713625154065
  0
ENDBLK
  5
59
330
57
100
AcDbEntity
  8
0
100
AcDbBlockEnd
  0
BLOCK
  5
5B
330
5A
100
AcDbEntity
  8
0
100
AcDbBlockBegin
  2
*D31
 70
    1
 10
0
 20
0
  3
*D31
  1

  0
LINE
  5
CC
100
AcDbEntity
  8
layer_dimension
  6
ByBlock
 62
    0
370
   -2
100
AcDbLine
 10
1055.269573874186
 20
202.8172043979565
 11
1205.269573874186
 21
202.8172043979565
  0
SOLID
  5
CD
100
AcDbEntity
  8
layer_dimension
  6
ByBlock
 62
    0
370
   -2
100
AcDbTrace
 10
1055.269573874186
 20
202.8172043979565
 30
0
 11
1060.269573874186
 21
203.6497737135021
 31
0
 12
1060.269573874186
 22
201.9846350824108
 32
0
 13
1060.269573874186
 23
201.9846350824108
 33
0
  0
SOLID
  5
CE
100
AcDbEntity
  8
layer_dimension
  6
ByBlock
 62
    0
370
   -2
100
AcDbTrace
 10
1205.269573874186
 20
202.8172043979565
 30
0
 11
1200.269573874186
 21
201.9846350824108
 31
0
 12
1200.269573874186
 22
203.6497737135021
 32
0
 13
1200.269573874186
 23
203.6497737135021
 33
0
  0
MTEXT
  5
CF
100
AcDbEntity
  8
layer_dimension
  6
CONTINUOUS
 62
    0
370
   -2
100
AcDbMText
 10
1130.269573874186
 20
206.5672043979565
 30
0
 40
5
 41
8.888888888889198
 71
    5
 72
    1
  1
150
  7
standard
210
0
220
0
230
1
 50
0
 73
    2
 44
1
  0
LINE
  5
D0
100
AcDbEntity
  8
layer_dimension
  6
ByBlock
 62
    0
370
   -2
100
AcDbLine
 10
1055.269573874186
 20
211.5672043979565
 11
1055.269573874186
 21
200.3172043979565
  0
LINE
  5
D1
100
AcDbEntity
  8
layer_dimension
  6
ByBlock
 62
    0
370
   -2
100
AcDbLine
 10
1205.269573874186
 20
211.5672043979565
 11
1205.269573874186
 21
200.3172043979565
  0
ENDBLK
  5
5C
330
5A
100
AcDbEntity
  8
0
100
AcDbBlockEnd
  0
BLOCK
  5
5E
330
5D
100
AcDbEntity
  8
0
100
AcDbBlockBegin
  2
*D18
 70
    1
 10
0
 20
0
  3
*D18
  1

  0
LINE
  5
D2
100
AcDbEntity
  8
layer_dimension
  6
ByBlock
 62
    0
370
   -2
100
AcDbLine
 10
61.03631296417882
 20
70
 11
89.03631296417882
 21
70
  0
SOLID
  5
D3
100
AcDbEntity
  8
layer_dimension
  6
ByBlock
 62
    0
370
   -2
100
AcDbTrace
 10
71.03631296417882
 20
70
 30
0
 11
66.03631296417882
 21
69.16743068445432
 31
0
 12
66.03631296417882
 22
70.83256931554568
 32
0
 13
66.03631296417882
 23
70.83256931554568
 33
0
  0
SOLID
  5
D4
100
AcDbEntity
  8
layer_dimension
  6
ByBlock
 62
    0
370
   -2
100
AcDbTrace
 10
79.03631296417882
 20
70
 30
0
 11
84.03631296417882
 21
70.83256931554568
 31
0
 12
84.03631296417882
 22
69.16743068445432
 32
0
 13
84.03631296417882
 23
69.16743068445432
 33
0
  0
MTEXT
  5
D5
100
AcDbEntity
  8
layer_dimension
  6
CONTINUOUS
 62
    0
370
   -2
100
AcDbMText
 10
75.03631296417882
 20
73.75
 30
0
 40
5
 41
2.222222222222222
 71
    5
 72
    1
  1
8
  7
standard
210
0
220
0
230
1
 50
0
 73
    2
 44
1
  0
LINE
  5
D6
100
AcDbEntity
  8
layer_dimension
  6
ByBlock
 62
    0
370
   -2
100
AcDbLine
 10
71.03631296417882
 20
75.75
 11
71.03631296417882
 21
67.5
  0
LINE
  5
D7
100
AcDbEntity
  8
layer_dimension
  6
ByBlock
 62
    0
370
   -2
100
AcDbLine
 10
79.03631296417882
 20
75.75
 11
79.03631296417882
 21
67.5
  0
ENDBLK
  5
5F
330
5D
100
AcDbEntity
  8
0
100
AcDbBlockEnd
  0
BLOCK
  5
61
330
60
100
AcDbEntity
  8
0
100
AcDbBlockBegin
  2
*D5
 70
    1
 10
0
 20
0
  3
*D5
  1

  0
LINE
  5
D8
100
AcDbEntity
  8
layer_dimension
  6
ByBlock
 62
    0
370
   -2
100
AcDbLine
 10
427.2187453966113
 20
300.4340428899989
 11
440.4172479532218
 21
304.9592437665511
  0
LINE
  5
D9
100
AcDbEntity
  8
layer_dimension
  6
ByBlock
 62
    0
370
   -2
100
AcDbLine
 10
451.2187453966113
 20
230.4340428899989
 11
464.4172479532218
 21
234.9592437665511
  0
LINE
  5
DA
100
AcDbEntity
  8
layer_dimension
  6
ByBlock
 62
    0
370
   -2
100
AcDbLine
 10
438.052383088357
 20
304.1484329557403
 11
462.052383088357
 21
234.1484329557403
  0
SOLID
  5
DB
100
AcDbEntity
  8
layer_dimension
  6
ByBlock
 62
    0
370
   -2
100
AcDbTrace
 10
438.052383088357
 20
304.1484329557403
 30
0
 11
440.461570278738
 21
299.6887257067281
 31
0
 12
438.8864391412192
 22
299.1486807452931
 32
0
 13
438.8864391412192
 23
299.1486807452931
 33
0
  0
SOLID
  5
DC
100
AcDbEntity
  8
layer_dimension
  6
ByBlock
 62
    0
370
   -2
100
AcDbTrace
 10
462.052383088357
 20
234.1484329557403
 30
0
 11
459.6431958979759
 21
238.6081402047525
 31
0
 12
461.2183270354948
 22
239.1481851661875
 32
0
 13
461.2183270354948
 23
239.1481851661875
 33
0
  0
MTEXT
  5
DD
100
AcDbEntity
  8
layer_dimension
  6
CONTINUOUS
 62
    0
370
   -2
100
AcDbMText
 10
453.5996803856543
 20
270.3646491719566
 30
0
 40
5
 41
6.666666666666666
 71
    5
 72
    1
  1
74
  7
standard
210
0
220
0
230
1
 50
288.9246444160513
 73
    2
 44
1
  0
ENDBLK
  5
62
330
60
100
AcDbEntity
  8
0
100
AcDbBlockEnd
  0
BLOCK
  5
64
330
63
100
AcDbEntity
  8
0
100
AcDbBlockBegin
  2
*D26
 70
    1
 10
0
 20
0
  3
*D26
  1

  0
LINE
  5
DE
100
AcDbEntity
  8
layer_dimension
  6
ByBlock
 62
    0
370
   -2
100
AcDbLine
 10
1515.269573874186
 20
742.8172043979564
 11
1515.269573874186
 21
512.8172043979564
  0
SOLID
  5
DF
100
AcDbEntity
  8
layer_dimension
  6
ByBlock
 62
    0
370
   -2
100
AcDbTrace
 10
1515.269573874186
 20
742.8172043979564
 30
0
 11
1516.102143189732
 21
737.8172043979564
 31
0
 12
1514.437004558641
 22
737.8172043979564
 32
0
 13
1514.437004558641
 23
737.8172043979564
 33
0
  0
SOLID
  5
E0
100
AcDbEntity
  8
layer_dimension
  6
ByBlock
 62
    0
370
   -2
100
AcDbTrace
 10
1515.269573874186
 20
512.8172043979564
 30
0
 11
1514.437004558641
 21
517.8172043979564
 31
0
 12
1516.102143189732
 22
517.8172043979564
 32
0
 13
1516.102143189732
 23
517.8172043979564
 33
0
  0
MTEXT
  5
E1
100
AcDbEntity
  8
layer_dimension
  6
CONTINUOUS
 62
    0
370
   -2
100
AcDbMText
 10
1511.519573874186
 20
627.8172043979564
 30
0
 40
5
 41
10.00000000000031
 71
    5
 72
    1
  1
230
  7
standard
210
0
220
0
230
1
 50
90
 73
    2
 44
1
  0
LINE
  5
E2
100
AcDbEntity
  8
layer_dimension
  6
ByBlock
 62
    0
370
   -2
100
AcDbLine
 10
1506.519573874186
 20
742.8172043979564
 11
1517.769573874186
 21
742.8172043979564
  0
LINE
  5
E3
100
AcDbEntity
  8
layer_dimension
  6
ByBlock
 62
    0
370
   -2
100
AcDbLine
 10
1506.519573874186
 20
512.8172043979564
 11
1517.769573874186
 21
512.8172043979564
  0
ENDBLK
  5
65
330
63
100
AcDbEntity
  8
0
100
AcDbBlockEnd
  0
BLOCK
  5
67
330
66
100
AcDbEntity
  8
0
100
AcDbBlockBegin
  2
*D16
 70
    1
 10
0
 20
0
  3
*D16
  1

  0
LINE
  5
E4
100
AcDbEntity
  8
layer_dimension
  6
ByBlock
 62
    0
370
   -2
100
AcDbLine
 10
60
 20
144
 11
60
 21
179.9999999656037
  0
SOLID
  5
E5
100
AcDbEntity
  8
layer_dimension
  6
ByBlock
 62
    0
370
   -2
100
AcDbTrace
 10
60
 20
144
 30
0
 11
59.16743068445432
 21
149
 31
0
 12
60.83256931554568
 22
149
 32
0
 13
60.83256931554568
 23
149
 33
0
  0
SOLID
  5
E6
100
AcDbEntity
  8
layer_dimension
  6
ByBlock
 62
    0
370
   -2
100
AcDbTrace
 10
60
 20
179.9999999656037
 30
0
 11
60.83256931554568
 21
174.9999999656037
 31
0
 12
59.16743068445432
 22
174.9999999656037
 32
0
 13
59.16743068445432
 23
174.9999999656037
 33
0
  0
MTEXT
  5
E7
100
AcDbEntity
  8
layer_dimension
  6
CONTINUOUS
 62
    0
370
   -2
100
AcDbMText
 10
56.25
 20
161.9999999828019
 30
0
 40
5
 41
6.111111111111732
 71
    5
 72
    1
  1
36
  7
standard
210
0
220
0
230
1
 50
90
 73
    2
 44
1
  0
LINE
  5
E8
100
AcDbEntity
  8
layer_dimension
  6
ByBlock
 62
    0
370
   -2
100
AcDbLine
 10
70.75
 20
144
 11
57.5
 21
144
  0
LINE
  5
E9
100
AcDbEntity
  8
layer_dimension
  6
ByBlock
 62
    0
370
   -2
100
AcDbLine
 10
70.53631263727009
 20
179.9999999656037
 11
57.5
 21
179.9999999656037
  0
ENDBLK
  5
68
330
66
100
AcDbEntity
  8
0
100
AcDbBlockEnd
  0
BLOCK
  5
6A
330
69
100
AcDbEntity
  8
0
100
AcDbBlockBegin
  2
*D36
 70
    1
 10
0
 20
0
  3
*D36
  1

  0
LINE
  5
EA
100
AcDbEntity
  8
layer_dimension
  6
ByBlock
 62
    0
370
   -2
100
AcDbLine
 10
1115.233260910008
 20
656.788566913363
 11
1115.233260910008
 21
626.788566913363
  0
SOLID
  5
EB
100
AcDbEntity
  8
layer_dimension
  6
ByBlock
 62
    0
370
   -2
100
AcDbTrace
 10
1115.233260910008
 20
656.788566913363
 30
0
 11
1116.065830225553
 21
651.788566913363
 31
0
 12
1114.400691594462
 22
651.788566913363
 32
0
 13
1114.400691594462
 23
651.788566913363
 33
0
  0
SOLID
  5
EC
100
AcDbEntity
  8
layer_dimension
  6
ByBlock
 62
    0
370
   -2
100
AcDbTrace
 10
1115.233260910008
 20
626.788566913363
 30
0
 11
1114.400691594462
 21
631.788566913363
 31
0
 12
1116.065830225553
 22
631.788566913363
 32
0
 13
1116.065830225553
 23
631.788566913363
 33
0
  0
MTEXT
  5
ED
100
AcDbEntity
  8
layer_dimension
  6
CONTINUOUS
 62
    0
370
   -2
100
AcDbMText
 10
1111.483260910008
 20
641.788566913363
 30
0
 40
5
 41
6.111111111111422
 71
    5
 72
    1
  1
30
  7
standard
210
0
220
0
230
1
 50
90
 73
    2
 44
1
  0
LINE
  5
EE
100
AcDbEntity
  8
layer_dimension
  6
ByBlock
 62
    0
370
   -2
100
AcDbLine
 10
1128.983260910008
 20
656.788566913363
 11
1112.733260910008
 21
656.788566913363
  0
LINE
  5
EF
100
AcDbEntity
  8
layer_dimension
  6
ByBlock
 62
    0
370
   -2
100
AcDbLine
 10
1128.983260910008
 20
626.788566913363
 11
1112.733260910008
 21
626.788566913363
  0
ENDBLK
  5
6B
330
69
100
AcDbEntity
  8
0
100
AcDbBlockEnd
  0
BLOCK
  5
6D
330
6C
100
AcDbEntity
  8
0
100
AcDbBlockBegin
  2
*D10
 70
    1
 10
0
 20
0
  3
*D10
  1

  0
LINE
  5
F0
100
AcDbEntity
  8
layer_dimension
  6
ByBlock
 62
    0
370
   -2
100
AcDbLine
 10
-9.963687035821172
 20
-99.9713625154065
 11
-9.963687035821181
 21
-275.9713625154065
  0
SOLID
  5
F1
100
AcDbEntity
  8
layer_dimension
  6
ByBlock
 62
    0
370
   -2
100
AcDbTrace
 10
-9.963687035821172
 20
-99.9713625154065
 30
0
 11
-9.131117720275491
 21
-104.9713625154065
 31
0
 12
-10.79625635136685
 22
-104.9713625154065
 32
0
 13
-10.79625635136685
 23
-104.9713625154065
 33
0
  0
SOLID
  5
F2
100
AcDbEntity
  8
layer_dimension
  6
ByBlock
 62
    0
370
   -2
100
AcDbTrace
 10
-9.963687035821181
 20
-275.9713625154065
 30
0
 11
-10.79625635136686
 21
-270.9713625154065
 31
0
 12
-9.131117720275499
 22
-270.9713625154065
 32
0
 13
-9.131117720275499
 23
-270.9713625154065
 33
0
  0
MTEXT
  5
F3
100
AcDbEntity
  8
layer_dimension
  6
CONTINUOUS
 62
    0
370
   -2
100
AcDbMText
 10
-13.71368703582118
 20
-187.9713625154065
 30
0
 40
5
 41
8.888888888889198
 71
    5
 72
    1
  1
176
  7
standard
210
0
220
0
230
1
 50
90
 73
    2
 44
1
  0
LINE
  5
F4
100
AcDbEntity
  8
layer_dimension
  6
ByBlock
 62
    0
370
   -2
100
AcDbLine
 10
-1.213687035821181
 20
-99.9713625154065
 11
-12.46368703582117
 21
-99.9713625154065
  0
LINE
  5
F5
100
AcDbEntity
  8
layer_dimension
  6
ByBlock
 62
    0
370
   -2
100
AcDbLine
 10
-1.213687035821181
 20
-275.9713625154065
 11
-12.46368703582118
 21
-275.9713625154065
  0
ENDBLK
  5
6E
330
6C
100
AcDbEntity
  8
0
100
AcDbBlockEnd
  0
BLOCK
  5
70
330
6F
100
AcDbEntity
  8
0
100
AcDbBlockBegin
  2
*D24
 70
    1
 10
0
 20
0
  3
*D24
  1

  0
LINE
  5
F6
100
AcDbEntity
  8
layer_dimension
  6
ByBlock
 62
    0
370
   -2
100
AcDbLine
 10
1482.452006306619
 20
813.2226098033618
 11
1495.650508863229
 21
817.7478106799141
  0
LINE
  5
F7
100
AcDbEntity
  8
layer_dimension
  6
ByBlock
 62
    0
370
   -2
100
AcDbLine
 10
1506.452006306619
 20
743.2226098033618
 11
1519.650508863229
 21
747.7478106799141
  0
LINE
  5
F8
100
AcDbEntity
  8
layer_dimension
  6
ByBlock
 62
    0
370
   -2
100
AcDbLine
 10
1493.285643998365
 20
816.9369998691033
 11
1517.285643998365
 21
746.9369998691033
  0
SOLID
  5
F9
100
AcDbEntity
  8
layer_dimension
  6
ByBlock
 62
    0
370
   -2
100
AcDbTrace
 10
1493.285643998365
 20
816.9369998691033
 30
0
 11
1495.694831188746
 21
812.477292620091
 31
0
 12
1494.119700051227
 22
811.937247658656
 32
0
 13
1494.119700051227
 23
811.937247658656
 33
0
  0
SOLID
  5
FA
100
AcDbEntity
  8
layer_dimension
  6
ByBlock
 62
    0
370
   -2
100
AcDbTrace
 10
1517.285643998365
 20
746.9369998691033
 30
0
 11
1514.876456807983
 21
751.3967071181155
 31
0
 12
1516.451587945502
 22
751.9367520795505
 32
0
 13
1516.451587945502
 23
751.9367520795505
 33
0
  0
MTEXT
  5
FB
100
AcDbEntity
  8
layer_dimension
  6
CONTINUOUS
 62
    0
370
   -2
100
AcDbMText
 10
1508.832941295662
 20
783.1532160853196
 30
0
 40
5
 41
6.666666666666666
 71
    5
 72
    1
  1
74
  7
standard
210
0
220
0
230
1
 50
288.9246444160513
 73
    2
 44
1
  0
ENDBLK
  5
71
330
6F
100
AcDbEntity
  8
0
100
AcDbBlockEnd
  0
BLOCK
  5
73
330
72
100
AcDbEntity
  8
0
100
AcDbBlockBegin
  2
*D32
 70
    1
 10
0
 20
0
  3
*D32
  1

  0
LINE
  5
FC
100
AcDbEntity
  8
layer_dimension
  6
ByBlock
 62
    0
370
   -2
100
AcDbLine
 10
1115.233260910008
 20
626.788566913363
 11
1115.233260910008
 21
589.788566913363
  0
SOLID
  5
FD
100
AcDbEntity
  8
layer_dimension
  6
ByBlock
 62
    0
370
   -2
100
AcDbTrace
 10
1115.233260910008
 20
626.788566913363
 30
0
 11
1116.065830225553
 21
621.788566913363
 31
0
 12
1114.400691594462
 22
621.788566913363
 32
0
 13
1114.400691594462
 23
621.788566913363
 33
0
  0
SOLID
  5
FE
100
AcDbEntity
  8
layer_dimension
  6
ByBlock
 62
    0
370
   -2
100
AcDbTrace
 10
1115.233260910008
 20
589.788566913363
 30
0
 11
1114.400691594462
 21
594.788566913363
 31
0
 12
1116.065830225553
 22
594.788566913363
 32
0
 13
1116.065830225553
 23
594.788566913363
 33
0
  0
MTEXT
  5
FF
100
AcDbEntity
  8
layer_dimension
  6
CONTINUOUS
 62
    0
370
   -2
100
AcDbMText
 10
1111.483260910008
 20
608.288566913363
 30
0
 40
5
 41
6.111111111111422
 71
    5
 72
    1
  1
37
  7
standard
210
0
220
0
230
1
 50
90
 73
    2
 44
1
  0
LINE
  5
100
100
AcDbEntity
  8
layer_dimension
  6
ByBlock
 62
    0
370
   -2
100
AcDbLine
 10
1125.019573874186
 20
626.788566913363
 11
1112.733260910008
 21
626.788566913363
  0
LINE
  5
101
100
AcDbEntity
  8
layer_dimension
  6
ByBlock
 62
    0
370
   -2
100
AcDbLine
 10
1125.019573874186
 20
589.788566913363
 11
1112.733260910008
 21
589.788566913363
  0
ENDBLK
  5
74
330
72
100
AcDbEntity
  8
0
100
AcDbBlockEnd
  0
BLOCK
  5
76
330
75
100
AcDbEntity
  8
0
100
AcDbBlockBegin
  2
*D34
 70
    1
 10
0
 20
0
  3
*D34
  1

  0
LINE
  5
102
100
AcDbEntity
  8
layer_dimension
  6
ByBlock
 62
    0
370
   -2
100
AcDbLine
 10
1117.019573547278
 20
702.788566913363
 11
1143.519573874186
 21
702.788566913363
  0
SOLID
  5
103
100
AcDbEntity
  8
layer_dimension
  6
ByBlock
 62
    0
370
   -2
100
AcDbTrace
 10
1127.019573547278
 20
702.788566913363
 30
0
 11
1122.019573547278
 21
701.9559975978173
 31
0
 12
1122.019573547278
 22
703.6211362289087
 32
0
 13
1122.019573547278
 23
703.6211362289087
 33
0
  0
SOLID
  5
104
100
AcDbEntity
  8
layer_dimension
  6
ByBlock
 62
    0
370
   -2
100
AcDbTrace
 10
1133.519573874186
 20
702.788566913363
 30
0
 11
1138.519573874186
 21
703.6211362289087
 31
0
 12
1138.519573874186
 22
701.9559975978173
 32
0
 13
1138.519573874186
 23
701.9559975978173
 33
0
  0
MTEXT
  5
105
100
AcDbEntity
  8
layer_dimension
  6
CONTINUOUS
 62
    0
370
   -2
100
AcDbMText
 10
1138.797351651965
 20
706.538566913363
 30
0
 40
5
 41
8.055555555556175
 71
    5
 72
    1
  1
6,5
  7
standard
210
0
220
0
230
1
 50
0
 73
    2
 44
1
  0
LINE
  5
106
100
AcDbEntity
  8
layer_dimension
  6
ByBlock
 62
    0
370
   -2
100
AcDbLine
 10
1127.019573547278
 20
694.0385668789667
 11
1127.019573547278
 21
705.288566913363
  0
LINE
  5
107
100
AcDbEntity
  8
layer_dimension
  6
ByBlock
 62
    0
370
   -2
100
AcDbLine
 10
1133.519573874186
 20
694.038566913363
 11
1133.519573874186
 21
705.288566913363
  0
ENDBLK
  5
77
330
75
100
AcDbEntity
  8
0
100
AcDbBlockEnd
  0
BLOCK
  5
79
330
78
100
AcDbEntity
  8
0
100
AcDbBlockBegin
  2
*D4
 70
    1
 10
0
 20
0
  3
*D4
  1

  0
LINE
  5
108
100
AcDbEntity
  8
layer_dimension
  6
ByBlock
 62
    0
370
   -2
100
AcDbLine
 10
250.0363129641788
 20
-9.971362515406501
 11
450.0363129641788
 21
-9.971362515406501
  0
SOLID
  5
109
100
AcDbEntity
  8
layer_dimension
  6
ByBlock
 62
    0
370
   -2
100
AcDbTrace
 10
250.0363129641788
 20
-9.971362515406501
 30
0
 11
255.0363129641788
 21
-9.138793199860821
 31
0
 12
255.0363129641788
 22
-10.80393183095218
 32
0
 13
255.0363129641788
 23
-10.80393183095218
 33
0
  0
SOLID
  5
10A
100
AcDbEntity
  8
layer_dimension
  6
ByBlock
 62
    0
370
   -2
100
AcDbTrace
 10
450.0363129641788
 20
-9.971362515406501
 30
0
 11
445.0363129641788
 21
-10.80393183095218
 31
0
 12
445.0363129641788
 22
-9.138793199860819
 32
0
 13
445.0363129641788
 23
-9.138793199860819
 33
0
  0
MTEXT
  5
10B
100
AcDbEntity
  8
layer_dimension
  6
CONTINUOUS
 62
    0
370
   -2
100
AcDbMText
 10
350.0363129641788
 20
-6.221362515406501
 30
0
 40
5
 41
10
 71
    5
 72
    1
  1
200
  7
standard
210
0
220
0
230
1
 50
0
 73
    2
 44
1
  0
LINE
  5
10C
100
AcDbEntity
  8
layer_dimension
  6
ByBlock
 62
    0
370
   -2
100
AcDbLine
 10
250.0363129641788
 20
-1.2213625154065
 11
250.0363129641788
 21
-12.4713625154065
  0
LINE
  5
10D
100
AcDbEntity
  8
layer_dimension
  6
ByBlock
 62
    0
370
   -2
100
AcDbLine
 10
450.0363129641788
 20
-1.2213625154065
 11
450.0363129641788
 21
-12.4713625154065
  0
ENDBLK
  5
7A
330
78
100
AcDbEntity
  8
0
100
AcDbBlockEnd
  0
BLOCK
  5
7C
330
7B
100
AcDbEntity
  8
0
100
AcDbBlockBegin
  2
*D25
 70
    1
 10
0
 20
0
  3
*D25
  1

  0
LINE
  5
10E
100
AcDbEntity
  8
layer_dimension
  6
ByBlock
 62
    0
370
   -2
100
AcDbLine
 10
1305.269573874186
 20
814.0672043979564
 11
1305.269573874186
 21
825.3172043979564
  0
LINE
  5
10F
100
AcDbEntity
  8
layer_dimension
  6
ByBlock
 62
    0
370
   -2
100
AcDbLine
 10
1481.269573874186
 20
814.0672043979564
 11
1481.269573874186
 21
825.3172043979564
  0
LINE
  5
110
100
AcDbEntity
  8
layer_dimension
  6
ByBlock
 62
    0
370
   -2
100
AcDbLine
 10
1305.269573874186
 20
822.8172043979564
 11
1481.269573874186
 21
822.8172043979564
  0
SOLID
  5
111
100
AcDbEntity
  8
layer_dimension
  6
ByBlock
 62
    0
370
   -2
100
AcDbTrace
 10
1305.269573874186
 20
822.8172043979564
 30
0
 11
1310.269573874186
 21
823.6497737135021
 31
0
 12
1310.269573874186
 22
821.9846350824107
 32
0
 13
1310.269573874186
 23
821.9846350824107
 33
0
  0
SOLID
  5
112
100
AcDbEntity
  8
layer_dimension
  6
ByBlock
 62
    0
370
   -2
100
AcDbTrace
 10
1481.269573874186
 20
822.8172043979564
 30
0
 11
1476.269573874186
 21
821.9846350824107
 31
0
 12
1476.269573874186
 22
823.6497737135021
 32
0
 13
1476.269573874186
 23
823.6497737135021
 33
0
  0
MTEXT
  5
113
100
AcDbEntity
  8
layer_dimension
  6
CONTINUOUS
 62
    0
370
   -2
100
AcDbMText
 10
1393.269573874186
 20
826.5672043979564
 30
0
 40
5
 41
8.888888888889198
 71
    5
 72
    1
  1
176
  7
standard
210
0
220
0
230
1
 50
0
 73
    2
 44
1
  0
ENDBLK
  5
7D
330
7B
100
AcDbEntity
  8
0
100
AcDbBlockEnd
  0
BLOCK
  5
7F
330
7E
100
AcDbEntity
  8
0
100
AcDbBlockBegin
  2
*D35
 70
    1
 10
0
 20
0
  3
*D35
  1

  0
LINE
  5
114
100
AcDbEntity
  8
layer_dimension
  6
ByBlock
 62
    0
370
   -2
100
AcDbLine
 10
1116.269573874186
 20
582.788566913363
 11
1144.269573874186
 21
582.788566913363
  0
SOLID
  5
115
100
AcDbEntity
  8
layer_dimension
  6
ByBlock
 62
    0
370
   -2
100
AcDbTrace
 10
1126.269573874186
 20
582.788566913363
 30
0
 11
1121.269573874186
 21
581.9559975978173
 31
0
 12
1121.269573874186
 22
583.6211362289087
 32
0
 13
1121.269573874186
 23
583.6211362289087
 33
0
  0
SOLID
  5
116
100
AcDbEntity
  8
layer_dimension
  6
ByBlock
 62
    0
370
   -2
100
AcDbTrace
 10
1134.269573874186
 20
582.788566913363
 30
0
 11
1139.269573874186
 21
583.6211362289087
 31
0
 12
1139.269573874186
 22
581.9559975978173
 32
0
 13
1139.269573874186
 23
581.9559975978173
 33
0
  0
MTEXT
  5
117
100
AcDbEntity
  8
layer_dimension
  6
CONTINUOUS
 62
    0
370
   -2
100
AcDbMText
 10
1130.269573874186
 20
586.538566913363
 30
0
 40
5
 41
2.222222222222222
 71
    5
 72
    1
  1
8
  7
standard
210
0
220
0
230
1
 50
0
 73
    2
 44
1
  0
LINE
  5
118
100
AcDbEntity
  8
layer_dimension
  6
ByBlock
 62
    0
370
   -2
100
AcDbLine
 10
1126.269573874186
 20
588.538566913363
 11
1126.269573874186
 21
580.288566913363
  0
LINE
  5
119
100
AcDbEntity
  8
layer_dimension
  6
ByBlock
 62
    0
370
   -2
100
AcDbLine
 10
1134.269573874186
 20
588.538566913363
 11
1134.269573874186
 21
580.288566913363
  0
ENDBLK
  5
80
330
7E
100
AcDbEntity
  8
0
100
AcDbBlockEnd
  0
BLOCK
  5
82
330
81
100
AcDbEntity
  8
0
100
AcDbBlockBegin
  2
*D17
 70
    1
 10
0
 20
0
  3
*D17
  1

  0
LINE
  5
11A
100
AcDbEntity
  8
layer_dimension
  6
ByBlock
 62
    0
370
   -2
100
AcDbLine
 10
61.78631263727009
 20
190
 11
88.28631296417882
 21
190
  0
SOLID
  5
11B
100
AcDbEntity
  8
layer_dimension
  6
ByBlock
 62
    0
370
   -2
100
AcDbTrace
 10
71.78631263727009
 20
190
 30
0
 11
66.78631263727009
 21
189.1674306844543
 31
0
 12
66.78631263727009
 22
190.8325693155457
 32
0
 13
66.78631263727009
 23
190.8325693155457
 33
0
  0
SOLID
  5
11C
100
AcDbEntity
  8
layer_dimension
  6
ByBlock
 62
    0
370
   -2
100
AcDbTrace
 10
78.28631296417882
 20
190
 30
0
 11
83.28631296417882
 21
190.8325693155457
 31
0
 12
83.28631296417882
 22
189.1674306844543
 32
0
 13
83.28631296417882
 23
189.1674306844543
 33
0
  0
MTEXT
  5
11D
100
AcDbEntity
  8
layer_dimension
  6
CONTINUOUS
 62
    0
370
   -2
100
AcDbMText
 10
83.56409074195692
 20
193.75
 30
0
 40
5
 41
8.055555555556175
 71
    5
 72
    1
  1
6,5
  7
standard
210
0
220
0
230
1
 50
0
 73
    2
 44
1
  0
LINE
  5
11E
100
AcDbEntity
  8
layer_dimension
  6
ByBlock
 62
    0
370
   -2
100
AcDbLine
 10
71.78631263727009
 20
181.2499999656037
 11
71.78631263727009
 21
192.5
  0
LINE
  5
11F
100
AcDbEntity
  8
layer_dimension
  6
ByBlock
 62
    0
370
   -2
100
AcDbLine
 10
78.28631296417882
 20
181.25
 11
78.28631296417882
 21
192.5
  0
ENDBLK
  5
83
330
81
100
AcDbEntity
  8
0
100
AcDbBlockEnd
  0
BLOCK
  5
85
330
84
100
AcDbEntity
  8
0
100
AcDbBlockBegin
  2
*D9
 70
    1
 10
0
 20
0
  3
*D9
  1

  0
LINE
  5
120
100
AcDbEntity
  8
layer_dimension
  6
ByBlock
 62
    0
370
   -2
100
AcDbLine
 10
59.03631296417882
 20
236.0286374845935
 11
91.03631296417882
 21
236.0286374845935
  0
SOLID
  5
121
100
AcDbEntity
  8
layer_dimension
  6
ByBlock
 62
    0
370
   -2
100
AcDbTrace
 10
59.03631296417882
 20
236.0286374845935
 30
0
 11
64.03631296417882
 21
236.8612068001392
 31
0
 12
64.03631296417882
 22
235.1960681690478
 32
0
 13
64.03631296417882
 23
235.1960681690478
 33
0
  0
SOLID
  5
122
100
AcDbEntity
  8
layer_dimension
  6
ByBlock
 62
    0
370
   -2
100
AcDbTrace
 10
91.03631296417882
 20
236.0286374845935
 30
0
 11
86.03631296417882
 21
235.1960681690478
 31
0
 12
86.03631296417882
 22
236.8612068001392
 32
0
 13
86.03631296417882
 23
236.8612068001392
 33
0
  0
MTEXT
  5
123
100
AcDbEntity
  8
layer_dimension
  6
CONTINUOUS
 62
    0
370
   -2
100
AcDbMText
 10
75.03631296417882
 20
239.7786374845935
 30
0
 40
5
 41
6.111111111111422
 71
    5
 72
    1
  1
32
  7
standard
210
0
220
0
230
1
 50
0
 73
    2
 44
1
  0
LINE
  5
124
100
AcDbEntity
  8
layer_dimension
  6
ByBlock
 62
    0
370
   -2
100
AcDbLine
 10
59.03631296417882
 20
243.7786374845935
 11
59.03631296417882
 21
233.5286374845935
  0
LINE
  5
125
100
AcDbEntity
  8
layer_dimension
  6
ByBlock
 62
    0
370
   -2
100
AcDbLine
 10
91.03631296417882
 20
243.7786374845935
 11
91.03631296417882
 21
233.5286374845935
  0
ENDBLK
  5
86
330
84
100
AcDbEntity
  8
0
100
AcDbBlockEnd
  0
BLOCK
  5
88
330
87
100
AcDbEntity
  8
0
100
AcDbBlockBegin
  2
*D20
 70
    1
 10
0
 20
0
  3
*D20
  1

  0
LINE
  5
126
100
AcDbEntity
  8
layer_dimension
  6
ByBlock
 62
    0
370
   -2
100
AcDbLine
 10
1035.269573874186
 20
812.8172043979564
 11
1035.269573874186
 21
512.8172043979564
  0
SOLID
  5
127
100
AcDbEntity
  8
layer_dimension
  6
ByBlock
 62
    0
370
   -2
100
AcDbTrace
 10
1035.269573874186
 20
812.8172043979564
 30
0
 11
1036.102143189732
 21
807.8172043979564
 31
0
 12
1034.437004558641
 22
807.8172043979564
 32
0
 13
1034.437004558641
 23
807.8172043979564
 33
0
  0
SOLID
  5
128
100
AcDbEntity
  8
layer_dimension
  6
ByBlock
 62
    0
370
   -2
100
AcDbTrace
 10
1035.269573874186
 20
512.8172043979564
 30
0
 11
1034.437004558641
 21
517.8172043979564
 31
0
 12
1036.102143189732
 22
517.8172043979564
 32
0
 13
1036.102143189732
 23
517.8172043979564
 33
0
  0
MTEXT
  5
129
100
AcDbEntity
  8
layer_dimension
  6
CONTINUOUS
 62
    0
370
   -2
100
AcDbMText
 10
1031.519573874186
 20
662.8172043979564
 30
0
 40
5
 41
10.00000000000031
 71
    5
 72
    1
  1
300
  7
standard
210
0
220
0
230
1
 50
90
 73
    2
 44
1
  0
LINE
  5
12A
100
AcDbEntity
  8
layer_dimension
  6
ByBlock
 62
    0
370
   -2
100
AcDbLine
 10
1054.019573874186
 20
812.8172043979564
 11
1032.769573874186
 21
812.8172043979564
  0
LINE
  5
12B
100
AcDbEntity
  8
layer_dimension
  6
ByBlock
 62
    0
370
   -2
100
AcDbLine
 10
1054.019573874186
 20
512.8172043979564
 11
1032.769573874186
 21
512.8172043979564
  0
ENDBLK
  5
89
330
87
100
AcDbEntity
  8
0
100
AcDbBlockEnd
  0
BLOCK
  5
8B
330
8A
100
AcDbEntity
  8
0
100
AcDbBlockBegin
  2
*D1
 70
    1
 10
0
 20
0
  3
*D1
  1

  0
LINE
  5
12C
100
AcDbEntity
  8
layer_dimension
  6
ByBlock
 62
    0
370
   -2
100
AcDbLine
 10
-19.96368703582116
 20
300.0286374845935
 11
-19.96368703582118
 21
0.02863748459350108
  0
SOLID
  5
12D
100
AcDbEntity
  8
layer_dimension
  6
ByBlock
 62
    0
370
   -2
100
AcDbTrace
 10
-19.96368703582116
 20
300.0286374845935
 30
0
 11
-19.13111772027548
 21
295.0286374845935
 31
0
 12
-20.79625635136684
 22
295.0286374845935
 32
0
 13
-20.79625635136684
 23
295.0286374845935
 33
0
  0
SOLID
  5
12E
100
AcDbEntity
  8
layer_dimension
  6
ByBlock
 62
    0
370
   -2
100
AcDbTrace
 10
-19.96368703582118
 20
0.02863748459350108
 30
0
 11
-20.79625635136686
 21
5.028637484593501
 31
0
 12
-19.1311177202755
 22
5.028637484593501
 32
0
 13
-19.1311177202755
 23
5.028637484593501
 33
0
  0
MTEXT
  5
12F
100
AcDbEntity
  8
layer_dimension
  6
CONTINUOUS
 62
    0
370
   -2
100
AcDbMText
 10
-23.71368703582118
 20
150.0286374845935
 30
0
 40
5
 41
10.00000000000031
 71
    5
 72
    1
  1
300
  7
standard
210
0
220
0
230
1
 50
90
 73
    2
 44
1
  0
LINE
  5
130
100
AcDbEntity
  8
layer_dimension
  6
ByBlock
 62
    0
370
   -2
100
AcDbLine
 10
-1.213687035821181
 20
300.0286374845935
 11
-22.46368703582116
 21
300.0286374845935
  0
LINE
  5
131
100
AcDbEntity
  8
layer_dimension
  6
ByBlock
 62
    0
370
   -2
100
AcDbLine
 10
-1.213687035821181
 20
0.02863748459349981
 11
-22.46368703582118
 21
0.02863748459350139
  0
ENDBLK
  5
8C
330
8A
100
AcDbEntity
  8
0
100
AcDbBlockEnd
  0
BLOCK
  5
8E
330
8D
100
AcDbEntity
  8
0
100
AcDbBlockBegin
  2
*D33
 70
    1
 10
0
 20
0
  3
*D33
  1

  0
LINE
  5
132
100
AcDbEntity
  8
layer_dimension
  6
ByBlock
 62
    0
370
   -2
100
AcDbLine
 10
1115.233260910008
 20
656.788566913363
 11
1115.233260910008
 21
692.7885668789667
  0
SOLID
  5
133
100
AcDbEntity
  8
layer_dimension
  6
ByBlock
 62
    0
370
   -2
100
AcDbTrace
 10
1115.233260910008
 20
656.788566913363
 30
0
 11
1114.400691594462
 21
661.788566913363
 31
0
 12
1116.065830225553
 22
661.788566913363
 32
0
 13
1116.065830225553
 23
661.788566913363
 33
0
  0
SOLID
  5
134
100
AcDbEntity
  8
layer_dimension
  6
ByBlock
 62
    0
370
   -2
100
AcDbTrace
 10
1115.233260910008
 20
692.7885668789667
 30
0
 11
1116.065830225553
 21
687.7885668789667
 31
0
 12
1114.400691594462
 22
687.7885668789667
 32
0
 13
1114.400691594462
 23
687.7885668789667
 33
0
  0
MTEXT
  5
135
100
AcDbEntity
  8
layer_dimension
  6
CONTINUOUS
 62
    0
370
   -2
100
AcDbMText
 10
1111.483260910008
 20
674.7885668961649
 30
0
 40
5
 41
6.111111111111732
 71
    5
 72
    1
  1
36
  7
standard
210
0
220
0
230
1
 50
90
 73
    2
 44
1
  0
LINE
  5
136
100
AcDbEntity
  8
layer_dimension
  6
ByBlock
 62
    0
370
   -2
100
AcDbLine
 10
1125.983260910008
 20
656.788566913363
 11
1112.733260910008
 21
656.788566913363
  0
LINE
  5
137
100
AcDbEntity
  8
layer_dimension
  6
ByBlock
 62
    0
370
   -2
100
AcDbLine
 10
1125.769573547278
 20
692.7885668789667
 11
1112.733260910008
 21
692.7885668789667
  0
ENDBLK
  5
8F
330
8D
100
AcDbEntity
  8
0
100
AcDbBlockEnd
  0
BLOCK
  5
91
330
90
100
AcDbEntity
  8
0
100
AcDbBlockBegin
  2
*D6
 70
    1
 10
0
 20
0
  3
*D6
  1

  0
LINE
  5
138
100
AcDbEntity
  8
layer_dimension
  6
ByBlock
 62
    0
370
   -2
100
AcDbLine
 10
250.0363129641788
 20
301.2786374845935
 11
250.0363129641788
 21
312.5286374845935
  0
LINE
  5
139
100
AcDbEntity
  8
layer_dimension
  6
ByBlock
 62
    0
370
   -2
100
AcDbLine
 10
426.0363129641788
 20
301.2786374845935
 11
426.0363129641788
 21
312.5286374845935
  0
LINE
  5
13A
100
AcDbEntity
  8
layer_dimension
  6
ByBlock
 62
    0
370
   -2
100
AcDbLine
 10
250.0363129641788
 20
310.0286374845935
 11
426.0363129641788
 21
310.0286374845935
  0
SOLID
  5
13B
100
AcDbEntity
  8
layer_dimension
  6
ByBlock
 62
    0
370
   -2
100
AcDbTrace
 10
250.0363129641788
 20
310.0286374845935
 30
0
 11
255.0363129641788
 21
310.8612068001392
 31
0
 12
255.0363129641788
 22
309.1960681690478
 32
0
 13
255.0363129641788
 23
309.1960681690478
 33
0
  0
SOLID
  5
13C
100
AcDbEntity
  8
layer_dimension
  6
ByBlock
 62
    0
370
   -2
100
AcDbTrace
 10
426.0363129641788
 20
310.0286374845935
 30
0
 11
421.0363129641788
 21
309.1960681690478
 31
0
 12
421.0363129641788
 22
310.8612068001392
 32
0
 13
421.0363129641788
 23
310.8612068001392
 33
0
  0
MTEXT
  5
13D
100
AcDbEntity
  8
layer_dimension
  6
CONTINUOUS
 62
    0
370
   -2
100
AcDbMText
 10
338.0363129641788
 20
313.7786374845935
 30
0
 40
5
 41
8.888888888889198
 71
    5
 72
    1
  1
176
  7
standard
210
0
220
0
230
1
 50
0
 73
    2
 44
1
  0
ENDBLK
  5
92
330
90
100
AcDbEntity
  8
0
100
AcDbBlockEnd
  0
BLOCK
  5
94
330
93
100
AcDbEntity
  8
0
100
AcDbBlockBegin
  2
*D7
 70
    1
 10
0
 20
0
  3
*D7
  1

  0
LINE
  5
13E
100
AcDbEntity
  8
layer_dimension
  6
ByBlock
 62
    0
370
   -2
100
AcDbLine
 10
460.0363129641788
 20
230.0286374845935
 11
460.0363129641788
 21
0.02863748459349966
  0
SOLID
  5
13F
100
AcDbEntity
  8
layer_dimension
  6
ByBlock
 62
    0
370
   -2
100
AcDbTrace
 10
460.0363129641788
 20
230.0286374845935
 30
0
 11
460.8688822797245
 21
225.0286374845935
 31
0
 12
459.2037436486331
 22
225.0286374845935
 32
0
 13
459.2037436486331
 23
225.0286374845935
 33
0
  0
SOLID
  5
140
100
AcDbEntity
  8
layer_dimension
  6
ByBlock
 62
    0
370
   -2
100
AcDbTrace
 10
460.0363129641788
 20
0.02863748459349966
 30
0
 11
459.2037436486331
 21
5.028637484593499
 31
0
 12
460.8688822797245
 22
5.028637484593499
 32
0
 13
460.8688822797245
 23
5.028637484593499
 33
0
  0
MTEXT
  5
141
100
AcDbEntity
  8
layer_dimension
  6
CONTINUOUS
 62
    0
370
   -2
100
AcDbMText
 10
456.2863129641788
 20
115.0286374845935
 30
0
 40
5
 41
10.00000000000031
 71
    5
 72
    1
  1
230
  7
standard
210
0
220
0
230
1
 50
90
 73
    2
 44
1
  0
LINE
  5
142
100
AcDbEntity
  8
layer_dimension
  6
ByBlock
 62
    0
370
   -2
100
AcDbLine
 10
451.2863129641788
 20
230.0286374845935
 11
462.5363129641788
 21
230.0286374845935
  0
LINE
  5
143
100
AcDbEntity
  8
layer_dimension
  6
ByBlock
 62
    0
370
   -2
100
AcDbLine
 10
451.2863129641788
 20
0.02863748459349966
 11
462.5363129641788
 21
0.02863748459349966
  0
ENDBLK
  5
95
330
93
100
AcDbEntity
  8
0
100
AcDbBlockEnd
  0
BLOCK
  5
97
330
96
100
AcDbEntity
  8
0
100
AcDbBlockBegin
  2
*D22
 70
    1
 10
0
 20
0
  3
*D22
  1

  0
LINE
  5
144
100
AcDbEntity
  8
layer_dimension
  6
ByBlock
 62
    0
370
   -2
100
AcDbLine
 10
1055.269573874186
 20
822.8172043979564
 11
1205.269573874186
 21
822.8172043979564
  0
SOLID
  5
145
100
AcDbEntity
  8
layer_dimension
  6
ByBlock
 62
    0
370
   -2
100
AcDbTrace
 10
1055.269573874186
 20
822.8172043979564
 30
0
 11
1060.269573874186
 21
823.6497737135021
 31
0
 12
1060.269573874186
 22
821.9846350824107
 32
0
 13
1060.269573874186
 23
821.9846350824107
 33
0
  0
SOLID
  5
146
100
AcDbEntity
  8
layer_dimension
  6
ByBlock
 62
    0
370
   -2
100
AcDbTrace
 10
1205.269573874186
 20
822.8172043979564
 30
0
 11
1200.269573874186
 21
821.9846350824107
 31
0
 12
1200.269573874186
 22
823.6497737135021
 32
0
 13
1200.269573874186
 23
823.6497737135021
 33
0
  0
MTEXT
  5
147
100
AcDbEntity
  8
layer_dimension
  6
CONTINUOUS
 62
    0
370
   -2
100
AcDbMText
 10
1130.269573874186
 20
826.5672043979564
 30
0
 40
5
 41
8.888888888889198
 71
    5
 72
    1
  1
150
  7
standard
210
0
220
0
230
1
 50
0
 73
    2
 44
1
  0
LINE
  5
148
100
AcDbEntity
  8
layer_dimension
  6
ByBlock
 62
    0
370
   -2
100
AcDbLine
 10
1055.269573874186
 20
814.0672043979564
 11
1055.269573874186
 21
825.3172043979564
  0
LINE
  5
149
100
AcDbEntity
  8
layer_dimension
  6
ByBlock
 62
    0
370
   -2
100
AcDbLine
 10
1205.269573874186
 20
814.0672043979564
 11
1205.269573874186
 21
825.3172043979564
  0
ENDBLK
  5
98
330
96
100
AcDbEntity
  8
0
100
AcDbBlockEnd
  0
BLOCK
  5
9A
330
99
100
AcDbEntity
  8
0
100
AcDbBlockBegin
  2
*D27
 70
    1
 10
0
 20
0
  3
*D27
  1

  0
LINE
  5
14A
100
AcDbEntity
  8
layer_dimension
  6
ByBlock
 62
    0
370
   -2
100
AcDbLine
 10
1155.269573874186
 20
797.8172043979564
 11
1155.269573874186
 21
757.8172043979564
  0
SOLID
  5
14B
100
AcDbEntity
  8
layer_dimension
  6
ByBlock
 62
    0
370
   -2
100
AcDbTrace
 10
1155.269573874186
 20
797.8172043979564
 30
0
 11
1156.102143189732
 21
792.8172043979564
 31
0
 12
1154.437004558641
 22
792.8172043979564
 32
0
 13
1154.437004558641
 23
792.8172043979564
 33
0
  0
SOLID
  5
14C
100
AcDbEntity
  8
layer_dimension
  6
ByBlock
 62
    0
370
   -2
100
AcDbTrace
 10
1155.269573874186
 20
757.8172043979564
 30
0
 11
1154.437004558641
 21
762.8172043979564
 31
0
 12
1156.102143189732
 22
762.8172043979564
 32
0
 13
1156.102143189732
 23
762.8172043979564
 33
0
  0
MTEXT
  5
14D
100
AcDbEntity
  8
layer_dimension
  6
CONTINUOUS
 62
    0
370
   -2
100
AcDbMText
 10
1151.519573874186
 20
777.8172043979564
 30
0
 40
5
 41
6.666666666666667
 71
    5
 72
    1
  1
40
  7
standard
210
0
220
0
230
1
 50
90
 73
    2
 44
1
  0
LINE
  5
14E
100
AcDbEntity
  8
layer_dimension
  6
ByBlock
 62
    0
370
   -2
100
AcDbLine
 10
1147.519573874186
 20
797.8172043979564
 11
1157.769573874186
 21
797.8172043979564
  0
LINE
  5
14F
100
AcDbEntity
  8
layer_dimension
  6
ByBlock
 62
    0
370
   -2
100
AcDbLine
 10
1147.519573874186
 20
757.8172043979564
 11
1157.769573874186
 21
757.8172043979564
  0
ENDBLK
  5
9B
330
99
100
AcDbEntity
  8
0
100
AcDbBlockEnd
  0
BLOCK
  5
9D
330
9C
100
AcDbEntity
  8
0
100
AcDbBlockBegin
  2
*D23
 70
    1
 10
0
 20
0
  3
*D23
  1

  0
LINE
  5
150
100
AcDbEntity
  8
layer_dimension
  6
ByBlock
 62
    0
370
   -2
100
AcDbLine
 10
1305.269573874186
 20
502.8172043979565
 11
1505.269573874186
 21
502.8172043979565
  0
SOLID
  5
151
100
AcDbEntity
  8
layer_dimension
  6
ByBlock
 62
    0
370
   -2
100
AcDbTrace
 10
1305.269573874186
 20
502.8172043979565
 30
0
 11
1310.269573874186
 21
503.6497737135022
 31
0
 12
1310.269573874186
 22
501.9846350824108
 32
0
 13
1310.269573874186
 23
501.9846350824108
 33
0
  0
SOLID
  5
152
100
AcDbEntity
  8
layer_dimension
  6
ByBlock
 62
    0
370
   -2
100
AcDbTrace
 10
1505.269573874186
 20
502.8172043979565
 30
0
 11
1500.269573874186
 21
501.9846350824108
 31
0
 12
1500.269573874186
 22
503.6497737135022
 32
0
 13
1500.269573874186
 23
503.6497737135022
 33
0
  0
MTEXT
  5
153
100
AcDbEntity
  8
layer_dimension
  6
CONTINUOUS
 62
    0
370
   -2
100
AcDbMText
 10
1405.269573874186
 20
506.5672043979565
 30
0
 40
5
 41
10
 71
    5
 72
    1
  1
200
  7
standard
210
0
220
0
230
1
 50
0
 73
    2
 44
1
  0
LINE
  5
154
100
AcDbEntity
  8
layer_dimension
  6
ByBlock
 62
    0
370
   -2
100
AcDbLine
 10
1305.269573874186
 20
511.5672043979564
 11
1305.269573874186
 21
500.3172043979565
  0
LINE
  5
155
100
AcDbEntity
  8
layer_dimension
  6
ByBlock
 62
    0
370
   -2
100
AcDbLine
 10
1505.269573874186
 20
511.5672043979564
 11
1505.269573874186
 21
500.3172043979565
  0
ENDBLK
  5
9E
330
9C
100
AcDbEntity
  8
0
100
AcDbBlockEnd
  0
BLOCK
  5
A0
330
9F
100
AcDbEntity
  8
0
100
AcDbBlockBegin
  2
*D3
 70
    1
 10
0
 20
0
  3
*D3
  1

  0
LINE
  5
156
100
AcDbEntity
  8
layer_dimension
  6
ByBlock
 62
    0
370
   -2
100
AcDbLine
 10
0.03631296417884755
 20
310.0286374845935
 11
150.0363129641788
 21
310.0286374845935
  0
SOLID
  5
157
100
AcDbEntity
  8
layer_dimension
  6
ByBlock
 62
    0
370
   -2
100
AcDbTrace
 10
0.03631296417884755
 20
310.0286374845935
 30
0
 11
5.036312964178848
 21
310.8612068001392
 31
0
 12
5.036312964178848
 22
309.1960681690478
 32
0
 13
5.036312964178848
 23
309.1960681690478
 33
0
  0
SOLID
  5
158
100
AcDbEntity
  8
layer_dimension
  6
ByBlock
 62
    0
370
   -2
100
AcDbTrace
 10
150.0363129641788
 20
310.0286374845935
 30
0
 11
145.0363129641788
 21
309.1960681690478
 31
0
 12
145.0363129641788
 22
310.8612068001392
 32
0
 13
145.0363129641788
 23
310.8612068001392
 33
0
  0
MTEXT
  5
159
100
AcDbEntity
  8
layer_dimension
  6
CONTINUOUS
 62
    0
370
   -2
100
AcDbMText
 10
75.03631296417882
 20
313.7786374845935
 30
0
 40
5
 41
8.888888888889198
 71
    5
 72
    1
  1
150
  7
standard
210
0
220
0
230
1
 50
0
 73
    2
 44
1
  0
LINE
  5
15A
100
AcDbEntity
  8
layer_dimension
  6
ByBlock
 62
    0
370
   -2
100
AcDbLine
 10
0.03631296417882281
 20
301.2786374845935
 11
0.03631296417885492
 21
312.5286374845935
  0
LINE
  5
15B
100
AcDbEntity
  8
layer_dimension
  6
ByBlock
 62
    0
370
   -2
100
AcDbLine
 10
150.0363129641788
 20
301.2786374845935
 11
150.0363129641788
 21
312.5286374845935
  0
ENDBLK
  5
A1
330
9F
100
AcDbEntity
  8
0
100
AcDbBlockEnd
  0
BLOCK
  5
A3
330
A2
100
AcDbEntity
  8
0
100
AcDbBlockBegin
  2
*D21
 70
    1
 10
0
 20
0
  3
*D21
  1

  0
LINE
  5
15C
100
AcDbEntity
  8
layer_dimension
  6
ByBlock
 62
    0
370
   -2
100
AcDbLine
 10
1045.269573874186
 20
812.8172043979564
 11
1045.269573874186
 21
742.8172043979564
  0
SOLID
  5
15D
100
AcDbEntity
  8
layer_dimension
  6
ByBlock
 62
    0
370
   -2
100
AcDbTrace
 10
1045.269573874186
 20
812.8172043979564
 30
0
 11
1046.102143189732
 21
807.8172043979564
 31
0
 12
1044.437004558641
 22
807.8172043979564
 32
0
 13
1044.437004558641
 23
807.8172043979564
 33
0
  0
SOLID
  5
15E
100
AcDbEntity
  8
layer_dimension
  6
ByBlock
 62
    0
370
   -2
100
AcDbTrace
 10
1045.269573874186
 20
742.8172043979564
 30
0
 11
1044.437004558641
 21
747.8172043979564
 31
0
 12
1046.102143189732
 22
747.8172043979564
 32
0
 13
1046.102143189732
 23
747.8172043979564
 33
0
  0
MTEXT
  5
15F
100
AcDbEntity
  8
layer_dimension
  6
CONTINUOUS
 62
    0
370
   -2
100
AcDbMText
 10
1041.519573874186
 20
777.8172043979564
 30
0
 40
5
 41
6.111111111111112
 71
    5
 72
    1
  1
70
  7
standard
210
0
220
0
230
1
 50
90
 73
    2
 44
1
  0
LINE
  5
160
100
AcDbEntity
  8
layer_dimension
  6
ByBlock
 62
    0
370
   -2
100
AcDbLine
 10
1054.019573874186
 20
812.8172043979564
 11
1042.769573874186
 21
812.8172043979564
  0
LINE
  5
161
100
AcDbEntity
  8
layer_dimension
  6
ByBlock
 62
    0
370
   -2
100
AcDbLine
 10
1054.019573874186
 20
742.8172043979564
 11
1042.769573874186
 21
742.8172043979564
  0
ENDBLK
  5
A4
330
A2
100
AcDbEntity
  8
0
100
AcDbBlockEnd
  0
BLOCK
  5
A6
330
A5
100
AcDbEntity
  8
0
100
AcDbBlockBegin
  2
*D29
 70
    1
 10
0
 20
0
  3
*D29
  1

  0
LINE
  5
162
100
AcDbEntity
  8
layer_dimension
  6
ByBlock
 62
    0
370
   -2
100
AcDbLine
 10
1045.269573874186
 20
412.8172043979565
 11
1045.269573874186
 21
236.8172043979565
  0
SOLID
  5
163
100
AcDbEntity
  8
layer_dimension
  6
ByBlock
 62
    0
370
   -2
100
AcDbTrace
 10
1045.269573874186
 20
412.8172043979565
 30
0
 11
1046.102143189732
 21
407.8172043979565
 31
0
 12
1044.437004558641
 22
407.8172043979565
 32
0
 13
1044.437004558641
 23
407.8172043979565
 33
0
  0
SOLID
  5
164
100
AcDbEntity
  8
layer_dimension
  6
ByBlock
 62
    0
370
   -2
100
AcDbTrace
 10
1045.269573874186
 20
236.8172043979565
 30
0
 11
1044.437004558641
 21
241.8172043979565
 31
0
 12
1046.102143189732
 22
241.8172043979565
 32
0
 13
1046.102143189732
 23
241.8172043979565
 33
0
  0
MTEXT
  5
165
100
AcDbEntity
  8
layer_dimension
  6
CONTINUOUS
 62
    0
370
   -2
100
AcDbMText
 10
1041.519573874186
 20
324.8172043979565
 30
0
 40
5
 41
8.888888888889198
 71
    5
 72
    1
  1
176
  7
standard
210
0
220
0
230
1
 50
90
 73
    2
 44
1
  0
LINE
  5
166
100
AcDbEntity
  8
layer_dimension
  6
ByBlock
 62
    0
370
   -2
100
AcDbLine
 10
1054.019573874186
 20
412.8172043979565
 11
1042.769573874186
 21
412.8172043979565
  0
LINE
  5
167
100
AcDbEntity
  8
layer_dimension
  6
ByBlock
 62
    0
370
   -2
100
AcDbLine
 10
1054.019573874186
 20
236.8172043979565
 11
1042.769573874186
 21
236.8172043979565
  0
ENDBLK
  5
A7
330
A5
100
AcDbEntity
  8
0
100
AcDbBlockEnd
  0
BLOCK
  5
A9
330
A8
100
AcDbEntity
  8
0
100
AcDbBlockBegin
  2
*D13
 70
    1
 10
0
 20
0
  3
*D13
  1

  0
LINE
  5
168
100
AcDbEntity
  8
reference
  6
ByBlock
 62
    0
370
   -2
100
AcDbLine
 10
1555
 20
84
 11
1555
 21
42
  0
SOLID
  5
169
100
AcDbEntity
  8
reference
  6
ByBlock
 62
    0
370
   -2
100
AcDbTrace
 10
1555
 20
84
 30
0
 11
1555.832569315546
 21
79
 31
0
 12
1554.167430684454
 22
79
 32
0
 13
1554.167430684454
 23
79
 33
0
  0
SOLID
  5
16A
100
AcDbEntity
  8
reference
  6
ByBlock
 62
    0
370
   -2
100
AcDbTrace
 10
1555
 20
42
 30
0
 11
1554.167430684454
 21
47
 31
0
 12
1555.832569315546
 22
47
 32
0
 13
1555.832569315546
 23
47
 33
0
  0
MTEXT
  5
16B
100
AcDbEntity
  8
reference
  6
CONTINUOUS
 62
    0
370
   -2
100
AcDbMText
 10
1551.25
 20
63
 30
0
 40
5
 41
6.666666666666666
 71
    5
 72
    1
  1
42
  7
standard
210
0
220
0
230
1
 50
90
 73
    2
 44
1
  0
LINE
  5
16C
100
AcDbEntity
  8
reference
  6
ByBlock
 62
    0
370
   -2
100
AcDbLine
 10
1553.75
 20
84
 11
1552.5
 21
84
  0
LINE
  5
16D
100
AcDbEntity
  8
reference
  6
ByBlock
 62
    0
370
   -2
100
AcDbLine
 10
1553.75
 20
42
 11
1552.5
 21
42
  0
ENDBLK
  5
AA
330
A8
100
AcDbEntity
  8
0
100
AcDbBlockEnd
  0
BLOCK
  5
AC
330
AB
100
AcDbEntity
  8
0
100
AcDbBlockBegin
  2
*D19
 70
    1
 10
0
 20
0
  3
*D19
  1

  0
LINE
  5
16E
100
AcDbEntity
  8
layer_dimension
  6
ByBlock
 62
    0
370
   -2
100
AcDbLine
 10
60
 20
144
 11
60
 21
114
  0
SOLID
  5
16F
100
AcDbEntity
  8
layer_dimension
  6
ByBlock
 62
    0
370
   -2
100
AcDbTrace
 10
60
 20
144
 30
0
 11
60.83256931554568
 21
139
 31
0
 12
59.16743068445432
 22
139
 32
0
 13
59.16743068445432
 23
139
 33
0
  0
SOLID
  5
170
100
AcDbEntity
  8
layer_dimension
  6
ByBlock
 62
    0
370
   -2
100
AcDbTrace
 10
60
 20
114
 30
0
 11
59.16743068445432
 21
119
 31
0
 12
60.83256931554568
 22
119
 32
0
 13
60.83256931554568
 23
119
 33
0
  0
MTEXT
  5
171
100
AcDbEntity
  8
layer_dimension
  6
CONTINUOUS
 62
    0
370
   -2
100
AcDbMText
 10
56.25
 20
129
 30
0
 40
5
 41
6.111111111111422
 71
    5
 72
    1
  1
30
  7
standard
210
0
220
0
230
1
 50
90
 73
    2
 44
1
  0
LINE
  5
172
100
AcDbEntity
  8
layer_dimension
  6
ByBlock
 62
    0
370
   -2
100
AcDbLine
 10
73.75
 20
144
 11
57.5
 21
144
  0
LINE
  5
173
100
AcDbEntity
  8
layer_dimension
  6
ByBlock
 62
    0
370
   -2
100
AcDbLine
 10
73.75
 20
114
 11
57.5
 21
114
  0
ENDBLK
  5
AD
330
AB
100
AcDbEntity
  8
0
100
AcDbBlockEnd
  0
BLOCK
  5
AF
330
AE
100
AcDbEntity
  8
0
100
AcDbBlockBegin
  2
*D30
 70
    1
 10
0
 20
0
  3
*D30
  1

  0
LINE
  5
174
100
AcDbEntity
  8
layer_dimension
  6
ByBlock
 62
    0
370
   -2
100
AcDbLine
 10
1035.269573874186
 20
412.8172043979565
 11
1035.269573874186
 21
212.8172043979565
  0
SOLID
  5
175
100
AcDbEntity
  8
layer_dimension
  6
ByBlock
 62
    0
370
   -2
100
AcDbTrace
 10
1035.269573874186
 20
412.8172043979565
 30
0
 11
1036.102143189732
 21
407.8172043979565
 31
0
 12
1034.437004558641
 22
407.8172043979565
 32
0
 13
1034.437004558641
 23
407.8172043979565
 33
0
  0
SOLID
  5
176
100
AcDbEntity
  8
layer_dimension
  6
ByBlock
 62
    0
370
   -2
100
AcDbTrace
 10
1035.269573874186
 20
212.8172043979565
 30
0
 11
1034.437004558641
 21
217.8172043979565
 31
0
 12
1036.102143189732
 22
217.8172043979565
 32
0
 13
1036.102143189732
 23
217.8172043979565
 33
0
  0
MTEXT
  5
177
100
AcDbEntity
  8
layer_dimension
  6
CONTINUOUS
 62
    0
370
   -2
100
AcDbMText
 10
1031.519573874186
 20
312.8172043979565
 30
0
 40
5
 41
10
 71
    5
 72
    1
  1
200
  7
standard
210
0
220
0
230
1
 50
90
 73
    2
 44
1
  0
LINE
  5
178
100
AcDbEntity
  8
layer_dimension
  6
ByBlock
 62
    0
370
   -2
100
AcDbLine
 10
1054.019573874186
 20
412.8172043979565
 11
1032.769573874186
 21
412.8172043979565
  0
LINE
  5
179
100
AcDbEntity
  8
layer_dimension
  6
ByBlock
 62
    0
370
   -2
100
AcDbLine
 10
1054.019573874186
 20
212.8172043979565
 11
1032.769573874186
 21
212.8172043979565
  0
ENDBLK
  5
B0
330
AE
100
AcDbEntity
  8
0
100
AcDbBlockEnd
  0
BLOCK
  5
B2
330
B1
100
AcDbEntity
  8
0
100
AcDbBlockBegin
  2
*D11
 70
    1
 10
0
 20
0
  3
*D11
  1

  0
LINE
  5
17A
100
AcDbEntity
  8
layer_dimension
  6
ByBlock
 62
    0
370
   -2
100
AcDbLine
 10
-19.96368703582117
 20
-99.9713625154065
 11
-19.96368703582118
 21
-299.9713625154065
  0
SOLID
  5
17B
100
AcDbEntity
  8
layer_dimension
  6
ByBlock
 62
    0
370
   -2
100
AcDbTrace
 10
-19.96368703582117
 20
-99.9713625154065
 30
0
 11
-19.13111772027549
 21
-104.9713625154065
 31
0
 12
-20.79625635136685
 22
-104.9713625154065
 32
0
 13
-20.79625635136685
 23
-104.9713625154065
 33
0
  0
SOLID
  5
17C
100
AcDbEntity
  8
layer_dimension
  6
ByBlock
 62
    0
370
   -2
100
AcDbTrace
 10
-19.96368703582118
 20
-299.9713625154065
 30
0
 11
-20.79625635136686
 21
-294.9713625154065
 31
0
 12
-19.1311177202755
 22
-294.9713625154065
 32
0
 13
-19.1311177202755
 23
-294.9713625154065
 33
0
  0
MTEXT
  5
17D
100
AcDbEntity
  8
layer_dimension
  6
CONTINUOUS
 62
    0
370
   -2
100
AcDbMText
 10
-23.71368703582118
 20
-199.9713625154065
 30
0
 40
5
 41
10
 71
    5
 72
    1
  1
200
  7
standard
210
0
220
0
230
1
 50
90
 73
    2
 44
1
  0
LINE
  5
17E
100
AcDbEntity
  8
layer_dimension
  6
ByBlock
 62
    0
370
   -2
100
AcDbLine
 10
-1.213687035821181
 20
-99.9713625154065
 11
-22.46368703582117
 21
-99.9713625154065
  0
LINE
  5
17F
100
AcDbEntity
  8
layer_dimension
  6
ByBlock
 62
    0
370
   -2
100
AcDbLine
 10
-1.213687035821181
 20
-299.9713625154065
 11
-22.46368703582118
 21
-299.9713625154065
  0
ENDBLK
  5
B3
330
B1
100
AcDbEntity
  8
0
100
AcDbBlockEnd
  0
BLOCK
  5
B5
330
B4
100
AcDbEntity
  8
0
100
AcDbBlockBegin
  2
*D15
 70
    1
 10
0
 20
0
  3
*D15
  1

  0
LINE
  5
180
100
AcDbEntity
  8
layer_dimension
  6
ByBlock
 62
    0
370
   -2
100
AcDbLine
 10
60
 20
114
 11
60
 21
77
  0
SOLID
  5
181
100
AcDbEntity
  8
layer_dimension
  6
ByBlock
 62
    0
370
   -2
100
AcDbTrace
 10
60
 20
114
 30
0
 11
60.83256931554568
 21
109
 31
0
 12
59.16743068445432
 22
109
 32
0
 13
59.16743068445432
 23
109
 33
0
  0
SOLID
  5
182
100
AcDbEntity
  8
layer_dimension
  6
ByBlock
 62
    0
370
   -2
100
AcDbTrace
 10
60
 20
77
 30
0
 11
59.16743068445432
 21
82
 31
0
 12
60.83256931554568
 22
82
 32
0
 13
60.83256931554568
 23
82
 33
0
  0
MTEXT
  5
183
100
AcDbEntity
  8
layer_dimension
  6
CONTINUOUS
 62
    0
370
   -2
100
AcDbMText
 10
56.25
 20
95.5
 30
0
 40
5
 41
6.111111111111422
 71
    5
 72
    1
  1
37
  7
standard
210
0
220
0
230
1
 50
90
 73
    2
 44
1
  0
LINE
  5
184
100
AcDbEntity
  8
layer_dimension
  6
ByBlock
 62
    0
370
   -2
100
AcDbLine
 10
69.78631296417882
 20
114
 11
57.5
 21
114
  0
LINE
  5
185
100
AcDbEntity
  8
layer_dimension
  6
ByBlock
 62
    0
370
   -2
100
AcDbLine
 10
69.78631296417882
 20
77
 11
57.5
 21
77
  0
ENDBLK
  5
B6
330
B4
100
AcDbEntity
  8
0
100
AcDbBlockEnd
  0
BLOCK
  5
B8
330
B7
100
AcDbEntity
  8
0
100
AcDbBlockBegin
  2
*D14
 70
    1
 10
0
 20
0
  3
*D14
  1

  0
LINE
  5
186
100
AcDbEntity
  8
reference
  6
ByBlock
 62
    0
370
   -2
100
AcDbLine
 10
1555
 20
84
 11
1555
 21
42
  0
SOLID
  5
187
100
AcDbEntity
  8
reference
  6
ByBlock
 62
    0
370
   -2
100
AcDbTrace
 10
1555
 20
84
 30
0
 11
1555.832569315546
 21
79
 31
0
 12
1554.167430684454
 22
79
 32
0
 13
1554.167430684454
 23
79
 33
0
  0
SOLID
  5
188
100
AcDbEntity
  8
reference
  6
ByBlock
 62
    0
370
   -2
100
AcDbTrace
 10
1555
 20
42
 30
0
 11
1554.167430684454
 21
47
 31
0
 12
1555.832569315546
 22
47
 32
0
 13
1555.832569315546
 23
47
 33
0
  0
MTEXT
  5
189
100
AcDbEntity
  8
reference
  6
CONTINUOUS
 62
    0
370
   -2
100
AcDbMText
 10
1551.25
 20
63
 30
0
 40
5
 41
6.666666666666666
 71
    5
 72
    1
  1
42
  7
standard
210
0
220
0
230
1
 50
90
 73
    2
 44
1
  0
LINE
  5
18A
100
AcDbEntity
  8
reference
  6
ByBlock
 62
    0
370
   -2
100
AcDbLine
 10
1553.75
 20
84
 11
1552.5
 21
84
  0
LINE
  5
18B
100
AcDbEntity
  8
reference
  6
ByBlock
 62
    0
370
   -2
100
AcDbLine
 10
1553.75
 20
42
 11
1552.5
 21
42
  0
ENDBLK
  5
B9
330
B7
100
AcDbEntity
  8
0
100
AcDbBlockEnd
  0
BLOCK
  5
BB
330
BA
100
AcDbEntity
  8
0
100
AcDbBlockBegin
  2
*D8
 70
    1
 10
0
 20
0
  3
*D8
  1

  0
LINE
  5
18C
100
AcDbEntity
  8
layer_dimension
  6
ByBlock
 62
    0
370
   -2
100
AcDbLine
 10
100.0363129641788
 20
285.0286374845935
 11
100.0363129641788
 21
245.0286374845935
  0
SOLID
  5
18D
100
AcDbEntity
  8
layer_dimension
  6
ByBlock
 62
    0
370
   -2
100
AcDbTrace
 10
100.0363129641788
 20
285.0286374845935
 30
0
 11
100.8688822797245
 21
280.0286374845935
 31
0
 12
99.20374364863312
 22
280.0286374845935
 32
0
 13
99.20374364863312
 23
280.0286374845935
 33
0
  0
SOLID
  5
18E
100
AcDbEntity
  8
layer_dimension
  6
ByBlock
 62
    0
370
   -2
100
AcDbTrace
 10
100.0363129641788
 20
245.0286374845935
 30
0
 11
99.20374364863312
 21
250.0286374845935
 31
0
 12
100.8688822797245
 22
250.0286374845935
 32
0
 13
100.8688822797245
 23
250.0286374845935
 33
0
  0
MTEXT
  5
18F
100
AcDbEntity
  8
layer_dimension
  6
CONTINUOUS
 62
    0
370
   -2
100
AcDbMText
 10
96.28631296417882
 20
265.0286374845935
 30
0
 40
5
 41
6.666666666666667
 71
    5
 72
    1
  1
40
  7
standard
210
0
220
0
230
1
 50
90
 73
    2
 44
1
  0
LINE
  5
190
100
AcDbEntity
  8
layer_dimension
  6
ByBlock
 62
    0
370
   -2
100
AcDbLine
 10
92.28631296417882
 20
285.0286374845935
 11
102.5363129641788
 21
285.0286374845935
  0
LINE
  5
191
100
AcDbEntity
  8
layer_dimension
  6
ByBlock
 62
    0
370
   -2
100
AcDbLine
 10
92.28631296417882
 20
245.0286374845935
 11
102.5363129641788
 21
245.0286374845935
  0
ENDBLK
  5
BC
330
BA
100
AcDbEntity
  8
0
100
AcDbBlockEnd
  0
BLOCK
  5
BE
330
BD
100
AcDbEntity
  8
0
100
AcDbBlockBegin
  2
*D28
 70
    1
 10
0
 20
0
  3
*D28
  1

  0
LINE
  5
192
100
AcDbEntity
  8
layer_dimension
  6
ByBlock
 62
    0
370
   -2
100
AcDbLine
 10
1114.269573874186
 20
748.8172043979564
 11
1146.269573874186
 21
748.8172043979564
  0
SOLID
  5
193
100
AcDbEntity
  8
layer_dimension
  6
ByBlock
 62
    0
370
   -2
100
AcDbTrace
 10
1114.269573874186
 20
748.8172043979564
 30
0
 11
1119.269573874186
 21
749.6497737135021
 31
0
 12
1119.269573874186
 22
747.9846350824107
 32
0
 13
1119.269573874186
 23
747.9846350824107
 33
0
  0
SOLID
  5
194
100
AcDbEntity
  8
layer_dimension
  6
ByBlock
 62
    0
370
   -2
100
AcDbTrace
 10
1146.269573874186
 20
748.8172043979564
 30
0
 11
1141.269573874186
 21
747.9846350824107
 31
0
 12
1141.269573874186
 22
749.6497737135021
 32
0
 13
1141.269573874186
 23
749.6497737135021
 33
0
  0
MTEXT
  5
195
100
AcDbEntity
  8
layer_dimension
  6
CONTINUOUS
 62
    0
370
   -2
100
AcDbMText
 10
1130.269573874186
 20
752.5672043979564
 30
0
 40
5
 41
6.111111111111422
 71
    5
 72
    1
  1
32
  7
standard
210
0
220
0
230
1
 50
0
 73
    2
 44
1
  0
LINE
  5
196
100
AcDbEntity
  8
layer_dimension
  6
ByBlock
 62
    0
370
   -2
100
AcDbLine
 10
1114.269573874186
 20
756.5672043979564
 11
1114.269573874186
 21
746.3172043979564
  0
LINE
  5
197
100
AcDbEntity
  8
layer_dimension
  6
ByBlock
 62
    0
370
   -2
100
AcDbLine
 10
1146.269573874186
 20
756.5672043979564
 11
1146.269573874186
 21
746.3172043979564
  0
ENDBLK
  5
BF
330
BD
100
AcDbEntity
  8
0
100
AcDbBlockEnd
  0
ENDSEC
  0
SECTION
  2
ENTITIES
  0
LINE
  5
198
100
AcDbEntity
  8
escala-1-1
  6
ByLayer
 62
  256
370
   -1
100
AcDbLine
 10
0.03631296417881913
 20
0.02863748459349966
 11
0.03631296417881913
 21
300.0286374845935
  0
LINE
  5
199
100
AcDbEntity
  8
escala-1-1
  6
ByLayer
 62
  256
370
   -1
100
AcDbLine
 10
0.03631296417881913
 20
300.0286374845935
 11
150.0363129641788
 21
300.0286374845935
  0
LINE
  5
19A
100
AcDbEntity
  8
escala-1-1
  6
ByLayer
 62
  256
370
   -1
100
AcDbLine
 10
0.03631296417881913
 20
0.02863748459349966
 11
0.03631296417881913
 21
150.0286374845935
  0
LINE
  5
19B
100
AcDbEntity
  8
escala-1-1
  6
ByLayer
 62
  256
370
   -1
100
AcDbLine
 10
0.03631296417881913
 20
0.02863748459349966
 11
150.0363129641788
 21
0.02863748459349966
  0
LINE
  5
19C
100
AcDbEntity
  8
escala-1-1
  6
ByLayer
 62
  256
370
   -1
100
AcDbLine
 10
150.0363129641788
 20
0.02863748459349966
 11
150.0363129641788
 21
300.0286374845935
  0
LINE
  5
19D
100
AcDbEntity
  8
escala-1-1
  6
ByLayer
 62
  256
370
   -1
100
AcDbLine
 10
0.03631296417881913
 20
230.0286374845935
 11
150.0363129641788
 21
230.0286374845935
  0
DIMENSION
  5
19E
100
AcDbEntity
  8
layer_dimension
  6
ByLayer
 62
  256
370
   -1
100
AcDbDimension
  2
*D1
 10
-19.96368703582118
 20
0.02863748459350211
 30
0
 11
-23.71368703582118
 21
150.0286374845935
 31
0
 70
   32
 71
    5
  3
Standard
 53
0
210
0
220
0
230
1
100
AcDbAlignedDimension
 13
0.03631296417881913
 23
300.0286374845935
 33
0
 14
0.03631296417881913
 24
0.02863748459349966
 34
0
 50
90
100
AcDbRotatedDimension
  0
DIMENSION
  5
19F
100
AcDbEntity
  8
layer_dimension
  6
ByLayer
 62
  256
370
   -1
100
AcDbDimension
  2
*D2
 10
-9.963687035821181
 20
230.0286374845935
 30
0
 11
-13.71368703582118
 21
265.0286374845935
 31
0
 70
   32
 71
    5
  3
Standard
 53
0
210
0
220
0
230
1
100
AcDbAlignedDimension
 13
0.03631296417881913
 23
300.0286374845935
 33
0
 14
0.03631296417881913
 24
230.0286374845935
 34
0
 50
90
100
AcDbRotatedDimension
  0
DIMENSION
  5
1A0
100
AcDbEntity
  8
layer_dimension
  6
ByLayer
 62
  256
370
   -1
100
AcDbDimension
  2
*D3
 10
150.0363129641788
 20
310.0286374845935
 30
0
 11
75.03631296417882
 21
313.7786374845935
 31
0
 70
   32
 71
    5
  3
Standard
 53
0
210
0
220
0
230
1
100
AcDbAlignedDimension
 13
0.03631296417881913
 23
300.0286374845935
 33
0
 14
150.0363129641788
 24
300.0286374845935
 34
0
100
AcDbRotatedDimension
  0
LINE
  5
1A1
100
AcDbEntity
  8
reference
  6
ByLayer
 62
  256
370
   -1
100
AcDbLine
 10
75.03631296417882
 20
0.02863748459349966
 11
75.03631296417882
 21
300.0286374845935
  0
LINE
  5
1A2
100
AcDbEntity
  8
escala-1-1
  6
ByLayer
 62
  256
370
   -1
100
AcDbLine
 10
250.0363129641788
 20
0.02863748459349966
 11
250.0363129641788
 21
300.0286374845935
  0
LINE
  5
1A3
100
AcDbEntity
  8
escala-1-1
  6
ByLayer
 62
  256
370
   -1
100
AcDbLine
 10
450.0363129641788
 20
230.0286374845935
 11
450.0363129641788
 21
0.02863748459349966
  0
LINE
  5
1A4
100
AcDbEntity
  8
escala-1-1
  6
ByLayer
 62
  256
370
   -1
100
AcDbLine
 10
450.0363129641788
 20
0.02863748459349966
 11
250.0363129641788
 21
0.02863748459349966
  0
DIMENSION
  5
1A5
100
AcDbEntity
  8
layer_dimension
  6
ByLayer
 62
  256
370
   -1
100
AcDbDimension
  2
*D4
 10
450.0363129641788
 20
-9.971362515406501
 30
0
 11
350.0363129641788
 21
-6.221362515406501
 31
0
 70
   32
 71
    5
  3
Standard
 53
0
210
0
220
0
230
1
100
AcDbAlignedDimension
 13
250.0363129641788
 23
0.02863748459349966
 33
0
 14
450.0363129641788
 24
0.02863748459349966
 34
0
100
AcDbRotatedDimension
  0
LINE
  5
1A6
100
AcDbEntity
  8
escala-1-1
  6
ByLayer
 62
  256
370
   -1
100
AcDbLine
 10
250.0363129641788
 20
300.0286374845935
 11
426.0363129641788
 21
300.0286374845935
  0
LINE
  5
1A7
100
AcDbEntity
  8
escala-1-1
  6
ByLayer
 62
  256
370
   -1
100
AcDbLine
 10
426.0363129641788
 20
300.0286374845935
 11
450.0363129641788
 21
230.0286374845935
  0
DIMENSION
  5
1A8
100
AcDbEntity
  8
layer_dimension
  6
ByLayer
 62
  256
370
   -1
100
AcDbDimension
  2
*D5
 10
462.052383088357
 20
234.1484329557403
 30
0
 11
453.5996803856543
 21
270.3646491719566
 31
0
 70
   33
 71
    5
  3
Standard
 53
0
210
0
220
0
230
1
100
AcDbAlignedDimension
 13
426.0363129641788
 23
300.0286374845935
 33
0
 14
450.0363129641788
 24
230.0286374845935
 34
0
  0
DIMENSION
  5
1A9
100
AcDbEntity
  8
layer_dimension
  6
ByLayer
 62
  256
370
   -1
100
AcDbDimension
  2
*D6
 10
426.0363129641788
 20
310.0286374845935
 30
0
 11
338.0363129641788
 21
313.7786374845935
 31
0
 70
   33
 71
    5
  3
Standard
 53
0
210
0
220
0
230
1
100
AcDbAlignedDimension
 13
250.0363129641788
 23
300.0286374845935
 33
0
 14
426.0363129641788
 24
300.0286374845935
 34
0
  0
DIMENSION
  5
1AA
100
AcDbEntity
  8
layer_dimension
  6
ByLayer
 62
  256
370
   -1
100
AcDbDimension
  2
*D7
 10
460.0363129641788
 20
0.02863748459349844
 30
0
 11
456.2863129641788
 21
115.0286374845935
 31
0
 70
   32
 71
    5
  3
Standard
 53
0
210
0
220
0
230
1
100
AcDbAlignedDimension
 13
450.0363129641788
 23
230.0286374845935
 33
0
 14
450.0363129641788
 24
0.02863748459349966
 34
0
 50
90
100
AcDbRotatedDimension
  0
LINE
  5
1AB
100
AcDbEntity
  8
escala-1-1
  6
ByLayer
 62
  256
370
   -1
100
AcDbLine
 10
75.03631296417882
 20
285.0286374845935
 11
91.03631296417882
 21
285.0286374845935
  0
LINE
  5
1AC
100
AcDbEntity
  8
escala-1-1
  6
ByLayer
 62
  256
370
   -1
100
AcDbLine
 10
91.03631296417882
 20
285.0286374845935
 11
91.03631296417882
 21
245.0286374845935
  0
LINE
  5
1AD
100
AcDbEntity
  8
escala-1-1
  6
ByLayer
 62
  256
370
   -1
100
AcDbLine
 10
91.03631296417882
 20
245.0286374845935
 11
59.03631296417882
 21
245.0286374845935
  0
LINE
  5
1AE
100
AcDbEntity
  8
escala-1-1
  6
ByLayer
 62
  256
370
   -1
100
AcDbLine
 10
59.03631296417882
 20
245.0286374845935
 11
59.03631296417882
 21
285.0286374845935
  0
LINE
  5
1AF
100
AcDbEntity
  8
escala-1-1
  6
ByLayer
 62
  256
370
   -1
100
AcDbLine
 10
59.03631296417882
 20
285.0286374845935
 11
75.03631296417882
 21
285.0286374845935
  0
DIMENSION
  5
1B0
100
AcDbEntity
  8
layer_dimension
  6
ByLayer
 62
  256
370
   -1
100
AcDbDimension
  2
*D8
 10
100.0363129641788
 20
245.0286374845935
 30
0
 11
96.28631296417882
 21
265.0286374845935
 31
0
 70
   32
 71
    5
  3
Standard
 53
0
210
0
220
0
230
1
100
AcDbAlignedDimension
 13
91.03631296417882
 23
285.0286374845935
 33
0
 14
91.03631296417882
 24
245.0286374845935
 34
0
 50
90
100
AcDbRotatedDimension
  0
DIMENSION
  5
1B1
100
AcDbEntity
  8
layer_dimension
  6
ByLayer
 62
  256
370
   -1
100
AcDbDimension
  2
*D9
 10
91.03631296417882
 20
236.0286374845935
 30
0
 11
75.03631296417882
 21
239.7786374845935
 31
0
 70
   32
 71
    5
  3
Standard
 53
0
210
0
220
0
230
1
100
AcDbAlignedDimension
 13
59.03631296417882
 23
245.0286374845935
 33
0
 14
91.03631296417882
 24
245.0286374845935
 34
0
100
AcDbRotatedDimension
  0
LINE
  5
1B2
100
AcDbEntity
  8
escala-1-1
  6
ByLayer
 62
  256
370
   -1
100
AcDbLine
 10
0.03631296417881913
 20
-99.9713625154065
 11
150.0363129641788
 21
-99.9713625154065
  0
LINE
  5
1B3
100
AcDbEntity
  8
escala-1-1
  6
ByLayer
 62
  256
370
   -1
100
AcDbLine
 10
150.0363129641788
 20
-99.9713625154065
 11
150.0363129641788
 21
-299.9713625154065
  0
LINE
  5
1B4
100
AcDbEntity
  8
escala-1-1
  6
ByLayer
 62
  256
370
   -1
100
AcDbLine
 10
150.0363129641788
 20
-299.9713625154065
 11
0.03631296417881913
 21
-299.9713625154065
  0
LINE
  5
1B5
100
AcDbEntity
  8
escala-1-1
  6
ByLayer
 62
  256
370
   -1
100
AcDbLine
 10
0.03631296417881913
 20
-299.9713625154065
 11
0.03631296417881913
 21
-99.9713625154065
  0
LINE
  5
1B6
100
AcDbEntity
  8
escala-1-1
  6
ByLayer
 62
  256
370
   -1
100
AcDbLine
 10
0.03631296417881913
 20
-275.9713625154065
 11
150.0363129641788
 21
-275.9713625154065
  0
DIMENSION
  5
1B7
100
AcDbEntity
  8
layer_dimension
  6
ByLayer
 62
  256
370
   -1
100
AcDbDimension
  2
*D10
 10
-9.963687035821181
 20
-275.9713625154065
 30
0
 11
-13.71368703582118
 21
-187.9713625154065
 31
0
 70
   32
 71
    5
  3
Standard
 53
0
210
0
220
0
230
1
100
AcDbAlignedDimension
 13
0.03631296417881913
 23
-99.9713625154065
 33
0
 14
0.03631296417881913
 24
-275.9713625154065
 34
0
 50
90
100
AcDbRotatedDimension
  0
DIMENSION
  5
1B8
100
AcDbEntity
  8
layer_dimension
  6
ByLayer
 62
  256
370
   -1
100
AcDbDimension
  2
*D11
 10
-19.96368703582118
 20
-299.9713625154065
 30
0
 11
-23.71368703582118
 21
-199.9713625154065
 31
0
 70
   32
 71
    5
  3
Standard
 53
0
210
0
220
0
230
1
100
AcDbAlignedDimension
 13
0.03631296417881913
 23
-99.9713625154065
 33
0
 14
0.03631296417881913
 24
-299.9713625154065
 34
0
 50
90
100
AcDbRotatedDimension
  0
DIMENSION
  5
1B9
100
AcDbEntity
  8
layer_dimension
  6
ByLayer
 62
  256
370
   -1
100
AcDbDimension
  2
*D12
 10
150.0363129641788
 20
-309.9713625154065
 30
0
 11
75.03631296417882
 21
-306.2213625154065
 31
0
 70
   32
 71
    5
  3
Standard
 53
0
210
0
220
0
230
1
100
AcDbAlignedDimension
 13
0.03631296417881913
 23
-299.9713625154065
 33
0
 14
150.0363129641788
 24
-299.9713625154065
 34
0
100
AcDbRotatedDimension
  0
LINE
  5
1BA
100
AcDbEntity
  8
reference
  6
ByLayer
 62
  256
370
   -1
100
AcDbLine
 10
0
 20
180
 11
150
 21
180
  0
CIRCLE
  5
1BB
100
AcDbEntity
  8
escala-1-1
  6
ByLayer
 62
  256
370
   -1
100
AcDbCircle
 10
75.03631296417882
 20
205.0286374845935
 40
1.5
  0
LINE
  5
1BC
100
AcDbEntity
  8
reference
  6
ByLayer
 62
  256
370
   -1
100
AcDbLine
 10
1000
 20
24.5
 11
1110
 21
24.5
  0
LINE
  5
1BD
100
AcDbEntity
  8
reference
  6
ByLayer
 62
  256
370
   -1
100
AcDbLine
 10
1000
 20
17.5
 11
1110
 21
17.5
  0
LINE
  5
1BE
100
AcDbEntity
  8
reference
  6
ByLayer
 62
  256
370
   -1
100
AcDbLine
 10
1002
 20
287
 11
1002
 21
-4.898587196589413e-16
  0
LINE
  5
1BF
100
AcDbEntity
  8
reference
  6
ByLayer
 62
  256
370
   -1
100
AcDbLine
 10
1027
 20
28
 11
1027
 21
-6.613092715395707e-15
  0
LWPOLYLINE
  5
1C0
100
AcDbEntity
  8
0
  6
ByLayer
 62
  256
370
   -1
100
AcDbPolyline
 90
    4
 70
    1
 43
0
 10
1000
 20
0
 10
1555
 20
0
 10
1555
 20
861
 10
1000
 20
861
  0
LINE
  5
1C1
100
AcDbEntity
  8
0
  6
ByLayer
 62
  256
370
   -1
100
AcDbLine
 10
1000
 20
84
 11
1555
 21
84
  0
LINE
  5
1C2
100
AcDbEntity
  8
layer_2
  6
ByLayer
 62
  256
370
   -1
100
AcDbLine
 10
1000
 20
42
 11
1555
 21
42
  0
LINE
  5
1C3
100
AcDbEntity
  8
layer_3
  6
ByLayer
 62
  256
370
   -1
100
AcDbLine
 10
1075
 20
84
 11
1075
 21
-1.83697019872103e-14
  0
LINE
  5
1C4
100
AcDbEntity
  8
layer_3
  6
ByLayer
 62
  256
370
   -1
100
AcDbLine
 10
1180
 20
84
 11
1180
 21
42
  0
LINE
  5
1C5
100
AcDbEntity
  8
layer_3
  6
ByLayer
 62
  256
370
   -1
100
AcDbLine
 10
1255
 20
84
 11
1255
 21
42
  0
LINE
  5
1C6
100
AcDbEntity
  8
layer_3
  6
ByLayer
 62
  256
370
   -1
100
AcDbLine
 10
1330
 20
84
 11
1330
 21
42
  0
LINE
  5
1C7
100
AcDbEntity
  8
layer_3
  6
ByLayer
 62
  256
370
   -1
100
AcDbLine
 10
1405
 20
1.83697019872103e-14
 11
1405
 21
42
  0
LINE
  5
1C8
100
AcDbEntity
  8
layer_3
  6
ByLayer
 62
  256
370
   -1
100
AcDbLine
 10
1000
 20
63
 11
1330
 21
63
  0
TEXT
  5
1C9
100
AcDbEntity
  8
text
  6
ByLayer
 62
  256
370
   -1
100
AcDbText
 10
1006
 20
73.5
 30
0
 40
9
  1
NAME
 50
0
 41
1
 51
0
  7
standard
 71
    0
 11
1006
 21
73.5
 31
0
210
0
220
0
230
1
100
AcDbText
 73
    2
  0
TEXT
  5
1CA
100
AcDbEntity
  8
text
  6
ByLayer
 62
  256
370
   -1
100
AcDbText
 10
1081
 20
73.5
 30
0
 40
9
  1
BLESKOMAT
 50
0
 41
1
 51
0
  7
standard
 71
    0
 11
1081
 21
73.5
 31
0
210
0
220
0
230
1
100
AcDbText
 73
    2
  0
DIMENSION
  5
1CB
100
AcDbEntity
  8
reference
  6
ByLayer
 62
  256
370
   -1
100
AcDbDimension
  2
*D13
 10
1555
 20
42
 30
0
 11
1551.25
 21
63
 31
0
 70
   32
 71
    5
 72
    0
  3
Standard
 53
0
210
0
220
0
230
1
100
AcDbAlignedDimension
 13
1555
 23
84
 33
0
 14
1555
 24
42
 34
0
 50
90
100
AcDbRotatedDimension
  0
DIMENSION
  5
1CC
100
AcDbEntity
  8
reference
  6
ByLayer
 62
  256
370
   -1
100
AcDbDimension
  2
*D14
 10
1555
 20
42
 30
0
 11
1551.25
 21
63
 31
0
 70
   32
 71
    5
 72
    0
  3
Standard
 53
0
210
0
220
0
230
1
100
AcDbAlignedDimension
 13
1555
 23
84
 33
0
 14
1555
 24
42
 34
0
 50
90
100
AcDbRotatedDimension
  0
LINE
  5
1CD
100
AcDbEntity
  8
reference
  6
ByLayer
 62
  256
370
   -1
100
AcDbLine
 10
1000
 20
63
 11
1555
 21
63
  0
LINE
  5
1CE
100
AcDbEntity
  8
reference
  6
ByLayer
 62
  256
370
   -1
100
AcDbLine
 10
1000
 20
63
 11
1555
 21
63
  0
LINE
  5
1CF
100
AcDbEntity
  8
reference
  6
ByLayer
 62
  256
370
   -1
100
AcDbLine
 10
1332
 20
84
 11
1332
 21
42
  0
TEXT
  5
1D0
100
AcDbEntity
  8
text
  6
ByLayer
 62
  256
370
   -1
100
AcDbText
 10
1332.327219841153
 20
62.7248905318032
 30
0
 40
9
  1
Scale 1:3
 50
0
 41
1
 51
0
  7
standard
 71
    0
 11
1332.327219841153
 21
62.7248905318032
 31
0
210
0
220
0
230
1
100
AcDbText
 73
    2
  0
LINE
  5
1D1
100
AcDbEntity
  8
escala-1-1
  6
ByLayer
 62
  256
370
   -1
100
AcDbLine
 10
75.03631296417882
 20
180
 11
78.28631296417882
 21
180
  0
LINE
  5
1D2
100
AcDbEntity
  8
escala-1-1
  6
ByLayer
 62
  256
370
   -1
100
AcDbLine
 10
78.28631296417882
 20
180
 11
78.28631296417882
 21
144
  0
LINE
  5
1D3
100
AcDbEntity
  8
escala-1-1
  6
ByLayer
 62
  256
370
   -1
100
AcDbLine
 10
78.28631296417882
 20
144
 11
71.78631296417882
 21
144
  0
LINE
  5
1D4
100
AcDbEntity
  8
escala-1-1
  6
ByLayer
 62
  256
370
   -1
100
AcDbLine
 10
71.78631263727009
 20
143.9999999656037
 11
71.78631263727009
 21
179.9999999656037
  0
LINE
  5
1D5
100
AcDbEntity
  8
escala-1-1
  6
ByLayer
 62
  256
370
   -1
100
AcDbLine
 10
71.78631263727009
 20
179.9999999656037
 11
78.28631296417882
 21
180
  0
LINE
  5
1D6
100
AcDbEntity
  8
escala-1-1
  6
ByLayer
 62
  256
370
   -1
100
AcDbLine
 10
75.03631296417882
 20
114
 11
79.03631296417882
 21
114
  0
LINE
  5
1D7
100
AcDbEntity
  8
escala-1-1
  6
ByLayer
 62
  256
370
   -1
100
AcDbLine
 10
79.03631296417882
 20
114
 11
79.03631296417882
 21
77
  0
LINE
  5
1D8
100
AcDbEntity
  8
escala-1-1
  6
ByLayer
 62
  256
370
   -1
100
AcDbLine
 10
79.03631296417882
 20
77
 11
71.03631296417882
 21
77
  0
LINE
  5
1D9
100
AcDbEntity
  8
escala-1-1
  6
ByLayer
 62
  256
370
   -1
100
AcDbLine
 10
71.03631296417882
 20
77
 11
71.03631296417882
 21
114
  0
LINE
  5
1DA
100
AcDbEntity
  8
escala-1-1
  6
ByLayer
 62
  256
370
   -1
100
AcDbLine
 10
71.03631296417882
 20
114
 11
75.03631296417882
 21
114
  0
DIMENSION
  5
1DB
100
AcDbEntity
  8
layer_dimension
  6
ByLayer
 62
  256
370
   -1
100
AcDbDimension
  2
*D15
 10
60
 20
77
 30
0
 11
56.25
 21
95.5
 31
0
 70
   32
 71
    5
  3
Standard
 53
0
210
0
220
0
230
1
100
AcDbAlignedDimension
 13
71.03631296417882
 23
114
 33
0
 14
71.03631296417882
 24
77
 34
0
 50
90
100
AcDbRotatedDimension
  0
DIMENSION
  5
1DC
100
AcDbEntity
  8
layer_dimension
  6
ByLayer
 62
  256
370
   -1
100
AcDbDimension
  2
*D16
 10
60
 20
179.9999999656037
 30
0
 11
56.25
 21
161.9999999828019
 31
0
 70
   32
 71
    5
  3
Standard
 53
0
210
0
220
0
230
1
100
AcDbAlignedDimension
 13
72
 23
144
 33
0
 14
71.78631263727009
 24
179.9999999656037
 34
0
 50
90
100
AcDbRotatedDimension
  0
DIMENSION
  5
1DD
100
AcDbEntity
  8
layer_dimension
  6
ByLayer
 62
  256
370
   -1
100
AcDbDimension
  2
*D17
 10
78.28631296417882
 20
190
 30
0
 11
75.03631280072446
 21
193.75
 31
0
 70
   32
 71
    5
  3
Standard
 53
0
210
0
220
0
230
1
100
AcDbAlignedDimension
 13
71.78631263727009
 23
179.9999999656037
 33
0
 14
78.28631296417882
 24
180
 34
0
100
AcDbRotatedDimension
  0
DIMENSION
  5
1DE
100
AcDbEntity
  8
layer_dimension
  6
ByLayer
 62
  256
370
   -1
100
AcDbDimension
  2
*D18
 10
79.03631296417882
 20
70
 30
0
 11
75.03631296417882
 21
73.75
 31
0
 70
   32
 71
    5
  3
Standard
 53
0
210
0
220
0
230
1
100
AcDbAlignedDimension
 13
71.03631296417882
 23
77
 33
0
 14
79.03631296417882
 24
77
 34
0
100
AcDbRotatedDimension
  0
DIMENSION
  5
1DF
100
AcDbEntity
  8
layer_dimension
  6
ByLayer
 62
  256
370
   -1
100
AcDbDimension
  2
*D19
 10
60
 20
114
 30
0
 11
56.25
 21
129
 31
0
 70
   32
 71
    5
  3
Standard
 53
0
210
0
220
0
230
1
100
AcDbAlignedDimension
 13
75
 23
144
 33
0
 14
75
 24
114
 34
0
 50
90
100
AcDbRotatedDimension
  0
LINE
  5
1E0
100
AcDbEntity
  8
escala-1-1
  6
ByLayer
 62
  256
370
   -1
100
AcDbLine
 10
1055.269573874186
 20
512.8172043979564
 11
1055.269573874186
 21
812.8172043979564
  0
LINE
  5
1E1
100
AcDbEntity
  8
escala-1-1
  6
ByLayer
 62
  256
370
   -1
100
AcDbLine
 10
1055.269573874186
 20
812.8172043979564
 11
1205.269573874186
 21
812.8172043979564
  0
LINE
  5
1E2
100
AcDbEntity
  8
escala-1-1
  6
ByLayer
 62
  256
370
   -1
100
AcDbLine
 10
1055.269573874186
 20
512.8172043979564
 11
1055.269573874186
 21
662.8172043979564
  0
LINE
  5
1E3
100
AcDbEntity
  8
escala-1-1
  6
ByLayer
 62
  256
370
   -1
100
AcDbLine
 10
1055.269573874186
 20
512.8172043979564
 11
1205.269573874186
 21
512.8172043979564
  0
LINE
  5
1E4
100
AcDbEntity
  8
escala-1-1
  6
ByLayer
 62
  256
370
   -1
100
AcDbLine
 10
1205.269573874186
 20
512.8172043979564
 11
1205.269573874186
 21
812.8172043979564
  0
LINE
  5
1E5
100
AcDbEntity
  8
escala-1-1
  6
ByLayer
 62
  256
370
   -1
100
AcDbLine
 10
1055.269573874186
 20
742.8172043979564
 11
1205.269573874186
 21
742.8172043979564
  0
DIMENSION
  5
1E6
100
AcDbEntity
  8
layer_dimension
  6
ByLayer
 62
  256
370
   -1
100
AcDbDimension
  2
*D20
 10
1035.269573874186
 20
512.8172043979564
 30
0
 11
1031.519573874186
 21
662.8172043979564
 31
0
 70
   32
 71
    5
  3
Standard
 53
0
210
0
220
0
230
1
100
AcDbAlignedDimension
 13
1055.269573874186
 23
812.8172043979564
 33
0
 14
1055.269573874186
 24
512.8172043979564
 34
0
 50
90
100
AcDbRotatedDimension
  0
DIMENSION
  5
1E7
100
AcDbEntity
  8
layer_dimension
  6
ByLayer
 62
  256
370
   -1
100
AcDbDimension
  2
*D21
 10
1045.269573874186
 20
742.8172043979564
 30
0
 11
1041.519573874186
 21
777.8172043979564
 31
0
 70
   32
 71
    5
  3
Standard
 53
0
210
0
220
0
230
1
100
AcDbAlignedDimension
 13
1055.269573874186
 23
812.8172043979564
 33
0
 14
1055.269573874186
 24
742.8172043979564
 34
0
 50
90
100
AcDbRotatedDimension
  0
DIMENSION
  5
1E8
100
AcDbEntity
  8
layer_dimension
  6
ByLayer
 62
  256
370
   -1
100
AcDbDimension
  2
*D22
 10
1205.269573874186
 20
822.8172043979564
 30
0
 11
1130.269573874186
 21
826.5672043979564
 31
0
 70
   32
 71
    5
  3
Standard
 53
0
210
0
220
0
230
1
100
AcDbAlignedDimension
 13
1055.269573874186
 23
812.8172043979564
 33
0
 14
1205.269573874186
 24
812.8172043979564
 34
0
100
AcDbRotatedDimension
  0
LINE
  5
1E9
100
AcDbEntity
  8
escala-1-1
  6
ByLayer
 62
  256
370
   -1
100
AcDbLine
 10
1305.269573874186
 20
512.8172043979564
 11
1305.269573874186
 21
812.8172043979564
  0
LINE
  5
1EA
100
AcDbEntity
  8
escala-1-1
  6
ByLayer
 62
  256
370
   -1
100
AcDbLine
 10
1505.269573874186
 20
742.8172043979564
 11
1505.269573874186
 21
512.8172043979564
  0
LINE
  5
1EB
100
AcDbEntity
  8
escala-1-1
  6
ByLayer
 62
  256
370
   -1
100
AcDbLine
 10
1505.269573874186
 20
512.8172043979564
 11
1305.269573874186
 21
512.8172043979564
  0
DIMENSION
  5
1EC
100
AcDbEntity
  8
layer_dimension
  6
ByLayer
 62
  256
370
   -1
100
AcDbDimension
  2
*D23
 10
1505.269573874186
 20
502.8172043979565
 30
0
 11
1405.269573874186
 21
506.5672043979565
 31
0
 70
   32
 71
    5
  3
Standard
 53
0
210
0
220
0
230
1
100
AcDbAlignedDimension
 13
1305.269573874186
 23
512.8172043979564
 33
0
 14
1505.269573874186
 24
512.8172043979564
 34
0
100
AcDbRotatedDimension
  0
LINE
  5
1ED
100
AcDbEntity
  8
escala-1-1
  6
ByLayer
 62
  256
370
   -1
100
AcDbLine
 10
1305.269573874186
 20
812.8172043979564
 11
1481.269573874186
 21
812.8172043979564
  0
LINE
  5
1EE
100
AcDbEntity
  8
escala-1-1
  6
ByLayer
 62
  256
370
   -1
100
AcDbLine
 10
1481.269573874186
 20
812.8172043979564
 11
1505.269573874186
 21
742.8172043979564
  0
DIMENSION
  5
1EF
100
AcDbEntity
  8
layer_dimension
  6
ByLayer
 62
  256
370
   -1
100
AcDbDimension
  2
*D24
 10
1517.285643998365
 20
746.9369998691033
 30
0
 11
1508.832941295662
 21
783.1532160853196
 31
0
 70
   33
 71
    5
  3
Standard
 53
0
210
0
220
0
230
1
100
AcDbAlignedDimension
 13
1481.269573874186
 23
812.8172043979564
 33
0
 14
1505.269573874186
 24
742.8172043979564
 34
0
  0
DIMENSION
  5
1F0
100
AcDbEntity
  8
layer_dimension
  6
ByLayer
 62
  256
370
   -1
100
AcDbDimension
  2
*D25
 10
1481.269573874186
 20
822.8172043979564
 30
0
 11
1393.269573874186
 21
826.5672043979564
 31
0
 70
   33
 71
    5
  3
Standard
 53
0
210
0
220
0
230
1
100
AcDbAlignedDimension
 13
1305.269573874186
 23
812.8172043979564
 33
0
 14
1481.269573874186
 24
812.8172043979564
 34
0
  0
DIMENSION
  5
1F1
100
AcDbEntity
  8
layer_dimension
  6
ByLayer
 62
  256
370
   -1
100
AcDbDimension
  2
*D26
 10
1515.269573874186
 20
512.8172043979564
 30
0
 11
1511.519573874186
 21
627.8172043979564
 31
0
 70
   32
 71
    5
  3
Standard
 53
0
210
0
220
0
230
1
100
AcDbAlignedDimension
 13
1505.269573874186
 23
742.8172043979564
 33
0
 14
1505.269573874186
 24
512.8172043979564
 34
0
 50
90
100
AcDbRotatedDimension
  0
LINE
  5
1F2
100
AcDbEntity
  8
escala-1-1
  6
ByLayer
 62
  256
370
   -1
100
AcDbLine
 10
1130.269573874186
 20
797.8172043979564
 11
1146.269573874186
 21
797.8172043979564
  0
LINE
  5
1F3
100
AcDbEntity
  8
escala-1-1
  6
ByLayer
 62
  256
370
   -1
100
AcDbLine
 10
1146.269573874186
 20
797.8172043979564
 11
1146.269573874186
 21
757.8172043979564
  0
LINE
  5
1F4
100
AcDbEntity
  8
escala-1-1
  6
ByLayer
 62
  256
370
   -1
100
AcDbLine
 10
1146.269573874186
 20
757.8172043979564
 11
1114.269573874186
 21
757.8172043979564
  0
LINE
  5
1F5
100
AcDbEntity
  8
escala-1-1
  6
ByLayer
 62
  256
370
   -1
100
AcDbLine
 10
1114.269573874186
 20
757.8172043979564
 11
1114.269573874186
 21
797.8172043979564
  0
LINE
  5
1F6
100
AcDbEntity
  8
escala-1-1
  6
ByLayer
 62
  256
370
   -1
100
AcDbLine
 10
1114.269573874186
 20
797.8172043979564
 11
1130.269573874186
 21
797.8172043979564
  0
DIMENSION
  5
1F7
100
AcDbEntity
  8
layer_dimension
  6
ByLayer
 62
  256
370
   -1
100
AcDbDimension
  2
*D27
 10
1155.269573874186
 20
757.8172043979564
 30
0
 11
1151.519573874186
 21
777.8172043979564
 31
0
 70
   32
 71
    5
  3
Standard
 53
0
210
0
220
0
230
1
100
AcDbAlignedDimension
 13
1146.269573874186
 23
797.8172043979564
 33
0
 14
1146.269573874186
 24
757.8172043979564
 34
0
 50
90
100
AcDbRotatedDimension
  0
DIMENSION
  5
1F8
100
AcDbEntity
  8
layer_dimension
  6
ByLayer
 62
  256
370
   -1
100
AcDbDimension
  2
*D28
 10
1146.269573874186
 20
748.8172043979564
 30
0
 11
1130.269573874186
 21
752.5672043979564
 31
0
 70
   32
 71
    5
  3
Standard
 53
0
210
0
220
0
230
1
100
AcDbAlignedDimension
 13
1114.269573874186
 23
757.8172043979564
 33
0
 14
1146.269573874186
 24
757.8172043979564
 34
0
100
AcDbRotatedDimension
  0
LINE
  5
1F9
100
AcDbEntity
  8
escala-1-1
  6
ByLayer
 62
  256
370
   -1
100
AcDbLine
 10
1055.269573874186
 20
412.8172043979565
 11
1205.269573874186
 21
412.8172043979565
  0
LINE
  5
1FA
100
AcDbEntity
  8
escala-1-1
  6
ByLayer
 62
  256
370
   -1
100
AcDbLine
 10
1205.269573874186
 20
412.8172043979565
 11
1205.269573874186
 21
212.8172043979565
  0
LINE
  5
1FB
100
AcDbEntity
  8
escala-1-1
  6
ByLayer
 62
  256
370
   -1
100
AcDbLine
 10
1205.269573874186
 20
212.8172043979565
 11
1055.269573874186
 21
212.8172043979565
  0
LINE
  5
1FC
100
AcDbEntity
  8
escala-1-1
  6
ByLayer
 62
  256
370
   -1
100
AcDbLine
 10
1055.269573874186
 20
212.8172043979565
 11
1055.269573874186
 21
412.8172043979565
  0
LINE
  5
1FD
100
AcDbEntity
  8
escala-1-1
  6
ByLayer
 62
  256
370
   -1
100
AcDbLine
 10
1055.269573874186
 20
236.8172043979565
 11
1205.269573874186
 21
236.8172043979565
  0
DIMENSION
  5
1FE
100
AcDbEntity
  8
layer_dimension
  6
ByLayer
 62
  256
370
   -1
100
AcDbDimension
  2
*D29
 10
1045.269573874186
 20
236.8172043979565
 30
0
 11
1041.519573874186
 21
324.8172043979565
 31
0
 70
   32
 71
    5
  3
Standard
 53
0
210
0
220
0
230
1
100
AcDbAlignedDimension
 13
1055.269573874186
 23
412.8172043979565
 33
0
 14
1055.269573874186
 24
236.8172043979565
 34
0
 50
90
100
AcDbRotatedDimension
  0
DIMENSION
  5
1FF
100
AcDbEntity
  8
layer_dimension
  6
ByLayer
 62
  256
370
   -1
100
AcDbDimension
  2
*D30
 10
1035.269573874186
 20
212.8172043979565
 30
0
 11
1031.519573874186
 21
312.8172043979565
 31
0
 70
   32
 71
    5
  3
Standard
 53
0
210
0
220
0
230
1
100
AcDbAlignedDimension
 13
1055.269573874186
 23
412.8172043979565
 33
0
 14
1055.269573874186
 24
212.8172043979565
 34
0
 50
90
100
AcDbRotatedDimension
  0
DIMENSION
  5
200
100
AcDbEntity
  8
layer_dimension
  6
ByLayer
 62
  256
370
   -1
100
AcDbDimension
  2
*D31
 10
1205.269573874186
 20
202.8172043979565
 30
0
 11
1130.269573874186
 21
206.5672043979565
 31
0
 70
   32
 71
    5
  3
Standard
 53
0
210
0
220
0
230
1
100
AcDbAlignedDimension
 13
1055.269573874186
 23
212.8172043979565
 33
0
 14
1205.269573874186
 24
212.8172043979565
 34
0
100
AcDbRotatedDimension
  0
CIRCLE
  5
201
100
AcDbEntity
  8
escala-1-1
  6
ByLayer
 62
  256
370
   -1
100
AcDbCircle
 10
1130.269573874186
 20
717.8172043979564
 40
1.5
  0
LINE
  5
202
100
AcDbEntity
  8
escala-1-1
  6
ByLayer
 62
  256
370
   -1
100
AcDbLine
 10
1130.269573874186
 20
692.788566913363
 11
1133.519573874186
 21
692.788566913363
  0
LINE
  5
203
100
AcDbEntity
  8
escala-1-1
  6
ByLayer
 62
  256
370
   -1
100
AcDbLine
 10
1133.519573874186
 20
692.788566913363
 11
1133.519573874186
 21
656.788566913363
  0
LINE
  5
204
100
AcDbEntity
  8
escala-1-1
  6
ByLayer
 62
  256
370
   -1
100
AcDbLine
 10
1133.519573874186
 20
656.788566913363
 11
1127.019573874186
 21
656.788566913363
  0
LINE
  5
205
100
AcDbEntity
  8
escala-1-1
  6
ByLayer
 62
  256
370
   -1
100
AcDbLine
 10
1127.019573547278
 20
656.7885668789667
 11
1127.019573547278
 21
692.7885668789667
  0
LINE
  5
206
100
AcDbEntity
  8
escala-1-1
  6
ByLayer
 62
  256
370
   -1
100
AcDbLine
 10
1127.019573547278
 20
692.7885668789667
 11
1133.519573874186
 21
692.788566913363
  0
LINE
  5
207
100
AcDbEntity
  8
escala-1-1
  6
ByLayer
 62
  256
370
   -1
100
AcDbLine
 10
1130.269573874186
 20
626.788566913363
 11
1134.269573874186
 21
626.788566913363
  0
LINE
  5
208
100
AcDbEntity
  8
escala-1-1
  6
ByLayer
 62
  256
370
   -1
100
AcDbLine
 10
1134.269573874186
 20
626.788566913363
 11
1134.269573874186
 21
589.788566913363
  0
LINE
  5
209
100
AcDbEntity
  8
escala-1-1
  6
ByLayer
 62
  256
370
   -1
100
AcDbLine
 10
1134.269573874186
 20
589.788566913363
 11
1126.269573874186
 21
589.788566913363
  0
LINE
  5
20A
100
AcDbEntity
  8
escala-1-1
  6
ByLayer
 62
  256
370
   -1
100
AcDbLine
 10
1126.269573874186
 20
589.788566913363
 11
1126.269573874186
 21
626.788566913363
  0
LINE
  5
20B
100
AcDbEntity
  8
escala-1-1
  6
ByLayer
 62
  256
370
   -1
100
AcDbLine
 10
1126.269573874186
 20
626.788566913363
 11
1130.269573874186
 21
626.788566913363
  0
DIMENSION
  5
20C
100
AcDbEntity
  8
layer_dimension
  6
ByLayer
 62
  256
370
   -1
100
AcDbDimension
  2
*D32
 10
1115.233260910008
 20
589.788566913363
 30
0
 11
1111.483260910008
 21
608.288566913363
 31
0
 70
   32
 71
    5
  3
Standard
 53
0
210
0
220
0
230
1
100
AcDbAlignedDimension
 13
1126.269573874186
 23
626.788566913363
 33
0
 14
1126.269573874186
 24
589.788566913363
 34
0
 50
90
100
AcDbRotatedDimension
  0
DIMENSION
  5
20D
100
AcDbEntity
  8
layer_dimension
  6
ByLayer
 62
  256
370
   -1
100
AcDbDimension
  2
*D33
 10
1115.233260910008
 20
692.7885668789667
 30
0
 11
1111.483260910008
 21
674.7885668961649
 31
0
 70
   32
 71
    5
  3
Standard
 53
0
210
0
220
0
230
1
100
AcDbAlignedDimension
 13
1127.233260910008
 23
656.788566913363
 33
0
 14
1127.019573547278
 24
692.7885668789667
 34
0
 50
90
100
AcDbRotatedDimension
  0
DIMENSION
  5
20E
100
AcDbEntity
  8
layer_dimension
  6
ByLayer
 62
  256
370
   -1
100
AcDbDimension
  2
*D34
 10
1133.519573874186
 20
702.788566913363
 30
0
 11
1130.269573710732
 21
706.538566913363
 31
0
 70
   32
 71
    5
  3
Standard
 53
0
210
0
220
0
230
1
100
AcDbAlignedDimension
 13
1127.019573547278
 23
692.7885668789667
 33
0
 14
1133.519573874186
 24
692.788566913363
 34
0
100
AcDbRotatedDimension
  0
DIMENSION
  5
20F
100
AcDbEntity
  8
layer_dimension
  6
ByLayer
 62
  256
370
   -1
100
AcDbDimension
  2
*D35
 10
1134.269573874186
 20
582.788566913363
 30
0
 11
1130.269573874186
 21
586.538566913363
 31
0
 70
   32
 71
    5
  3
Standard
 53
0
210
0
220
0
230
1
100
AcDbAlignedDimension
 13
1126.269573874186
 23
589.788566913363
 33
0
 14
1134.269573874186
 24
589.788566913363
 34
0
100
AcDbRotatedDimension
  0
DIMENSION
  5
210
100
AcDbEntity
  8
layer_dimension
  6
ByLayer
 62
  256
370
   -1
100
AcDbDimension
  2
*D36
 10
1115.233260910008
 20
626.788566913363
 30
0
 11
1111.483260910008
 21
641.788566913363
 31
0
 70
   32
 71
    5
  3
Standard
 53
0
210
0
220
0
230
1
100
AcDbAlignedDimension
 13
1130.233260910008
 23
656.788566913363
 33
0
 14
1130.233260910008
 24
626.788566913363
 34
0
 50
90
100
AcDbRotatedDimension
  0
ENDSEC
  0
SECTION
  2
OBJECTS
  0
DICTIONARY
  5
C
330
0
100
AcDbDictionary
281
    1
  3
ACAD_GROUP
350
D
  0
DICTIONARY
  5
D
330
C
100
AcDbDictionary
281
    1
  0
ENDSEC
  0
EOF
