<?xml version="1.0" encoding="UTF-8" standalone="no"?>
<svg
   xmlns:dc="http://purl.org/dc/elements/1.1/"
   xmlns:cc="http://creativecommons.org/ns#"
   xmlns:rdf="http://www.w3.org/1999/02/22-rdf-syntax-ns#"
   xmlns:svg="http://www.w3.org/2000/svg"
   xmlns="http://www.w3.org/2000/svg"
   id="svg1438"
   version="1.1"
   viewBox="0 0 86.727997 86.727997"
   height="86.727997mm"
   width="86.727997mm">
  <defs
     id="defs1432">
    <style
       id="style2">.cls-1{fill:#ff9000;}.cls-2{fill:#fff;}.cls-3{fill:#ffba00;}.cls-4{font-size:260px;letter-spacing:-0.03em;}.cls-4,.cls-7{fill:#4e4e4e;font-family:Ubuntu-BoldItalic, Ubuntu;font-style:italic;}.cls-4,.cls-8,.cls-9{font-weight:700;}.cls-5{letter-spacing:-0.04em;}.cls-6{letter-spacing:-0.05em;}.cls-7{font-size:57px;}.cls-12,.cls-9{letter-spacing:0.01em;}.cls-10,.cls-11,.cls-12,.cls-13,.cls-14{font-family:Ubuntu-LightItalic, Ubuntu;}.cls-10{letter-spacing:-0.02em;}.cls-11{letter-spacing:-0.02em;}.cls-13{letter-spacing:-0.01em;}.cls-14{letter-spacing:0.01em;}</style>
  </defs>
  <metadata
     id="metadata1435">
    <rdf:RDF>
      <cc:Work
         rdf:about="">
        <dc:format>image/svg+xml</dc:format>
        <dc:type
           rdf:resource="http://purl.org/dc/dcmitype/StillImage" />
        <dc:title></dc:title>
      </cc:Work>
    </rdf:RDF>
  </metadata>
  <path
     style="opacity:1;fill:#000000;fill-opacity:1;stroke:none;stroke-width:2.84647489;stroke-miterlimit:4;stroke-dasharray:none;stroke-opacity:1"
     d="M 32.591089,1.2908107 A 43.363999,43.363999 0 0 0 1.0148845,53.862425 43.363999,43.363999 0 0 0 53.586624,85.439134 43.363999,43.363999 0 0 0 85.163209,32.86689 43.363999,43.363999 0 0 0 32.591089,1.2908107 Z m 3.60667,15.5012023 4.899797,-0.0028 -0.001,7.887629 c 1.310359,-0.02723 2.626382,-0.05355 3.914449,-0.05424 l -8.43e-4,-7.841883 4.902934,-9.78e-4 -0.0063,8.0567 c 6.329357,0.552949 11.345032,2.498794 11.90285,8.306513 0.416246,4.249837 -1.361024,6.801673 -4.202014,8.249272 4.678481,1.122593 7.612309,3.902798 7.035286,10.135624 -0.715688,7.742325 -6.486832,9.81624 -14.727743,10.294966 l -9.04e-4,8.131529 -4.902933,9.79e-4 -9.02e-4,-8.023493 c -1.276932,0.003 -2.57056,-0.0083 -3.915536,-0.0355 l 0.0021,8.060469 -4.910576,-0.0083 -0.0035,-8.149076 c -1.145768,-0.0086 -2.314937,-0.027 -3.50093,-0.02819 l -6.379745,0.01437 0.973557,-5.855517 c 0,0 3.628203,0.05411 3.564493,-0.0011 1.387679,-0.0021 1.754025,-1.000399 1.842785,-1.624597 l -1.99e-4,-12.855481 0.525025,-0.0026 a 3.8033055,3.8033055 0 0 0 -0.518108,-0.03372 L 32.687,32.235436 c -0.199967,-1.001751 -0.83775,-2.157133 -2.828022,-2.136404 0.05941,-0.06741 -3.561861,0.0031 -3.561861,0.0031 l 0.0073,-5.23895 6.764639,-3e-6 0.006,0.02454 c 1.017095,-0.0013 2.060824,-0.02261 3.123088,-0.04316 z m 5.009141,13.648795 7.43e-4,9.790196 c 2.767931,-0.0016 11.463077,0.644723 11.463797,-4.894848 -0.0034,-5.777759 -8.699055,-4.896541 -11.464511,-4.895348 z m 4.45e-4,14.730731 9.2e-4,10.794116 c 3.32226,-0.0032 13.747479,0.687072 13.745356,-5.401263 -0.0013,-6.348801 -10.42026,-5.391929 -13.74623,-5.392853 z"
     id="path845" />
  <rect
     style="opacity:1;fill:#ff0000;fill-opacity:1;stroke:none;stroke-width:2.84555221;stroke-miterlimit:4;stroke-dasharray:8.53665752, 8.53665752;stroke-dashoffset:0;stroke-opacity:1"
     id="rect816"
     width="1.5"
     height="40"
     x="41.096199"
     y="22.826725" />
</svg>
